<?xml version="1.0" standalone="no"?>
<!DOCTYPE svg PUBLIC "-//W3C//DTD SVG 1.1//EN" "http://www.w3.org/Graphics/SVG/1.1/DTD/svg11.dtd" >
<svg xmlns="http://www.w3.org/2000/svg" xmlns:xlink="http://www.w3.org/1999/xlink" version="1.1">
<metadata>
Created by FontForge 20170731 at Tue Sep  1 20:27:47 2020
 By Aleksey,,,
2010 published by FontShop International GmbH
</metadata>
<defs>
<font id="GoodOT-CondBold" horiz-adv-x="2" >
  <font-face 
    font-family="GoodOT-CondBold"
    font-weight="700"
    font-stretch="condensed"
    units-per-em="2048"
    panose-1="2 11 8 6 2 1 1 2 1 2"
    ascent="1673"
    descent="-375"
    x-height="1047"
    cap-height="1485"
    bbox="-979 -408 2054 1851"
    underline-thickness="163"
    underline-position="-347"
    unicode-range="U+000D-FEFF"
  />
<missing-glyph horiz-adv-x="839" 
d="M465 553l8 106q87 58 135.5 128.5t48.5 164.5q0 98 -61 163t-180 65q-102 0 -171 -60t-98 -164l138 -41q17 61 45 87t73 26q80 0 80 -92q0 -143 -159 -213l12 -170h129zM315 469v-190h177v190h-177zM37 0v1485h735v-1485h-735z" />
    <glyph glyph-name="f_f" unicode="ff" horiz-adv-x="978" 
d="M958 1044v-186h-161v-858h-232v858h-225v-858h-231v858h-89v186h89v86q0 78 21.5 141.5t65.5 113.5t118.5 78t174.5 30l11 -178q-92 -4 -131 -51t-39 -140v-80h235v86q0 78 21.5 141.5t66 113.5t119 78t174.5 30l10 -178q-92 -4 -131 -51t-39 -140v-80h172z" />
    <glyph glyph-name="f_f_i" unicode="ffi" horiz-adv-x="1343" 
d="M944 1493l10 -178q-92 -4 -131 -51t-39 -140v-80h465v-1044h-229v858h-225v-858h-232v858h-223v-858h-231v858h-89v186h89v86q0 78 21.5 141.5t65.5 113.5t118.5 78t174.5 30l11 -178q-92 -4 -131 -51t-39 -140v-80h233v86q0 78 21.5 141.5t66 113.5t119 78t174.5 30z
M1040 1485h201v-260h-201v260z" />
    <glyph glyph-name="f_f_j" unicode="ffj" horiz-adv-x="1320" 
d="M1249 1044v-983q0 -373 -340 -391l-14 189q65 9 95 54t30 146v799h-225v-858h-232v858h-223v-858h-231v858h-89v186h89v86q0 78 21.5 141.5t65.5 113.5t118.5 78t174.5 30l11 -178q-92 -4 -131 -51t-39 -140v-80h233v86q0 78 21.5 141.5t66 113.5t119 78t174.5 30
l10 -178q-92 -4 -131 -51t-39 -140v-80h465zM1040 1485h201v-260h-201v260z" />
    <glyph glyph-name="f_f_l" unicode="ffl" horiz-adv-x="1363" 
d="M563 1044v86q0 166 97.5 263.5t306.5 97.5h67v39h230v-1530h-230v1315h-63q-99 -1 -143 -47t-44 -144v-80h154v-186h-143v-858h-232v858h-223v-858h-231v858h-89v186h89v86q0 78 21.5 141.5t65.5 113.5t118.5 78t174.5 30l11 -178q-92 -4 -131 -51t-39 -140v-80h233z" />
    <glyph glyph-name="f_i" unicode="fi" horiz-adv-x="888" 
d="M489 1493l11 -178q-92 -4 -131 -51t-39 -140v-80h465v-1044h-230v858h-225v-858h-231v858h-89v186h89v86q0 78 21.5 141.5t65.5 113.5t118.5 78t174.5 30zM586 1485h200v-260h-200v260z" />
    <glyph glyph-name="f_j" unicode="fj" horiz-adv-x="866" 
d="M795 1044v-983q0 -373 -340 -391l-15 189q65 9 95 54t30 146v799h-225v-858h-231v858h-89v186h89v86q0 78 21.5 141.5t65.5 113.5t118.5 78t174.5 30l11 -178q-92 -4 -131 -51t-39 -140v-80h465zM586 1485h200v-260h-200v260z" />
    <glyph glyph-name="f_l" unicode="fl" horiz-adv-x="909" 
d="M481 1044v-188h-141v-856h-231v856h-89v188h89v86q0 80 22 144t68.5 113.5t125.5 76.5t187 27h68v39h229v-1530h-229v1315h-66q-98 -1 -141 -47t-43 -144v-80h151z" />
    <glyph glyph-name=".notdef" horiz-adv-x="839" 
d="M465 553l8 106q87 58 135.5 128.5t48.5 164.5q0 98 -61 163t-180 65q-102 0 -171 -60t-98 -164l138 -41q17 61 45 87t73 26q80 0 80 -92q0 -143 -159 -213l12 -170h129zM315 469v-190h177v190h-177zM37 0v1485h735v-1485h-735z" />
    <glyph glyph-name=".null" horiz-adv-x="0" 
 />
    <glyph glyph-name=".null" horiz-adv-x="0" 
 />
    <glyph glyph-name="nonmarkingreturn" horiz-adv-x="682" 
 />
    <glyph glyph-name="CR" unicode="&#xd;" horiz-adv-x="313" 
 />
    <glyph glyph-name="space" unicode=" " horiz-adv-x="313" 
 />
    <glyph glyph-name="exclam" unicode="!" horiz-adv-x="419" 
d="M90 1485h232v-621l-21 -418h-188l-23 412v627zM86 0v270h246v-270h-246z" />
    <glyph glyph-name="quotedbl" unicode="&#x22;" horiz-adv-x="604" 
d="M332 1214v271h188v-271l-49 -217h-94zM74 1214v271h188v-271l-49 -217h-94z" />
    <glyph glyph-name="numbersign" unicode="#" horiz-adv-x="894" 
d="M61 909v168h156l27 408h166l-27 -408h160l26 408h164l-26 -408h127v-168h-129l-19 -323h148v-170h-152l-29 -416h-164l27 416h-158l-28 -416h-166l29 416h-132v170h136l16 323h-152zM379 909l-19 -323h160l19 323h-160z" />
    <glyph glyph-name="dollar" unicode="$" horiz-adv-x="833" 
d="M383 1673h137l4 -186q95 -33 157 -117t87 -205l-160 -51q-30 132 -104 170l-25 -424q54 -39 86.5 -65t77.5 -72t70.5 -90t44 -107.5t18.5 -134.5q0 -168 -81 -275.5t-218 -129.5l-24 -187h-138l-4 193q-107 26 -175 113.5t-93 232.5l172 55q28 -147 115 -186l26 444
q-41 29 -63 45.5t-59 47.5t-58 55.5t-48 62t-41 74.5t-24 85t-10 101q0 154 80.5 257.5t222.5 121.5zM580 356q0 112 -109 211v-372q109 24 109 161zM256 1151q0 -108 104 -205v350q-104 -22 -104 -145z" />
    <glyph glyph-name="percent" unicode="%" horiz-adv-x="1058" 
d="M510 1217v-101q0 -140 -58 -213.5t-171 -73.5q-115 0 -173.5 73.5t-58.5 213.5v101q0 139 59 213.5t173 74.5q113 0 171 -74.5t58 -213.5zM213 1214v-98q0 -74 16 -102.5t52 -28.5t51.5 28t15.5 103v98q0 73 -15.5 101t-51.5 28t-52 -28t-16 -101zM82 0l717 1485h174
l-717 -1485h-174zM1014 358v-100q0 -139 -58.5 -212t-171.5 -73q-115 0 -173 73t-58 212v100q0 141 58.5 216t172.5 75q113 0 171.5 -75t58.5 -216zM717 358v-98q0 -76 14.5 -103.5t52.5 -27.5q37 0 52.5 28t15.5 103v98q0 73 -16 101t-52 28q-37 0 -52 -27.5t-15 -101.5z
" />
    <glyph glyph-name="ampersand" unicode="&#x26;" horiz-adv-x="1024" 
d="M780 1214l-164 -86q-63 175 -153 175q-92 0 -92 -115q0 -83 41 -156l266 -461q20 126 20 293v49h291v-196h-115q-12 -204 -67 -365q82 -122 215 -149l-31 -219q-180 21 -297 151q-121 -153 -305 -153q-161 0 -258.5 109t-97.5 339q0 141 54 262t151 199q-88 148 -88 289
q0 66 18.5 123.5t54.5 102.5t95 71t135 26q124 0 201 -71t126 -218zM422 186q96 0 164 117l-236 399q-82 -115 -82 -270q0 -133 38.5 -189.5t115.5 -56.5z" />
    <glyph glyph-name="quotesingle" unicode="'" horiz-adv-x="325" 
d="M68 1214v271h188v-271l-49 -217h-94z" />
    <glyph glyph-name="parenleft" unicode="(" horiz-adv-x="479" 
d="M94 309v746q0 329 90.5 472.5t288.5 143.5h45v-174h-45q-43 0 -75 -22t-57.5 -71t-38.5 -137t-13 -212v-746q0 -162 24 -263t63.5 -140t96.5 -39h45v-172h-45q-198 0 -288.5 142.5t-90.5 471.5z" />
    <glyph glyph-name="parenright" unicode=")" horiz-adv-x="479" 
d="M385 1055v-746q0 -221 -41 -356.5t-123 -196.5t-213 -61h-47v174h47q42 0 73.5 22t57 71.5t38.5 136.5t13 210v746q0 124 -13 212t-38.5 137t-57 71t-73.5 22h-47v174h47q196 0 286.5 -143.5t90.5 -472.5z" />
    <glyph glyph-name="asterisk" unicode="*" horiz-adv-x="591" 
d="M240 1427l-21 189h139l-20 -189l166 80l43 -145l-176 -39l121 -135l-113 -88l-92 157l-88 -157l-113 90l119 133l-174 39l43 145z" />
    <glyph glyph-name="plus" unicode="+" horiz-adv-x="772" 
d="M297 209v330h-223v186h223v330h174v-330h229v-186h-229v-330h-174z" />
    <glyph glyph-name="comma" unicode="," horiz-adv-x="376" 
d="M68 0v254h243v-193q0 -146 -53.5 -230.5t-181.5 -94.5l-8 117q55 9 74.5 40t21.5 107h-96z" />
    <glyph glyph-name="hyphen" unicode="-" horiz-adv-x="471" 
d="M45 496v215h381v-215h-381z" />
    <glyph glyph-name="period" unicode="." horiz-adv-x="376" 
d="M66 0v270h245v-270h-245z" />
    <glyph glyph-name="slash" unicode="/" horiz-adv-x="530" 
d="M-37 -174l408 1698h178l-410 -1698h-176z" />
    <glyph glyph-name="zero" unicode="0" horiz-adv-x="899" 
d="M827 1044v-604q0 -220 -97 -340t-281 -120t-280.5 120t-96.5 340v602q0 222 96.5 342.5t280.5 120.5t281 -120.5t97 -340.5zM307 1044v-604q0 -133 33 -186t109 -53t109.5 53t33.5 186v604q0 129 -34 181.5t-109 52.5t-108.5 -52.5t-33.5 -181.5z" />
    <glyph glyph-name="one" unicode="1" horiz-adv-x="641" 
d="M301 1491h193v-1491h-250v1053h-228v186h99q68 0 102.5 19t54 72t29.5 161z" />
    <glyph glyph-name="two" unicode="2" horiz-adv-x="854" 
d="M440 1505q119 0 200.5 -50.5t118 -133.5t36.5 -193q0 -94 -22.5 -177.5t-60 -146.5t-83 -120.5t-93.5 -111t-90 -106t-75 -117.5t-45 -134h471v-215h-727l-4 117q3 96 32 187t72 163t94.5 140.5t102 131t92.5 122t68 126t26 131.5q0 84 -32 124t-99 40q-64 0 -108.5 -55
t-61.5 -168l-191 57q32 178 127.5 283.5t251.5 105.5z" />
    <glyph glyph-name="three" unicode="3" horiz-adv-x="851" 
d="M289 662v202h88q78 0 116.5 49t38.5 164q0 113 -31.5 160t-97.5 47q-65 0 -104.5 -45.5t-62.5 -151.5l-185 58q31 170 127.5 265t245.5 95q175 0 263.5 -107.5t88.5 -283.5q0 -266 -160 -340v-4q179 -53 179 -332q0 -237 -99.5 -347.5t-279.5 -110.5q-309 0 -373 337
l182 58q44 -180 176 -180q76 0 111 61t35 195q0 119 -40.5 165t-123.5 46h-94z" />
    <glyph glyph-name="four" unicode="4" horiz-adv-x="878" 
d="M743 0h-217v270h-506v168l486 1047h237v-1008h125l-16 -207h-109v-270zM256 477h272l15 692h-4z" />
    <glyph glyph-name="five" unicode="5" horiz-adv-x="856" 
d="M233 662l-153 65l45 758h639l-16 -232h-429l-20 -354h4q87 51 186 51q316 0 316 -456q0 -266 -95.5 -390t-293.5 -124q-143 0 -238 84t-123 255l187 58q41 -182 164 -182q86 0 119.5 66t33.5 231q0 130 -39.5 183.5t-126.5 53.5q-46 0 -89 -18t-71 -49z" />
    <glyph glyph-name="six" unicode="6" horiz-adv-x="874" 
d="M457 1505q134 0 223 -85.5t121 -254.5l-176 -63q-21 99 -58.5 139.5t-97.5 40.5q-162 0 -162 -242v-170h4q74 68 199 68q158 0 234.5 -108t76.5 -328q0 -522 -377 -522q-182 0 -277 119.5t-95 334.5v580q0 218 104.5 354.5t280.5 136.5zM453 719q-65 0 -104 -26t-42 -72
v-209q0 -105 37.5 -156t104.5 -51q71 0 103 65t32 226q0 122 -30.5 172.5t-100.5 50.5z" />
    <glyph glyph-name="seven" unicode="7" horiz-adv-x="804" 
d="M381 0h-260l409 1253h-503v232h755v-201z" />
    <glyph glyph-name="eight" unicode="8" horiz-adv-x="878" 
d="M440 -20q-96 0 -165 23t-120 75.5t-76.5 143t-25.5 220.5q0 266 158 342v4q-133 75 -133 326q0 391 362 391q361 0 361 -391q0 -251 -135 -326v-4q159 -76 159 -342q0 -130 -25.5 -220.5t-76.5 -143t-119.5 -75.5t-163.5 -23zM588 451q0 127 -35.5 174t-112.5 47
q-78 0 -113.5 -47t-35.5 -174q0 -102 17 -158.5t48 -77t84 -20.5q78 0 113 53t35 203zM440 1294q-75 0 -106 -43.5t-31 -163.5q0 -130 30 -174.5t107 -44.5q51 0 78.5 17t42 65t14.5 137q0 120 -31 163.5t-104 43.5z" />
    <glyph glyph-name="nine" unicode="9" horiz-adv-x="874" 
d="M233 383q27 -101 68.5 -141.5t110.5 -40.5q78 0 116.5 51t38.5 160v245h-4q-67 -67 -184 -67q-326 0 -326 436q0 241 99 360t288 119q177 0 270 -116.5t93 -309.5v-655q0 -208 -101.5 -325t-279.5 -117q-290 0 -356 323zM426 797q56 0 98.5 29t42.5 85v179
q0 102 -32.5 147t-102.5 45q-73 0 -107 -55.5t-34 -192.5q0 -138 32 -187.5t103 -49.5z" />
    <glyph glyph-name="colon" unicode=":" horiz-adv-x="376" 
d="M66 735v271h245v-271h-245zM66 0v270h245v-270h-245z" />
    <glyph glyph-name="semicolon" unicode=";" horiz-adv-x="376" 
d="M66 735v271h245v-271h-245zM68 0v254h243v-193q0 -146 -53.5 -230.5t-181.5 -94.5l-8 117q55 9 74.5 40t21.5 107h-96z" />
    <glyph glyph-name="less" unicode="&#x3c;" horiz-adv-x="772" 
d="M662 852l-291 -211l293 -213v-250l-586 451v22l584 453v-252z" />
    <glyph glyph-name="equal" unicode="=" horiz-adv-x="772" 
d="M676 676h-580v186h580v-186zM676 369h-580v186h580v-186z" />
    <glyph glyph-name="greater" unicode="&#x3e;" horiz-adv-x="772" 
d="M109 428l292 213l-290 211v252l583 -453v-22l-585 -451v250z" />
    <glyph glyph-name="question" unicode="?" horiz-adv-x="819" 
d="M27 1145q37 167 136.5 263.5t254.5 96.5q72 0 130.5 -18.5t99 -51.5t68 -78.5t40 -98.5t12.5 -113q0 -155 -72.5 -295t-203.5 -229l-13 -179h-174l-14 295q244 137 244 389q0 164 -134 164q-69 0 -114.5 -46.5t-69.5 -151.5zM268 0v270h246v-270h-246z" />
    <glyph glyph-name="at" unicode="@" horiz-adv-x="1298" 
d="M946 885h-37l-30 -428q0 -6 -1 -31.5t-1 -30.5q0 -92 69 -92q37 0 61 19.5t40 81.5t16 171v330q0 432 -397 432q-205 0 -317.5 -130t-112.5 -343v-524q0 -243 118 -368.5t326 -125.5q136 0 225 39.5t164 124.5l127 -90q-203 -242 -518 -242q-293 0 -452.5 172.5
t-159.5 487.5v526q0 136 39.5 253t113.5 204.5t189 137.5t258 50q139 0 247.5 -45.5t177 -127t103.5 -191t35 -240.5v-327q0 -232 -77 -342.5t-212 -110.5q-127 0 -182 84q-83 -92 -209 -92q-107 0 -162 81t-55 230q0 300 108.5 458t311.5 158h200zM688 377l29 483h-12
q-170 0 -170 -424q0 -79 15 -107t48 -28q61 0 90 76z" />
    <glyph glyph-name="A" unicode="A" horiz-adv-x="985" 
d="M328 334l-62 -334h-254l332 1485h297l332 -1485h-260l-62 334h-323zM487 1225l-122 -690h249l-122 690h-5z" />
    <glyph glyph-name="B" unicode="B" horiz-adv-x="946" 
d="M846 1094q0 -128 -37.5 -204.5t-120.5 -111.5v-4q103 -30 154 -118.5t51 -225.5q0 -106 -18.5 -182t-61 -133.5t-117.5 -86t-184 -28.5h-408v1485h363q193 0 286 -104t93 -287zM352 657v-432h150q77 0 108 46.5t31 172.5q0 127 -30 170t-107 43h-152zM352 1253v-393h125
q76 0 104.5 47t28.5 158q0 107 -29.5 147.5t-103.5 40.5h-125z" />
    <glyph glyph-name="C" unicode="C" horiz-adv-x="858" 
d="M459 1505q143 0 239 -94t121 -250l-192 -59q-17 91 -53.5 133.5t-96.5 42.5q-149 0 -149 -227v-641q0 -211 147 -211q64 0 98.5 43t51.5 147l196 -59q-27 -182 -117.5 -266t-248.5 -84q-178 0 -280.5 116t-102.5 312v643q0 213 104 333.5t283 120.5z" />
    <glyph glyph-name="D" unicode="D" horiz-adv-x="1001" 
d="M104 1485h408q198 0 308 -123.5t110 -343.5v-551q0 -220 -110 -343.5t-308 -123.5h-408v1485zM674 1006q0 136 -38.5 191.5t-123.5 55.5h-154v-1028h154q86 0 124 55t38 193v533z" />
    <glyph glyph-name="E" unicode="E" horiz-adv-x="831" 
d="M104 1485h666v-236h-412v-377h318v-208h-318v-433h430v-231h-684v1485z" />
    <glyph glyph-name="F" unicode="F" horiz-adv-x="823" 
d="M104 1485h674v-236h-420v-395h363v-221h-363v-633h-254v1485z" />
    <glyph glyph-name="G" unicode="G" horiz-adv-x="958" 
d="M492 1505q154 0 257 -90t132 -256l-195 -59q-25 95 -68.5 136.5t-107.5 41.5q-95 0 -139.5 -63t-44.5 -201v-563q0 -240 180 -240q51 0 86 20t65 68v266h-125v185h349v-750h-207v84q-91 -104 -240 -104q-168 0 -265 118.5t-97 350.5v567q0 227 106 358t314 131z" />
    <glyph glyph-name="H" unicode="H" horiz-adv-x="1009" 
d="M104 1485h254v-602h293v602h254v-1485h-254v647h-293v-647h-254v1485z" />
    <glyph glyph-name="I" unicode="I" horiz-adv-x="499" 
d="M123 1485h254v-1485h-254v1485z" />
    <glyph glyph-name="J" unicode="J" horiz-adv-x="491" 
d="M133 1485h256v-1254q0 -244 -115.5 -369.5t-336.5 -131.5l-21 213q113 0 165 64.5t52 215.5v1262z" />
    <glyph glyph-name="K" unicode="K" horiz-adv-x="968" 
d="M965 0h-275l-256 637l-82 -166v-471h-248v1485h248v-709l307 709h281l-340 -658z" />
    <glyph glyph-name="L" unicode="L" horiz-adv-x="778" 
d="M104 1485h248v-1247h396v-238h-644v1485z" />
    <glyph glyph-name="M" unicode="M" horiz-adv-x="1300" 
d="M961 1485h235v-1485h-229v872h-4l-256 -639h-115l-254 639h-4v-872h-230v1485h236l307 -875h4z" />
    <glyph glyph-name="N" unicode="N" horiz-adv-x="1009" 
d="M104 1485h187l387 -846h4v846h223v-1485h-172l-401 879h-4v-879h-224v1485z" />
    <glyph glyph-name="O" unicode="O" horiz-adv-x="968" 
d="M483 1505q202 0 308 -120.5t106 -342.5v-598q0 -223 -106 -343.5t-308 -120.5q-201 0 -306 120.5t-105 343.5v596q0 223 105 344t306 121zM643 444v596q0 130 -37.5 184t-120.5 54t-121 -54t-38 -182v-598q0 -132 37 -187.5t120 -55.5q84 0 122 55.5t38 187.5z" />
    <glyph glyph-name="P" unicode="P" horiz-adv-x="923" 
d="M510 1485q179 0 275 -122.5t96 -352.5q0 -226 -93.5 -348.5t-265.5 -122.5h-164v-539h-254v1485h406zM358 1257v-509h144q67 0 96 59.5t29 200.5t-28.5 195t-96.5 54h-144z" />
    <glyph glyph-name="Q" unicode="Q" horiz-adv-x="968" 
d="M483 1505q202 0 308 -120.5t106 -342.5v-598q0 -171 -62.5 -282.5t-183.5 -155.5l174 -239l-217 -80l-164 295q-183 10 -277.5 129.5t-94.5 332.5v596q0 223 105 344t306 121zM643 444v596q0 130 -37.5 184t-120.5 54t-121 -54t-38 -182v-598q0 -132 37 -187.5t120 -55.5
q84 0 122 55.5t38 187.5z" />
    <glyph glyph-name="R" unicode="R" horiz-adv-x="940" 
d="M657 0l-196 608h-103v-608h-254v1485h390q370 0 370 -424q0 -312 -180 -389l242 -672h-269zM358 1257v-442h121q76 0 104.5 50t28.5 175q0 127 -29.5 172t-103.5 45h-121z" />
    <glyph glyph-name="S" unicode="S" horiz-adv-x="823" 
d="M399 1505q294 0 377 -329l-184 -70q-21 95 -62 137.5t-104 42.5q-133 0 -133 -151q0 -54 27 -101.5t70.5 -85.5t96.5 -77t105.5 -84.5t96 -98t70.5 -128t27 -165.5q0 -198 -99.5 -306.5t-272.5 -108.5q-145 0 -251.5 94.5t-133.5 261.5l200 61q21 -104 68.5 -152
t110.5 -48q70 0 103.5 38.5t33.5 120.5q0 63 -28 117t-72 95t-98 80.5t-108 84.5t-98 96t-72 125t-28 162q0 169 96.5 279t261.5 110z" />
    <glyph glyph-name="T" unicode="T" horiz-adv-x="802" 
d="M20 1485h762v-236h-254v-1249h-254v1249h-254v236z" />
    <glyph glyph-name="U" unicode="U" horiz-adv-x="1003" 
d="M659 1485h254v-1049q0 -222 -106 -339t-305 -117t-306.5 114.5t-107.5 331.5v1059h256v-1059q0 -205 158 -205q79 0 118 47t39 158v1059z" />
    <glyph glyph-name="V" unicode="V" horiz-adv-x="976" 
d="M973 1485l-348 -1485h-275l-344 1485h273l208 -1141h5l206 1141h275z" />
    <glyph glyph-name="W" unicode="W" horiz-adv-x="1505" 
d="M1481 1485l-275 -1485h-280l-170 997h-4l-172 -997h-281l-272 1485h254l165 -1120h5l184 1120h237l183 -1127h4l170 1127h252z" />
    <glyph glyph-name="X" unicode="X" horiz-adv-x="954" 
d="M18 0l293 758l-284 727h272l178 -563h4l174 563h271l-285 -740l295 -745h-270l-191 575h-4l-184 -575h-269z" />
    <glyph glyph-name="Y" unicode="Y" horiz-adv-x="940" 
d="M938 1485l-342 -1039v-446h-254v453l-340 1032h277l190 -744h4l189 744h276z" />
    <glyph glyph-name="Z" unicode="Z" horiz-adv-x="849" 
d="M788 233v-233h-735v158l467 1093h-442v234h715v-160l-459 -1092h454z" />
    <glyph glyph-name="bracketleft" unicode="[" horiz-adv-x="471" 
d="M109 -305v1976h444v-174h-234v-1628h234v-174h-444z" />
    <glyph glyph-name="backslash" unicode="\" horiz-adv-x="544" 
d="M135 1524l410 -1698h-176l-410 1698h176z" />
    <glyph glyph-name="bracketright" unicode="]" horiz-adv-x="475" 
d="M367 1671v-1976h-451v180h236v1616h-236v180h451z" />
    <glyph glyph-name="asciicircum" unicode="^" horiz-adv-x="763" 
d="M74 1079l225 453h170l223 -453h-178l-127 275h-4l-131 -275h-178z" />
    <glyph glyph-name="underscore" unicode="_" horiz-adv-x="669" 
d="M0 -90h670v-170h-670v170z" />
    <glyph glyph-name="grave" unicode="`" horiz-adv-x="456" 
d="M-18 1485h249l99 -291h-166z" />
    <glyph glyph-name="a" unicode="a" horiz-adv-x="776" 
d="M227 735l-153 68q39 123 118 193.5t199 70.5q149 0 220 -88.5t71 -241.5v-522q0 -63 53 -63h23v-146q-52 -18 -103 -18q-105 0 -159 75q-79 -79 -205 -79q-113 0 -179.5 80.5t-66.5 209.5q0 71 20 130.5t61.5 107.5t114.5 75t171 27h41v123q0 75 -23.5 106t-71.5 31
q-88 0 -131 -139zM348 156q63 0 105 57v233h-43q-76 0 -110 -37t-34 -110q0 -80 21.5 -111.5t60.5 -31.5z" />
    <glyph glyph-name="b" unicode="b" horiz-adv-x="831" 
d="M504 -14q-128 0 -203 90h-4l-10 -76h-199v1530h229v-545h5q71 80 196 80q122 0 189 -94t67 -275v-348q0 -176 -70 -269t-200 -93zM319 797v-553q40 -64 115 -64q56 0 82.5 39t26.5 129v344q0 90 -25.5 129t-79.5 39q-78 0 -119 -63z" />
    <glyph glyph-name="c" unicode="c" horiz-adv-x="714" 
d="M688 793l-170 -56q-14 72 -42.5 101.5t-72.5 29.5q-57 0 -85.5 -38t-28.5 -128v-360q0 -90 28.5 -129t85.5 -39q45 0 73.5 31.5t43.5 103.5l172 -55q-67 -272 -309 -272q-156 0 -241 100.5t-85 249.5v379q0 154 85 254t241 100q116 0 196 -70.5t109 -201.5z" />
    <glyph glyph-name="d" unicode="d" horiz-adv-x="833" 
d="M328 1065q112 0 182 -70h4v535h231v-1530h-200l-8 76h-5q-79 -94 -217 -94q-122 0 -190 93.5t-68 270.5v352q0 179 70.5 273t200.5 94zM514 244v557q-42 61 -115 61q-57 0 -83.5 -38.5t-26.5 -131.5v-346q0 -87 25.5 -126.5t78.5 -39.5q78 0 121 64z" />
    <glyph glyph-name="e" unicode="e" horiz-adv-x="765" 
d="M715 483h-426v-139q0 -89 31 -130.5t94 -41.5q51 0 81 33.5t50 111.5l174 -53q-34 -144 -113.5 -213t-214.5 -69q-158 0 -246 99t-88 255v377q0 153 87 252.5t247 99.5q155 0 239.5 -101t84.5 -259v-222zM289 725v-92h217v92q0 80 -27 116t-82 36q-57 0 -82.5 -36
t-25.5 -116z" />
    <glyph glyph-name="f" unicode="f" horiz-adv-x="522" 
d="M502 1044v-186h-162v-858h-231v858h-89v186h89v86q0 78 21.5 141.5t65.5 113.5t118.5 78t174.5 30l11 -178q-92 -4 -131 -51t-39 -140v-80h172z" />
    <glyph glyph-name="g" unicode="g" horiz-adv-x="784" 
d="M387 336q-65 0 -115 12q-32 -19 -32 -49q0 -26 19 -37.5t67 -11.5h137q158 0 227.5 -69t69.5 -199q0 -168 -96.5 -256t-272.5 -88q-167 0 -245 68t-78 181q0 119 69 191q-86 60 -86 162q0 106 105 174q-82 88 -82 284q0 191 75.5 279t237.5 88q96 0 166 -31
q71 46 100 115l109 -47q-16 -122 -90 -193q37 -81 37 -213q0 -188 -77.5 -274t-244.5 -86zM291 694q0 -79 9.5 -118t29 -51.5t59.5 -12.5q41 0 60.5 12.5t29.5 51.5t10 118q0 82 -10.5 122.5t-30 53.5t-59.5 13q-58 0 -78 -35.5t-20 -153.5zM446 37h-149q-31 -42 -31 -113
q0 -60 32.5 -86t104.5 -26q85 0 117.5 32.5t32.5 96.5q0 57 -22.5 76.5t-84.5 19.5z" />
    <glyph glyph-name="h" unicode="h" horiz-adv-x="843" 
d="M319 797v-797h-231v1530h229v-549h5q69 84 198 84q123 0 188.5 -93.5t65.5 -273.5v-698h-231v692q0 91 -25.5 129.5t-79.5 38.5q-78 0 -119 -63z" />
    <glyph glyph-name="i" unicode="i" horiz-adv-x="421" 
d="M94 1047h232v-1047h-232v1047zM104 1485h213v-260h-213v260z" />
    <glyph glyph-name="j" unicode="j" horiz-adv-x="399" 
d="M-14 -330l-15 189q65 9 95 54t30 146v988h232v-986q0 -373 -342 -391zM104 1485h213v-260h-213v260z" />
    <glyph glyph-name="k" unicode="k" horiz-adv-x="851" 
d="M88 1530h231v-975l269 492h237l-262 -453l285 -594h-252l-184 422l-93 -119v-303h-231v1530z" />
    <glyph glyph-name="l" unicode="l" horiz-adv-x="430" 
d="M100 1530h230v-1530h-230v1530z" />
    <glyph glyph-name="m" unicode="m" horiz-adv-x="1234" 
d="M739 696v-696h-231v696q0 90 -23 127t-67 37q-34 0 -61.5 -22.5t-43.5 -59.5v-778h-229v1047h201v-91h4q72 109 203 109q136 0 192 -127h4q81 127 223 127q124 0 189 -88.5t65 -280.5v-696h-231v696q0 85 -23 124.5t-71 39.5q-101 0 -101 -164z" />
    <glyph glyph-name="n" unicode="n" horiz-adv-x="839" 
d="M313 795v-795h-229v1047h201l6 -78h4q77 96 213 96q126 0 194 -93.5t68 -273.5v-698h-231v692q0 91 -25.5 129.5t-79.5 38.5q-76 0 -121 -65z" />
    <glyph glyph-name="o" unicode="o" horiz-adv-x="806" 
d="M748 711v-379q0 -154 -89.5 -252t-255.5 -98q-167 0 -256.5 97t-89.5 253v379q0 155 89.5 254.5t256.5 99.5q168 0 256.5 -98t88.5 -256zM289 702v-362q0 -88 28 -128t86 -40q59 0 87 40t28 128v362q0 89 -28 129.5t-87 40.5q-60 0 -87 -40.5t-27 -129.5z" />
    <glyph glyph-name="p" unicode="p" horiz-adv-x="827" 
d="M500 -14q-120 0 -183 69h-4v-405h-229v1397h201l6 -78h4q74 96 217 96q123 0 190.5 -94.5t67.5 -274.5v-348q0 -176 -70 -269t-200 -93zM313 797v-553q44 -64 117 -64q56 0 82.5 39t26.5 129v344q0 91 -25 129.5t-80 38.5q-76 0 -121 -63z" />
    <glyph glyph-name="q" unicode="q" horiz-adv-x="827" 
d="M338 1065q131 0 207 -102h4l10 84h186v-1397h-231v411h-4q-69 -81 -197 -81q-120 0 -188 93t-68 259v379q0 172 76.5 263t204.5 91zM514 268v529q-46 63 -113 63q-112 0 -112 -166v-350q0 -85 25.5 -124.5t82.5 -39.5q41 0 72 24.5t45 63.5z" />
    <glyph glyph-name="r" unicode="r" horiz-adv-x="606" 
d="M582 1038l-23 -231q-27 22 -78 22q-73 0 -114 -54t-54 -173v-602h-229v1047h197l8 -150h4q65 166 196 166q52 0 93 -25z" />
    <glyph glyph-name="s" unicode="s" horiz-adv-x="688" 
d="M352 -18q-242 0 -309 258l166 65q42 -145 139 -145q86 0 86 108q0 39 -21.5 71t-55.5 56t-75.5 47.5t-82.5 52t-75 63.5t-55.5 89t-21.5 121q0 130 80 213.5t221 83.5q118 0 195 -70.5t102 -195.5l-168 -49q-18 73 -47.5 103t-71.5 30q-43 0 -66.5 -26.5t-23.5 -70.5
q0 -32 16.5 -60t43.5 -47.5t61.5 -41.5t71 -42.5t71 -50t61.5 -62.5t43.5 -83t16.5 -110q0 -134 -84.5 -220.5t-216.5 -86.5z" />
    <glyph glyph-name="t" unicode="t" horiz-adv-x="561" 
d="M522 1047v-189h-176v-575q0 -55 25 -85t71 -30q26 0 66 12l20 -151q-75 -45 -170 -45q-127 0 -184 75.5t-57 231.5v553l-101 30v168l111 9l59 276h160v-280h176z" />
    <glyph glyph-name="u" unicode="u" horiz-adv-x="839" 
d="M524 246v801h232v-1047h-201l-8 74h-4q-74 -92 -215 -92q-122 0 -190 93.5t-68 270.5v701h231v-701q0 -87 26 -126.5t79 -39.5q75 0 118 66z" />
    <glyph glyph-name="v" unicode="v" horiz-adv-x="825" 
d="M817 1047l-274 -1047h-262l-273 1047h254l148 -807h4l149 807h254z" />
    <glyph glyph-name="w" unicode="w" horiz-adv-x="1216" 
d="M729 0l-121 702h-4l-119 -702h-254l-217 1047h238l113 -777h4l131 777h215l131 -783h4l113 783h237l-217 -1047h-254z" />
    <glyph glyph-name="x" unicode="x" horiz-adv-x="827" 
d="M14 0l242 539l-231 508h249l144 -379h4l133 379h250l-232 -521l240 -526h-250l-153 397h-4l-142 -397h-250z" />
    <glyph glyph-name="y" unicode="y" horiz-adv-x="825" 
d="M813 1047l-289 -1047q-49 -174 -132.5 -248.5t-229.5 -79.5l-17 181q71 8 109 40.5t61 106.5l13 41l-318 1006h252l172 -717h4l142 717h233z" />
    <glyph glyph-name="z" unicode="z" horiz-adv-x="694" 
d="M639 199v-199h-592v137l334 707h-315v203h581v-134l-338 -714h330z" />
    <glyph glyph-name="braceleft" unicode="{" horiz-adv-x="497" 
d="M31 604v158q64 8 98.5 40t34.5 85q0 36 -27.5 176t-27.5 237q0 185 103.5 278t295.5 93h47v-155h-47q-189 0 -189 -250q0 -84 26 -220t26 -174q0 -141 -142 -188v-4q142 -47 142 -188q0 -37 -26 -171t-26 -219q0 -252 189 -252h47v-155h-47q-193 0 -296 94t-103 279
q0 97 27.5 235t27.5 174q0 53 -35 86.5t-98 40.5z" />
    <glyph glyph-name="bar" unicode="|" horiz-adv-x="489" 
d="M137 -305v1976h215v-1976h-215z" />
    <glyph glyph-name="braceright" unicode="}" horiz-adv-x="497" 
d="M467 762v-158q-63 -8 -99 -41.5t-36 -85.5q0 -36 27.5 -174t27.5 -235q0 -185 -102.5 -279t-294.5 -94h-49v160h47q98 0 144 61.5t46 185.5q0 85 -25.5 219t-25.5 171q0 142 139 188v4q-139 46 -139 188q0 38 25.5 174t25.5 220q0 245 -190 245h-47v160h49
q192 0 294.5 -93t102.5 -278q0 -97 -27.5 -237t-27.5 -176q0 -54 35 -85.5t100 -39.5z" />
    <glyph glyph-name="asciitilde" unicode="~" horiz-adv-x="847" 
d="M244 612l-170 2q10 163 66.5 236.5t158.5 73.5q46 0 82 -15t58.5 -36t40 -42t35.5 -36t36 -15q26 0 39 26t16 99h170q-10 -164 -67 -236.5t-160 -72.5q-45 0 -81 14.5t-58 35t-39.5 41.5t-35.5 35.5t-36 14.5q-26 0 -38.5 -25.5t-16.5 -99.5z" />
    <glyph glyph-name="uni00A0" unicode="&#xa0;" horiz-adv-x="313" 
 />
    <glyph glyph-name="exclamdown" unicode="&#xa1;" horiz-adv-x="419" 
d="M326 -195h-232v621l23 418h188l21 -412v-627zM332 1290v-270h-246v270h246z" />
    <glyph glyph-name="cent" unicode="&#xa2;" horiz-adv-x="714" 
d="M688 793l-170 -56q-27 123 -115 123q-57 0 -85.5 -40t-28.5 -138v-317q0 -108 28 -151.5t86 -43.5q46 0 74 32t43 107l172 -55q-54 -219 -221 -262l-27 -193h-137l-6 191q-119 25 -181.5 124.5t-62.5 241.5v334q0 146 64 244.5t186 122.5l33 225h137l4 -233
q160 -52 207 -256z" />
    <glyph glyph-name="sterling" unicode="&#xa3;" horiz-adv-x="966" 
d="M92 664l-22 180h104q-18 148 -18 219q0 208 93.5 327t266.5 119q139 0 227.5 -87.5t112.5 -243.5l-180 -60q-18 91 -54.5 128.5t-95.5 37.5q-70 0 -103.5 -61t-33.5 -187q0 -65 10 -192h338l-20 -180h-299q16 -191 18 -246q32 -17 61.5 -45t50 -54.5t40 -51.5t40.5 -40.5
t44 -15.5q40 0 61 44t33 161l180 -47q-21 -207 -85.5 -298t-174.5 -91q-74 0 -127 44.5t-143 184.5q-43 -229 -219 -229q-84 0 -132.5 52.5t-48.5 149.5q0 100 61 168.5t167 87.5q-4 28 -18 105t-21 121h-113zM213 154q22 0 34 30.5t13 112.5q-39 -10 -57.5 -37.5
t-18.5 -60.5q0 -45 29 -45z" />
    <glyph glyph-name="currency" unicode="&#xa4;" horiz-adv-x="667" 
d="M104 762q0 66 31 123l-72 78l82 92l74 -80q57 31 113 31t114 -33l78 88l84 -92l-78 -88q29 -56 29 -119q0 -59 -31 -123l76 -80l-82 -92l-78 82q-54 -33 -112 -33q-54 0 -111 31l-78 -86l-84 92l76 84q-31 57 -31 125zM240 762q0 -46 27.5 -74.5t66.5 -28.5t66.5 28.5
t27.5 74.5q0 45 -27.5 72.5t-66.5 27.5t-66.5 -27.5t-27.5 -72.5z" />
    <glyph glyph-name="yen" unicode="&#xa5;" horiz-adv-x="960" 
d="M795 276h-185v-276h-254v276h-188v173h188v79h-188v174h143l-291 783h277l186 -680h4l183 680h276l-289 -783h138v-174h-185v-79h185v-173z" />
    <glyph glyph-name="brokenbar" unicode="&#xa6;" horiz-adv-x="489" 
d="M137 813v858h215v-858h-215zM137 -305v858h215v-858h-215z" />
    <glyph glyph-name="section" unicode="&#xa7;" horiz-adv-x="729" 
d="M76 -41l184 35q23 -121 100 -121q86 0 86 107q0 40 -22.5 80.5t-59 77t-80 75.5t-87.5 83.5t-80.5 93.5t-59 113.5t-22.5 135.5q0 99 39.5 176t107.5 121q-102 128 -102 254q0 65 17 120.5t51.5 99.5t92.5 69.5t134 25.5q119 0 197 -78.5t100 -216.5l-185 -32
q-23 120 -100 120q-86 0 -86 -106q0 -40 22.5 -81t59 -77.5t80.5 -75.5t88 -84t80.5 -94t59 -114t22.5 -136q0 -100 -40 -177t-108 -120q103 -129 103 -251q0 -65 -17 -121t-51.5 -101t-92.5 -70.5t-134 -25.5q-119 0 -197 78.5t-100 216.5zM512 504q0 57 -41 117t-158 174
q-77 -41 -77 -129q0 -54 41 -116t157 -175q78 41 78 129z" />
    <glyph glyph-name="dieresis" unicode="&#xa8;" horiz-adv-x="456" 
d="M20 1485h162v-260h-162v260zM272 1485h164v-260h-164v260z" />
    <glyph glyph-name="copyright" unicode="&#xa9;" horiz-adv-x="1261" 
d="M633 1270q134 0 213 -77t98 -220l-166 -45q-13 89 -42 125.5t-81 36.5q-125 0 -125 -172v-359q0 -172 123 -172q54 0 83 38t42 134l168 -43q-20 -160 -97 -233.5t-214 -73.5q-152 0 -240 95t-88 253v358q0 162 87.5 258.5t238.5 96.5zM1188 915v-352q0 -126 -36 -234
t-105 -188.5t-175.5 -126t-240.5 -45.5t-240.5 45.5t-175.5 126t-105 188.5t-36 234v352q0 169 62 301.5t190 212.5t305 80t305 -80t190 -212.5t62 -301.5zM1036 563v352q0 205 -105.5 326t-301.5 121q-194 0 -299 -121.5t-105 -325.5v-352q0 -203 105.5 -324.5
t300.5 -121.5t300 121.5t105 324.5z" />
    <glyph glyph-name="ordfeminine" unicode="&#xaa;" horiz-adv-x="571" 
d="M168 1329l-111 53q28 74 86 117t136 43q105 0 156.5 -57.5t51.5 -151.5v-291q0 -34 29 -34h21v-109h-82q-62 0 -99 43q-60 -51 -147 -51q-80 0 -127 49t-47 127q0 92 60.5 149.5t197.5 57.5h31v59q0 40 -15.5 57t-50.5 17q-29 0 -53 -20t-37 -58zM250 1012q46 0 74 32
v111h-31q-54 0 -77 -19.5t-23 -56.5q0 -38 14.5 -52.5t42.5 -14.5z" />
    <glyph glyph-name="guillemotleft" unicode="&#xab;" horiz-adv-x="765" 
d="M723 895l-205 -356l205 -359h-191l-200 359l200 356h191zM432 895l-205 -356l205 -359h-190l-201 359l201 356h190z" />
    <glyph glyph-name="logicalnot" unicode="&#xac;" horiz-adv-x="772" 
d="M524 274v265h-450v186h624v-451h-174z" />
    <glyph glyph-name="uni00AD" unicode="&#xad;" horiz-adv-x="471" 
d="M45 496v215h381v-215h-381z" />
    <glyph glyph-name="registered" unicode="&#xae;" horiz-adv-x="497" 
d="M473 1372v-121q0 -102 -58.5 -168.5t-164.5 -66.5q-108 0 -165.5 66.5t-57.5 168.5v121q0 101 57.5 164t165.5 63q107 0 165 -63t58 -164zM86 1372v-121q0 -172 162 -172q164 0 164 172v121q0 168 -164 168q-162 0 -162 -168zM291 1147l-45 129h-21v-129h-82v338h113
q113 0 113 -101q0 -69 -47 -90l55 -147h-86zM225 1419v-84h31q17 0 23 9.5t6 33.5q0 25 -6 33t-25 8h-29z" />
    <glyph glyph-name="macron" unicode="&#xaf;" horiz-adv-x="456" 
d="M455 1417v-162h-455v162h455z" />
    <glyph glyph-name="degree" unicode="&#xb0;" horiz-adv-x="477" 
d="M25 1374q0 93 62.5 158t152.5 65q88 0 151.5 -65.5t63.5 -157.5q0 -93 -63 -157t-152 -64q-91 0 -153 63.5t-62 157.5zM154 1374q0 -43 24.5 -69.5t61.5 -26.5q36 0 61 26.5t25 69.5t-25 69.5t-61 26.5q-37 0 -61.5 -26.5t-24.5 -69.5z" />
    <glyph glyph-name="plusminus" unicode="&#xb1;" horiz-adv-x="772" 
d="M297 303v272h-223v187h223v293h174v-293h229v-187h-229v-272h-174zM700 70h-626v186h626v-186z" />
    <glyph glyph-name="twosuperior" unicode="&#xb2;" horiz-adv-x="466" 
d="M238 1630q94 0 140 -49.5t46 -126.5q0 -55 -21.5 -102t-53.5 -79.5t-65 -61t-60.5 -61t-35.5 -65.5h234v-116h-381l-2 61q2 57 28 109.5t61.5 91t70.5 73.5t59.5 71.5t24.5 70.5q0 63 -58 63q-30 0 -51.5 -24t-30.5 -70l-110 37q22 81 73 129.5t132 48.5z" />
    <glyph glyph-name="threesuperior" unicode="&#xb3;" horiz-adv-x="466" 
d="M160 1247v109h47q34 0 50.5 19t16.5 61q0 40 -13.5 57.5t-41.5 17.5q-31 0 -50.5 -17.5t-31.5 -59.5l-104 34q18 75 69 118.5t129 43.5q93 0 140 -49.5t47 -126.5q0 -110 -76 -143v-4q86 -27 86 -146q0 -101 -53.5 -150.5t-147.5 -49.5q-162 0 -198 153l104 37
q24 -76 84 -76q64 0 64 94q0 44 -17 61t-55 17h-49z" />
    <glyph glyph-name="acute" unicode="&#xb4;" horiz-adv-x="456" 
d="M166 1485h250l-170 -291h-164z" />
    <glyph glyph-name="mu" unicode="&#xb5;" horiz-adv-x="854" 
d="M84 371v676h229v-672q0 -91 27 -129.5t82 -38.5q78 0 117 63v777h231v-1047h-201l-8 76h-4q-52 -64 -127 -64q-84 0 -127 68h-4q15 -264 33 -387l-230 -19q-18 292 -18 697z" />
    <glyph glyph-name="paragraph" unicode="&#xb6;" horiz-adv-x="1058" 
d="M287 1528h772v-215h-154v-1635h-223v1635h-178v-1635h-217v1326q-133 0 -203 70t-70 192q0 114 71 188t202 74z" />
    <glyph glyph-name="periodcentered" unicode="&#xb7;" horiz-adv-x="395" 
d="M57 659q0 65 41 111.5t99 46.5t99.5 -46.5t41.5 -111.5q0 -64 -41 -109.5t-100 -45.5q-58 0 -99 45t-41 110z" />
    <glyph glyph-name="cedilla" unicode="&#xb8;" horiz-adv-x="456" 
d="M150 47l122 -10l-14 -86q131 -28 131 -125q0 -67 -62 -115t-169 -57l-43 104q48 11 72 24t24 32t-21.5 31t-80.5 16z" />
    <glyph glyph-name="onesuperior" unicode="&#xb9;" horiz-adv-x="466" 
d="M227 1626h117v-657h-147v438h-115v102h45q52 0 70.5 21.5t29.5 95.5z" />
    <glyph glyph-name="ordmasculine" unicode="&#xba;" horiz-adv-x="544" 
d="M510 1309v-187q0 -102 -62.5 -167.5t-177.5 -65.5t-175 65.5t-60 167.5v187q0 101 60 167t175 66q118 0 179 -64.5t61 -168.5zM199 1298v-168q0 -64 17.5 -91t53.5 -27q38 0 57 27t19 91v168q0 60 -19 85.5t-57 25.5q-36 0 -53.5 -25.5t-17.5 -85.5z" />
    <glyph glyph-name="guillemotright" unicode="&#xbb;" horiz-adv-x="765" 
d="M332 180l207 359l-207 356h192l199 -356l-199 -359h-192zM41 180l207 359l-207 356h192l199 -356l-199 -359h-192z" />
    <glyph glyph-name="onequarter" unicode="&#xbc;" horiz-adv-x="1026" 
d="M227 1489h117v-658h-147v439h-115v102h45q52 0 70.5 21.5t29.5 95.5zM254 0h-145l669 1485h146zM961 0h-127v117h-256v94l243 442h140v-426h57l-8 -110h-49v-117zM715 227h121l8 265h-4z" />
    <glyph glyph-name="onehalf" unicode="&#xbd;" horiz-adv-x="1026" 
d="M227 1489h117v-658h-147v439h-115v102h45q52 0 70.5 21.5t29.5 95.5zM254 0h-145l669 1485h146zM797 662q94 0 140 -50t46 -127q0 -55 -21.5 -102t-53.5 -79t-64.5 -60.5t-60 -61t-35.5 -65.5h233v-117h-381l-2 61q2 57 28 109.5t61.5 91t70.5 73.5t59.5 71.5t24.5 70.5
q0 64 -58 64q-30 0 -51.5 -24.5t-30.5 -70.5l-110 37q22 82 73 130.5t132 48.5z" />
    <glyph glyph-name="threequarters" unicode="&#xbe;" horiz-adv-x="1026" 
d="M160 1110v109h47q34 0 50.5 18.5t16.5 60.5q0 41 -13.5 58.5t-41.5 17.5q-31 0 -50.5 -18t-31.5 -60l-104 35q18 75 69 118.5t129 43.5q93 0 140 -49.5t47 -126.5q0 -110 -76 -143v-5q86 -27 86 -145q0 -101 -53.5 -151t-147.5 -50q-162 0 -198 154l104 37q24 -76 84 -76
q64 0 64 94q0 44 -17 61t-55 17h-49zM254 0h-145l669 1485h146zM961 0h-127v117h-256v94l243 442h140v-426h57l-8 -110h-49v-117zM715 227h121l8 265h-4z" />
    <glyph glyph-name="questiondown" unicode="&#xbf;" horiz-adv-x="819" 
d="M793 145q-36 -167 -136.5 -263.5t-255.5 -96.5q-72 0 -130.5 18.5t-99 51.5t-68 78.5t-40 98.5t-12.5 113q0 155 72.5 295.5t204.5 229.5l12 178h174l14 -295q-243 -137 -243 -389q0 -164 133 -164q69 0 114.5 47t69.5 152zM551 1290v-270h-246v270h246z" />
    <glyph glyph-name="Agrave" unicode="&#xc0;" horiz-adv-x="985" 
d="M328 334l-62 -334h-254l332 1485h297l332 -1485h-260l-62 334h-323zM487 1225l-122 -690h249l-122 690h-5zM219 1784h275l98 -238h-186z" />
    <glyph glyph-name="Aacute" unicode="&#xc1;" horiz-adv-x="985" 
d="M328 334l-62 -334h-254l332 1485h297l332 -1485h-260l-62 334h-323zM487 1225l-122 -690h249l-122 690h-5zM477 1784h277l-172 -238h-189z" />
    <glyph glyph-name="Acircumflex" unicode="&#xc2;" horiz-adv-x="985" 
d="M328 334l-62 -334h-254l332 1485h297l332 -1485h-260l-62 334h-323zM487 1225l-122 -690h249l-122 690h-5zM428 1546h-186l155 238h187l153 -238h-186l-59 109h-5z" />
    <glyph glyph-name="Atilde" unicode="&#xc3;" horiz-adv-x="985" 
d="M328 334l-62 -334h-254l332 1485h297l332 -1485h-260l-62 334h-323zM487 1225l-122 -690h249l-122 690h-5zM643 1790l117 -16q-14 -122 -53.5 -183t-120.5 -61q-33 0 -64 16t-50 35t-40 35t-35 16q-22 0 -35 -20.5t-20 -71.5l-117 14q14 126 53 185t121 59q33 0 64.5 -16
t51 -35t40.5 -35t35 -16q23 0 35 21t18 73z" />
    <glyph glyph-name="Adieresis" unicode="&#xc4;" horiz-adv-x="985" 
d="M328 334l-62 -334h-254l332 1485h297l332 -1485h-260l-62 334h-323zM487 1225l-122 -690h249l-122 690h-5zM264 1784h168v-228h-168v228zM549 1784h168v-228h-168v228z" />
    <glyph glyph-name="Aring" unicode="&#xc5;" horiz-adv-x="985" 
d="M328 334l-62 -334h-254l332 1485h297l332 -1485h-260l-62 334h-323zM487 1225l-122 -690h249l-122 690h-5zM311 1669q0 68 49.5 109t128.5 41t129 -41t50 -109q0 -69 -50.5 -109t-128.5 -40q-80 0 -129 40t-49 109zM446 1669q0 -21 11 -34t32 -13t33.5 13t12.5 34
t-12.5 34t-33.5 13t-32 -13t-11 -34z" />
    <glyph glyph-name="AE" unicode="&#xc6;" horiz-adv-x="1359" 
d="M375 342l-105 -342h-256l488 1485h796v-236h-415l30 -377h316v-208h-299l33 -433h354v-231h-592l-27 342h-323zM635 1200l-199 -657h248l-45 657h-4z" />
    <glyph glyph-name="Ccedilla" unicode="&#xc7;" horiz-adv-x="858" 
d="M459 1505q143 0 239 -94t121 -250l-192 -59q-17 91 -53.5 133.5t-96.5 42.5q-149 0 -149 -227v-641q0 -211 147 -211q64 0 98.5 43t51.5 147l196 -59q-26 -165 -103.5 -249.5t-209.5 -96.5l-4 -33q131 -28 131 -125q0 -67 -62.5 -115t-169.5 -57l-43 104q97 23 97 56
q0 40 -103 47l27 125q-146 23 -227.5 135t-81.5 287v643q0 213 104 333.5t283 120.5z" />
    <glyph glyph-name="Egrave" unicode="&#xc8;" horiz-adv-x="831" 
d="M104 1485h666v-236h-412v-377h318v-208h-318v-433h430v-231h-684v1485zM182 1784h275l98 -238h-186z" />
    <glyph glyph-name="Eacute" unicode="&#xc9;" horiz-adv-x="831" 
d="M104 1485h666v-236h-412v-377h318v-208h-318v-433h430v-231h-684v1485zM408 1784h276l-172 -238h-188z" />
    <glyph glyph-name="Ecircumflex" unicode="&#xca;" horiz-adv-x="831" 
d="M104 1485h666v-236h-412v-377h318v-208h-318v-433h430v-231h-684v1485zM385 1546h-186l155 238h187l153 -238h-186l-59 109h-5z" />
    <glyph glyph-name="Edieresis" unicode="&#xcb;" horiz-adv-x="831" 
d="M104 1485h666v-236h-412v-377h318v-208h-318v-433h430v-231h-684v1485zM217 1784h168v-228h-168v228zM502 1784h168v-228h-168v228z" />
    <glyph glyph-name="Igrave" unicode="&#xcc;" horiz-adv-x="499" 
d="M123 1485h254v-1485h-254v1485zM-10 1784h274l98 -238h-186z" />
    <glyph glyph-name="Iacute" unicode="&#xcd;" horiz-adv-x="499" 
d="M123 1485h254v-1485h-254v1485zM221 1784h277l-172 -238h-189z" />
    <glyph glyph-name="Icircumflex" unicode="&#xce;" horiz-adv-x="499" 
d="M123 1485h254v-1485h-254v1485zM188 1546h-186l156 238h186l154 -238h-187l-59 109h-4z" />
    <glyph glyph-name="Idieresis" unicode="&#xcf;" horiz-adv-x="499" 
d="M123 1485h254v-1485h-254v1485zM25 1784h168v-228h-168v228zM309 1784h168v-228h-168v228z" />
    <glyph glyph-name="Eth" unicode="&#xd0;" horiz-adv-x="1019" 
d="M123 1485h407q198 0 308 -123.5t110 -343.5v-551q0 -220 -110 -343.5t-308 -123.5h-407v688h-105v154h105v643zM692 1006q0 136 -38.5 191.5t-123.5 55.5h-153v-411h106v-154h-106v-463h153q86 0 124 55t38 193v533z" />
    <glyph glyph-name="Ntilde" unicode="&#xd1;" horiz-adv-x="1009" 
d="M104 1485h187l387 -846h4v846h223v-1485h-172l-401 879h-4v-879h-224v1485zM655 1790l117 -16q-14 -122 -53.5 -183t-120.5 -61q-33 0 -63.5 16t-49.5 35t-40 35t-35 16q-22 0 -35.5 -20.5t-20.5 -71.5l-116 14q14 126 53 185t121 59q33 0 64.5 -16t50.5 -35t40 -35
t35 -16q23 0 35 21t18 73z" />
    <glyph glyph-name="Ograve" unicode="&#xd2;" horiz-adv-x="968" 
d="M483 1505q202 0 308 -120.5t106 -342.5v-598q0 -223 -106 -343.5t-308 -120.5q-201 0 -306 120.5t-105 343.5v596q0 223 105 344t306 121zM643 444v596q0 130 -37.5 184t-120.5 54t-121 -54t-38 -182v-598q0 -132 37 -187.5t120 -55.5q84 0 122 55.5t38 187.5zM223 1784
h275l98 -238h-186z" />
    <glyph glyph-name="Oacute" unicode="&#xd3;" horiz-adv-x="968" 
d="M483 1505q202 0 308 -120.5t106 -342.5v-598q0 -223 -106 -343.5t-308 -120.5q-201 0 -306 120.5t-105 343.5v596q0 223 105 344t306 121zM643 444v596q0 130 -37.5 184t-120.5 54t-121 -54t-38 -182v-598q0 -132 37 -187.5t120 -55.5q84 0 122 55.5t38 187.5zM459 1784
h276l-172 -238h-188z" />
    <glyph glyph-name="Ocircumflex" unicode="&#xd4;" horiz-adv-x="968" 
d="M483 1505q202 0 308 -120.5t106 -342.5v-598q0 -223 -106 -343.5t-308 -120.5q-201 0 -306 120.5t-105 343.5v596q0 223 105 344t306 121zM643 444v596q0 130 -37.5 184t-120.5 54t-121 -54t-38 -182v-598q0 -132 37 -187.5t120 -55.5q84 0 122 55.5t38 187.5zM424 1546
h-186l155 238h187l153 -238h-186l-60 109h-4z" />
    <glyph glyph-name="Otilde" unicode="&#xd5;" horiz-adv-x="968" 
d="M483 1505q202 0 308 -120.5t106 -342.5v-598q0 -223 -106 -343.5t-308 -120.5q-201 0 -306 120.5t-105 343.5v596q0 223 105 344t306 121zM643 444v596q0 130 -37.5 184t-120.5 54t-121 -54t-38 -182v-598q0 -132 37 -187.5t120 -55.5q84 0 122 55.5t38 187.5zM633 1790
l117 -16q-14 -121 -54 -182.5t-121 -61.5q-33 0 -63.5 16t-49.5 35t-40 35t-35 16q-22 0 -35 -20.5t-20 -71.5l-117 14q14 126 53 185t121 59q33 0 64.5 -16t51 -35t40.5 -35t35 -16q23 0 35 21t18 73z" />
    <glyph glyph-name="Odieresis" unicode="&#xd6;" horiz-adv-x="968" 
d="M483 1505q202 0 308 -120.5t106 -342.5v-598q0 -223 -106 -343.5t-308 -120.5q-201 0 -306 120.5t-105 343.5v596q0 223 105 344t306 121zM643 444v596q0 130 -37.5 184t-120.5 54t-121 -54t-38 -182v-598q0 -132 37 -187.5t120 -55.5q84 0 122 55.5t38 187.5zM260 1784
h168v-228h-168v228zM545 1784h168v-228h-168v228z" />
    <glyph glyph-name="multiply" unicode="&#xd7;" horiz-adv-x="772" 
d="M575 293l-190 207l-190 -207l-121 131l190 207l-188 205l119 133l190 -207l190 207l119 -131l-190 -207l190 -207z" />
    <glyph glyph-name="Oslash" unicode="&#xd8;" horiz-adv-x="968" 
d="M483 1505q196 0 303 -116l60 104l80 -61l-78 -138q49 -104 49 -252v-598q0 -223 -106 -343.5t-308 -120.5t-309 122l-53 -94l-80 62l74 129q-43 101 -43 245v596q0 223 105 344t306 121zM643 444v494l-315 -563q9 -94 46 -134t109 -40q84 0 122 55.5t38 187.5zM326 1042
v-477l311 561q-10 81 -47 116.5t-105 35.5q-83 0 -121 -54t-38 -182z" />
    <glyph glyph-name="Ugrave" unicode="&#xd9;" horiz-adv-x="1003" 
d="M659 1485h254v-1049q0 -222 -106 -339t-305 -117t-306.5 114.5t-107.5 331.5v1059h256v-1059q0 -205 158 -205q79 0 118 47t39 158v1059zM246 1784h274l98 -238h-186z" />
    <glyph glyph-name="Uacute" unicode="&#xda;" horiz-adv-x="1003" 
d="M659 1485h254v-1049q0 -222 -106 -339t-305 -117t-306.5 114.5t-107.5 331.5v1059h256v-1059q0 -205 158 -205q79 0 118 47t39 158v1059zM475 1784h277l-172 -238h-189z" />
    <glyph glyph-name="Ucircumflex" unicode="&#xdb;" horiz-adv-x="1003" 
d="M659 1485h254v-1049q0 -222 -106 -339t-305 -117t-306.5 114.5t-107.5 331.5v1059h256v-1059q0 -205 158 -205q79 0 118 47t39 158v1059zM440 1546h-186l156 238h186l154 -238h-187l-59 109h-4z" />
    <glyph glyph-name="Udieresis" unicode="&#xdc;" horiz-adv-x="1003" 
d="M659 1485h254v-1049q0 -222 -106 -339t-305 -117t-306.5 114.5t-107.5 331.5v1059h256v-1059q0 -205 158 -205q79 0 118 47t39 158v1059zM276 1784h168v-228h-168v228zM561 1784h168v-228h-168v228z" />
    <glyph glyph-name="Yacute" unicode="&#xdd;" horiz-adv-x="940" 
d="M938 1485l-342 -1039v-446h-254v453l-340 1032h277l190 -744h4l189 744h276zM444 1784h277l-172 -238h-189z" />
    <glyph glyph-name="Thorn" unicode="&#xde;" horiz-adv-x="923" 
d="M510 1239q179 0 275 -122.5t96 -352.5q0 -226 -93.5 -348.5t-265.5 -122.5h-164v-293h-254v1485h254v-246h152zM358 1012v-510h144q67 0 96 59t29 199q0 143 -28.5 197.5t-96.5 54.5h-144z" />
    <glyph glyph-name="germandbls" unicode="&#xdf;" horiz-adv-x="858" 
d="M397 807q0 171 127 254q4 32 4 53q0 58 -21.5 90.5t-62.5 32.5q-61 0 -93 -58t-32 -196v-983h-231v983q0 210 89.5 329.5t254.5 119.5q141 0 218 -98.5t77 -250.5q0 -86 -20 -147q-45 -18 -63.5 -45.5t-18.5 -67.5q0 -35 21 -73.5t51 -77.5t60 -83.5t51 -109.5t21 -139
q0 -173 -76 -266.5t-210 -93.5q-120 0 -193 61l33 180q49 -41 113 -41q106 0 106 164q0 45 -21 90t-51 84.5t-60.5 81t-51.5 95.5t-21 112z" />
    <glyph glyph-name="agrave" unicode="&#xe0;" horiz-adv-x="776" 
d="M227 735l-153 68q39 123 118 193.5t199 70.5q149 0 220 -88.5t71 -241.5v-522q0 -63 53 -63h23v-146q-52 -18 -103 -18q-105 0 -159 75q-79 -79 -205 -79q-113 0 -179.5 80.5t-66.5 209.5q0 71 20 130.5t61.5 107.5t114.5 75t171 27h41v123q0 75 -23.5 106t-71.5 31
q-88 0 -131 -139zM348 156q63 0 105 57v233h-43q-76 0 -110 -37t-34 -110q0 -80 21.5 -111.5t60.5 -31.5zM164 1485h250l98 -291h-166z" />
    <glyph glyph-name="aacute" unicode="&#xe1;" horiz-adv-x="776" 
d="M227 735l-153 68q39 123 118 193.5t199 70.5q149 0 220 -88.5t71 -241.5v-522q0 -63 53 -63h23v-146q-52 -18 -103 -18q-105 0 -159 75q-79 -79 -205 -79q-113 0 -179.5 80.5t-66.5 209.5q0 71 20 130.5t61.5 107.5t114.5 75t171 27h41v123q0 75 -23.5 106t-71.5 31
q-88 0 -131 -139zM348 156q63 0 105 57v233h-43q-76 0 -110 -37t-34 -110q0 -80 21.5 -111.5t60.5 -31.5zM371 1485h250l-170 -291h-164z" />
    <glyph glyph-name="acircumflex" unicode="&#xe2;" horiz-adv-x="776" 
d="M227 735l-153 68q39 123 118 193.5t199 70.5q149 0 220 -88.5t71 -241.5v-522q0 -63 53 -63h23v-146q-52 -18 -103 -18q-105 0 -159 75q-79 -79 -205 -79q-113 0 -179.5 80.5t-66.5 209.5q0 71 20 130.5t61.5 107.5t114.5 75t171 27h41v123q0 75 -23.5 106t-71.5 31
q-88 0 -131 -139zM348 156q63 0 105 57v233h-43q-76 0 -110 -37t-34 -110q0 -80 21.5 -111.5t60.5 -31.5zM330 1194h-180l161 291h162l160 -291h-180l-60 143h-4z" />
    <glyph glyph-name="atilde" unicode="&#xe3;" horiz-adv-x="776" 
d="M227 735l-153 68q39 123 118 193.5t199 70.5q149 0 220 -88.5t71 -241.5v-522q0 -63 53 -63h23v-146q-52 -18 -103 -18q-105 0 -159 75q-79 -79 -205 -79q-113 0 -179.5 80.5t-66.5 209.5q0 71 20 130.5t61.5 107.5t114.5 75t171 27h41v123q0 75 -23.5 106t-71.5 31
q-88 0 -131 -139zM348 156q63 0 105 57v233h-43q-76 0 -110 -37t-34 -110q0 -80 21.5 -111.5t60.5 -31.5zM547 1487l117 -21q-14 -142 -54 -212t-121 -70q-31 0 -58 14.5t-44.5 36t-32.5 42.5t-29.5 35.5t-27.5 14.5q-21 0 -32.5 -28.5t-18.5 -100.5l-119 19q14 146 53 215
t121 69q39 0 72 -22.5t50.5 -49t37 -49t35.5 -22.5q21 0 32.5 28t18.5 101z" />
    <glyph glyph-name="adieresis" unicode="&#xe4;" horiz-adv-x="776" 
d="M227 735l-153 68q39 123 118 193.5t199 70.5q149 0 220 -88.5t71 -241.5v-522q0 -63 53 -63h23v-146q-52 -18 -103 -18q-105 0 -159 75q-79 -79 -205 -79q-113 0 -179.5 80.5t-66.5 209.5q0 71 20 130.5t61.5 107.5t114.5 75t171 27h41v123q0 75 -23.5 106t-71.5 31
q-88 0 -131 -139zM348 156q63 0 105 57v233h-43q-76 0 -110 -37t-34 -110q0 -80 21.5 -111.5t60.5 -31.5zM186 1485h162v-260h-162v260zM438 1485h164v-260h-164v260z" />
    <glyph glyph-name="aring" unicode="&#xe5;" horiz-adv-x="776" 
d="M227 735l-153 68q39 123 118 193.5t199 70.5q149 0 220 -88.5t71 -241.5v-522q0 -63 53 -63h23v-146q-52 -18 -103 -18q-105 0 -159 75q-79 -79 -205 -79q-113 0 -179.5 80.5t-66.5 209.5q0 71 20 130.5t61.5 107.5t114.5 75t171 27h41v123q0 75 -23.5 106t-71.5 31
q-88 0 -131 -139zM348 156q63 0 105 57v233h-43q-76 0 -110 -37t-34 -110q0 -80 21.5 -111.5t60.5 -31.5zM215 1348q0 76 49.5 120.5t128.5 44.5t129.5 -45t50.5 -120t-50.5 -120.5t-129.5 -45.5t-128.5 45t-49.5 121zM348 1348q0 -50 45 -50t45 50q0 51 -45 51t-45 -51z
" />
    <glyph glyph-name="ae" unicode="&#xe6;" horiz-adv-x="1173" 
d="M1124 469h-415v-143q0 -160 118 -160q103 0 140 156l159 -56q-37 -141 -113 -212.5t-206 -71.5q-168 0 -238 124q-86 -124 -264 -124q-119 0 -189.5 81.5t-70.5 210.5q0 73 20.5 133.5t64.5 109.5t121 76.5t181 27.5h45v120q0 69 -25 98t-77 29q-43 0 -78.5 -35
t-54.5 -106l-164 72q36 121 118.5 194.5t190.5 73.5q141 0 213 -96q76 96 221 96q142 0 222.5 -102.5t80.5 -257.5v-238zM358 160q38 0 71.5 18.5t47.5 54.5v218h-47q-87 0 -124.5 -40.5t-37.5 -117.5q0 -133 90 -133zM709 725v-104h206v106q0 152 -102 152q-57 0 -80.5 -35
t-23.5 -119z" />
    <glyph glyph-name="ccedilla" unicode="&#xe7;" horiz-adv-x="714" 
d="M688 793l-170 -56q-14 72 -42.5 101.5t-72.5 29.5q-57 0 -85.5 -38t-28.5 -128v-360q0 -90 28.5 -129t85.5 -39q45 0 73.5 31.5t43.5 103.5l172 -55q-60 -244 -264 -268l-4 -35q131 -28 131 -125q0 -67 -62 -115t-169 -57l-43 104q48 11 72 24t24 32q0 40 -103 47l29 129
q-120 25 -183 119.5t-63 222.5v379q0 154 85 254t241 100q116 0 196 -70.5t109 -201.5z" />
    <glyph glyph-name="egrave" unicode="&#xe8;" horiz-adv-x="765" 
d="M715 483h-426v-139q0 -89 31 -130.5t94 -41.5q51 0 81 33.5t50 111.5l174 -53q-34 -144 -113.5 -213t-214.5 -69q-158 0 -246 99t-88 255v377q0 153 87 252.5t247 99.5q155 0 239.5 -101t84.5 -259v-222zM289 725v-92h217v92q0 80 -27 116t-82 36q-57 0 -82.5 -36
t-25.5 -116zM154 1485h249l99 -291h-166z" />
    <glyph glyph-name="eacute" unicode="&#xe9;" horiz-adv-x="765" 
d="M715 483h-426v-139q0 -89 31 -130.5t94 -41.5q51 0 81 33.5t50 111.5l174 -53q-34 -144 -113.5 -213t-214.5 -69q-158 0 -246 99t-88 255v377q0 153 87 252.5t247 99.5q155 0 239.5 -101t84.5 -259v-222zM289 725v-92h217v92q0 80 -27 116t-82 36q-57 0 -82.5 -36
t-25.5 -116zM381 1485h250l-170 -291h-164z" />
    <glyph glyph-name="ecircumflex" unicode="&#xea;" horiz-adv-x="765" 
d="M715 483h-426v-139q0 -89 31 -130.5t94 -41.5q51 0 81 33.5t50 111.5l174 -53q-34 -144 -113.5 -213t-214.5 -69q-158 0 -246 99t-88 255v377q0 153 87 252.5t247 99.5q155 0 239.5 -101t84.5 -259v-222zM289 725v-92h217v92q0 80 -27 116t-82 36q-57 0 -82.5 -36
t-25.5 -116zM332 1194h-180l161 291h162l160 -291h-180l-60 143h-4z" />
    <glyph glyph-name="edieresis" unicode="&#xeb;" horiz-adv-x="765" 
d="M715 483h-426v-139q0 -89 31 -130.5t94 -41.5q51 0 81 33.5t50 111.5l174 -53q-34 -144 -113.5 -213t-214.5 -69q-158 0 -246 99t-88 255v377q0 153 87 252.5t247 99.5q155 0 239.5 -101t84.5 -259v-222zM289 725v-92h217v92q0 80 -27 116t-82 36q-57 0 -82.5 -36
t-25.5 -116zM184 1485h162v-260h-162v260zM436 1485h164v-260h-164v260z" />
    <glyph glyph-name="igrave" unicode="&#xec;" horiz-adv-x="421" 
d="M94 1047h232v-1047h-232v1047zM-45 1485h250l98 -291h-166z" />
    <glyph glyph-name="iacute" unicode="&#xed;" horiz-adv-x="421" 
d="M94 1047h232v-1047h-232v1047zM203 1485h250l-170 -291h-164z" />
    <glyph glyph-name="icircumflex" unicode="&#xee;" horiz-adv-x="421" 
d="M94 1047h232v-1047h-232v1047zM147 1194h-180l162 291h162l160 -291h-181l-59 143h-4z" />
    <glyph glyph-name="idieresis" unicode="&#xef;" horiz-adv-x="421" 
d="M94 1047h232v-1047h-232v1047zM4 1485h162v-260h-162v260zM256 1485h164v-260h-164v260z" />
    <glyph glyph-name="eth" unicode="&#xf0;" horiz-adv-x="808" 
d="M205 1341l39 166q114 -19 188 -51l72 107l121 -90l-64 -95q189 -155 189 -487v-537q0 -166 -88 -268t-256 -102q-165 0 -256 99t-91 249v366q0 155 76 253t221 98q111 0 183 -62h4q-16 161 -86 234l-72 -109l-121 88l68 103q-45 17 -127 38zM291 340q0 -87 28 -127.5
t87 -40.5q58 0 86 40.5t28 127.5v350q0 90 -27.5 131t-86.5 41t-87 -41t-28 -131v-350z" />
    <glyph glyph-name="ntilde" unicode="&#xf1;" horiz-adv-x="839" 
d="M313 795v-795h-229v1047h201l6 -78h4q77 96 213 96q126 0 194 -93.5t68 -273.5v-698h-231v692q0 91 -25.5 129.5t-79.5 38.5q-76 0 -121 -65zM580 1487l116 -21q-14 -142 -53.5 -212t-120.5 -70q-31 0 -58 14.5t-44.5 36t-32.5 42.5t-29.5 35.5t-27.5 14.5
q-21 0 -32.5 -28.5t-18.5 -100.5l-119 19q14 146 53 215t121 69q39 0 71.5 -22.5t50.5 -49t37 -49t35 -22.5q21 0 33 28t19 101z" />
    <glyph glyph-name="ograve" unicode="&#xf2;" horiz-adv-x="806" 
d="M748 711v-379q0 -154 -89.5 -252t-255.5 -98q-167 0 -256.5 97t-89.5 253v379q0 155 89.5 254.5t256.5 99.5q168 0 256.5 -98t88.5 -256zM289 702v-362q0 -88 28 -128t86 -40q59 0 87 40t28 128v362q0 89 -28 129.5t-87 40.5q-60 0 -87 -40.5t-27 -129.5zM152 1485h249
l99 -291h-166z" />
    <glyph glyph-name="oacute" unicode="&#xf3;" horiz-adv-x="806" 
d="M748 711v-379q0 -154 -89.5 -252t-255.5 -98q-167 0 -256.5 97t-89.5 253v379q0 155 89.5 254.5t256.5 99.5q168 0 256.5 -98t88.5 -256zM289 702v-362q0 -88 28 -128t86 -40q59 0 87 40t28 128v362q0 89 -28 129.5t-87 40.5q-60 0 -87 -40.5t-27 -129.5zM399 1485h250
l-170 -291h-164z" />
    <glyph glyph-name="ocircumflex" unicode="&#xf4;" horiz-adv-x="806" 
d="M748 711v-379q0 -154 -89.5 -252t-255.5 -98q-167 0 -256.5 97t-89.5 253v379q0 155 89.5 254.5t256.5 99.5q168 0 256.5 -98t88.5 -256zM289 702v-362q0 -88 28 -128t86 -40q59 0 87 40t28 128v362q0 89 -28 129.5t-87 40.5q-60 0 -87 -40.5t-27 -129.5zM340 1194h-180
l162 291h161l160 -291h-180l-60 143h-4z" />
    <glyph glyph-name="otilde" unicode="&#xf5;" horiz-adv-x="806" 
d="M748 711v-379q0 -154 -89.5 -252t-255.5 -98q-167 0 -256.5 97t-89.5 253v379q0 155 89.5 254.5t256.5 99.5q168 0 256.5 -98t88.5 -256zM289 702v-362q0 -88 28 -128t86 -40q59 0 87 40t28 128v362q0 89 -28 129.5t-87 40.5q-60 0 -87 -40.5t-27 -129.5zM559 1487
l117 -21q-14 -142 -53.5 -212t-120.5 -70q-38 0 -70.5 22.5t-50 49t-37 49t-35.5 22.5q-21 0 -32.5 -28.5t-18.5 -100.5l-119 19q14 146 53 215t121 69q39 0 72 -22.5t50.5 -49t37 -49t35.5 -22.5q21 0 32.5 28t18.5 101z" />
    <glyph glyph-name="odieresis" unicode="&#xf6;" horiz-adv-x="806" 
d="M748 711v-379q0 -154 -89.5 -252t-255.5 -98q-167 0 -256.5 97t-89.5 253v379q0 155 89.5 254.5t256.5 99.5q168 0 256.5 -98t88.5 -256zM289 702v-362q0 -88 28 -128t86 -40q59 0 87 40t28 128v362q0 89 -28 129.5t-87 40.5q-60 0 -87 -40.5t-27 -129.5zM195 1485h161
v-260h-161v260zM446 1485h164v-260h-164v260z" />
    <glyph glyph-name="divide" unicode="&#xf7;" horiz-adv-x="772" 
d="M700 539h-626v186h626v-186zM264 948q0 53 35 91t84 38t84 -38t35 -91t-35 -90t-84 -37t-84 37t-35 90zM264 324q0 53 35 90t84 37t84 -37t35 -90q0 -54 -34.5 -91.5t-84.5 -37.5t-84.5 37.5t-34.5 91.5z" />
    <glyph glyph-name="oslash" unicode="&#xf8;" horiz-adv-x="806" 
d="M748 711v-379q0 -154 -89.5 -252t-255.5 -98q-156 0 -247 88l-41 -62l-80 62l59 86q-37 75 -37 176v379q0 155 89.5 254.5t256.5 99.5q155 0 246 -88l47 70l82 -60l-67 -98q37 -78 37 -178zM403 172q59 0 87 40t28 128v270l-225 -338q20 -100 110 -100zM289 702v-264
l223 336q-20 98 -109 98q-60 0 -87 -40.5t-27 -129.5z" />
    <glyph glyph-name="ugrave" unicode="&#xf9;" horiz-adv-x="839" 
d="M524 246v801h232v-1047h-201l-8 74h-4q-74 -92 -215 -92q-122 0 -190 93.5t-68 270.5v701h231v-701q0 -87 26 -126.5t79 -39.5q75 0 118 66zM166 1485h250l98 -291h-166z" />
    <glyph glyph-name="uacute" unicode="&#xfa;" horiz-adv-x="839" 
d="M524 246v801h232v-1047h-201l-8 74h-4q-74 -92 -215 -92q-122 0 -190 93.5t-68 270.5v701h231v-701q0 -87 26 -126.5t79 -39.5q75 0 118 66zM412 1485h250l-170 -291h-164z" />
    <glyph glyph-name="ucircumflex" unicode="&#xfb;" horiz-adv-x="839" 
d="M524 246v801h232v-1047h-201l-8 74h-4q-74 -92 -215 -92q-122 0 -190 93.5t-68 270.5v701h231v-701q0 -87 26 -126.5t79 -39.5q75 0 118 66zM358 1194h-180l162 291h162l160 -291h-181l-59 143h-4z" />
    <glyph glyph-name="udieresis" unicode="&#xfc;" horiz-adv-x="839" 
d="M524 246v801h232v-1047h-201l-8 74h-4q-74 -92 -215 -92q-122 0 -190 93.5t-68 270.5v701h231v-701q0 -87 26 -126.5t79 -39.5q75 0 118 66zM213 1485h162v-260h-162v260zM465 1485h164v-260h-164v260z" />
    <glyph glyph-name="yacute" unicode="&#xfd;" horiz-adv-x="825" 
d="M813 1047l-289 -1047q-49 -174 -132.5 -248.5t-229.5 -79.5l-17 181q71 8 109 40.5t61 106.5l13 41l-318 1006h252l172 -717h4l142 717h233zM424 1485h250l-170 -291h-164z" />
    <glyph glyph-name="thorn" unicode="&#xfe;" horiz-adv-x="827" 
d="M500 -14q-120 0 -183 69h-4v-405h-229v1880h229v-557h4q65 92 195 92q123 0 190.5 -94.5t67.5 -274.5v-348q0 -176 -70 -269t-200 -93zM313 797v-553q44 -64 117 -64q55 0 82 40t27 128v344q0 91 -25 129.5t-80 38.5q-76 0 -121 -63z" />
    <glyph glyph-name="ydieresis" unicode="&#xff;" horiz-adv-x="825" 
d="M813 1047l-289 -1047q-49 -174 -132.5 -248.5t-229.5 -79.5l-17 181q71 8 109 40.5t61 106.5l13 41l-318 1006h252l172 -717h4l142 717h233zM225 1485h162v-260h-162v260zM477 1485h164v-260h-164v260z" />
    <glyph glyph-name="dotlessi" unicode="&#x131;" horiz-adv-x="419" 
d="M94 1047h232v-1047h-232v1047z" />
    <glyph glyph-name="IJ" unicode="&#x132;" horiz-adv-x="989" 
d="M123 1485h254v-1485h-254v1485zM631 1485h256v-1254q0 -243 -116 -369t-337 -132l-20 213q113 0 165 64.5t52 215.5v1262z" />
    <glyph glyph-name="ij" unicode="&#x133;" horiz-adv-x="833" 
d="M94 1047h232v-1047h-232v1047zM104 1485h213v-260h-213v260zM539 1485h213v-260h-213v260zM420 -330l-14 189q65 9 94.5 54t29.5 146v988h232v-986q0 -373 -342 -391z" />
    <glyph glyph-name="Lslash" unicode="&#x141;" horiz-adv-x="806" 
d="M133 1485h248v-584l244 137v-219l-244 -137v-444h395v-238h-643v573l-106 -61v217l106 62v694z" />
    <glyph glyph-name="lslash" unicode="&#x142;" horiz-adv-x="536" 
d="M150 1530h229v-565l127 86v-207l-127 -86v-758h-229v629l-117 -76v205l117 78v694z" />
    <glyph glyph-name="OE" unicode="&#x152;" horiz-adv-x="1370" 
d="M643 1485h666v-236h-412v-377h317v-208h-317v-433h430v-231h-684v86q-69 -106 -225 -106t-251 123t-95 341v596q0 218 95 341.5t251 123.5q152 0 225 -104v84zM643 444v596q0 131 -37.5 184.5t-122.5 53.5q-84 0 -120.5 -52.5t-36.5 -183.5v-598q0 -135 36.5 -189
t120.5 -54q85 0 122.5 54t37.5 189z" />
    <glyph glyph-name="oe" unicode="&#x153;" horiz-adv-x="1214" 
d="M1165 477h-420v-151q0 -160 121 -160q56 0 89.5 37.5t52.5 118.5l159 -56q-74 -284 -317 -284q-147 0 -223 102q-83 -102 -242 -102q-154 0 -241 101t-87 247v385q0 96 36 174.5t111 128t177 49.5q167 0 250 -111q83 111 237 111q138 0 217.5 -103t79.5 -257v-230z
M512 700q0 93 -27.5 133.5t-85.5 40.5q-57 0 -83.5 -40t-26.5 -134v-356q0 -96 26.5 -138t83.5 -42q58 0 85.5 41t27.5 139v356zM745 725v-98h213v100q0 152 -106 152q-56 0 -81.5 -36.5t-25.5 -117.5z" />
    <glyph glyph-name="Scaron" unicode="&#x160;" horiz-adv-x="823" 
d="M399 1505q294 0 377 -329l-184 -70q-21 95 -62 137.5t-104 42.5q-133 0 -133 -151q0 -54 27 -101.5t70.5 -85.5t96.5 -77t105.5 -84.5t96 -98t70.5 -128t27 -165.5q0 -198 -99.5 -306.5t-272.5 -108.5q-145 0 -251.5 94.5t-133.5 261.5l200 61q21 -104 68.5 -152
t110.5 -48q70 0 103.5 38.5t33.5 120.5q0 63 -28 117t-72 95t-98 80.5t-108 84.5t-98 96t-72 125t-28 162q0 169 96.5 279t261.5 110zM168 1784h182l58 -111h4l59 111h180l-159 -238h-162z" />
    <glyph glyph-name="scaron" unicode="&#x161;" horiz-adv-x="688" 
d="M352 -18q-242 0 -309 258l166 65q42 -145 139 -145q86 0 86 108q0 39 -21.5 71t-55.5 56t-75.5 47.5t-82.5 52t-75 63.5t-55.5 89t-21.5 121q0 130 80 213.5t221 83.5q118 0 195 -70.5t102 -195.5l-168 -49q-18 73 -47.5 103t-71.5 30q-43 0 -66.5 -26.5t-23.5 -70.5
q0 -32 16.5 -60t43.5 -47.5t61.5 -41.5t71 -42.5t71 -50t61.5 -62.5t43.5 -83t16.5 -110q0 -134 -84.5 -220.5t-216.5 -86.5zM111 1485h180l59 -144h4l60 144h180l-160 -291h-162z" />
    <glyph glyph-name="Ydieresis" unicode="&#x178;" horiz-adv-x="940" 
d="M938 1485l-342 -1039v-446h-254v453l-340 1032h277l190 -744h4l189 744h276zM246 1784h168v-228h-168v228zM530 1784h168v-228h-168v228z" />
    <glyph glyph-name="Zcaron" unicode="&#x17d;" horiz-adv-x="849" 
d="M788 233v-233h-735v158l467 1093h-442v234h715v-160l-459 -1092h454zM199 1784h182l57 -111h4l60 111h180l-160 -238h-162z" />
    <glyph glyph-name="zcaron" unicode="&#x17e;" horiz-adv-x="694" 
d="M639 199v-199h-592v137l334 707h-315v203h581v-134l-338 -714h330zM123 1485h180l59 -144h5l59 144h180l-160 -291h-161z" />
    <glyph glyph-name="longs" unicode="&#x17f;" horiz-adv-x="497" 
d="M535 1493l12 -178q-91 -4 -126.5 -50.5t-35.5 -140.5v-1124h-229v858h-136v186h136v86q0 78 21 141.5t65 113.5t118.5 78t174.5 30z" />
    <glyph glyph-name="florin" unicode="&#x192;" horiz-adv-x="585" 
d="M569 1047l-30 -181h-162l-160 -983h-229l157 983h-90l31 181h88l14 83q26 162 135.5 260.5t305.5 102.5l-19 -178q-92 -4 -139 -51t-63 -140l-13 -77h174z" />
    <glyph glyph-name="uni0237" unicode="&#x237;" horiz-adv-x="399" 
d="M-14 -330l-15 189q65 9 95 54t30 146v988h232v-986q0 -373 -342 -391z" />
    <glyph glyph-name="uni02BB" unicode="&#x2bb;" horiz-adv-x="372" 
d="M297 1411v-252h-219v189q0 187 106 340l82 -37q-49 -104 -49 -226z" />
    <glyph glyph-name="afii57929" unicode="&#x2bc;" horiz-adv-x="372" 
d="M80 1280v252h217v-189q0 -187 -104 -337l-87 34q51 108 54 228z" />
    <glyph glyph-name="circumflex" unicode="&#x2c6;" horiz-adv-x="456" 
d="M166 1194h-180l161 291h162l160 -291h-180l-60 143h-4z" />
    <glyph glyph-name="caron" unicode="&#x2c7;" horiz-adv-x="456" 
d="M-14 1485h180l59 -144h4l60 144h180l-160 -291h-162z" />
    <glyph glyph-name="breve" unicode="&#x2d8;" horiz-adv-x="456" 
d="M-14 1485h161q6 -103 23.5 -139.5t56.5 -36.5q38 0 56 37t22 139h166q-14 -122 -42.5 -188t-75 -91.5t-126.5 -25.5t-126.5 25.5t-74 91.5t-40.5 188z" />
    <glyph glyph-name="dotaccent" unicode="&#x2d9;" horiz-adv-x="456" 
d="M92 1485h213v-260h-213v260z" />
    <glyph glyph-name="ring" unicode="&#x2da;" horiz-adv-x="456" 
d="M49 1348q0 76 49.5 120.5t128.5 44.5t130 -45t51 -120t-51 -120.5t-130 -45.5t-128.5 45t-49.5 121zM182 1348q0 -50 45 -50t45 50q0 51 -45 51t-45 -51z" />
    <glyph glyph-name="ogonek" unicode="&#x2db;" horiz-adv-x="456" 
d="M242 25l92 -13q-50 -21 -77.5 -60t-27.5 -81q0 -59 60 -59q51 0 92 28l41 -127q-64 -55 -178 -55q-98 0 -146.5 41t-48.5 113q0 139 193 213z" />
    <glyph glyph-name="tilde" unicode="&#x2dc;" horiz-adv-x="456" 
d="M379 1487l117 -21q-14 -142 -53.5 -212t-120.5 -70q-38 0 -70.5 22.5t-50 49t-37 49t-35.5 22.5q-21 0 -32.5 -28.5t-18.5 -100.5l-119 19q14 146 53 215t121 69q39 0 72 -22.5t50.5 -49t37 -49t35.5 -22.5q21 0 32.5 28t18.5 101z" />
    <glyph glyph-name="hungarumlaut" unicode="&#x2dd;" horiz-adv-x="456" 
d="M109 1485h217l-154 -291h-129zM385 1485h217l-192 -291h-131z" />
    <glyph glyph-name="gravecomb" unicode="&#x300;" 
d="M-487 1485h249l99 -291h-166z" />
    <glyph glyph-name="acutecomb" unicode="&#x301;" 
d="M-291 1485h250l-170 -291h-164z" />
    <glyph glyph-name="uni0302" unicode="&#x302;" 
d="M-276 1194h-181l162 291h162l160 -291h-181l-59 143h-4z" />
    <glyph glyph-name="tildecomb" unicode="&#x303;" 
d="M-86 1487l117 -21q-14 -142 -53.5 -212t-120.5 -70q-38 0 -70.5 22.5t-50 49t-37 49t-35.5 22.5q-21 0 -32.5 -28.5t-18.5 -100.5l-119 19q14 146 53 215t121 69q39 0 72 -22.5t50.5 -49t37 -49t35.5 -22.5q21 0 32.5 28t18.5 101z" />
    <glyph glyph-name="uni0304" unicode="&#x304;" 
d="M0 1417v-162h-455v162h455z" />
    <glyph glyph-name="uni0306" unicode="&#x306;" 
d="M-471 1485h162q6 -103 23.5 -139.5t56.5 -36.5q38 0 55.5 37t21.5 139h166q-14 -122 -42 -188t-74.5 -91.5t-126.5 -25.5q-119 0 -171.5 63t-70.5 242z" />
    <glyph glyph-name="uni0307" unicode="&#x307;" 
d="M-311 1485h213v-260h-213v260z" />
    <glyph glyph-name="uni0308" unicode="&#x308;" 
d="M-430 1485h162v-260h-162v260zM-178 1485h164v-260h-164v260z" />
    <glyph glyph-name="uni030A" unicode="&#x30a;" 
d="M-410 1348q0 75 50 120t129 45t129.5 -45t50.5 -120t-50.5 -120.5t-129.5 -45.5t-129 45t-50 121zM-276 1348q0 -50 45 -50t45 50q0 51 -45 51t-45 -51z" />
    <glyph glyph-name="uni030B" unicode="&#x30b;" 
d="M-346 1485h217l-154 -291h-129zM-70 1485h217l-192 -291h-131z" />
    <glyph glyph-name="uni030C" unicode="&#x30c;" 
d="M-471 1485h180l60 -144h4l59 144h180l-159 -291h-162z" />
    <glyph glyph-name="uni0312" unicode="&#x312;" 
d="M-238 1333v-147h-227v82q0 121 50 170t177 55l9 -86q-55 -4 -75 -18.5t-20 -47.5z" />
    <glyph glyph-name="uni0315" unicode="&#x315;" 
d="M-281 1485h191l-103 -291h-124z" />
    <glyph glyph-name="uni0326" unicode="&#x326;" 
d="M-512 -197v148h227v-82q0 -120 -49.5 -168.5t-177.5 -56.5l-8 86q56 6 75 20t19 45z" />
    <glyph glyph-name="uni0327" unicode="&#x327;" 
d="M-262 47l123 -10l-15 -86q131 -28 131 -125q0 -67 -62 -115t-169 -57l-43 104q48 11 72 24t24 32t-21.5 31t-80.5 16z" />
    <glyph glyph-name="uni0328" unicode="&#x328;" 
d="M-190 25l92 -13q-50 -21 -77.5 -60t-27.5 -81q0 -59 60 -59q51 0 92 28l41 -127q-64 -55 -178 -55q-98 0 -146.5 41t-48.5 113q0 139 193 213z" />
    <glyph glyph-name="uni0335" unicode="&#x335;" 
d="M0 606v-162h-455v162h455z" />
    <glyph glyph-name="uni0336" unicode="&#x336;" 
d="M-979 432v186h938v-186h-938z" />
    <glyph glyph-name="uni0394" unicode="&#x394;" horiz-adv-x="985" 
d="M12 0l371 1485h225l365 -1485h-961zM494 1133l-187 -914h367l-176 914h-4z" />
    <glyph glyph-name="uni03A9" unicode="&#x3a9;" horiz-adv-x="968" 
d="M483 1505q414 0 414 -430v-321q0 -270 -195 -348v-181h189v-225h-367v549q62 12 90.5 57t28.5 142v321q0 109 -38.5 158t-121.5 49q-81 0 -119 -49t-38 -158v-321q0 -97 28 -142t90 -57v-549h-366v225h188v181q-194 77 -194 348v321q0 430 411 430z" />
    <glyph glyph-name="uni03BC" unicode="&#x3bc;" horiz-adv-x="854" 
d="M84 371v676h229v-672q0 -91 27 -129.5t82 -38.5q78 0 117 63v777h231v-1047h-201l-8 76h-4q-52 -64 -127 -64q-84 0 -127 68h-4q15 -264 33 -387l-230 -19q-18 292 -18 697z" />
    <glyph glyph-name="pi" unicode="&#x3c0;" horiz-adv-x="841" 
d="M750 0h-232v854h-192v-664q0 -93 -56 -148.5t-151 -55.5q-49 0 -105 18v146h25q57 0 57 67v629h-71v201h792v-201h-67v-846z" />
    <glyph glyph-name="uni1E9E" unicode="&#x1e9e;" horiz-adv-x="997" 
d="M104 1485h811v-168l-200 -408q113 -26 170 -130.5t57 -321.5q0 -247 -85 -359t-257 -112q-123 0 -194 49l30 201q58 -35 119 -35q32 0 54 9.5t41 36t28.5 78.5t9.5 132q0 107 -17.5 165t-45 75.5t-74.5 17.5h-80v178l174 375h-289v-1268h-252v1485z" />
    <glyph glyph-name="uni2007" unicode="&#x2007;" horiz-adv-x="899" 
 />
    <glyph glyph-name="uni2008" unicode="&#x2008;" horiz-adv-x="376" 
 />
    <glyph glyph-name="uni200B" unicode="&#x200b;" horiz-adv-x="0" 
 />
    <glyph glyph-name="uni2010" unicode="&#x2010;" horiz-adv-x="471" 
d="M45 496v215h381v-215h-381z" />
    <glyph glyph-name="uni2011" unicode="&#x2011;" horiz-adv-x="471" 
d="M45 496v215h381v-215h-381z" />
    <glyph glyph-name="endash" unicode="&#x2013;" horiz-adv-x="712" 
d="M43 524v185h627v-185h-627z" />
    <glyph glyph-name="emdash" unicode="&#x2014;" horiz-adv-x="1024" 
d="M43 522v187h938v-187h-938z" />
    <glyph glyph-name="quoteleft" unicode="&#x2018;" horiz-adv-x="372" 
d="M297 1411v-252h-219v189q0 187 106 340l82 -37q-49 -104 -49 -226z" />
    <glyph glyph-name="quoteright" unicode="&#x2019;" horiz-adv-x="372" 
d="M80 1280v252h217v-189q0 -187 -104 -337l-87 34q51 108 54 228z" />
    <glyph glyph-name="quotesinglbase" unicode="&#x201a;" horiz-adv-x="372" 
d="M80 12v252h217v-188q0 -188 -104 -338l-87 35q51 108 54 227z" />
    <glyph glyph-name="quotedblleft" unicode="&#x201c;" horiz-adv-x="673" 
d="M600 1411v-252h-219v189q0 187 106 340l82 -37q-49 -104 -49 -226zM297 1411v-252h-219v189q0 187 106 340l82 -37q-49 -104 -49 -226z" />
    <glyph glyph-name="quotedblright" unicode="&#x201d;" horiz-adv-x="673" 
d="M383 1280v252h217v-189q0 -187 -104 -337l-86 34q50 106 53 228zM80 1280v252h217v-189q0 -187 -104 -337l-87 34q51 108 54 228z" />
    <glyph glyph-name="quotedblbase" unicode="&#x201e;" horiz-adv-x="657" 
d="M367 12v252h217v-188q0 -186 -105 -338l-86 35q50 106 53 227zM61 12v252h218v-188q0 -186 -105 -338l-86 35q50 106 53 227z" />
    <glyph glyph-name="dagger" unicode="&#x2020;" horiz-adv-x="735" 
d="M31 1163l229 -10l-12 377h229l-10 -377l229 10v-237l-229 8l10 -1239h-229l12 1239l-229 -8v237z" />
    <glyph glyph-name="daggerdbl" unicode="&#x2021;" horiz-adv-x="735" 
d="M260 291v643l-229 -8v237l229 -10l-12 377h229l-10 -377l229 10v-237l-229 8v-643l229 10v-240l-229 11l10 -377h-229l12 377l-229 -11v240z" />
    <glyph glyph-name="bullet" unicode="&#x2022;" horiz-adv-x="475" 
d="M27 637q0 100 61 168.5t150 68.5t150 -68.5t61 -168.5t-61 -169t-150 -69t-150 69t-61 169z" />
    <glyph glyph-name="ellipsis" unicode="&#x2026;" horiz-adv-x="1130" 
d="M66 0v270h245v-270h-245zM442 0v270h246v-270h-246zM819 0v270h246v-270h-246z" />
    <glyph glyph-name="perthousand" unicode="&#x2030;" horiz-adv-x="1568" 
d="M510 1217v-101q0 -140 -58 -213.5t-171 -73.5q-115 0 -173.5 73.5t-58.5 213.5v101q0 139 59 213.5t173 74.5q113 0 171 -74.5t58 -213.5zM213 1214v-98q0 -74 16 -102.5t52 -28.5t51.5 28t15.5 103v98q0 73 -15.5 101t-51.5 28t-52 -28t-16 -101zM82 0l715 1481h174
l-715 -1481h-174zM1014 358v-100q0 -139 -58.5 -212t-171.5 -73q-115 0 -173 73t-58 212v100q0 141 58.5 216t172.5 75q113 0 171.5 -75t58.5 -216zM717 358v-98q0 -76 14.5 -103.5t52.5 -27.5q37 0 52.5 28t15.5 103v98q0 73 -16 101t-52 28q-37 0 -52 -27.5t-15 -101.5z
M1532 358v-100q0 -139 -58 -212t-171 -73q-115 0 -173.5 73t-58.5 212v100q0 141 59 216t173 75q113 0 171 -75t58 -216zM1235 358v-98q0 -75 15.5 -103t52.5 -28t52 27.5t15 103.5v98q0 73 -15.5 101t-51.5 28t-52 -28t-16 -101z" />
    <glyph glyph-name="minute" unicode="&#x2032;" horiz-adv-x="282" 
d="M29 1167l67 416h158l-70 -416h-155z" />
    <glyph glyph-name="second" unicode="&#x2033;" horiz-adv-x="534" 
d="M29 1167l67 416h158l-70 -416h-155zM281 1167l67 416h158l-70 -416h-155z" />
    <glyph glyph-name="guilsinglleft" unicode="&#x2039;" horiz-adv-x="475" 
d="M432 895l-205 -356l205 -359h-190l-201 359l201 356h190z" />
    <glyph glyph-name="guilsinglright" unicode="&#x203a;" horiz-adv-x="475" 
d="M41 180l207 359l-207 356h192l199 -356l-199 -359h-192z" />
    <glyph glyph-name="uni203D" unicode="&#x203d;" horiz-adv-x="933" 
d="M27 1143q40 165 156.5 266.5t287.5 101.5q104 0 184.5 -29.5t130 -81t74.5 -117.5t25 -144q0 -152 -85 -279t-245 -219l-10 -195h-174l-13 392v458q-96 -47 -137 -202zM334 0v270h246v-270h-246zM657 1126q0 152 -110 183v-459q110 115 110 276z" />
    <glyph glyph-name="fraction" unicode="&#x2044;" horiz-adv-x="92" 
d="M-213 0h-145l669 1485h146z" />
    <glyph glyph-name="uni2070" unicode="&#x2070;" horiz-adv-x="466" 
d="M432 1409v-227q0 -103 -52 -162t-147 -59t-146.5 59t-51.5 162v227q0 103 51.5 162t146.5 59t147 -59t52 -162zM172 1405v-223q0 -57 14 -80t47 -23t47.5 23t14.5 80v223q0 53 -14.5 74.5t-47.5 21.5t-47 -21.5t-14 -74.5z" />
    <glyph glyph-name="uni2074" unicode="&#x2074;" horiz-adv-x="466" 
d="M401 969h-127v116h-256v95l244 442h139v-426h58l-8 -111h-50v-116zM156 1196h120l9 264h-4z" />
    <glyph glyph-name="uni2075" unicode="&#x2075;" horiz-adv-x="466" 
d="M139 1245l-90 43l23 334h338l-11 -123h-215l-6 -131q47 21 86 21q164 0 164 -201q0 -115 -50.5 -171t-154.5 -56q-75 0 -125 38.5t-67 114.5l104 35q24 -72 80 -72q38 0 53 24t15 85q0 45 -17.5 65.5t-56.5 20.5q-35 0 -70 -27z" />
    <glyph glyph-name="uni2076" unicode="&#x2076;" horiz-adv-x="466" 
d="M244 1630q67 0 114.5 -38t67.5 -113l-98 -39q-19 71 -76 71q-82 0 -82 -102v-57h4q37 32 100 32q160 0 160 -192q0 -231 -201 -231q-97 0 -146.5 58.5t-49.5 166.5v211q0 102 57 167.5t150 65.5zM240 1270q-29 0 -48 -11t-22 -28v-62q0 -88 68 -88q35 0 49 22.5t14 84.5
q0 45 -13.5 63.5t-47.5 18.5z" />
    <glyph glyph-name="uni2077" unicode="&#x2077;" horiz-adv-x="466" 
d="M233 969h-153l205 528h-244v125h387v-111z" />
    <glyph glyph-name="uni2078" unicode="&#x2078;" horiz-adv-x="466" 
d="M233 961q-100 0 -151 47.5t-51 156.5q0 111 80 146v4q-66 32 -66 139q0 82 45.5 129t142.5 47q189 0 189 -176q0 -102 -66 -139v-4q80 -35 80 -146q0 -108 -51.5 -156t-151.5 -48zM299 1169q0 49 -15 65.5t-51 16.5q-37 0 -51 -16.5t-14 -65.5q0 -56 15 -75t50 -19
q36 0 51 18.5t15 75.5zM233 1518q-33 0 -46 -16t-13 -64q0 -50 13 -67t46 -17t46.5 17.5t13.5 66.5q0 48 -13 64t-47 16z" />
    <glyph glyph-name="uni2079" unicode="&#x2079;" horiz-adv-x="466" 
d="M37 1106l92 47q15 -41 35.5 -58.5t52.5 -17.5q78 0 78 97v77h-4q-36 -28 -94 -28q-72 0 -118 47t-46 145q0 105 51.5 160t148.5 55q96 0 145.5 -57.5t49.5 -153.5v-243q0 -100 -54 -157.5t-149 -57.5q-148 0 -188 145zM227 1333q25 0 45 13t23 34v58q0 78 -62 78
q-36 0 -51.5 -20t-15.5 -71q0 -54 14 -73t47 -19z" />
    <glyph glyph-name="uni207A" unicode="&#x207a;" horiz-adv-x="403" 
d="M154 1085v146h-115v98h115v146h96v-146h115v-98h-115v-146h-96z" />
    <glyph glyph-name="uni207B" unicode="&#x207b;" horiz-adv-x="403" 
d="M365 1231h-326v98h326v-98z" />
    <glyph glyph-name="uni207C" unicode="&#x207c;" horiz-adv-x="403" 
d="M342 1298h-289v99h289v-99zM342 1147h-289v98h289v-98z" />
    <glyph glyph-name="uni207D" unicode="&#x207d;" horiz-adv-x="260" 
d="M49 1124v322q0 143 45.5 208.5t147.5 65.5h24v-94h-24q-82 0 -82 -180v-322q0 -182 82 -182h24v-92h-24q-102 0 -147.5 65.5t-45.5 208.5z" />
    <glyph glyph-name="uni207E" unicode="&#x207e;" horiz-adv-x="260" 
d="M213 1446v-322q0 -144 -45.5 -209t-149.5 -65h-24v94h24q82 0 82 180v322q0 180 -82 180h-24v94h24q104 0 149.5 -65t45.5 -209z" />
    <glyph glyph-name="uni207F" unicode="&#x207f;" horiz-adv-x="483" 
d="M53 969v518h125l6 -43h4q47 53 113 53q67 0 101 -47.5t34 -124.5v-356h-137v348q0 32 -11 46.5t-36 14.5q-36 0 -59 -37v-372h-140z" />
    <glyph glyph-name="uni2080" unicode="&#x2080;" horiz-adv-x="466" 
d="M432 203v-228q0 -103 -52 -162t-147 -59t-146.5 59t-51.5 162v228q0 103 51.5 162t146.5 59t147 -59t52 -162zM172 199v-224q0 -57 14 -79.5t47 -22.5t47.5 22.5t14.5 79.5v224q0 53 -14.5 74.5t-47.5 21.5t-47 -21.5t-14 -74.5z" />
    <glyph glyph-name="uni2081" unicode="&#x2081;" horiz-adv-x="466" 
d="M227 420h117v-658h-147v439h-115v102h45q52 0 70.5 21.5t29.5 95.5z" />
    <glyph glyph-name="uni2082" unicode="&#x2082;" horiz-adv-x="466" 
d="M238 424q94 0 140 -49.5t46 -126.5q0 -55 -21.5 -102t-53.5 -79.5t-65 -61t-60.5 -61t-35.5 -65.5h234v-117h-381l-2 62q2 57 28 109.5t61.5 91t70.5 73.5t59.5 71.5t24.5 70.5q0 63 -58 63q-30 0 -51.5 -24t-30.5 -70l-110 37q22 81 73 129.5t132 48.5z" />
    <glyph glyph-name="uni2083" unicode="&#x2083;" horiz-adv-x="466" 
d="M160 41v109h47q34 0 50.5 18.5t16.5 60.5q0 41 -13.5 58.5t-41.5 17.5q-31 0 -50.5 -18t-31.5 -60l-104 35q18 75 69 118.5t129 43.5q93 0 140 -49.5t47 -126.5q0 -111 -76 -144v-4q86 -27 86 -145q0 -101 -53.5 -151t-147.5 -50q-162 0 -198 154l104 37q24 -76 84 -76
q64 0 64 94q0 44 -17 61t-55 17h-49z" />
    <glyph glyph-name="uni2084" unicode="&#x2084;" horiz-adv-x="466" 
d="M401 -238h-127v117h-256v94l244 443h139v-426h58l-8 -111h-50v-117zM156 -10h120l9 264h-4z" />
    <glyph glyph-name="uni2085" unicode="&#x2085;" horiz-adv-x="466" 
d="M139 39l-90 43l23 334h338l-11 -123h-215l-6 -131q45 20 86 20q164 0 164 -200q0 -116 -50.5 -172t-154.5 -56q-75 0 -125 39t-67 115l104 35q24 -72 80 -72q38 0 53 24t15 85q0 45 -17.5 65.5t-56.5 20.5q-35 0 -70 -27z" />
    <glyph glyph-name="uni2086" unicode="&#x2086;" horiz-adv-x="466" 
d="M244 424q67 0 114.5 -38.5t67.5 -113.5l-98 -39q-20 72 -76 72q-82 0 -82 -102v-58h4q38 33 100 33q160 0 160 -192q0 -232 -201 -232q-97 0 -146.5 59t-49.5 167v210q0 102 57 168t150 66zM240 63q-63 0 -70 -38v-62q0 -88 68 -88q35 0 49 22.5t14 84.5q0 44 -13.5 62.5
t-47.5 18.5z" />
    <glyph glyph-name="uni2087" unicode="&#x2087;" horiz-adv-x="466" 
d="M233 -238h-153l205 529h-244v125h387v-111z" />
    <glyph glyph-name="uni2088" unicode="&#x2088;" horiz-adv-x="466" 
d="M233 -246q-99 0 -150.5 48t-51.5 157q0 110 80 145v5q-66 32 -66 139q0 82 45.5 129t142.5 47q189 0 189 -176q0 -102 -66 -139v-5q80 -35 80 -145q0 -109 -52 -157t-151 -48zM299 -37q0 49 -15 65.5t-51 16.5q-37 0 -51 -16.5t-14 -65.5q0 -56 15 -75t50 -19
q36 0 51 18.5t15 75.5zM233 311q-33 0 -46 -16t-13 -64q0 -50 13 -67t46 -17t46.5 17.5t13.5 66.5q0 48 -13 64t-47 16z" />
    <glyph glyph-name="uni2089" unicode="&#x2089;" horiz-adv-x="466" 
d="M37 -100l92 47q15 -41 35.5 -58.5t52.5 -17.5q78 0 78 96v78h-4q-37 -29 -94 -29q-72 0 -118 47.5t-46 145.5q0 105 51.5 160t148.5 55q96 0 145.5 -57.5t49.5 -153.5v-244q0 -100 -54 -157.5t-149 -57.5q-148 0 -188 146zM227 127q25 0 45 13t23 34v57q0 78 -62 78
q-36 0 -51.5 -19.5t-15.5 -70.5q0 -54 14 -73t47 -19z" />
    <glyph glyph-name="uni208A" unicode="&#x208a;" horiz-adv-x="403" 
d="M154 -121v146h-115v98h115v145h96v-145h115v-98h-115v-146h-96z" />
    <glyph glyph-name="uni208B" unicode="&#x208b;" horiz-adv-x="403" 
d="M365 25h-326v98h326v-98z" />
    <glyph glyph-name="uni208C" unicode="&#x208c;" horiz-adv-x="403" 
d="M342 92h-289v98h289v-98zM342 -59h-289v98h289v-98z" />
    <glyph glyph-name="uni208D" unicode="&#x208d;" horiz-adv-x="260" 
d="M49 -82v322q0 143 45.5 208.5t147.5 65.5h24v-94h-24q-82 0 -82 -180v-322q0 -182 82 -182h24v-92h-24q-102 0 -147.5 65.5t-45.5 208.5z" />
    <glyph glyph-name="uni208E" unicode="&#x208e;" horiz-adv-x="260" 
d="M213 240v-322q0 -144 -45.5 -209t-149.5 -65h-24v94h24q82 0 82 180v322q0 180 -82 180h-24v94h24q104 0 149.5 -65t45.5 -209z" />
    <glyph glyph-name="franc" unicode="&#x20a3;" horiz-adv-x="825" 
d="M6 193v172h103v1120h667v-236h-414v-385h359v-221h-359v-278h146v-172h-146v-193h-253v193h-103z" />
    <glyph glyph-name="lira" unicode="&#x20a4;" horiz-adv-x="966" 
d="M92 750l-20 143h96q-12 89 -12 166q0 212 93.5 331t266.5 119q139 0 227.5 -87.5t112.5 -243.5l-180 -60q-18 91 -54.5 128.5t-95.5 37.5q-70 0 -103.5 -61t-33.5 -189q0 -58 6 -141h357l-21 -143h-323l6 -62h305l-14 -135h-279q10 -105 10 -158q39 -18 75 -51.5
t57 -61.5t48.5 -49.5t55.5 -21.5q40 0 61 44t33 161l180 -47q-21 -207 -85.5 -298t-174.5 -91q-29 0 -55 6.5t-49 21.5t-40 28t-37 38.5t-29.5 39t-29.5 44t-26 39.5l-4 4q-21 -113 -78.5 -167t-140.5 -54q-84 0 -132.5 50.5t-48.5 141.5q0 104 61 168t169 76q-4 35 -23 137
h-104l-17 135h97l-11 62h-96zM211 143q22 0 34 31t13 115q-39 -10 -57.5 -38.5t-18.5 -62.5q0 -45 29 -45z" />
    <glyph glyph-name="peseta" unicode="&#x20a7;" horiz-adv-x="1669" 
d="M365 1485q143 0 220 -116.5t77 -348.5q0 -227 -75.5 -343t-215.5 -116h-84v-561h-213v1485h291zM1632 793l-145 -45q-20 129 -80 129q-27 0 -41 -26t-14 -69q0 -35 16 -65.5t41.5 -56t56 -51.5t61 -57.5t56 -68t41.5 -89.5t16 -115q0 -140 -62 -219.5t-171 -79.5
q-212 0 -248 288l152 37q10 -85 31 -118t55 -33q61 0 61 110q0 41 -16.5 76t-42.5 61.5t-57.5 52.5t-62.5 55.5t-57 64.5t-42.5 86.5t-16.5 113.5q0 130 62.5 210.5t169.5 80.5q97 0 159.5 -72.5t77.5 -199.5zM1114 1049v-193h-133v-604q0 -86 70 -86q19 0 55 12l22 -151
q-67 -45 -147 -45q-101 0 -149 66t-48 204v602l-79 23v167l88 7l51 266h137v-268h133zM287 1280v-535h73q45 0 67 60t22 213q0 105 -11 164t-29 78.5t-49 19.5h-73z" />
    <glyph glyph-name="Euro" unicode="&#x20ac;" horiz-adv-x="917" 
d="M496 1505q143 0 239 -94t121 -250l-192 -59q-30 162 -150 162q-74 0 -111.5 -55t-37.5 -158v-105h348l-23 -145h-325v-64h313l-23 -143h-290v-184q0 -98 37 -151.5t112 -53.5q63 0 98 41.5t52 142.5l194 -59q-27 -182 -117.5 -266t-248.5 -84q-178 0 -280.5 116
t-102.5 312v186h-84v143h84v64h-84v145h84v105q0 213 104 333.5t283 120.5z" />
    <glyph glyph-name="uni20B4" unicode="&#x20b4;" horiz-adv-x="854" 
d="M51 795v153h461q55 85 55 180q0 94 -30.5 137.5t-106.5 43.5q-73 0 -117.5 -42.5t-70.5 -138.5l-174 62q92 315 383 315q108 0 183.5 -49t109.5 -127.5t34 -179.5q0 -113 -53 -201h80v-153h-209q-18 -17 -54.5 -48t-41.5 -36h303v-154h-443q-59 -91 -59 -209
q0 -84 40.5 -127t115.5 -43q139 0 190 193l162 -56q-40 -170 -132 -252.5t-241 -82.5q-174 0 -259 95.5t-85 252.5q0 127 60 229h-101v154h225l93 84h-318z" />
    <glyph glyph-name="uni20B8" unicode="&#x20b8;" horiz-adv-x="800" 
d="M20 1229h762v-180h-254v-1049h-254v1049h-254v180zM782 1305h-762v180h762v-180z" />
    <glyph glyph-name="uni20BA" unicode="&#x20ba;" horiz-adv-x="827" 
d="M29 645v182l92 52v606h241v-500l234 133v-182l-234 -133v-78l234 133v-184l-234 -131v-305h109q65 0 103.5 42t56.5 142l186 -92q-28 -172 -116 -251t-232 -79h-348v436l-92 -51v182l92 51v78z" />
    <glyph glyph-name="uni20BD" unicode="&#x20bd;" horiz-adv-x="888" 
d="M373 0h-254v332h-86v188h86v66h-86v186h86v713h381q173 0 265.5 -116.5t92.5 -336.5q0 -215 -89.5 -330.5t-256.5 -115.5h-139v-66h237v-188h-237v-332zM373 1280v-508h110q64 0 92.5 58t28.5 200t-28 196t-93 54h-110z" />
    <glyph glyph-name="afii61248" unicode="&#x2105;" horiz-adv-x="1497" 
d="M334 1509q99 0 168 -59.5t88 -151.5l-146 -51q-21 88 -94 88q-45 0 -68.5 -31.5t-23.5 -89.5v-346q0 -114 92 -114q75 0 94 100l148 -49q-43 -211 -260 -211q-126 0 -200.5 74t-74.5 200v346q0 137 75.5 216t201.5 79zM1440 600v-309q0 -142 -77 -222.5t-220 -80.5
q-141 0 -218 81t-77 222v309q0 141 77 222t218 81q143 0 220 -80.5t77 -222.5zM1241 291v309q0 73 -22.5 103t-75.5 30q-52 0 -74 -30t-22 -103v-309q0 -74 22.5 -105.5t73.5 -31.5q53 0 75.5 31t22.5 106zM471 0h-141l667 1485h142z" />
    <glyph glyph-name="afii61289" unicode="&#x2113;" horiz-adv-x="1290" 
d="M305 481l-33 166q41 10 105 41q28 378 142 599.5t284 221.5q98 0 147 -64t49 -177q0 -162 -123 -339t-307 -308q-2 -41 -2 -127q0 -125 8 -191.5t23.5 -91.5t44.5 -25q27 0 58 40t51 83.5t34 85.5l154 -45q-40 -164 -133.5 -268.5t-202.5 -104.5q-125 0 -180 111.5
t-55 378.5v39q-43 -19 -64 -25zM778 1317q-59 0 -114 -128t-80 -353l4 4q103 96 167 202t64 197q0 78 -41 78z" />
    <glyph glyph-name="afii61352" unicode="&#x2116;" horiz-adv-x="1513" 
d="M104 1485h187l389 -850h4v850h221v-1485h-172l-401 879h-4v-879h-224v1485zM1442 1282v-238q0 -103 -57.5 -163t-163.5 -60t-164 60t-58 163v238q0 100 58 162.5t164 62.5q109 0 165 -61.5t56 -163.5zM1006 629v139h440v-139h-440zM1151 1276v-225q0 -95 68 -95
q37 0 53 22t16 73v225q0 52 -16 73t-53 21q-35 0 -51.5 -21.5t-16.5 -72.5z" />
    <glyph glyph-name="uni2117" unicode="&#x2117;" horiz-adv-x="1261" 
d="M1188 915v-352q0 -126 -36 -234t-105 -188.5t-175.5 -126t-240.5 -45.5t-240.5 45.5t-175.5 126t-105 188.5t-36 234v352q0 169 62 301.5t190 212.5t305 80t305 -80t190 -212.5t62 -301.5zM1036 563v352q0 204 -105 325.5t-300 121.5t-300.5 -122t-105.5 -325v-352
q0 -203 105.5 -324.5t300.5 -121.5t300 121.5t105 324.5zM664 1239q137 0 210.5 -81t73.5 -234q0 -152 -71.5 -232t-204.5 -80h-103v-360h-190v987h285zM569 1083v-325h90q52 0 75.5 38.5t23.5 127.5t-23.5 124t-75.5 35h-90z" />
    <glyph glyph-name="uni2120" unicode="&#x2120;" horiz-adv-x="1015" 
d="M838 1485h129v-660h-125v349h-4l-88 -263h-62l-88 263h-4v-349h-125v660h129l117 -367h4zM416 1331l-103 -31q-22 84 -73 84q-56 0 -56 -53q0 -31 24 -56.5t58 -47t68 -47t58 -69.5t24 -101q0 -85 -52.5 -140t-134.5 -55q-151 0 -190 170l104 35q13 -46 35.5 -69
t46.5 -23q54 0 54 65q0 29 -17.5 52.5t-43.5 39t-56 36.5t-56 43.5t-43.5 61.5t-17.5 89q0 81 51.5 133.5t139.5 52.5q70 0 118 -46.5t62 -123.5z" />
    <glyph glyph-name="trademark" unicode="&#x2122;" horiz-adv-x="956" 
d="M776 1485h131v-660h-125v349h-4l-90 -263h-61l-88 263h-4v-349h-125v660h131l114 -363h4zM18 1485h342v-127h-100v-533h-141v533h-101v127z" />
    <glyph glyph-name="Omega" unicode="&#x2126;" horiz-adv-x="968" 
d="M483 1505q414 0 414 -430v-321q0 -270 -195 -348v-181h189v-225h-367v549q62 12 90.5 57t28.5 142v321q0 109 -38.5 158t-121.5 49q-81 0 -119 -49t-38 -158v-321q0 -97 28 -142t90 -57v-549h-366v225h188v181q-194 77 -194 348v321q0 430 411 430z" />
    <glyph glyph-name="estimated" unicode="&#x212e;" horiz-adv-x="1486" 
d="M1430 688h-1117v-196q0 -107 57 -198t165.5 -147.5t246.5 -56.5q155 0 277 65t205 179l104 -74q-97 -136 -252 -210.5t-344 -74.5q-154 0 -287.5 53.5t-227 146t-147 220.5t-53.5 273q0 194 86 352.5t244 251t358 92.5q154 0 278.5 -51t208.5 -143t134 -214t64 -268z
M313 868v-63h863v63q0 163 -114.5 270t-313.5 107q-196 0 -315.5 -108t-119.5 -269z" />
    <glyph glyph-name="uni2150" unicode="&#x2150;" horiz-adv-x="1026" 
d="M227 1489h117v-658h-147v439h-115v102h45q52 0 70.5 21.5t29.5 95.5zM254 0h-145l669 1485h146zM793 0h-154l205 528h-244v125h387v-110z" />
    <glyph glyph-name="uni2151" unicode="&#x2151;" horiz-adv-x="1026" 
d="M227 1489h117v-658h-147v439h-115v102h45q52 0 70.5 21.5t29.5 95.5zM254 0h-145l669 1485h146zM596 137l92 47q15 -41 35 -58t53 -17q78 0 78 96v78h-4q-37 -29 -94 -29q-72 0 -118 47t-46 145q0 105 52 160.5t149 55.5q96 0 145 -57.5t49 -153.5v-244
q0 -100 -54 -157.5t-149 -57.5q-148 0 -188 145zM786 365q25 0 45 13t23 34v57q0 78 -61 78q-36 0 -52 -19.5t-16 -70.5q0 -54 14 -73t47 -19z" />
    <glyph glyph-name="uni2152" unicode="&#x2152;" horiz-adv-x="1492" 
d="M227 1489h117v-658h-147v439h-115v102h45q52 0 70.5 21.5t29.5 95.5zM254 0h-145l669 1485h146zM786 657h117v-657h-147v438h-115v103h45q53 0 71.5 21.5t28.5 94.5zM1458 440v-227q0 -103 -51.5 -162t-146.5 -59t-147 59t-52 162v227q0 103 52 162.5t147 59.5
t146.5 -59.5t51.5 -162.5zM1198 436v-223q0 -57 14.5 -79.5t47.5 -22.5t47 22.5t14 79.5v223q0 53 -14 74.5t-47 21.5t-47.5 -21.5t-14.5 -74.5z" />
    <glyph glyph-name="onethird" unicode="&#x2153;" horiz-adv-x="1026" 
d="M227 1489h117v-658h-147v439h-115v102h45q52 0 70.5 21.5t29.5 95.5zM254 0h-145l669 1485h146zM719 279v108h47q68 0 68 80q0 76 -56 76q-31 0 -50.5 -18t-31.5 -60l-104 35q18 75 69.5 118.5t129.5 43.5q93 0 139.5 -49.5t46.5 -127.5q0 -110 -76 -143v-4
q86 -27 86 -145q0 -101 -53.5 -151t-147.5 -50q-162 0 -198 153l104 37q24 -76 84 -76q64 0 64 95q0 44 -17 61t-55 17h-49z" />
    <glyph glyph-name="twothirds" unicode="&#x2154;" horiz-adv-x="1026" 
d="M238 1493q94 0 140 -49.5t46 -126.5q0 -55 -21.5 -102t-53.5 -79.5t-65 -61t-60.5 -61t-35.5 -65.5h234v-117h-381l-2 62q2 57 28 109.5t61.5 91t70.5 73.5t59.5 71.5t24.5 70.5q0 63 -58 63q-30 0 -51.5 -24t-30.5 -70l-110 37q22 81 73 129.5t132 48.5zM254 0h-145
l669 1485h146zM719 279v108h47q68 0 68 80q0 76 -56 76q-31 0 -50.5 -18t-31.5 -60l-104 35q18 75 69.5 118.5t129.5 43.5q93 0 139.5 -49.5t46.5 -127.5q0 -110 -76 -143v-4q86 -27 86 -145q0 -101 -53.5 -151t-147.5 -50q-162 0 -198 153l104 37q24 -76 84 -76q64 0 64 95
q0 44 -17 61t-55 17h-49z" />
    <glyph glyph-name="uni2155" unicode="&#x2155;" horiz-adv-x="1026" 
d="M227 1489h117v-658h-147v439h-115v102h45q52 0 70.5 21.5t29.5 95.5zM254 0h-145l669 1485h146zM698 276l-90 43l23 334h338l-11 -123h-215l-6 -131q47 21 86 21q164 0 164 -201q0 -115 -50.5 -171t-154.5 -56q-75 0 -125 38.5t-67 114.5l104 35q23 -71 80 -71
q38 0 53 23.5t15 84.5q0 45 -17.5 65.5t-56.5 20.5q-35 0 -70 -27z" />
    <glyph glyph-name="uni2156" unicode="&#x2156;" horiz-adv-x="1026" 
d="M238 1493q94 0 140 -49.5t46 -126.5q0 -55 -21.5 -102t-53.5 -79.5t-65 -61t-60.5 -61t-35.5 -65.5h234v-117h-381l-2 62q2 57 28 109.5t61.5 91t70.5 73.5t59.5 71.5t24.5 70.5q0 63 -58 63q-30 0 -51.5 -24t-30.5 -70l-110 37q22 81 73 129.5t132 48.5zM254 0h-145
l669 1485h146zM698 276l-90 43l23 334h338l-11 -123h-215l-6 -131q47 21 86 21q164 0 164 -201q0 -115 -50.5 -171t-154.5 -56q-75 0 -125 38.5t-67 114.5l104 35q23 -71 80 -71q38 0 53 23.5t15 84.5q0 45 -17.5 65.5t-56.5 20.5q-35 0 -70 -27z" />
    <glyph glyph-name="uni2157" unicode="&#x2157;" horiz-adv-x="1026" 
d="M160 1110v109h47q34 0 50.5 18.5t16.5 60.5q0 41 -13.5 58.5t-41.5 17.5q-31 0 -50.5 -18t-31.5 -60l-104 35q18 75 69 118.5t129 43.5q93 0 140 -49.5t47 -126.5q0 -110 -76 -143v-5q86 -27 86 -145q0 -101 -53.5 -151t-147.5 -50q-162 0 -198 154l104 37q24 -76 84 -76
q64 0 64 94q0 44 -17 61t-55 17h-49zM254 0h-145l669 1485h146zM698 276l-90 43l23 334h338l-11 -123h-215l-6 -131q47 21 86 21q164 0 164 -201q0 -115 -50.5 -171t-154.5 -56q-75 0 -125 38.5t-67 114.5l104 35q23 -71 80 -71q38 0 53 23.5t15 84.5q0 45 -17.5 65.5
t-56.5 20.5q-35 0 -70 -27z" />
    <glyph glyph-name="uni2158" unicode="&#x2158;" horiz-adv-x="1026" 
d="M401 831h-127v117h-256v94l244 443h139v-426h58l-8 -111h-50v-117zM156 1059h120l9 264h-4zM254 0h-145l669 1485h146zM698 276l-90 43l23 334h338l-11 -123h-215l-6 -131q47 21 86 21q164 0 164 -201q0 -115 -50.5 -171t-154.5 -56q-75 0 -125 38.5t-67 114.5l104 35
q23 -71 80 -71q38 0 53 23.5t15 84.5q0 45 -17.5 65.5t-56.5 20.5q-35 0 -70 -27z" />
    <glyph glyph-name="uni2159" unicode="&#x2159;" horiz-adv-x="1026" 
d="M227 1489h117v-658h-147v439h-115v102h45q52 0 70.5 21.5t29.5 95.5zM254 0h-145l669 1485h146zM803 662q67 0 114.5 -38.5t67.5 -113.5l-98 -39q-20 72 -76 72q-82 0 -82 -103v-57h4q38 33 101 33q159 0 159 -193q0 -231 -200 -231q-97 0 -147 59t-50 166v211
q0 102 57 168t150 66zM799 301q-29 0 -48 -11t-22 -28v-61q0 -88 68 -88q35 0 49 22.5t14 83.5q0 45 -13.5 63.5t-47.5 18.5z" />
    <glyph glyph-name="uni215A" unicode="&#x215a;" horiz-adv-x="1026" 
d="M139 1108l-90 43l23 334h338l-11 -123h-215l-6 -131q45 20 86 20q164 0 164 -200q0 -116 -50.5 -172t-154.5 -56q-75 0 -125 39t-67 115l104 35q24 -72 80 -72q38 0 53 24t15 85q0 45 -17.5 65.5t-56.5 20.5q-35 0 -70 -27zM254 0h-145l669 1485h146zM803 662
q67 0 114.5 -38.5t67.5 -113.5l-98 -39q-20 72 -76 72q-82 0 -82 -103v-57h4q38 33 101 33q159 0 159 -193q0 -231 -200 -231q-97 0 -147 59t-50 166v211q0 102 57 168t150 66zM799 301q-29 0 -48 -11t-22 -28v-61q0 -88 68 -88q35 0 49 22.5t14 83.5q0 45 -13.5 63.5
t-47.5 18.5z" />
    <glyph glyph-name="oneeighth" unicode="&#x215b;" horiz-adv-x="1026" 
d="M227 1489h117v-658h-147v439h-115v102h45q52 0 70.5 21.5t29.5 95.5zM254 0h-145l669 1485h146zM793 -8q-99 0 -151 48t-52 157q0 110 80 145v4q-66 32 -66 139q0 82 46 129.5t143 47.5q188 0 188 -177q0 -102 -66 -139v-4q80 -35 80 -145q0 -109 -51.5 -157t-150.5 -48z
M858 201q0 49 -14.5 65.5t-50.5 16.5q-37 0 -51.5 -16.5t-14.5 -65.5q0 -56 15.5 -75.5t50.5 -19.5q36 0 50.5 19t14.5 76zM793 549q-34 0 -47 -16t-13 -64q0 -49 13.5 -66.5t46.5 -17.5t46 17t13 67q0 48 -13 64t-46 16z" />
    <glyph glyph-name="threeeighths" unicode="&#x215c;" horiz-adv-x="1026" 
d="M160 1110v109h47q34 0 50.5 18.5t16.5 60.5q0 41 -13.5 58.5t-41.5 17.5q-31 0 -50.5 -18t-31.5 -60l-104 35q18 75 69 118.5t129 43.5q93 0 140 -49.5t47 -126.5q0 -110 -76 -143v-5q86 -27 86 -145q0 -101 -53.5 -151t-147.5 -50q-162 0 -198 154l104 37q24 -76 84 -76
q64 0 64 94q0 44 -17 61t-55 17h-49zM254 0h-145l669 1485h146zM793 -8q-99 0 -151 48t-52 157q0 110 80 145v4q-66 32 -66 139q0 82 46 129.5t143 47.5q188 0 188 -177q0 -102 -66 -139v-4q80 -35 80 -145q0 -109 -51.5 -157t-150.5 -48zM858 201q0 49 -14.5 65.5
t-50.5 16.5q-37 0 -51.5 -16.5t-14.5 -65.5q0 -56 15.5 -75.5t50.5 -19.5q36 0 50.5 19t14.5 76zM793 549q-34 0 -47 -16t-13 -64q0 -49 13.5 -66.5t46.5 -17.5t46 17t13 67q0 48 -13 64t-46 16z" />
    <glyph glyph-name="fiveeighths" unicode="&#x215d;" horiz-adv-x="1026" 
d="M139 1108l-90 43l23 334h338l-11 -123h-215l-6 -131q45 20 86 20q164 0 164 -200q0 -116 -50.5 -172t-154.5 -56q-75 0 -125 39t-67 115l104 35q24 -72 80 -72q38 0 53 24t15 85q0 45 -17.5 65.5t-56.5 20.5q-35 0 -70 -27zM254 0h-145l669 1485h146zM793 -8
q-99 0 -151 48t-52 157q0 110 80 145v4q-66 32 -66 139q0 82 46 129.5t143 47.5q188 0 188 -177q0 -102 -66 -139v-4q80 -35 80 -145q0 -109 -51.5 -157t-150.5 -48zM858 201q0 49 -14.5 65.5t-50.5 16.5q-37 0 -51.5 -16.5t-14.5 -65.5q0 -56 15.5 -75.5t50.5 -19.5
q36 0 50.5 19t14.5 76zM793 549q-34 0 -47 -16t-13 -64q0 -49 13.5 -66.5t46.5 -17.5t46 17t13 67q0 48 -13 64t-46 16z" />
    <glyph glyph-name="seveneighths" unicode="&#x215e;" horiz-adv-x="1026" 
d="M233 831h-153l205 529h-244v125h387v-111zM254 0h-145l669 1485h146zM793 -8q-99 0 -151 48t-52 157q0 110 80 145v4q-66 32 -66 139q0 82 46 129.5t143 47.5q188 0 188 -177q0 -102 -66 -139v-4q80 -35 80 -145q0 -109 -51.5 -157t-150.5 -48zM858 201q0 49 -14.5 65.5
t-50.5 16.5q-37 0 -51.5 -16.5t-14.5 -65.5q0 -56 15.5 -75.5t50.5 -19.5q36 0 50.5 19t14.5 76zM793 549q-34 0 -47 -16t-13 -64q0 -49 13.5 -66.5t46.5 -17.5t46 17t13 67q0 48 -13 64t-46 16z" />
    <glyph glyph-name="uni215F" unicode="&#x215f;" horiz-adv-x="559" 
d="M227 1489h117v-658h-147v439h-115v102h45q52 0 70.5 21.5t29.5 95.5zM254 0h-145l669 1485h146z" />
    <glyph glyph-name="uni2189" unicode="&#x2189;" horiz-adv-x="1026" 
d="M432 1272v-228q0 -103 -52 -162t-147 -59t-146.5 59t-51.5 162v228q0 103 51.5 162t146.5 59t147 -59t52 -162zM172 1268v-224q0 -57 14 -79.5t47 -22.5t47.5 22.5t14.5 79.5v224q0 53 -14.5 74.5t-47.5 21.5t-47 -21.5t-14 -74.5zM254 0h-145l669 1485h146zM719 279v108
h47q68 0 68 80q0 76 -56 76q-31 0 -50.5 -18t-31.5 -60l-104 35q18 75 69.5 118.5t129.5 43.5q93 0 139.5 -49.5t46.5 -127.5q0 -110 -76 -143v-4q86 -27 86 -145q0 -101 -53.5 -151t-147.5 -50q-162 0 -198 153l104 37q24 -76 84 -76q64 0 64 95q0 44 -17 61t-55 17h-49z
" />
    <glyph glyph-name="partialdiff" unicode="&#x2202;" horiz-adv-x="819" 
d="M430 1067q103 0 164 -55h4v16q0 141 -62.5 224t-207.5 110l65 168q113 -17 193.5 -61.5t125.5 -112t65 -147.5t20 -181q0 -104 -19 -227l-63 -424q-27 -180 -134.5 -287.5t-277.5 -107.5q-144 0 -216.5 77.5t-72.5 210.5q0 40 6 84l54 342q27 169 118.5 270t237.5 101z
M479 356l51 332q7 51 7 74q0 55 -22.5 79.5t-68.5 24.5q-60 0 -96 -42t-49 -136l-49 -332q-6 -44 -6 -77q0 -56 21 -80.5t67 -24.5q59 0 94.5 42.5t50.5 139.5z" />
    <glyph glyph-name="Delta" unicode="&#x2206;" horiz-adv-x="985" 
d="M12 0l371 1485h225l365 -1485h-961zM494 1133l-187 -914h367l-176 914h-4z" />
    <glyph glyph-name="product" unicode="&#x220f;" horiz-adv-x="997" 
d="M35 1485h928v-234h-103v-1368h-231v1370h-262v-1370h-228v1368h-104v234z" />
    <glyph glyph-name="summation" unicode="&#x2211;" horiz-adv-x="886" 
d="M51 1485h791v-236h-469l276 -536l-280 -596h485v-234h-803v119l344 711l-344 639v133z" />
    <glyph glyph-name="minus" unicode="&#x2212;" horiz-adv-x="772" 
d="M698 539h-624v186h624v-186z" />
    <glyph glyph-name="uni2219" unicode="&#x2219;" horiz-adv-x="772" 
d="M174 637q0 100 61 168.5t150 68.5t150 -68.5t61 -168.5t-61 -169t-150 -69t-150 69t-61 169z" />
    <glyph glyph-name="radical" unicode="&#x221a;" horiz-adv-x="989" 
d="M991 1530l-354 -1530h-275l-215 829l-131 33v185h351l131 -711h4l217 1194h272z" />
    <glyph glyph-name="infinity" unicode="&#x221e;" horiz-adv-x="1003" 
d="M944 578q0 -157 -60 -237.5t-151 -80.5q-69 0 -121.5 40t-111.5 124q-57 -83 -110 -123.5t-122 -40.5q-90 0 -150.5 80.5t-60.5 237.5q0 155 60.5 236t150.5 81q69 0 122 -40.5t110 -123.5q59 84 111.5 124t121.5 40q91 0 151 -80.5t60 -236.5zM586 578q47 -76 72 -105
t53 -29q69 0 69 134q0 133 -69 133q-29 0 -54 -28.5t-71 -104.5zM416 578q-44 75 -69.5 104t-55.5 29q-68 0 -68 -133q0 -134 68 -134q30 0 56 29.5t69 104.5z" />
    <glyph glyph-name="integral" unicode="&#x222b;" horiz-adv-x="399" 
d="M436 1745l15 -189q-65 -11 -94 -55t-29 -145v-1295q0 -373 -342 -391l-15 189q65 9 95 54t30 146v1293q0 189 84.5 285.5t255.5 107.5z" />
    <glyph glyph-name="approxequal" unicode="&#x2248;" horiz-adv-x="772" 
d="M676 872v-184q-79 -47 -158 -47q-56 0 -146.5 34t-138.5 34q-69 0 -137 -47v184q76 45 158 45q59 0 153.5 -34t139.5 -34q69 0 129 49zM676 563v-184q-76 -45 -156 -45q-56 0 -148.5 33.5t-140.5 33.5q-67 0 -135 -47v185q78 45 156 45q60 0 156.5 -35t140.5 -35
q67 0 127 49z" />
    <glyph glyph-name="notequal" unicode="&#x2260;" horiz-adv-x="772" 
d="M602 1004l-55 -142h129v-186h-199l-47 -121h246v-186h-318l-71 -191l-117 45l55 146h-129v186h201l45 121h-246v186h318l73 191z" />
    <glyph glyph-name="lessequal" unicode="&#x2264;" horiz-adv-x="772" 
d="M664 854l-273 -172l273 -170v-244l-586 404v20l586 412v-250zM84 59v177h580v-177h-580z" />
    <glyph glyph-name="greaterequal" unicode="&#x2265;" horiz-adv-x="772" 
d="M109 512l270 170l-270 172v250l585 -412v-20l-585 -404v244zM688 236v-177h-579v177h579z" />
    <glyph glyph-name="dotmath" unicode="&#x22c5;" horiz-adv-x="772" 
d="M246 659q0 65 40.5 111.5t98.5 46.5t99.5 -46.5t41.5 -111.5q0 -64 -41 -109.5t-100 -45.5q-58 0 -98.5 45t-40.5 110z" />
    <glyph glyph-name="lozenge" unicode="&#x25ca;" horiz-adv-x="739" 
d="M59 745l310 740l311 -740l-311 -745zM244 745l125 -303l127 303l-127 299z" />
    <glyph glyph-name="uni2E18" unicode="&#x2e18;" horiz-adv-x="933" 
d="M713 197l194 -50q-40 -165 -156.5 -266.5t-289.5 -101.5q-202 0 -307 105.5t-105 267.5q0 151 84.5 278.5t243.5 218.5l10 195h176l12 -391v-459q93 45 138 203zM600 1290v-270h-244v270h244zM274 164q0 -151 113 -182v454q-113 -110 -113 -272z" />
    <glyph glyph-name="uniFB00" unicode="&#xfb00;" horiz-adv-x="978" 
d="M958 1044v-186h-161v-858h-232v858h-225v-858h-231v858h-89v186h89v86q0 78 21.5 141.5t65.5 113.5t118.5 78t174.5 30l11 -178q-92 -4 -131 -51t-39 -140v-80h235v86q0 78 21.5 141.5t66 113.5t119 78t174.5 30l10 -178q-92 -4 -131 -51t-39 -140v-80h172z" />
    <glyph glyph-name="fi" unicode="&#xfb01;" horiz-adv-x="888" 
d="M489 1493l11 -178q-92 -4 -131 -51t-39 -140v-80h465v-1044h-230v858h-225v-858h-231v858h-89v186h89v86q0 78 21.5 141.5t65.5 113.5t118.5 78t174.5 30zM586 1485h200v-260h-200v260z" />
    <glyph glyph-name="fl" unicode="&#xfb02;" horiz-adv-x="909" 
d="M481 1044v-188h-141v-856h-231v856h-89v188h89v86q0 80 22 144t68.5 113.5t125.5 76.5t187 27h68v39h229v-1530h-229v1315h-66q-98 -1 -141 -47t-43 -144v-80h151z" />
    <glyph glyph-name="uniFB03" unicode="&#xfb03;" horiz-adv-x="1343" 
d="M944 1493l10 -178q-92 -4 -131 -51t-39 -140v-80h465v-1044h-229v858h-225v-858h-232v858h-223v-858h-231v858h-89v186h89v86q0 78 21.5 141.5t65.5 113.5t118.5 78t174.5 30l11 -178q-92 -4 -131 -51t-39 -140v-80h233v86q0 78 21.5 141.5t66 113.5t119 78t174.5 30z
M1040 1485h201v-260h-201v260z" />
    <glyph glyph-name="uniFB04" unicode="&#xfb04;" horiz-adv-x="1363" 
d="M563 1044v86q0 166 97.5 263.5t306.5 97.5h67v39h230v-1530h-230v1315h-63q-99 -1 -143 -47t-44 -144v-80h154v-186h-143v-858h-232v858h-223v-858h-231v858h-89v186h89v86q0 78 21.5 141.5t65.5 113.5t118.5 78t174.5 30l11 -178q-92 -4 -131 -51t-39 -140v-80h233z" />
    <glyph glyph-name="uniFEFF" unicode="&#xfeff;" horiz-adv-x="0" 
 />
    <glyph glyph-name="caron.alt001" 
d="M-238 1485h191l-103 -291h-124z" />
    <glyph glyph-name="ogonek.alt001" horiz-adv-x="456" 
d="M240 31l90 -31q-46 0 -72.5 -35.5t-26.5 -79.5q0 -34 17.5 -53.5t48.5 -19.5q45 0 86 28l43 -127q-68 -55 -178 -55q-98 0 -147.5 42.5t-49.5 115.5q0 71 49.5 128.5t139.5 86.5z" />
    <glyph glyph-name="uni030C.alt001" 
d="M-90 1485h250l-131 -309h-164z" />
    <glyph glyph-name="numbersign.subs" horiz-adv-x="495" 
d="M37 156v92h80l14 176h96l-14 -176h82l14 176h97l-15 -176h68v-92h-68l-8 -125h76v-92h-78l-14 -177h-97l15 177h-82l-15 -177h-96l14 177h-69v92h69l9 125h-78zM213 156l-8 -125h82l8 125h-82z" />
    <glyph glyph-name="dollar.subs" horiz-adv-x="466" 
d="M215 518h80l2 -106q98 -33 131 -144l-92 -32q-16 49 -47 65l-15 -154q35 -17 57.5 -31t48.5 -37.5t39 -56t13 -73.5q0 -81 -44 -132.5t-120 -62.5l-14 -88h-80l-2 92q-117 25 -147 158l96 35q16 -53 57 -76l15 160q-37 19 -59.5 33t-50 38.5t-41 58t-13.5 75.5
q0 74 46 124.5t126 57.5zM317 -74q0 38 -51 76v-135q51 9 51 59zM152 256q0 -42 49 -70v125q-49 -11 -49 -55z" />
    <glyph glyph-name="comma.subs" horiz-adv-x="251" 
d="M53 -233v159h144v-127q0 -95 -31.5 -147.5t-108.5 -59.5l-6 76q34 6 48 27.5t14 71.5h-60z" />
    <glyph glyph-name="period.subs" horiz-adv-x="251" 
d="M53 -238v164h144v-164h-144z" />
    <glyph glyph-name="n.subs" horiz-adv-x="483" 
d="M53 -238v519h125l6 -43h4q47 53 113 53q67 0 101 -47.5t34 -124.5v-357h-137v349q0 32 -11 46.5t-36 14.5q-36 0 -59 -37v-373h-140z" />
    <glyph glyph-name="cent.subs" horiz-adv-x="432" 
d="M418 264l-99 -31q-10 41 -27.5 57.5t-43.5 16.5q-38 0 -56 -23.5t-18 -84.5v-224q0 -64 17.5 -90t54.5 -26q29 0 45.5 20.5t27.5 65.5l101 -35q-36 -130 -135 -150l-15 -94h-82l-2 92q-74 13 -111.5 70.5t-37.5 142.5v234q0 87 40 145t116 70l16 98h82l2 -104
q94 -31 125 -150z" />
    <glyph glyph-name="sterling.subs" horiz-adv-x="516" 
d="M51 53l-12 97h53q-8 39 -8 79q0 94 51.5 149.5t145.5 55.5q75 0 125.5 -41t64.5 -110l-106 -39q-16 67 -76 67q-66 0 -66 -98q0 -38 4 -63h168l-12 -97h-143q8 -62 8 -94q19 -10 53.5 -43t56.5 -33t34 17.5t16 60.5l104 -29q-26 -180 -143 -180q-44 0 -76.5 25.5
t-61.5 68.5q-30 -94 -122 -94q-46 0 -73.5 27t-27.5 74q0 48 32.5 80.5t90.5 39.5q-2 11 -20 80h-60zM121 -154q20 0 20 54q-32 -5 -32 -37q0 -17 12 -17z" />
    <glyph glyph-name="currency.subs" horiz-adv-x="358" 
d="M57 102q0 33 17 64l-37 39l45 51l39 -41q28 14 57 14q33 0 62 -16l41 45l45 -49l-41 -45q16 -29 16 -62q0 -36 -16 -65l39 -41l-45 -49l-41 41q-27 -15 -60 -15q-32 0 -59 15l-39 -43l-47 49l39 43q-15 27 -15 65zM135 100q0 -21 13 -34t32 -13t31 13t12 34q0 22 -12 36
t-31 14t-32 -14t-13 -36z" />
    <glyph glyph-name="yen.subs" horiz-adv-x="540" 
d="M442 -131h-92v-107h-153v107h-99v90h99v31h-99v90h70l-160 344h170l92 -289h4l93 289h170l-160 -344h65v-90h-92v-31h92v-90z" />
    <glyph glyph-name="franc.subs" horiz-adv-x="460" 
d="M2 -158v92h53v490h381v-131h-227v-139h194v-121h-194v-99h74v-92h-74v-80h-154v80h-53z" />
    <glyph glyph-name="lira.subs" horiz-adv-x="516" 
d="M51 96l-14 74h51q-4 40 -4 59q0 94 51.5 149.5t145.5 55.5q75 0 125.5 -41t64.5 -110l-106 -39q-16 67 -76 67q-66 0 -66 -98q0 -27 2 -43h183l-13 -74h-162q3 -12 3 -22h153l-8 -70h-137q4 -46 4 -59q18 -8 53 -35t57 -27t34 17.5t16 60.5l104 -29q-26 -180 -143 -180
q-31 0 -56.5 12.5t-39.5 26.5t-44 49q-33 -88 -120 -88q-46 0 -73.5 25t-27.5 67q0 50 33 79t92 34l-8 47h-59l-11 70h51l-6 22h-49zM119 -160q19 0 22 54q-35 -5 -35 -37q0 -17 13 -17z" />
    <glyph glyph-name="peseta.subs" horiz-adv-x="872" 
d="M197 424q76 0 116.5 -54.5t40.5 -160.5q0 -103 -39 -157t-112 -54h-43v-236h-125v662h162zM860 119l-78 -29q-11 51 -41 51q-22 0 -22 -32q0 -18 14.5 -34.5t35.5 -32t41.5 -34t35 -48.5t14.5 -69q0 -65 -33.5 -102t-91.5 -37q-108 0 -131 129l80 25q13 -62 45 -62
q27 0 27 39q0 22 -15 39.5t-36 32.5t-42 32.5t-36 47.5t-15 69q0 60 32.5 98t88.5 38q50 0 83 -32.5t44 -88.5zM586 231v-100h-64v-244q0 -37 35 -37q3 0 23 5l12 -80q-35 -21 -78 -21q-55 0 -79.5 33.5t-24.5 103.5v238l-37 12v88l41 2l28 121h80v-121h64zM160 315v-217h35
q19 0 26.5 23.5t7.5 87.5t-7.5 85t-26.5 21h-35z" />
    <glyph glyph-name="Euro.subs" horiz-adv-x="499" 
d="M268 434q76 0 131 -45t70 -113l-113 -38q-15 65 -73 65q-76 0 -76 -94v-25h188l-12 -71h-176v-23h170l-12 -72h-158v-53q0 -90 76 -90q56 0 73 74l115 -39q-38 -158 -203 -158q-99 0 -158 58t-59 155v53h-41v72h41v23h-41v71h41v25q0 105 59 165t158 60z" />
    <glyph glyph-name="numbersign.sups" horiz-adv-x="495" 
d="M37 1362v92h80l14 176h96l-14 -176h82l14 176h97l-15 -176h68v-92h-68l-8 -125h76v-92h-78l-14 -176h-97l15 176h-82l-15 -176h-96l14 176h-69v92h69l9 125h-78zM213 1362l-8 -125h82l8 125h-82z" />
    <glyph glyph-name="dollar.sups" horiz-adv-x="466" 
d="M215 1724h80l2 -106q99 -33 131 -143l-92 -33q-16 49 -47 65l-15 -153q35 -17 58 -31.5t48.5 -38t38.5 -56t13 -73.5q0 -81 -44 -132t-120 -62l-14 -89h-80l-2 93q-117 25 -147 157l96 35q16 -53 57 -76l15 160q-37 19 -59.5 33t-50 38.5t-41 58t-13.5 75.5
q0 74 46 124.5t126 57.5zM317 1133q0 37 -51 75v-135q51 9 51 60zM152 1462q0 -41 49 -69v125q-49 -11 -49 -56z" />
    <glyph glyph-name="comma.sups" horiz-adv-x="251" 
d="M53 973v160h144v-127q0 -95 -31.5 -147.5t-108.5 -59.5l-6 75q34 6 48 27.5t14 71.5h-60z" />
    <glyph glyph-name="period.sups" horiz-adv-x="251" 
d="M53 969v164h144v-164h-144z" />
    <glyph glyph-name="cent.sups" horiz-adv-x="432" 
d="M418 1470l-99 -30q-10 41 -27.5 57t-43.5 16q-38 0 -56 -23.5t-18 -84.5v-223q0 -64 17.5 -90.5t54.5 -26.5q29 0 45.5 20.5t27.5 65.5l101 -35q-36 -129 -135 -149l-15 -95h-82l-2 93q-74 13 -111.5 70.5t-37.5 142.5v233q0 87 40 145t116 70l16 98h82l2 -104
q94 -31 125 -150z" />
    <glyph glyph-name="sterling.sups" horiz-adv-x="516" 
d="M51 1260l-12 96h53q-8 39 -8 80q0 94 51.5 149t145.5 55q75 0 125.5 -41t64.5 -110l-106 -39q-17 68 -76 68q-66 0 -66 -99q0 -38 4 -63h168l-12 -96h-143q8 -62 8 -95q19 -10 53.5 -42.5t56.5 -32.5t34 17t16 60l104 -28q-26 -181 -143 -181q-73 0 -138 95
q-30 -95 -122 -95q-46 0 -73.5 27t-27.5 74q0 48 32.5 81t90.5 40q-2 11 -20 80h-60zM121 1053q20 0 20 53q-32 -5 -32 -37q0 -16 12 -16z" />
    <glyph glyph-name="currency.sups" horiz-adv-x="358" 
d="M57 1309q0 32 17 63l-37 39l45 51l39 -41q30 15 57 15q31 0 62 -17l41 45l45 -49l-41 -45q16 -29 16 -61q0 -37 -16 -66l39 -41l-45 -49l-41 41q-25 -14 -60 -14q-34 0 -59 14l-39 -43l-47 49l39 43q-15 27 -15 66zM135 1307q0 -21 13 -34t32 -13t31 13t12 34
q0 22 -12 35.5t-31 13.5t-32 -14t-13 -35z" />
    <glyph glyph-name="yen.sups" horiz-adv-x="540" 
d="M442 1075h-92v-106h-153v106h-99v90h99v31h-99v90h70l-160 344h170l92 -289h4l93 289h170l-160 -344h65v-90h-92v-31h92v-90z" />
    <glyph glyph-name="franc.sups" horiz-adv-x="460" 
d="M2 1049v92h53v489h381v-131h-227v-139h194v-121h-194v-98h74v-92h-74v-80h-154v80h-53z" />
    <glyph glyph-name="lira.sups" horiz-adv-x="516" 
d="M51 1303l-14 73h51q-4 40 -4 60q0 94 51.5 149t145.5 55q75 0 125.5 -41t64.5 -110l-106 -39q-17 68 -76 68q-66 0 -66 -99q0 -27 2 -43h183l-13 -73h-162q3 -12 3 -23h153l-8 -70h-137q4 -46 4 -59q18 -8 53 -34.5t57 -26.5t34 17t16 60l104 -28q-26 -181 -143 -181
q-24 0 -42 5t-36.5 20t-28 25.5t-33.5 38.5q-34 -89 -120 -89q-46 0 -73.5 25t-27.5 68q0 50 33 78.5t92 33.5l-8 47h-59l-11 70h51l-6 23h-49zM119 1047q20 0 22 53q-35 -5 -35 -37q0 -16 13 -16z" />
    <glyph glyph-name="peseta.sups" horiz-adv-x="872" 
d="M197 1630q76 0 116.5 -54.5t40.5 -160.5q0 -103 -39 -157t-112 -54h-43v-235h-125v661h162zM860 1325l-78 -29q-11 52 -41 52q-22 0 -22 -33q0 -18 14.5 -34.5t35.5 -31.5t41.5 -33.5t35 -48.5t14.5 -69q0 -65 -33.5 -102.5t-91.5 -37.5q-108 0 -131 129l80 25
q13 -61 45 -61q27 0 27 39q0 22 -15 39.5t-36 32.5t-42 32.5t-36 47.5t-15 69q0 60 32.5 97.5t88.5 37.5q50 0 83 -32.5t44 -88.5zM586 1438v-101h-64v-243q0 -37 35 -37q7 0 23 4l12 -80q-33 -20 -78 -20q-55 0 -79.5 33.5t-24.5 103.5v237l-37 13v88l41 2l28 121h80v-121
h64zM160 1522v-217h35q19 0 26.5 23.5t7.5 86.5q0 64 -7.5 85.5t-26.5 21.5h-35z" />
    <glyph glyph-name="Euro.sups" horiz-adv-x="499" 
d="M268 1640q76 0 131 -44.5t70 -112.5l-113 -39q-15 65 -73 65q-76 0 -76 -94v-24h188l-12 -72h-176v-23h170l-12 -71h-158v-54q0 -90 76 -90q56 0 73 74l115 -39q-38 -158 -203 -158q-99 0 -158 58t-59 155v54h-41v71h41v23h-41v72h41v24q0 105 59 165t158 60z" />
    <glyph glyph-name="numbersign.numr" horiz-adv-x="495" 
d="M37 1225v92h80l14 176h96l-14 -176h82l14 176h97l-15 -176h68v-92h-68l-8 -125h76v-92h-78l-14 -177h-97l15 177h-82l-15 -177h-96l14 177h-69v92h69l9 125h-78zM213 1225l-8 -125h82l8 125h-82z" />
    <glyph glyph-name="dollar.numr" horiz-adv-x="466" 
d="M215 1587h80l2 -106q98 -33 131 -144l-92 -32q-16 49 -47 65l-15 -153q35 -17 58 -31.5t48.5 -38t38.5 -56t13 -73.5q0 -81 -44 -132.5t-120 -62.5l-14 -88h-80l-2 92q-117 25 -147 158l96 35q16 -53 57 -76l15 160q-37 19 -59.5 33t-50 38.5t-41 58t-13.5 75.5
q0 74 46 124.5t126 57.5zM317 995q0 38 -51 76v-135q51 9 51 59zM152 1325q0 -42 49 -70v125q-49 -11 -49 -55z" />
    <glyph glyph-name="parenleft.numr" horiz-adv-x="260" 
d="M49 987v322q0 143 45.5 208.5t147.5 65.5h24v-94h-24q-82 0 -82 -180v-322q0 -182 82 -182h24v-92h-24q-102 0 -147.5 65.5t-45.5 208.5z" />
    <glyph glyph-name="parenright.numr" horiz-adv-x="260" 
d="M213 1309v-322q0 -144 -45.5 -209t-149.5 -65h-24v94h24q82 0 82 180v322q0 180 -82 180h-24v94h24q104 0 149.5 -65t45.5 -209z" />
    <glyph glyph-name="plus.numr" horiz-adv-x="403" 
d="M154 948v146h-115v98h115v145h96v-145h115v-98h-115v-146h-96z" />
    <glyph glyph-name="comma.numr" horiz-adv-x="251" 
d="M53 836v159h144v-127q0 -95 -31.5 -147t-108.5 -59l-6 75q34 6 48 27.5t14 71.5h-60z" />
    <glyph glyph-name="period.numr" horiz-adv-x="251" 
d="M53 831v164h144v-164h-144z" />
    <glyph glyph-name="zero.numr" horiz-adv-x="466" 
d="M432 1272v-228q0 -103 -52 -162t-147 -59t-146.5 59t-51.5 162v228q0 103 51.5 162t146.5 59t147 -59t52 -162zM172 1268v-224q0 -57 14 -79.5t47 -22.5t47.5 22.5t14.5 79.5v224q0 53 -14.5 74.5t-47.5 21.5t-47 -21.5t-14 -74.5z" />
    <glyph glyph-name="one.numr" horiz-adv-x="466" 
d="M227 1489h117v-658h-147v439h-115v102h45q52 0 70.5 21.5t29.5 95.5z" />
    <glyph glyph-name="two.numr" horiz-adv-x="466" 
d="M238 1493q94 0 140 -49.5t46 -126.5q0 -55 -21.5 -102t-53.5 -79.5t-65 -61t-60.5 -61t-35.5 -65.5h234v-117h-381l-2 62q2 57 28 109.5t61.5 91t70.5 73.5t59.5 71.5t24.5 70.5q0 63 -58 63q-30 0 -51.5 -24t-30.5 -70l-110 37q22 81 73 129.5t132 48.5z" />
    <glyph glyph-name="three.numr" horiz-adv-x="466" 
d="M160 1110v109h47q34 0 50.5 18.5t16.5 60.5q0 41 -13.5 58.5t-41.5 17.5q-31 0 -50.5 -18t-31.5 -60l-104 35q18 75 69 118.5t129 43.5q93 0 140 -49.5t47 -126.5q0 -110 -76 -143v-5q86 -27 86 -145q0 -101 -53.5 -151t-147.5 -50q-162 0 -198 154l104 37q24 -76 84 -76
q64 0 64 94q0 44 -17 61t-55 17h-49z" />
    <glyph glyph-name="four.numr" horiz-adv-x="466" 
d="M401 831h-127v117h-256v94l244 443h139v-426h58l-8 -111h-50v-117zM156 1059h120l9 264h-4z" />
    <glyph glyph-name="five.numr" horiz-adv-x="466" 
d="M139 1108l-90 43l23 334h338l-11 -123h-215l-6 -131q45 20 86 20q164 0 164 -200q0 -116 -50.5 -172t-154.5 -56q-75 0 -125 39t-67 115l104 35q24 -72 80 -72q38 0 53 24t15 85q0 45 -17.5 65.5t-56.5 20.5q-35 0 -70 -27z" />
    <glyph glyph-name="six.numr" horiz-adv-x="466" 
d="M244 1493q67 0 114.5 -38.5t67.5 -113.5l-98 -38q-19 71 -76 71q-82 0 -82 -102v-58h4q38 33 100 33q160 0 160 -192q0 -232 -201 -232q-97 0 -146.5 59t-49.5 167v211q0 102 57 167.5t150 65.5zM240 1133q-29 0 -48 -11t-22 -28v-62q0 -88 68 -88q35 0 49 22.5t14 84.5
q0 45 -13.5 63.5t-47.5 18.5z" />
    <glyph glyph-name="seven.numr" horiz-adv-x="466" 
d="M233 831h-153l205 529h-244v125h387v-111z" />
    <glyph glyph-name="eight.numr" horiz-adv-x="466" 
d="M233 823q-99 0 -150.5 48t-51.5 157q0 111 80 146v4q-66 32 -66 139q0 82 45.5 129t142.5 47q189 0 189 -176q0 -102 -66 -139v-4q80 -35 80 -146q0 -109 -52 -157t-151 -48zM299 1032q0 49 -15 65.5t-51 16.5q-37 0 -51 -16.5t-14 -65.5q0 -56 15 -75t50 -19
q36 0 51 18.5t15 75.5zM233 1380q-33 0 -46 -16t-13 -64q0 -50 13 -66.5t46 -16.5q34 0 47 17t13 66q0 48 -13 64t-47 16z" />
    <glyph glyph-name="nine.numr" horiz-adv-x="466" 
d="M37 969l92 47q15 -41 35.5 -58.5t52.5 -17.5q78 0 78 96v78h-4q-37 -29 -94 -29q-72 0 -118 47.5t-46 145.5q0 105 51.5 160t148.5 55q96 0 145.5 -57.5t49.5 -153.5v-244q0 -100 -54 -157.5t-149 -57.5q-148 0 -188 146zM227 1196q25 0 45 13t23 34v57q0 78 -62 78
q-36 0 -51.5 -19.5t-15.5 -70.5q0 -54 14 -73t47 -19z" />
    <glyph glyph-name="equal.numr" horiz-adv-x="403" 
d="M342 1161h-289v99h289v-99zM342 1010h-289v98h289v-98z" />
    <glyph glyph-name="n.numr" horiz-adv-x="483" 
d="M53 831v519h125l6 -43h4q47 53 113 53q67 0 101 -47.5t34 -124.5v-357h-137v349q0 32 -11 46.5t-36 14.5q-36 0 -59 -37v-373h-140z" />
    <glyph glyph-name="cent.numr" horiz-adv-x="432" 
d="M418 1333l-99 -30q-10 41 -27.5 57t-43.5 16q-38 0 -56 -23.5t-18 -84.5v-224q0 -64 17.5 -90t54.5 -26q29 0 45.5 20.5t27.5 65.5l101 -35q-36 -130 -135 -150l-15 -94h-82l-2 92q-74 13 -111.5 70.5t-37.5 142.5v234q0 87 40 145t116 70l16 98h82l2 -104
q94 -31 125 -150z" />
    <glyph glyph-name="sterling.numr" horiz-adv-x="516" 
d="M51 1122l-12 97h53q-8 39 -8 79q0 94 51.5 149.5t145.5 55.5q75 0 125.5 -41t64.5 -110l-106 -39q-16 67 -76 67q-66 0 -66 -98q0 -38 4 -63h168l-12 -97h-143q8 -62 8 -94q19 -10 53.5 -43t56.5 -33t34 17.5t16 60.5l104 -29q-26 -180 -143 -180q-44 0 -76.5 25.5
t-61.5 68.5q-30 -94 -122 -94q-46 0 -73.5 27t-27.5 74q0 48 32.5 80.5t90.5 39.5q-2 11 -20 80h-60zM121 915q20 0 20 54q-32 -5 -32 -37q0 -17 12 -17z" />
    <glyph glyph-name="currency.numr" horiz-adv-x="358" 
d="M57 1171q0 33 17 64l-37 39l45 51l39 -41q28 14 57 14q33 0 62 -16l41 45l45 -49l-41 -45q16 -29 16 -62q0 -36 -16 -65l39 -41l-45 -49l-41 41q-27 -15 -60 -15q-32 0 -59 15l-39 -43l-47 49l39 43q-15 27 -15 65zM135 1169q0 -21 13 -34t32 -13t31 13t12 34
q0 22 -12 36t-31 14t-32 -14t-13 -36z" />
    <glyph glyph-name="yen.numr" horiz-adv-x="540" 
d="M442 938h-92v-107h-153v107h-99v90h99v31h-99v90h70l-160 344h170l92 -289h4l93 289h170l-160 -344h65v-90h-92v-31h92v-90z" />
    <glyph glyph-name="franc.numr" horiz-adv-x="460" 
d="M2 911v93h53v489h381v-131h-227v-139h194v-121h-194v-98h74v-93h-74v-80h-154v80h-53z" />
    <glyph glyph-name="lira.numr" horiz-adv-x="516" 
d="M51 1165l-14 74h51q-4 40 -4 59q0 94 51.5 149.5t145.5 55.5q75 0 125.5 -41t64.5 -110l-106 -39q-16 67 -76 67q-66 0 -66 -98q0 -27 2 -43h183l-13 -74h-162q3 -12 3 -22h153l-8 -70h-137q4 -46 4 -59q18 -8 53 -35t57 -27t34 17.5t16 60.5l104 -29q-26 -180 -143 -180
q-31 0 -56.5 12.5t-39.5 26.5t-44 49q-33 -88 -120 -88q-46 0 -73.5 25t-27.5 67q0 50 33 79t92 34l-8 47h-59l-11 70h51l-6 22h-49zM119 909q19 0 22 54q-35 -5 -35 -37q0 -17 13 -17z" />
    <glyph glyph-name="peseta.numr" horiz-adv-x="872" 
d="M197 1493q76 0 116.5 -54.5t40.5 -160.5q0 -103 -39 -157t-112 -54h-43v-236h-125v662h162zM860 1188l-78 -29q-11 51 -41 51q-22 0 -22 -32q0 -18 14.5 -34.5t35.5 -31.5t41.5 -33.5t35 -48.5t14.5 -69q0 -65 -33.5 -102.5t-91.5 -37.5q-108 0 -131 129l80 25
q13 -62 45 -62q27 0 27 39q0 22 -15 40t-36 33t-42 32.5t-36 47.5t-15 69q0 60 32.5 97.5t88.5 37.5q50 0 83 -32.5t44 -88.5zM586 1300v-100h-64v-244q0 -36 35 -36q7 0 23 4l12 -80q-35 -21 -78 -21q-55 0 -79.5 34t-24.5 104v237l-37 12v88l41 2l28 121h80v-121h64z
M160 1384v-217h35q19 0 26.5 23.5t7.5 87.5t-7.5 85t-26.5 21h-35z" />
    <glyph glyph-name="Euro.numr" horiz-adv-x="499" 
d="M268 1503q76 0 131 -44.5t70 -112.5l-113 -39q-15 65 -73 65q-76 0 -76 -94v-25h188l-12 -71h-176v-23h170l-12 -72h-158v-53q0 -90 76 -90q56 0 73 74l115 -39q-38 -158 -203 -158q-99 0 -158 58t-59 155v53h-41v72h41v23h-41v71h41v25q0 105 59 165t158 60z" />
    <glyph glyph-name="minus.numr" horiz-adv-x="403" 
d="M365 1094h-326v98h326v-98z" />
    <glyph glyph-name="numbersign.dnom" horiz-adv-x="495" 
d="M37 393v92h80l14 177h96l-14 -177h82l14 177h97l-15 -177h68v-92h-68l-8 -125h76v-92h-78l-14 -176h-97l15 176h-82l-15 -176h-96l14 176h-69v92h69l9 125h-78zM213 393l-8 -125h82l8 125h-82z" />
    <glyph glyph-name="dollar.dnom" horiz-adv-x="466" 
d="M215 756h80l2 -107q99 -33 131 -143l-92 -33q-16 50 -47 66l-15 -154q35 -17 58 -31.5t48.5 -38t38.5 -56t13 -73.5q0 -81 -44 -132t-120 -62l-14 -88h-80l-2 92q-117 25 -147 158l96 34q16 -52 57 -75l15 159q-37 19 -59.5 33t-50 38.5t-41 58t-13.5 75.5q0 74 46 124.5
t126 57.5zM317 164q0 38 -51 76v-136q51 9 51 60zM152 494q0 -42 49 -70v125q-49 -11 -49 -55z" />
    <glyph glyph-name="parenleft.dnom" horiz-adv-x="260" 
d="M49 156v321q0 144 45.5 209.5t147.5 65.5h24v-95h-24q-82 0 -82 -180v-321q0 -183 82 -183h24v-92h-24q-102 0 -147.5 65.5t-45.5 209.5z" />
    <glyph glyph-name="parenright.dnom" horiz-adv-x="260" 
d="M213 477v-321q0 -144 -46 -209.5t-149 -65.5h-24v94h24q82 0 82 181v321q0 180 -82 180h-24v95h24q103 0 149 -65.5t46 -209.5z" />
    <glyph glyph-name="plus.dnom" horiz-adv-x="403" 
d="M154 117v145h-115v98h115v146h96v-146h115v-98h-115v-145h-96z" />
    <glyph glyph-name="comma.dnom" horiz-adv-x="251" 
d="M53 4v160h144v-127q0 -95 -31.5 -147.5t-108.5 -59.5l-6 76q34 6 48 27t14 71h-60z" />
    <glyph glyph-name="period.dnom" horiz-adv-x="251" 
d="M53 0v164h144v-164h-144z" />
    <glyph glyph-name="zero.dnom" horiz-adv-x="466" 
d="M432 440v-227q0 -103 -52 -162t-147 -59t-146.5 59t-51.5 162v227q0 103 51.5 162.5t146.5 59.5t147 -59.5t52 -162.5zM172 436v-223q0 -57 14 -79.5t47 -22.5t47.5 22.5t14.5 79.5v223q0 53 -14.5 74.5t-47.5 21.5t-47 -21.5t-14 -74.5z" />
    <glyph glyph-name="one.dnom" horiz-adv-x="466" 
d="M203 657h116v-657h-147v438h-115v103h45q53 0 72 21.5t29 94.5z" />
    <glyph glyph-name="two.dnom" horiz-adv-x="466" 
d="M238 662q94 0 140 -50t46 -127q0 -55 -21.5 -102t-53.5 -79t-65 -60.5t-60.5 -61t-35.5 -65.5h234v-117h-381l-2 61q2 57 28 109.5t61.5 91t70.5 73.5t59.5 71.5t24.5 70.5q0 64 -58 64q-30 0 -51.5 -24.5t-30.5 -70.5l-110 37q22 82 73 130.5t132 48.5z" />
    <glyph glyph-name="three.dnom" horiz-adv-x="466" 
d="M160 279v108h47q34 0 50.5 19t16.5 61q0 41 -13.5 58.5t-41.5 17.5q-31 0 -50.5 -18t-31.5 -60l-104 35q18 75 69 118.5t129 43.5q93 0 140 -50t47 -127q0 -110 -76 -143v-4q86 -27 86 -145q0 -101 -53.5 -151t-147.5 -50q-162 0 -198 153l104 37q24 -76 84 -76
q64 0 64 95q0 44 -17 61t-55 17h-49z" />
    <glyph glyph-name="four.dnom" horiz-adv-x="466" 
d="M401 0h-127v117h-256v94l244 442h139v-426h58l-8 -110h-50v-117zM156 227h120l9 265h-4z" />
    <glyph glyph-name="five.dnom" horiz-adv-x="466" 
d="M139 276l-90 43l23 334h338l-11 -123h-215l-6 -131q47 21 86 21q164 0 164 -201q0 -115 -50.5 -171t-154.5 -56q-75 0 -125 38.5t-67 114.5l104 35q23 -71 80 -71q38 0 53 23.5t15 84.5q0 45 -17.5 65.5t-56.5 20.5q-35 0 -70 -27z" />
    <glyph glyph-name="six.dnom" horiz-adv-x="466" 
d="M244 662q67 0 114.5 -38.5t67.5 -113.5l-98 -39q-20 72 -76 72q-82 0 -82 -103v-57h4q38 33 100 33q160 0 160 -193q0 -231 -201 -231q-97 0 -146.5 58.5t-49.5 166.5v211q0 102 57 168t150 66zM240 301q-29 0 -48 -11t-22 -28v-61q0 -88 68 -88q35 0 49 22.5t14 83.5
q0 45 -13.5 63.5t-47.5 18.5z" />
    <glyph glyph-name="seven.dnom" horiz-adv-x="466" 
d="M233 0h-153l205 528h-244v125h387v-110z" />
    <glyph glyph-name="eight.dnom" horiz-adv-x="466" 
d="M233 -8q-99 0 -150.5 48t-51.5 157q0 110 80 145v4q-66 32 -66 139q0 83 45.5 130t142.5 47q189 0 189 -177q0 -102 -66 -139v-4q80 -35 80 -145q0 -109 -52 -157t-151 -48zM299 201q0 49 -15 65.5t-51 16.5q-37 0 -51 -16.5t-14 -65.5q0 -56 15.5 -75.5t49.5 -19.5
q36 0 51 19t15 76zM233 549q-33 0 -46 -16t-13 -64q0 -50 13 -67t46 -17t46.5 17.5t13.5 66.5q0 48 -13 64t-47 16z" />
    <glyph glyph-name="nine.dnom" horiz-adv-x="466" 
d="M37 137l92 47q15 -41 35 -58t53 -17q78 0 78 96v78h-4q-37 -29 -94 -29q-72 0 -118 47t-46 145q0 105 51.5 160.5t148.5 55.5q96 0 145.5 -57.5t49.5 -153.5v-244q0 -100 -54 -157.5t-149 -57.5q-148 0 -188 145zM227 365q25 0 45 13t23 34v57q0 78 -62 78
q-36 0 -51.5 -19.5t-15.5 -70.5q0 -54 14 -73t47 -19z" />
    <glyph glyph-name="equal.dnom" horiz-adv-x="403" 
d="M342 330h-289v98h289v-98zM342 178h-289v98h289v-98z" />
    <glyph glyph-name="n.dnom" horiz-adv-x="483" 
d="M53 0v518h125l6 -43h4q47 53 113 53q67 0 101 -47.5t34 -124.5v-356h-137v348q0 62 -47 62q-36 0 -59 -37v-373h-140z" />
    <glyph glyph-name="cent.dnom" horiz-adv-x="432" 
d="M418 502l-99 -31q-10 41 -27.5 57.5t-43.5 16.5q-38 0 -56 -24t-18 -85v-223q0 -64 17.5 -90.5t54.5 -26.5q29 0 45.5 20.5t27.5 65.5l101 -35q-36 -129 -135 -149l-15 -94h-82l-2 92q-74 13 -111.5 70.5t-37.5 142.5v233q0 87 40 145t116 70l16 99h82l2 -105
q95 -31 125 -149z" />
    <glyph glyph-name="sterling.dnom" horiz-adv-x="516" 
d="M51 291l-12 96h53q-8 39 -8 80q0 94 51.5 149.5t145.5 55.5q75 0 125.5 -41.5t64.5 -110.5l-106 -39q-17 68 -76 68q-66 0 -66 -98q0 -39 4 -64h168l-12 -96h-143q8 -62 8 -94q19 -10 53.5 -43t56.5 -33t34 17.5t16 60.5l104 -29q-26 -180 -143 -180q-44 0 -76.5 25.5
t-61.5 68.5q-30 -94 -122 -94q-46 0 -73.5 26.5t-27.5 73.5q0 48 32.5 81t90.5 40q-2 11 -20 80h-60zM121 84q20 0 20 53q-32 -5 -32 -37q0 -16 12 -16z" />
    <glyph glyph-name="currency.dnom" horiz-adv-x="358" 
d="M57 340q0 32 17 63l-37 39l45 52l39 -41q28 14 57 14q33 0 62 -16l41 45l45 -50l-41 -45q16 -29 16 -61q0 -37 -16 -66l39 -41l-45 -49l-41 41q-25 -14 -60 -14q-34 0 -59 14l-39 -43l-47 49l39 43q-15 27 -15 66zM135 338q0 -21 13 -34t32 -13t31 13t12 34
q0 22 -12 35.5t-31 13.5t-32 -14t-13 -35z" />
    <glyph glyph-name="yen.dnom" horiz-adv-x="540" 
d="M442 106h-92v-106h-153v106h-99v91h99v30h-99v90h70l-160 345h170l92 -289h4l93 289h170l-160 -345h65v-90h-92v-30h92v-91z" />
    <glyph glyph-name="franc.dnom" horiz-adv-x="460" 
d="M2 80v92h53v490h381v-132h-227v-139h194v-121h-194v-98h74v-92h-74v-80h-154v80h-53z" />
    <glyph glyph-name="lira.dnom" horiz-adv-x="516" 
d="M51 334l-14 74h51q-4 40 -4 59q0 94 51.5 149.5t145.5 55.5q75 0 125.5 -41.5t64.5 -110.5l-106 -39q-17 68 -76 68q-66 0 -66 -98q0 -27 2 -43h183l-13 -74h-162q3 -12 3 -23h153l-8 -69h-137q4 -46 4 -60q18 -8 53 -34.5t57 -26.5t34 17.5t16 60.5l104 -29
q-26 -180 -143 -180q-31 0 -56.5 12.5t-39.5 26.5t-44 49q-33 -88 -120 -88q-46 0 -73.5 25t-27.5 67q0 50 33 79t92 34l-8 47h-59l-11 69h51l-6 23h-49zM119 78q20 0 22 53q-35 -5 -35 -37q0 -16 13 -16z" />
    <glyph glyph-name="peseta.dnom" horiz-adv-x="872" 
d="M197 662q76 0 116.5 -55t40.5 -161q0 -103 -39 -156.5t-112 -53.5h-43v-236h-125v662h162zM860 356l-78 -28q-11 51 -41 51q-22 0 -22 -33q0 -18 14.5 -34.5t35.5 -31.5t41.5 -33.5t35 -48.5t14.5 -69q0 -65 -33.5 -102t-91.5 -37q-108 0 -131 129l80 24q13 -61 45 -61
q27 0 27 39q0 22 -15 39.5t-36 32.5t-42 32.5t-36 47.5t-15 69q0 60 32.5 97.5t88.5 37.5q50 0 83 -32.5t44 -88.5zM586 469v-100h-64v-244q0 -37 35 -37q7 0 23 4l12 -80q-33 -20 -78 -20q-55 0 -79.5 33.5t-24.5 103.5v238l-37 12v88l41 2l28 121h80v-121h64zM160 553
v-217h35q19 0 26.5 23.5t7.5 86.5q0 64 -7.5 85.5t-26.5 21.5h-35z" />
    <glyph glyph-name="Euro.dnom" horiz-adv-x="499" 
d="M268 672q76 0 131 -45t70 -113l-113 -39q-15 66 -73 66q-76 0 -76 -95v-24h188l-12 -72h-176v-22h170l-12 -72h-158v-53q0 -90 76 -90q29 0 46.5 17.5t26.5 55.5l115 -39q-38 -157 -203 -157q-99 0 -158 58t-59 155v53h-41v72h41v22h-41v72h41v24q0 105 59 165.5
t158 60.5z" />
    <glyph glyph-name="minus.dnom" horiz-adv-x="403" 
d="M365 262h-326v98h326v-98z" />
    <glyph glyph-name="space.frac" horiz-adv-x="61" 
 />
    <glyph glyph-name="numbersign.osf" horiz-adv-x="802" 
d="M43 754v164h135l23 337h166l-25 -337h135l25 337h166l-23 -337h111v-164h-113l-16 -246h129v-164h-133l-25 -344h-166l25 344h-135l-25 -344h-166l25 344h-113v164h117l14 246h-131zM338 754l-12 -246h135l14 246h-137z" />
    <glyph glyph-name="dollar.osf" horiz-adv-x="802" 
d="M63 932q0 127 68.5 218t192.5 114l34 231h140l6 -242q88 -27 144.5 -98.5t78.5 -177.5l-164 -45q-22 80 -54.5 111.5t-92.5 31.5q-113 0 -113 -125q0 -43 24 -81t62 -68.5t84.5 -61.5t93 -68t84.5 -79.5t62 -103t24 -132.5q0 -142 -66.5 -238t-183.5 -124l-30 -252h-142
l-6 250q-102 17 -164 88.5t-88 206.5l172 49q34 -166 168 -166q51 0 83 39.5t32 103.5q0 47 -25 87.5t-64.5 72t-87 63t-95.5 68.5t-87.5 80.5t-64.5 107t-25 140.5z" />
    <glyph glyph-name="plus.osf" horiz-adv-x="802" 
d="M313 174v328h-223v186h223v328h174v-328h226v-186h-226v-328h-174z" />
    <glyph glyph-name="zero.osf" horiz-adv-x="821" 
d="M768 795v-406q0 -198 -91 -302.5t-267 -104.5q-174 0 -264.5 106t-90.5 305v400q0 199 90.5 305t264.5 106q176 0 267 -105.5t91 -303.5zM285 793v-412q0 -116 29.5 -161.5t95.5 -45.5t95.5 45.5t29.5 161.5v416q0 120 -29 166.5t-96 46.5q-66 0 -95.5 -48t-29.5 -169z
" />
    <glyph glyph-name="one.osf" horiz-adv-x="608" 
d="M213 791h-231v180h102q99 0 136.5 52t49.5 191h193v-1214h-250v791z" />
    <glyph glyph-name="two.osf" horiz-adv-x="770" 
d="M403 1212q155 0 233.5 -87.5t78.5 -233.5q0 -57 -21.5 -124t-53.5 -128t-86.5 -141t-101.5 -141t-118 -150v-4h385v-203h-668l-4 137q434 533 434 740q0 68 -23.5 97.5t-78.5 29.5q-106 0 -158 -144l-174 64q54 143 139.5 215.5t216.5 72.5z" />
    <glyph glyph-name="three.osf" horiz-adv-x="768" 
d="M696 885q0 -233 -131 -291v-4q84 -26 122 -93t38 -178q0 -499 -627 -499l-20 205q159 0 250 34t126 97t35 168q0 96 -38 128.5t-138 32.5h-57v193h49q89 0 124.5 41t35.5 145q0 76 -23 108t-77 32q-101 0 -160 -144l-174 62q106 290 360 290q153 0 229 -88.5t76 -238.5z
" />
    <glyph glyph-name="four.osf" horiz-adv-x="788" 
d="M668 -176h-224v455h-436v178l424 737h236v-725h118l-16 -190h-102v-455zM236 469h213l24 455h-4z" />
    <glyph glyph-name="five.osf" horiz-adv-x="755" 
d="M666 973h-392l-14 -283q73 31 160 31q295 0 295 -352q0 -271 -156 -410t-461 -139l-18 205q225 0 313 73t88 250q0 97 -34 134.5t-111 37.5q-81 0 -148 -43l-147 66l41 651h600z" />
    <glyph glyph-name="six.osf" horiz-adv-x="794" 
d="M657 1192q-162 0 -251 -95t-107 -304h4q59 41 143 41q306 0 306 -398q0 -228 -90.5 -341t-264.5 -113q-167 0 -248 116.5t-81 321.5v264q0 340 154 526.5t419 186.5zM410 625q-69 0 -113 -47v-152q0 -132 27 -185t86 -53q58 0 86 50.5t28 183.5q0 115 -27 159t-87 44z
" />
    <glyph glyph-name="seven.osf" horiz-adv-x="731" 
d="M336 -166h-246l387 1139h-463v221h701v-195z" />
    <glyph glyph-name="eight.osf" horiz-adv-x="796" 
d="M397 -20q-174 0 -261 84t-87 282q0 210 148 275v4q-127 69 -127 272q0 147 78.5 231t248.5 84q171 0 249.5 -84t78.5 -231q0 -204 -125 -272v-4q148 -65 148 -275q0 -197 -88 -281.5t-263 -84.5zM516 369q0 88 -28 121.5t-91 33.5q-60 0 -88 -34t-28 -121q0 -103 27 -146
t89 -43q64 0 91.5 43t27.5 146zM397 1018q-56 0 -81 -36t-25 -122q0 -90 24.5 -127t81.5 -37q59 0 84 37t25 127q0 86 -25.5 122t-83.5 36z" />
    <glyph glyph-name="nine.osf" horiz-adv-x="794" 
d="M117 25q186 0 277.5 99.5t103.5 338.5h-4q-58 -37 -142 -37q-144 0 -226.5 90t-82.5 285q0 204 90.5 306.5t263.5 102.5q166 0 248 -115t82 -315v-248q0 -347 -157 -529.5t-431 -182.5zM385 623q69 0 113 53v98q0 127 -26 178.5t-87 51.5q-58 0 -86.5 -42.5t-28.5 -150.5
q0 -104 28.5 -146t86.5 -42z" />
    <glyph glyph-name="less.osf" horiz-adv-x="802" 
d="M686 801l-301 -213l301 -213v-250l-596 450v23l596 455v-252z" />
    <glyph glyph-name="equal.osf" horiz-adv-x="802" 
d="M690 653h-575v187h575v-187zM690 346h-575v186h575v-186z" />
    <glyph glyph-name="greater.osf" horiz-adv-x="802" 
d="M416 588l-299 213v252h4l592 -453v-22l-592 -453h-4v252z" />
    <glyph glyph-name="cent.osf" horiz-adv-x="802" 
d="M729 985l-186 -57q-18 80 -50 113.5t-83 33.5q-69 0 -96 -47.5t-27 -163.5v-487q0 -115 30.5 -161t96.5 -46q52 0 82.5 34.5t48.5 121.5l184 -56q-53 -240 -240 -280l-30 -248h-140l-6 246q-132 23 -194 123t-62 280v465q0 172 67 278t202 130l34 231h142l4 -242
q171 -55 223 -268z" />
    <glyph glyph-name="sterling.osf" horiz-adv-x="802" 
d="M709 987l-168 -53q-13 78 -40 109.5t-71 31.5q-50 0 -73 -46.5t-23 -149.5q0 -58 8 -164h260l-14 -152h-228q16 -120 19 -221q32 -21 63 -58t52.5 -61t40.5 -24q32 0 49 33t24 122l164 -39q-17 -182 -69 -258.5t-144 -76.5q-30 0 -58 11.5t-46 25.5t-39 42t-31 45t-29 50
q-47 -174 -184 -174q-71 0 -110 44.5t-39 129.5q0 80 46.5 138t129.5 73q-5 28 -21 95t-24 103h-72l-14 152h57q-14 80 -14 170q0 182 79 284.5t226 102.5q119 0 195 -76.5t98 -208.5zM180 129q35 0 37 111q-57 -15 -57 -78q0 -33 20 -33z" />
    <glyph glyph-name="currency.osf" horiz-adv-x="636" 
d="M90 762q0 66 31 123l-72 78l82 92l74 -80q57 31 112 31q59 0 113 -33l80 88l82 -92l-78 -86q31 -64 31 -121q0 -63 -31 -123l74 -80l-82 -92l-76 82q-54 -33 -113 -33q-55 0 -112 31l-78 -86l-82 92l76 84q-31 57 -31 125zM225 762q0 -46 27 -74.5t65 -28.5q41 0 69 28.5
t28 74.5q0 45 -28 72.5t-69 27.5q-38 0 -65 -28t-27 -72z" />
    <glyph glyph-name="yen.osf" horiz-adv-x="802" 
d="M686 242h-170v-242h-229v242h-170v147h170v70h-170v149h123l-244 645h248l157 -563h5l151 563h254l-250 -645h125v-149h-170v-70h170v-147z" />
    <glyph glyph-name="logicalnot.osf" horiz-adv-x="802" 
d="M539 238v264h-449v186h623v-450h-174z" />
    <glyph glyph-name="plusminus.osf" horiz-adv-x="802" 
d="M313 272v269h-223v186h223v289h174v-289h226v-186h-226v-269h-174zM713 39h-623v186h623v-186z" />
    <glyph glyph-name="multiply.osf" horiz-adv-x="802" 
d="M590 266l-191 207l-188 -207l-121 131l189 207l-189 207l119 131l190 -207l191 207l121 -131l-191 -207l191 -207z" />
    <glyph glyph-name="divide.osf" horiz-adv-x="802" 
d="M713 504h-623v184h623v-184zM281 913q0 53 33.5 91t82.5 38t84 -38t35 -91q0 -54 -34.5 -90.5t-84.5 -36.5q-49 0 -82.5 36.5t-33.5 90.5zM281 287q0 54 33.5 91.5t82.5 37.5q50 0 84.5 -37.5t34.5 -91.5q0 -53 -35 -90t-84 -37t-82.5 37t-33.5 90z" />
    <glyph glyph-name="franc.osf" horiz-adv-x="802" 
d="M33 158v161h88v934h610v-215h-377v-311h324v-199h-324v-209h133v-161h-133v-158h-233v158h-88z" />
    <glyph glyph-name="lira.osf" horiz-adv-x="802" 
d="M709 987l-168 -53q-13 78 -40 109.5t-71 31.5q-50 0 -73 -46.5t-23 -149.5q0 -37 4 -103h307l-18 -125h-277l6 -49h265l-17 -117h-235q10 -82 10 -143q32 -21 63 -58t52.5 -61t40.5 -24q32 0 49 33t24 122l164 -39q-17 -182 -69 -258.5t-144 -76.5q-30 0 -58 11.5
t-46 25.5t-39 42t-31 45t-29 50q-45 -174 -184 -174q-71 0 -110 44.5t-39 129.5q0 80 46.5 138t129.5 73q-3 15 -7 34.5t-10 44.5t-10 41h-74l-18 117h65q-2 18 -10 49h-63l-21 125h66q-6 56 -6 109q0 182 79 284.5t226 102.5q119 0 195 -76.5t98 -208.5zM180 129
q35 0 37 111q-57 -15 -57 -78q0 -33 20 -33z" />
    <glyph glyph-name="peseta.osf" horiz-adv-x="802" 
d="M16 776v148h72v329h326q133 0 210 -84.5t91 -244.5h67v-148h-67q-14 -159 -88 -243t-201 -84h-111v-449h-227v776h-72zM408 623q41 0 61 37.5t23 127.5h-177v-165h93zM315 1059v-146h177q-6 81 -25.5 113.5t-58.5 32.5h-93z" />
    <glyph glyph-name="Euro.osf" horiz-adv-x="802" 
d="M739 983l-186 -53q-17 78 -47 111.5t-78 33.5q-62 0 -88.5 -46.5t-26.5 -156.5v-65h242l-16 -133h-226v-56h215l-20 -129h-195v-110q0 -118 28 -163.5t89 -45.5q50 0 79.5 34t43.5 120l190 -54q-64 -290 -323 -290q-173 0 -253.5 104.5t-80.5 308.5v96h-57v129h57v56h-57
v133h57v57q0 188 83.5 297t250.5 109q122 0 207 -74.5t112 -212.5z" />
    <glyph glyph-name="uni20B4.osf" horiz-adv-x="796" 
d="M66 664v143h399q41 64 41 139q0 74 -24 106.5t-83 32.5t-94 -32.5t-55 -112.5l-172 57q41 136 124 205.5t218 69.5q145 0 220 -86.5t75 -218.5q0 -90 -39 -160h61v-143h-184l-70 -62h254v-143h-387q-43 -72 -43 -162q0 -129 121 -129q112 0 152 154l159 -52
q-35 -148 -116.5 -219t-214.5 -71q-155 0 -231.5 81.5t-76.5 214.5q0 102 43 183h-80v143h197l70 62h-264z" />
    <glyph glyph-name="uni20B8.osf" horiz-adv-x="802" 
d="M686 889h-170v-889h-229v889h-170v147h569v-147zM686 1108h-569v145h569v-145z" />
    <glyph glyph-name="uni20BA.osf" horiz-adv-x="864" 
d="M63 578v182l91 49v444h239v-338l234 134v-185l-234 -133v-76l234 133v-184l-234 -133v-233h78q65 0 103 42t55 142l188 -92q-28 -172 -116 -251t-234 -79h-313v367l-91 -52v183l91 51v78z" />
    <glyph glyph-name="uni20BD.osf" horiz-adv-x="778" 
d="M336 0h-225v268h-74v170h74v51h-74v173h74v591h329q305 0 305 -387q0 -185 -73 -281t-217 -96h-119v-51h217v-170h-217v-268zM336 1067v-405h86q52 0 72 44.5t20 157.5q0 117 -19.5 160t-72.5 43h-86z" />
    <glyph glyph-name="minus.osf" horiz-adv-x="802" 
d="M713 502h-623v186h623v-186z" />
    <glyph glyph-name="approxequal.osf" horiz-adv-x="802" 
d="M690 850v-184q-76 -45 -155 -45q-56 0 -147.5 33.5t-137.5 33.5q-67 0 -135 -47v184q80 45 155 45q59 0 153.5 -34.5t139.5 -34.5q67 0 127 49zM690 543v-185q-79 -47 -155 -47q-54 0 -145 34t-138 34q-69 0 -137 -47v184q79 47 157 47q59 0 152.5 -34.5t138.5 -34.5
q67 0 127 49z" />
    <glyph glyph-name="notequal.osf" horiz-adv-x="802" 
d="M690 346h-313l-72 -190l-117 45l56 145h-129v186h200l45 121h-245v187h317l74 190l115 -49l-56 -141h125v-187h-194l-47 -121h241v-186z" />
    <glyph glyph-name="lessequal.osf" horiz-adv-x="802" 
d="M686 819l-278 -170l278 -164v-243l-596 399v21l596 405v-248zM94 41v168h594v-168h-594z" />
    <glyph glyph-name="greaterequal.osf" horiz-adv-x="802" 
d="M115 485l278 164l-276 170v248l596 -405v-21l-598 -399v243zM707 209v-168h-592v168h592z" />
    <glyph glyph-name="numbersign.tf" horiz-adv-x="870" 
d="M51 909v168h156l26 408h166l-26 -408h159l27 408h164l-27 -408h127v-168h-129l-18 -323h147v-170h-151l-29 -416h-164l27 416h-160l-27 -416h-165l28 416h-131v170h135l17 323h-152zM369 909l-19 -323h160l18 323h-159z" />
    <glyph glyph-name="dollar.tf" horiz-adv-x="870" 
d="M403 1679h140l6 -192q99 -33 165 -117t93 -205l-162 -53q-34 129 -117 168l-26 -420q41 -27 65.5 -44t62 -46.5t60.5 -54t49.5 -61t41.5 -73t25.5 -84t10.5 -100.5q0 -170 -85.5 -279.5t-231.5 -131.5l-27 -189h-141l-4 195q-231 54 -287 348l176 57q33 -147 129 -186
l27 440q-42 27 -66 43.5t-63 46.5t-61.5 54t-50.5 61t-43 73.5t-25.5 85t-10.5 101.5q0 155 87 261.5t237 123.5zM616 362q0 64 -32 113.5t-92 97.5v-374q124 21 124 163zM262 1145q0 -108 117 -203v348q-117 -20 -117 -145z" />
    <glyph glyph-name="plus.tf" horiz-adv-x="870" 
d="M346 209v330h-223v186h223v330h174v-330h230v-186h-230v-330h-174z" />
    <glyph glyph-name="zero.tf" horiz-adv-x="870" 
d="M813 1044v-604q0 -220 -96.5 -340t-280.5 -120q-186 0 -282.5 119.5t-96.5 340.5v602q0 222 96.5 342.5t282.5 120.5q184 0 280.5 -120t96.5 -341zM293 1044v-604q0 -134 33 -186.5t110 -52.5q74 0 108 53t34 186v604q0 129 -34 181.5t-108 52.5q-77 0 -110 -52t-33 -182
z" />
    <glyph glyph-name="one.tf" horiz-adv-x="870" 
d="M168 0v158h174v895h-250v186h121q68 0 102.5 19t54 72t29.5 161h193v-1333h164v-158h-588z" />
    <glyph glyph-name="two.tf" horiz-adv-x="870" 
d="M453 1505q175 0 263.5 -104t88.5 -273q0 -94 -23 -177.5t-61 -146.5t-84 -120.5t-95 -111t-91.5 -106t-76 -117.5t-46.5 -134h479v-215h-725l-4 117q3 96 32 187t72 163t94.5 140.5t102 131t92.5 122t68 126t26 131.5q0 84 -32 124t-101 40q-63 0 -107.5 -55t-62.5 -168
l-188 57q31 178 127 283.5t252 105.5z" />
    <glyph glyph-name="three.tf" horiz-adv-x="870" 
d="M309 662v202h88q79 0 117.5 49t38.5 164q0 113 -31.5 160t-97.5 47q-64 0 -104.5 -46t-61.5 -151l-186 58q31 170 127 265t245 95q176 0 264.5 -107.5t88.5 -283.5q0 -264 -160 -338v-4q90 -28 134 -108.5t44 -225.5q0 -237 -99.5 -347.5t-279.5 -110.5q-309 0 -370 337
l180 58q44 -180 176 -180q76 0 110.5 61t34.5 195q0 119 -40.5 165t-123.5 46h-94z" />
    <glyph glyph-name="four.tf" horiz-adv-x="870" 
d="M748 0h-218v270h-505v168l485 1047h238v-1008h124l-16 -207h-108v-270zM260 477h272l15 686h-4z" />
    <glyph glyph-name="five.tf" horiz-adv-x="870" 
d="M238 662l-154 65l45 758h639l-16 -232h-428l-21 -354h4q87 51 187 51q315 0 315 -456q0 -266 -95.5 -390t-293.5 -124q-143 0 -238 84t-125 255l189 58q41 -182 164 -182q85 0 119 66.5t34 230.5q0 130 -39.5 183.5t-126.5 53.5q-46 0 -88.5 -18t-70.5 -49z" />
    <glyph glyph-name="six.tf" horiz-adv-x="870" 
d="M453 1505q134 0 223 -85.5t121 -254.5l-176 -63q-21 99 -58.5 139.5t-97.5 40.5q-162 0 -162 -242v-170h4q74 68 199 68q158 0 234.5 -108t76.5 -328q0 -522 -377 -522q-182 0 -277 119.5t-95 334.5v580q0 218 104.5 354.5t280.5 136.5zM449 719q-65 0 -104 -26t-42 -72
v-209q0 -207 141 -207q71 0 103.5 65t32.5 226q0 122 -30.5 172.5t-100.5 50.5z" />
    <glyph glyph-name="seven.tf" horiz-adv-x="870" 
d="M408 0h-261l433 1253h-543v232h794v-201z" />
    <glyph glyph-name="eight.tf" horiz-adv-x="870" 
d="M436 -20q-96 0 -165 23t-120 75.5t-76.5 143t-25.5 220.5q0 266 158 342v4q-133 75 -133 326q0 391 362 391q361 0 361 -391q0 -251 -135 -326v-4q159 -76 159 -342q0 -130 -25.5 -220.5t-76.5 -143t-119.5 -75.5t-163.5 -23zM584 451q0 127 -35.5 174t-112.5 47
q-78 0 -113.5 -47t-35.5 -174q0 -102 17 -158.5t48 -77t84 -20.5q78 0 113 53t35 203zM436 1294q-75 0 -106 -43.5t-31 -163.5q0 -130 30 -174.5t107 -44.5q51 0 78.5 17t42 65t14.5 137q0 120 -31 163.5t-104 43.5z" />
    <glyph glyph-name="nine.tf" horiz-adv-x="870" 
d="M233 383q27 -101 68.5 -141.5t110.5 -40.5q78 0 116.5 51t38.5 160v245h-4q-67 -67 -184 -67q-326 0 -326 436q0 241 99 360t288 119q177 0 270 -116.5t93 -309.5v-655q0 -208 -101.5 -325t-279.5 -117q-290 0 -356 323zM426 797q56 0 98.5 29t42.5 85v179
q0 102 -32.5 147t-102.5 45q-73 0 -107 -55.5t-34 -192.5q0 -138 32 -187.5t103 -49.5z" />
    <glyph glyph-name="less.tf" horiz-adv-x="870" 
d="M711 852l-291 -211l293 -213v-250l-586 451v22l584 453v-252z" />
    <glyph glyph-name="equal.tf" horiz-adv-x="870" 
d="M725 676h-580v186h580v-186zM725 369h-580v186h580v-186z" />
    <glyph glyph-name="greater.tf" horiz-adv-x="870" 
d="M158 428l293 213l-291 211v252l583 -453v-22l-585 -451v250z" />
    <glyph glyph-name="cent.tf" horiz-adv-x="870" 
d="M72 1051q0 190 84.5 307t232.5 141l27 174h137l4 -182q104 -29 173 -116.5t89 -213.5l-192 -59q-30 162 -150 162q-74 0 -111.5 -55t-37.5 -158v-641q0 -98 37 -151.5t112 -53.5q63 0 98 41.5t52 142.5l194 -59q-24 -159 -97 -243t-198 -101l-26 -187h-135l-7 191
q-135 29 -210.5 140t-75.5 278v643z" />
    <glyph glyph-name="sterling.tf" horiz-adv-x="870" 
d="M84 668l-21 180h87q-17 133 -17 215q0 208 88 326t248 118q133 0 218.5 -84.5t103.5 -244.5l-185 -58q-14 92 -46 125t-85 33q-60 0 -89.5 -57t-29.5 -185q0 -77 9 -188h311l-19 -180h-276q16 -175 18 -258q33 -17 65 -49t51.5 -58.5t45 -46.5t49.5 -20q37 0 56 37.5
t28 140.5l166 -39q-20 -216 -76 -305.5t-157 -89.5q-24 0 -46.5 6.5t-39.5 14.5t-35 25t-29.5 29.5t-27 36t-22.5 35.5t-22 38.5t-20 35.5h-4q-41 -221 -199 -221q-80 0 -124 51.5t-44 148.5q0 93 52 159.5t145 86.5q-4 28 -9.5 66t-14 90.5t-13.5 85.5h-90zM195 154
q13 0 21.5 9t14.5 39t7 83q-68 -19 -68 -90q0 -41 25 -41z" />
    <glyph glyph-name="currency.tf" horiz-adv-x="870" 
d="M207 762q0 66 31 123l-72 78l82 92l74 -80q57 31 112 31q57 0 115 -33l78 88l82 -92l-78 -86q31 -64 31 -121q0 -59 -31 -123l76 -80l-84 -92l-76 82q-54 -33 -113 -33q-55 0 -112 31l-78 -86l-82 92l76 84q-31 57 -31 125zM342 762q0 -46 27.5 -74.5t66.5 -28.5
t66.5 28.5t27.5 74.5q0 45 -27.5 72.5t-66.5 27.5t-66.5 -27.5t-27.5 -72.5z" />
    <glyph glyph-name="yen.tf" horiz-adv-x="870" 
d="M733 279h-176v-279h-242v279h-182v174h182v79h-182v173h137l-270 780h260l176 -680h4l172 680h262l-270 -780h129v-173h-176v-79h176v-174z" />
    <glyph glyph-name="logicalnot.tf" horiz-adv-x="870" 
d="M573 274v265h-450v186h625v-451h-175z" />
    <glyph glyph-name="plusminus.tf" horiz-adv-x="870" 
d="M346 303v272h-223v187h223v293h174v-293h230v-187h-230v-272h-174zM750 70h-627v186h627v-186z" />
    <glyph glyph-name="multiply.tf" horiz-adv-x="870" 
d="M625 293l-191 207l-190 -207l-121 131l190 207l-188 205l119 133l190 -207l191 207l118 -131l-190 -207l190 -207z" />
    <glyph glyph-name="divide.tf" horiz-adv-x="870" 
d="M750 539h-627v186h627v-186zM313 948q0 53 35 91t84 38t84 -38t35 -91t-35 -90t-84 -37t-84 37t-35 90zM313 324q0 53 35 90t84 37t84 -37t35 -90q0 -54 -34.5 -91.5t-84.5 -37.5t-84.5 37.5t-34.5 91.5z" />
    <glyph glyph-name="uni2007.tf" horiz-adv-x="870" 
 />
    <glyph glyph-name="franc.tf" horiz-adv-x="870" 
d="M18 190v177h105v1118h694v-242h-428v-377h369v-227h-369v-272h148v-177h-148v-190h-266v190h-105z" />
    <glyph glyph-name="lira.tf" horiz-adv-x="870" 
d="M76 762l-21 131h88q-10 102 -10 170q0 208 88 326t248 118q133 0 218.5 -84.5t103.5 -244.5l-185 -58q-14 92 -46 125t-85 33q-60 0 -89.5 -57t-29.5 -185q0 -60 6 -143h349l-21 -131h-317l4 -60h301l-16 -124h-273l10 -168q33 -17 65 -49t51.5 -58.5t45 -46.5t49.5 -20
q37 0 56 37.5t28 140.5l166 -39q-20 -216 -76 -305.5t-157 -89.5q-28 0 -52 6.5t-45.5 22t-36.5 28.5t-33.5 40t-27.5 40.5t-27 45.5t-24 42q-19 -115 -72 -170t-127 -55q-80 0 -124 51.5t-44 148.5q0 93 52 159.5t145 86.5q-18 126 -23 152h-86l-16 124h84l-10 60h-84z
M195 154q13 0 21.5 9t14.5 39t7 83q-68 -19 -68 -90q0 -41 25 -41z" />
    <glyph glyph-name="peseta.tf" horiz-adv-x="870" 
d="M12 936v147h74v402h358q151 0 238 -103t100 -299h78v-147h-78q-13 -192 -96.5 -292.5t-228.5 -100.5h-129v-543h-242v936h-74zM440 748q47 0 71 43.5t28 148.5h-211v-192h112zM328 1262v-185h211q-4 105 -27.5 145t-71.5 40h-112z" />
    <glyph glyph-name="Euro.tf" horiz-adv-x="870" 
d="M485 1505q143 0 239.5 -94t121.5 -250l-193 -59q-17 83 -53.5 122.5t-97.5 39.5q-73 0 -110.5 -55.5t-37.5 -157.5v-105h351l-23 -145h-328v-64h316l-23 -143h-293v-184q0 -205 150 -205q62 0 96 41.5t51 142.5l197 -59q-27 -182 -118 -266t-249 -84q-178 0 -280.5 116
t-102.5 312v186h-86v143h86v64h-86v145h86v105q0 213 104 333.5t283 120.5z" />
    <glyph glyph-name="uni20B4.tf" horiz-adv-x="870" 
d="M63 795v153h459q58 85 58 180q0 94 -31 137.5t-107 43.5q-73 0 -118.5 -42.5t-71.5 -136.5l-174 60q92 315 385 315q161 0 244.5 -100t83.5 -254q0 -113 -54 -203h80v-153h-211l-96 -84h305v-154h-444q-60 -96 -60 -209q0 -85 40.5 -128.5t115.5 -43.5q142 0 192 195
l162 -56q-78 -335 -372 -335q-175 0 -261 95.5t-86 252.5q0 127 60 229h-101v154h226l92 84h-316z" />
    <glyph glyph-name="uni20B8.tf" horiz-adv-x="870" 
d="M72 1229h723v-180h-234v-1049h-254v1049h-235v180zM795 1305h-723v180h723v-180z" />
    <glyph glyph-name="uni20BA.tf" horiz-adv-x="870" 
d="M41 645v182l92 52v606h242v-500l233 133v-182l-233 -133v-78l233 133v-184l-233 -131v-305h108q65 0 103.5 42t56.5 142l186 -92q-28 -172 -116 -251t-232 -79h-348v436l-92 -51v182l92 51v78z" />
    <glyph glyph-name="uni20BD.tf" horiz-adv-x="870" 
d="M362 0h-253v332h-86v188h86v66h-86v186h86v713h380q173 0 266 -116.5t93 -336.5q0 -215 -89.5 -330.5t-256.5 -115.5h-140v-66h238v-188h-238v-332zM362 1280v-508h111q64 0 92.5 58t28.5 200t-28 196t-93 54h-111z" />
    <glyph glyph-name="minus.tf" horiz-adv-x="870" 
d="M748 539h-625v186h625v-186z" />
    <glyph glyph-name="approxequal.tf" horiz-adv-x="870" 
d="M725 872v-184q-79 -47 -158 -47q-56 0 -146 34t-138 34q-70 0 -138 -47v184q76 45 158 45q59 0 153.5 -34t139.5 -34q69 0 129 49zM725 563v-184q-76 -45 -156 -45q-56 0 -148 33.5t-140 33.5q-68 0 -136 -47v185q78 45 156 45q60 0 156.5 -35t140.5 -35q67 0 127 49z
" />
    <glyph glyph-name="notequal.tf" horiz-adv-x="870" 
d="M651 1004l-55 -142h129v-186h-199l-47 -121h246v-186h-317l-72 -191l-117 45l55 146h-129v186h201l45 121h-246v186h318l74 191z" />
    <glyph glyph-name="lessequal.tf" horiz-adv-x="870" 
d="M713 854l-273 -172l273 -170v-244l-586 404v20l586 412v-250zM133 59v177h580v-177h-580z" />
    <glyph glyph-name="greaterequal.tf" horiz-adv-x="870" 
d="M158 512l270 170l-270 172v250l585 -412v-20l-585 -404v244zM737 236v-177h-579v177h579z" />
    <glyph glyph-name="numbersign.tosf" horiz-adv-x="798" 
d="M41 754v164h135l23 337h166l-25 -337h135l25 337h166l-23 -337h111v-164h-113l-16 -246h129v-164h-133l-25 -344h-166l25 344h-136l-24 -344h-166l25 344h-113v164h117l14 246h-131zM336 754l-12 -246h135l14 246h-137z" />
    <glyph glyph-name="dollar.tosf" horiz-adv-x="798" 
d="M61 932q0 127 68.5 218t192.5 114l34 231h140l6 -242q88 -27 144.5 -98.5t78.5 -177.5l-164 -45q-22 79 -55.5 111t-93.5 32q-111 0 -111 -125q0 -43 24 -81t62 -68.5t84.5 -61.5t93 -68t84.5 -79.5t62 -103t24 -132.5q0 -142 -66.5 -238t-183.5 -124l-30 -252h-142
l-6 250q-102 17 -164 88.5t-88 206.5l172 49q18 -88 59.5 -127t106.5 -39q51 0 84 39.5t33 103.5q0 47 -25 87.5t-64.5 72t-87 63t-95.5 68.5t-87.5 80.5t-64.5 107t-25 140.5z" />
    <glyph glyph-name="plus.tosf" horiz-adv-x="798" 
d="M311 174v328h-223v186h223v328h174v-328h226v-186h-226v-328h-174z" />
    <glyph glyph-name="zero.tosf" horiz-adv-x="798" 
d="M756 795v-406q0 -198 -91.5 -302.5t-267.5 -104.5q-174 0 -264 106t-90 305v400q0 199 90 305t264 106q176 0 267.5 -105.5t91.5 -303.5zM272 793v-412q0 -116 29.5 -161.5t95.5 -45.5t95.5 45.5t29.5 161.5v416q0 120 -29 166.5t-96 46.5q-66 0 -95.5 -48t-29.5 -169z
" />
    <glyph glyph-name="one.tosf" horiz-adv-x="798" 
d="M303 791h-231v180h102q99 0 136.5 52t49.5 191h193v-1056h162v-158h-588v158h176v633z" />
    <glyph glyph-name="two.tosf" horiz-adv-x="798" 
d="M414 1212q155 0 233 -87.5t78 -233.5q0 -57 -21.5 -124t-53.5 -128t-86.5 -141t-101.5 -141t-118 -150v-4h385v-203h-668l-4 137q435 534 435 740q0 68 -24 97.5t-79 29.5q-106 0 -158 -144l-174 64q54 143 140 215.5t217 72.5z" />
    <glyph glyph-name="three.tosf" horiz-adv-x="798" 
d="M709 885q0 -233 -131 -291v-4q84 -26 121.5 -93t37.5 -178q0 -499 -626 -499l-21 205q159 0 250 34t126.5 97t35.5 168q0 96 -38 128.5t-138 32.5h-58v193h49q89 0 124.5 41t35.5 145q0 76 -23 108t-77 32q-101 0 -160 -144l-174 62q106 290 360 290q154 0 230 -88.5
t76 -238.5z" />
    <glyph glyph-name="four.tosf" horiz-adv-x="798" 
d="M668 -176h-224v455h-436v178l424 737h236v-725h118l-16 -190h-102v-455zM236 469h213l24 455h-4z" />
    <glyph glyph-name="five.tosf" horiz-adv-x="798" 
d="M686 973h-391l-14 -283q73 31 159 31q295 0 295 -352q0 -271 -155.5 -410t-460.5 -139l-19 205q225 0 313.5 73t88.5 250q0 97 -34 134.5t-112 37.5q-80 0 -147 -43l-148 66l41 651h600z" />
    <glyph glyph-name="six.tosf" horiz-adv-x="798" 
d="M655 1192q-162 0 -251 -95t-107 -304h4q59 41 143 41q306 0 306 -398q0 -228 -90.5 -341t-264.5 -113q-167 0 -248 116.5t-81 321.5v264q0 340 154 526.5t419 186.5zM408 625q-69 0 -113 -47v-152q0 -132 27 -185t86 -53q58 0 86 50.5t28 183.5q0 115 -27 159t-87 44z
" />
    <glyph glyph-name="seven.tosf" horiz-adv-x="798" 
d="M373 -166h-246l387 1139h-463v221h701v-195z" />
    <glyph glyph-name="eight.tosf" horiz-adv-x="798" 
d="M399 -20q-174 0 -261 84t-87 282q0 210 148 275v4q-127 69 -127 272q0 147 78.5 231t248.5 84q171 0 249.5 -84t78.5 -231q0 -204 -125 -272v-4q148 -65 148 -275q0 -197 -88 -281.5t-263 -84.5zM518 369q0 88 -28 121.5t-91 33.5q-60 0 -88 -34t-28 -121q0 -103 27 -146
t89 -43q64 0 91.5 43t27.5 146zM399 1018q-56 0 -81 -36t-25 -122q0 -90 24.5 -127t81.5 -37q59 0 84 37t25 127q0 86 -25.5 122t-83.5 36z" />
    <glyph glyph-name="nine.tosf" horiz-adv-x="798" 
d="M123 25q186 0 277.5 99.5t103.5 338.5h-4q-58 -37 -142 -37q-144 0 -226.5 90t-82.5 285q0 204 90.5 306.5t263.5 102.5q166 0 248 -115t82 -315v-248q0 -347 -157 -529.5t-431 -182.5zM391 623q69 0 113 53v98q0 127 -26 178.5t-87 51.5q-58 0 -86.5 -42.5t-28.5 -150.5
q0 -104 28.5 -146t86.5 -42z" />
    <glyph glyph-name="less.tosf" horiz-adv-x="798" 
d="M684 801l-301 -213l301 -213v-250l-596 450v23l596 455v-252z" />
    <glyph glyph-name="equal.tosf" horiz-adv-x="798" 
d="M688 653h-575v187h575v-187zM688 346h-575v186h575v-186z" />
    <glyph glyph-name="greater.tosf" horiz-adv-x="798" 
d="M115 1053l596 -453v-22l-596 -453v252l299 211l-299 213v252z" />
    <glyph glyph-name="cent.tosf" horiz-adv-x="798" 
d="M727 985l-186 -57q-18 80 -50 113.5t-83 33.5q-69 0 -96 -47.5t-27 -163.5v-487q0 -115 30.5 -161t96.5 -46q52 0 82.5 34.5t48.5 121.5l184 -56q-53 -240 -240 -280l-30 -248h-140l-6 246q-132 23 -194 123t-62 280v465q0 172 67 278t202 130l34 231h142l4 -242
q171 -55 223 -268z" />
    <glyph glyph-name="sterling.tosf" horiz-adv-x="798" 
d="M707 987l-168 -53q-13 78 -40 109.5t-71 31.5q-50 0 -73 -46.5t-23 -149.5q0 -58 8 -164h260l-14 -152h-228q16 -120 19 -221q32 -21 62.5 -58t52 -61t40.5 -24q32 0 49.5 33t24.5 122l164 -39q-17 -182 -69 -258.5t-144 -76.5q-30 0 -58 11.5t-46 25.5t-39 41.5
t-30.5 43.5t-27.5 48l-2 4q-46 -174 -184 -174q-71 0 -110.5 44.5t-39.5 129.5q0 80 47 138t130 73q-5 28 -21 95t-24 103h-72l-14 152h57q-14 80 -14 170q0 182 79 284.5t226 102.5q119 0 195 -76.5t98 -208.5zM178 129q35 0 37 111q-57 -15 -57 -78q0 -33 20 -33z" />
    <glyph glyph-name="currency.tosf" horiz-adv-x="798" 
d="M170 760q0 66 31 123l-72 78l82 92l74 -80q57 31 112 31q57 0 115 -33l78 88l82 -92l-78 -86q31 -64 31 -121q0 -59 -31 -123l76 -80l-84 -92l-76 82q-54 -33 -113 -33q-55 0 -112 31l-78 -86l-82 92l76 84q-31 57 -31 125zM305 760q0 -46 27.5 -74.5t66.5 -28.5
q40 0 67.5 28.5t27.5 74.5q0 44 -28 72t-67 28t-66.5 -27.5t-27.5 -72.5z" />
    <glyph glyph-name="yen.tosf" horiz-adv-x="798" 
d="M684 242h-170v-242h-229v242h-170v147h170v70h-170v149h123l-244 647h248l157 -565h4l152 565h254l-250 -647h125v-149h-170v-70h170v-147z" />
    <glyph glyph-name="logicalnot.tosf" horiz-adv-x="798" 
d="M537 238v264h-449v186h623v-450h-174z" />
    <glyph glyph-name="plusminus.tosf" horiz-adv-x="798" 
d="M311 272v269h-223v186h223v289h174v-289h226v-186h-226v-269h-174zM711 39h-623v186h623v-186z" />
    <glyph glyph-name="multiply.tosf" horiz-adv-x="798" 
d="M588 266l-191 207l-188 -207l-121 131l188 207l-188 207l119 131l190 -207l191 207l121 -131l-191 -207l191 -207z" />
    <glyph glyph-name="divide.tosf" horiz-adv-x="798" 
d="M711 504h-623v184h623v-184zM279 913q0 53 33.5 91t82.5 38t84 -38t35 -91q0 -54 -34.5 -90.5t-84.5 -36.5q-49 0 -82.5 36.5t-33.5 90.5zM279 287q0 54 33.5 91.5t82.5 37.5q50 0 84.5 -37.5t34.5 -91.5q0 -53 -35 -90t-84 -37t-82.5 37t-33.5 90z" />
    <glyph glyph-name="uni2007.tosf" horiz-adv-x="798" 
 />
    <glyph glyph-name="franc.tosf" horiz-adv-x="798" 
d="M31 158v161h88v934h610v-217h-377v-309h324v-199h-324v-209h133v-161h-133v-158h-233v158h-88z" />
    <glyph glyph-name="lira.tosf" horiz-adv-x="798" 
d="M707 987l-168 -53q-13 78 -40 109.5t-71 31.5q-50 0 -73 -46.5t-23 -149.5q0 -37 4 -103h307l-18 -125h-277l6 -49h264l-16 -117h-235q10 -82 10 -143q32 -21 62.5 -58t52 -61t40.5 -24q32 0 49.5 33t24.5 122l164 -39q-17 -182 -69 -258.5t-144 -76.5q-30 0 -58 11.5
t-46 25.5t-39 41.5t-30.5 43.5t-27.5 48l-2 4q-47 -174 -184 -174q-71 0 -110.5 44.5t-39.5 129.5q0 80 47 138t130 73q-3 15 -7 34.5t-10 44.5t-10 41h-74l-18 117h65q-2 18 -10 49h-63l-21 125h66q-6 56 -6 109q0 182 79 284.5t226 102.5q119 0 195 -76.5t98 -208.5z
M178 129q35 0 37 111q-57 -15 -57 -78q0 -33 20 -33z" />
    <glyph glyph-name="peseta.tosf" horiz-adv-x="798" 
d="M14 776v148h72v329h326q133 0 210 -84.5t91 -244.5h67v-148h-67q-14 -159 -88 -243t-201 -84h-111v-449h-227v776h-72zM406 623q41 0 60.5 37.5t22.5 127.5h-176v-165h93zM313 1059v-146h176q-6 82 -25 114t-58 32h-93z" />
    <glyph glyph-name="Euro.tosf" horiz-adv-x="798" 
d="M737 983l-186 -53q-17 78 -47 111.5t-78 33.5q-62 0 -88.5 -46.5t-26.5 -156.5v-65h242l-16 -133h-226v-56h215l-20 -129h-195v-110q0 -118 28 -163.5t89 -45.5q50 0 79.5 34t43.5 120l190 -54q-64 -290 -323 -290q-173 0 -253.5 104.5t-80.5 308.5v96h-57v129h57v56h-57
v133h57v57q0 188 83.5 297t250.5 109q122 0 207 -74.5t112 -212.5z" />
    <glyph glyph-name="uni20B4.tosf" horiz-adv-x="798" 
d="M63 662v143h388q43 65 43 143q0 75 -24 108.5t-83 33.5q-57 0 -91.5 -34t-55.5 -114l-166 51q77 279 334 279q141 0 214.5 -87t73.5 -216q0 -90 -41 -164h64v-143h-182q-5 -5 -30 -27t-38 -33h248v-143h-375q-43 -75 -43 -166q0 -64 30.5 -96.5t86.5 -32.5q110 0 149 158
l154 -50q-34 -149 -112.5 -220.5t-209.5 -71.5q-151 0 -226 81t-75 213q0 106 45 185h-78v143h193q20 20 66 60h-259z" />
    <glyph glyph-name="uni20B8.tosf" horiz-adv-x="798" 
d="M725 891h-215v-891h-221v891h-215v147h651v-147zM725 1108h-651v147h651v-147z" />
    <glyph glyph-name="uni20BA.tosf" horiz-adv-x="798" 
d="M33 578v182l92 51v442h237v-340l234 136v-185l-234 -133v-78l234 135v-184l-234 -133v-233h78q65 0 103 42t55 142l188 -92q-28 -172 -116 -251t-234 -79h-311v367l-92 -52v183l92 51v80z" />
    <glyph glyph-name="uni20BD.tosf" horiz-adv-x="798" 
d="M346 0h-225v268h-74v170h74v51h-74v173h74v591h330q305 0 305 -387q0 -185 -73.5 -281t-217.5 -96h-119v-51h217v-170h-217v-268zM346 1067v-405h86q52 0 72 44.5t20 157.5q0 117 -19.5 160t-72.5 43h-86z" />
    <glyph glyph-name="minus.tosf" horiz-adv-x="798" 
d="M711 502h-623v186h623v-186z" />
    <glyph glyph-name="approxequal.tosf" horiz-adv-x="798" 
d="M688 850v-184q-76 -45 -156 -45q-56 0 -147 33.5t-137 33.5q-67 0 -135 -47v184q80 45 155 45q59 0 153.5 -34.5t139.5 -34.5q67 0 127 49zM688 543v-185q-79 -47 -156 -47q-54 0 -144.5 34t-137.5 34q-69 0 -137 -47v184q79 47 157 47q59 0 152.5 -34.5t138.5 -34.5
q67 0 127 49z" />
    <glyph glyph-name="notequal.tosf" horiz-adv-x="798" 
d="M688 346h-313l-72 -190l-117 45l56 145h-129v186h200l45 121h-245v187h317l74 190l114 -49l-55 -141h125v-187h-194l-48 -121h242v-186z" />
    <glyph glyph-name="lessequal.tosf" horiz-adv-x="798" 
d="M684 819l-278 -170l278 -164v-243l-596 399v21l596 405v-248zM92 41v168h594v-168h-594z" />
    <glyph glyph-name="greaterequal.tosf" horiz-adv-x="798" 
d="M113 485l278 164l-276 170v248l596 -405v-21l-598 -399v243zM705 209v-168h-592v168h592z" />
    <glyph glyph-name="exclam.sc" horiz-adv-x="362" 
d="M74 1196h215v-512l-25 -315h-170l-20 315v512zM63 0v246h234v-246h-234z" />
    <glyph glyph-name="ampersand.sc" horiz-adv-x="899" 
d="M692 975l-168 -72q-45 129 -116 129q-72 0 -72 -84q0 -65 33 -119l221 -356q18 102 18 229v39h254v-172h-100q-13 -163 -53 -276q74 -100 182 -115l-29 -192q-160 14 -256 118q-104 -120 -264 -120q-65 0 -119 20t-97 62t-67 113.5t-24 166.5q0 113 44 207.5t126 157.5
q-76 118 -76 229q0 113 71 190.5t203 77.5q111 0 180.5 -57.5t108.5 -175.5zM371 164q77 0 135 86l-199 303q-53 -85 -53 -201q0 -102 30 -145t87 -43z" />
    <glyph glyph-name="question.sc" horiz-adv-x="706" 
d="M668 911q0 -126 -61.5 -238.5t-174.5 -183.5l-8 -129h-164l-16 238q207 99 207 295q0 121 -103 121q-57 0 -94 -35.5t-57 -116.5l-177 49q33 137 120.5 217t221.5 80q153 0 229.5 -84t76.5 -213zM225 0v246h234v-246h-234z" />
    <glyph glyph-name="grave.sc" horiz-adv-x="450" 
d="M14 1487h238l74 -227h-164z" />
    <glyph glyph-name="a.sc" horiz-adv-x="847" 
d="M289 254l-47 -254h-236l283 1196h270l281 -1196h-238l-49 254h-264zM420 946l-96 -512h194l-94 512h-4z" />
    <glyph glyph-name="b.sc" horiz-adv-x="813" 
d="M731 881q0 -102 -30 -164t-99 -92v-4q170 -51 170 -275q0 -171 -75 -258.5t-255 -87.5h-360v1196h319q169 0 249.5 -84.5t80.5 -230.5zM311 522v-325h119q62 0 86.5 34.5t24.5 130.5q0 92 -25 126t-84 34h-121zM311 993v-297h101q61 0 83.5 33.5t22.5 120.5q0 83 -23 113
t-83 30h-101z" />
    <glyph glyph-name="c.sc" horiz-adv-x="729" 
d="M389 1212q123 0 207 -78t106 -204l-174 -58q-20 136 -116 136q-121 0 -121 -174v-492q0 -77 29.5 -120.5t89.5 -43.5q50 0 77.5 33t40.5 115l177 -58q-26 -147 -104 -216.5t-214 -69.5q-152 0 -242 96.5t-90 259.5v496q0 176 90.5 277t243.5 101z" />
    <glyph glyph-name="d.sc" horiz-adv-x="858" 
d="M803 811v-426q0 -180 -95 -282.5t-266 -102.5h-360v1196h360q171 0 266 -102.5t95 -282.5zM567 393v406q0 107 -29 148.5t-96 41.5h-125v-788h125q68 0 96.5 42t28.5 150z" />
    <glyph glyph-name="e.sc" horiz-adv-x="714" 
d="M82 1196h586v-207h-351v-282h261v-183h-261v-321h361v-203h-596v1196z" />
    <glyph glyph-name="f.sc" horiz-adv-x="706" 
d="M82 1196h588v-211h-351v-295h304v-196h-304v-494h-237v1196z" />
    <glyph glyph-name="g.sc" horiz-adv-x="821" 
d="M424 1212q130 0 219.5 -75t114.5 -209l-178 -62q-41 127 -146 127q-75 0 -110 -46t-35 -146v-424q0 -95 33 -138.5t104 -43.5q83 0 129 59v199h-102v159h305v-612h-189v66q-76 -82 -198 -82q-145 0 -230.5 99t-85.5 292v428q0 189 93 299t276 110z" />
    <glyph glyph-name="h.sc" horiz-adv-x="864" 
d="M82 1196h235v-477h232v477h235v-1196h-235v508h-232v-508h-235v1196z" />
    <glyph glyph-name="i.sc" horiz-adv-x="430" 
d="M98 1196h234v-1196h-234v1196z" />
    <glyph glyph-name="j.sc" horiz-adv-x="428" 
d="M111 1196h233v-999q0 -200 -99.5 -305.5t-289.5 -110.5l-21 190q92 0 134.5 51t42.5 171v1003z" />
    <glyph glyph-name="k.sc" horiz-adv-x="835" 
d="M836 0h-254l-205 496l-64 -119v-377h-231v1196h231v-551l246 551h258l-289 -528z" />
    <glyph glyph-name="l.sc" horiz-adv-x="667" 
d="M82 1196h229v-983h330v-213h-559v1196z" />
    <glyph glyph-name="m.sc" horiz-adv-x="1114" 
d="M811 1196h219v-1196h-211v676h-4l-207 -496h-104l-205 494h-4v-674h-213v1196h221l250 -684h4z" />
    <glyph glyph-name="n.sc" horiz-adv-x="864" 
d="M82 1196h174l317 -649h5v649h206v-1196h-161l-330 678h-4v-678h-207v1196z" />
    <glyph glyph-name="o.sc" horiz-adv-x="829" 
d="M774 823v-452q0 -184 -92.5 -286.5t-267.5 -102.5t-267 102.5t-92 286.5v452q0 184 92 286.5t267 102.5t267.5 -102.5t92.5 -286.5zM541 371v452q0 99 -29 141t-96 42t-97 -41.5t-30 -141.5v-452q0 -102 29 -144.5t96 -42.5q68 0 97.5 42.5t29.5 144.5z" />
    <glyph glyph-name="p.sc" horiz-adv-x="794" 
d="M438 1196q155 0 239.5 -102.5t84.5 -288.5q0 -183 -80.5 -284t-228.5 -101h-136v-420h-235v1196h356zM317 993v-389h115q51 0 73.5 45t22.5 152q0 108 -22 150t-74 42h-115z" />
    <glyph glyph-name="q.sc" horiz-adv-x="829" 
d="M774 823v-452q0 -137 -52.5 -230t-152.5 -133l152 -184l-199 -78l-143 238q-158 10 -241 111.5t-83 275.5v452q0 184 92 286.5t267 102.5t267.5 -102.5t92.5 -286.5zM541 371v452q0 99 -29 141t-96 42t-97 -41.5t-30 -141.5v-452q0 -102 29 -144.5t96 -42.5
q68 0 97.5 42.5t29.5 144.5z" />
    <glyph glyph-name="r.sc" horiz-adv-x="804" 
d="M553 0l-160 477h-76v-477h-235v1196h342q324 0 324 -348q0 -244 -150 -313l201 -535h-246zM317 995v-336h97q59 0 81.5 38.5t22.5 131.5q0 97 -23 131.5t-83 34.5h-95z" />
    <glyph glyph-name="s.sc" horiz-adv-x="729" 
d="M356 1212q254 0 328 -268l-170 -61q-17 72 -50 104.5t-85 32.5q-100 0 -100 -109q0 -42 23 -79t60 -67.5t81.5 -61.5t88.5 -68.5t81 -80t60 -104t23 -133.5q0 -161 -86.5 -249t-238.5 -88q-125 0 -217 77t-115 213l184 54q34 -152 146 -152q104 0 104 113q0 49 -23.5 91
t-61.5 75t-83.5 65t-91 69t-83.5 78.5t-61.5 102t-23.5 131.5q0 137 83.5 226t227.5 89z" />
    <glyph glyph-name="t.sc" horiz-adv-x="694" 
d="M16 1196h662v-213h-215v-983h-232v983h-215v213z" />
    <glyph glyph-name="u.sc" horiz-adv-x="858" 
d="M555 1196h233v-829q0 -183 -93.5 -284t-262.5 -101q-172 0 -266 97t-94 277v840h233v-840q0 -91 31.5 -126t95.5 -35t93.5 36t29.5 125v840z" />
    <glyph glyph-name="v.sc" horiz-adv-x="847" 
d="M846 1196l-299 -1196h-246l-301 1196h254l170 -881h4l166 881h252z" />
    <glyph glyph-name="w.sc" horiz-adv-x="1296" 
d="M1278 1196l-236 -1196h-254l-137 764h-4l-139 -764h-254l-238 1196h236l137 -860h4l146 860h219l149 -866h4l133 866h234z" />
    <glyph glyph-name="x.sc" horiz-adv-x="823" 
d="M12 0l250 604l-244 592h250l142 -440h4l139 440h250l-240 -590l250 -606h-250l-149 449h-4l-152 -449h-246z" />
    <glyph glyph-name="y.sc" horiz-adv-x="817" 
d="M815 1196l-291 -846v-350h-233v356l-291 840h256l152 -575h4l149 575h254z" />
    <glyph glyph-name="z.sc" horiz-adv-x="733" 
d="M684 209v-209h-637v141l387 846h-371v209h623v-145l-383 -842h381z" />
    <glyph glyph-name="exclamdown.sc" horiz-adv-x="362" 
d="M291 0h-215v510l22 315h172l21 -313v-512zM299 1196v-246h-231v246h231z" />
    <glyph glyph-name="dieresis.sc" horiz-adv-x="450" 
d="M18 1491h164v-221h-164v221zM270 1491h164v-221h-164v221z" />
    <glyph glyph-name="macron.sc" horiz-adv-x="450" 
d="M453 1458v-153h-453v153h453z" />
    <glyph glyph-name="acute.sc" horiz-adv-x="450" 
d="M147 1491h234l-135 -231h-166z" />
    <glyph glyph-name="questiondown.sc" horiz-adv-x="706" 
d="M39 285q0 126 61 239t174 183l9 129h163l17 -238q-207 -99 -207 -295q0 -121 102 -121q57 0 94.5 35.5t57.5 116.5l176 -49q-33 -137 -120.5 -217t-221.5 -80q-78 0 -138 23.5t-95.5 65t-53.5 94t-18 114.5zM481 1196v-246h-233v246h233z" />
    <glyph glyph-name="germandbls.sc" horiz-adv-x="1458" 
d="M356 1212q254 0 328 -268l-170 -61q-17 72 -50 104.5t-85 32.5q-100 0 -100 -109q0 -42 23 -79t60 -67.5t81.5 -61.5t88.5 -68.5t81 -80t60 -104t23 -133.5q0 -161 -86.5 -249t-238.5 -88q-125 0 -217 77t-115 213l184 54q34 -152 146 -152q104 0 104 113q0 49 -23.5 91
t-61.5 75t-83.5 65t-91 69t-83.5 78.5t-61.5 102t-23.5 131.5q0 137 83.5 226t227.5 89zM1085 1212q254 0 328 -268l-170 -61q-17 72 -50 104.5t-85 32.5q-100 0 -100 -109q0 -42 23 -79t60 -67.5t81 -61.5t88.5 -68.5t81.5 -80t60 -104t23 -133.5q0 -161 -86.5 -249
t-238.5 -88q-125 0 -217 77t-115 213l184 54q34 -152 146 -152q104 0 104 113q0 49 -23.5 91t-61.5 75t-83.5 65t-91 69t-83.5 78.5t-61.5 102t-23.5 131.5q0 137 83.5 226t227.5 89z" />
    <glyph glyph-name="agrave.sc" horiz-adv-x="847" 
d="M289 254l-47 -254h-236l283 1196h270l281 -1196h-238l-49 254h-264zM420 946l-96 -512h194l-94 512h-4zM219 1487h238l73 -227h-163z" />
    <glyph glyph-name="aacute.sc" horiz-adv-x="847" 
d="M289 254l-47 -254h-236l283 1196h270l281 -1196h-238l-49 254h-264zM420 946l-96 -512h194l-94 512h-4zM393 1491h234l-135 -231h-166z" />
    <glyph glyph-name="acircumflex.sc" horiz-adv-x="847" 
d="M289 254l-47 -254h-236l283 1196h270l281 -1196h-238l-49 254h-264zM420 946l-96 -512h194l-94 512h-4zM373 1260h-180l151 231h164l149 -231h-178l-53 112h-4z" />
    <glyph glyph-name="atilde.sc" horiz-adv-x="847" 
d="M289 254l-47 -254h-236l283 1196h270l281 -1196h-238l-49 254h-264zM420 946l-96 -512h194l-94 512h-4zM571 1499l121 -16q-14 -117 -51.5 -173.5t-110.5 -56.5q-36 0 -69 16.5t-53 36t-42 36t-38 16.5q-22 0 -35 -20t-19 -72l-120 14q12 120 50.5 175.5t112.5 55.5
q35 0 68.5 -16.5t54.5 -35.5t43.5 -35.5t38.5 -16.5q23 0 33 19.5t16 72.5z" />
    <glyph glyph-name="adieresis.sc" horiz-adv-x="847" 
d="M289 254l-47 -254h-236l283 1196h270l281 -1196h-238l-49 254h-264zM420 946l-96 -512h194l-94 512h-4zM215 1491h164v-221h-164v221zM467 1491h164v-221h-164v221z" />
    <glyph glyph-name="aring.sc" horiz-adv-x="847" 
d="M289 254l-47 -254h-236l283 1196h270l281 -1196h-238l-49 254h-264zM420 946l-96 -512h194l-94 512h-4zM244 1415q0 75 50 119.5t128 44.5q79 0 128.5 -44.5t49.5 -119.5t-49.5 -119.5t-128.5 -44.5q-78 0 -128 44.5t-50 119.5zM377 1415q0 -53 45 -53t45 53
q0 23 -11.5 38t-33.5 15t-33.5 -15t-11.5 -38z" />
    <glyph glyph-name="ae.sc" horiz-adv-x="1167" 
d="M328 264l-84 -264h-236l418 1196h692v-207h-348l23 -282h239v-183h-223l27 -321h297v-203h-512l-23 264h-270zM541 932l-156 -490h199l-39 490h-4z" />
    <glyph glyph-name="ccedilla.sc" horiz-adv-x="729" 
d="M389 1212q123 0 207 -78t106 -204l-174 -58q-20 136 -116 136q-121 0 -121 -174v-492q0 -77 29.5 -120.5t89.5 -43.5q50 0 77.5 33t40.5 115l177 -58q-25 -135 -92 -204t-183 -80l-4 -33q131 -28 131 -125q0 -67 -62 -115t-169 -57l-43 104q48 11 72 24t24 32
q0 40 -103 47l29 129q-117 25 -183.5 117t-66.5 231v496q0 176 90.5 277t243.5 101z" />
    <glyph glyph-name="egrave.sc" horiz-adv-x="714" 
d="M82 1196h586v-207h-351v-282h261v-183h-261v-321h361v-203h-596v1196zM170 1487h238l73 -227h-164z" />
    <glyph glyph-name="eacute.sc" horiz-adv-x="714" 
d="M82 1196h586v-207h-351v-282h261v-183h-261v-321h361v-203h-596v1196zM336 1491h233l-135 -231h-166z" />
    <glyph glyph-name="ecircumflex.sc" horiz-adv-x="714" 
d="M82 1196h586v-207h-351v-282h261v-183h-261v-321h361v-203h-596v1196zM324 1260h-181l152 231h164l149 -231h-178l-53 112h-4z" />
    <glyph glyph-name="edieresis.sc" horiz-adv-x="714" 
d="M82 1196h586v-207h-351v-282h261v-183h-261v-321h361v-203h-596v1196zM170 1491h164v-221h-164v221zM422 1491h164v-221h-164v221z" />
    <glyph glyph-name="igrave.sc" horiz-adv-x="430" 
d="M98 1196h234v-1196h-234v1196zM2 1487h238l73 -227h-163z" />
    <glyph glyph-name="iacute.sc" horiz-adv-x="430" 
d="M98 1196h234v-1196h-234v1196zM184 1491h234l-135 -231h-166z" />
    <glyph glyph-name="icircumflex.sc" horiz-adv-x="430" 
d="M98 1196h234v-1196h-234v1196zM164 1260h-180l151 231h164l150 -231h-179l-53 112h-4z" />
    <glyph glyph-name="idieresis.sc" horiz-adv-x="430" 
d="M98 1196h234v-1196h-234v1196zM6 1491h164v-221h-164v221zM258 1491h164v-221h-164v221z" />
    <glyph glyph-name="eth.sc" horiz-adv-x="872" 
d="M817 811v-426q0 -180 -94.5 -282.5t-265.5 -102.5h-361v547h-80v135h80v514h361q171 0 265.5 -102.5t94.5 -282.5zM582 393v406q0 107 -29 148.5t-96 41.5h-125v-307h112v-135h-112v-346h125q68 0 96.5 42t28.5 150z" />
    <glyph glyph-name="ntilde.sc" horiz-adv-x="864" 
d="M82 1196h174l317 -649h5v649h206v-1196h-161l-330 678h-4v-678h-207v1196zM588 1499l121 -16q-14 -117 -51.5 -173.5t-110.5 -56.5q-46 0 -85.5 26.5t-68.5 52.5t-49 26q-22 0 -34.5 -19.5t-18.5 -72.5l-121 14q12 120 51 175.5t113 55.5q35 0 68.5 -16.5t54.5 -35.5
t43.5 -35.5t38.5 -16.5q23 0 33 19.5t16 72.5z" />
    <glyph glyph-name="ograve.sc" horiz-adv-x="829" 
d="M774 823v-452q0 -184 -92.5 -286.5t-267.5 -102.5t-267 102.5t-92 286.5v452q0 184 92 286.5t267 102.5t267.5 -102.5t92.5 -286.5zM541 371v452q0 99 -29 141t-96 42t-97 -41.5t-30 -141.5v-452q0 -102 29 -144.5t96 -42.5q68 0 97.5 42.5t29.5 144.5zM205 1487h237
l74 -227h-164z" />
    <glyph glyph-name="oacute.sc" horiz-adv-x="829" 
d="M774 823v-452q0 -184 -92.5 -286.5t-267.5 -102.5t-267 102.5t-92 286.5v452q0 184 92 286.5t267 102.5t267.5 -102.5t92.5 -286.5zM541 371v452q0 99 -29 141t-96 42t-97 -41.5t-30 -141.5v-452q0 -102 29 -144.5t96 -42.5q68 0 97.5 42.5t29.5 144.5zM393 1491h234
l-135 -231h-166z" />
    <glyph glyph-name="ocircumflex.sc" horiz-adv-x="829" 
d="M774 823v-452q0 -184 -92.5 -286.5t-267.5 -102.5t-267 102.5t-92 286.5v452q0 184 92 286.5t267 102.5t267.5 -102.5t92.5 -286.5zM541 371v452q0 99 -29 141t-96 42t-97 -41.5t-30 -141.5v-452q0 -102 29 -144.5t96 -42.5q68 0 97.5 42.5t29.5 144.5zM365 1260h-181
l152 231h164l149 -231h-178l-53 112h-4z" />
    <glyph glyph-name="otilde.sc" horiz-adv-x="829" 
d="M774 823v-452q0 -184 -92.5 -286.5t-267.5 -102.5t-267 102.5t-92 286.5v452q0 184 92 286.5t267 102.5t267.5 -102.5t92.5 -286.5zM541 371v452q0 99 -29 141t-96 42t-97 -41.5t-30 -141.5v-452q0 -102 29 -144.5t96 -42.5q68 0 97.5 42.5t29.5 144.5zM569 1499l121 -16
q-14 -117 -51.5 -173.5t-110.5 -56.5q-36 0 -69 16.5t-53 36t-42 36t-38 16.5q-22 0 -35 -20t-19 -72l-120 14q12 120 50.5 175.5t112.5 55.5q35 0 68.5 -16.5t54.5 -35.5t43.5 -35.5t38.5 -16.5q23 0 33 19.5t16 72.5z" />
    <glyph glyph-name="odieresis.sc" horiz-adv-x="829" 
d="M774 823v-452q0 -184 -92.5 -286.5t-267.5 -102.5t-267 102.5t-92 286.5v452q0 184 92 286.5t267 102.5t267.5 -102.5t92.5 -286.5zM541 371v452q0 99 -29 141t-96 42t-97 -41.5t-30 -141.5v-452q0 -102 29 -144.5t96 -42.5q68 0 97.5 42.5t29.5 144.5zM209 1491h164
v-221h-164v221zM461 1491h164v-221h-164v221z" />
    <glyph glyph-name="oslash.sc" horiz-adv-x="829" 
d="M774 823v-452q0 -184 -92.5 -286.5t-267.5 -102.5t-264 100l-48 -78l-67 55l61 103q-41 87 -41 209v452q0 184 92 286.5t267 102.5q164 0 258 -94l53 86l70 -55l-66 -109q45 -92 45 -217zM541 371l-2 360l-248 -416q6 -71 35.5 -101t87.5 -30q68 0 97.5 42.5t29.5 144.5z
M293 481l244 412q-9 59 -38.5 86t-82.5 27q-67 0 -97 -41.5t-30 -141.5v-350z" />
    <glyph glyph-name="ugrave.sc" horiz-adv-x="858" 
d="M555 1196h233v-829q0 -183 -93.5 -284t-262.5 -101q-172 0 -266 97t-94 277v840h233v-840q0 -91 31.5 -126t95.5 -35t93.5 36t29.5 125v840zM215 1487h238l73 -227h-164z" />
    <glyph glyph-name="uacute.sc" horiz-adv-x="858" 
d="M555 1196h233v-829q0 -183 -93.5 -284t-262.5 -101q-172 0 -266 97t-94 277v840h233v-840q0 -91 31.5 -126t95.5 -35t93.5 36t29.5 125v840zM410 1491h233l-135 -231h-166z" />
    <glyph glyph-name="ucircumflex.sc" horiz-adv-x="858" 
d="M555 1196h233v-829q0 -183 -93.5 -284t-262.5 -101q-172 0 -266 97t-94 277v840h233v-840q0 -91 31.5 -126t95.5 -35t93.5 36t29.5 125v840zM381 1260h-180l151 231h164l150 -231h-179l-53 112h-4z" />
    <glyph glyph-name="udieresis.sc" horiz-adv-x="858" 
d="M555 1196h233v-829q0 -183 -93.5 -284t-262.5 -101q-172 0 -266 97t-94 277v840h233v-840q0 -91 31.5 -126t95.5 -35t93.5 36t29.5 125v840zM227 1491h164v-221h-164v221zM479 1491h164v-221h-164v221z" />
    <glyph glyph-name="yacute.sc" horiz-adv-x="817" 
d="M815 1196l-291 -846v-350h-233v356l-291 840h256l152 -575h4l149 575h254zM379 1491h233l-135 -231h-166z" />
    <glyph glyph-name="thorn.sc" horiz-adv-x="794" 
d="M438 1001q155 0 239.5 -100.5t84.5 -286.5q0 -184 -80.5 -284.5t-228.5 -100.5h-136v-229h-235v1196h237v-195h119zM317 803v-389h115q51 0 73.5 45t22.5 153q0 106 -22 148.5t-74 42.5h-115z" />
    <glyph glyph-name="ydieresis.sc" horiz-adv-x="817" 
d="M815 1196l-291 -846v-350h-233v356l-291 840h256l152 -575h4l149 575h254zM201 1491h164v-221h-164v221zM453 1491h163v-221h-163v221z" />
    <glyph glyph-name="dotlessi.sc" horiz-adv-x="430" 
d="M98 1196h234v-1196h-234v1196z" />
    <glyph glyph-name="ij.sc" horiz-adv-x="858" 
d="M98 1196h234v-1196h-234v1196zM541 1196h233v-999q0 -200 -99.5 -305.5t-289.5 -110.5l-20 190q91 0 133.5 51t42.5 171v1003z" />
    <glyph glyph-name="lslash.sc" horiz-adv-x="686" 
d="M96 1196h230v-461l209 109v-193l-209 -110v-328h329v-213h-559v442l-82 -43v195l82 43v559z" />
    <glyph glyph-name="oe.sc" horiz-adv-x="1169" 
d="M543 1196h577v-207h-346v-282h260v-183h-260v-321h361v-203h-592v61h-4q-64 -79 -187 -79q-132 0 -214.5 105t-82.5 284v452q0 179 82.5 284t214.5 105q123 0 187 -79h4v63zM543 377v438q0 104 -30 145t-99 41q-67 0 -96 -41t-29 -143v-440q0 -106 29 -148.5t96 -42.5
q69 0 99 43t30 148z" />
    <glyph glyph-name="scaron.sc" horiz-adv-x="729" 
d="M356 1212q254 0 328 -268l-170 -61q-17 72 -50 104.5t-85 32.5q-100 0 -100 -109q0 -42 23 -79t60 -67.5t81.5 -61.5t88.5 -68.5t81 -80t60 -104t23 -133.5q0 -161 -86.5 -249t-238.5 -88q-125 0 -217 77t-115 213l184 54q34 -152 146 -152q104 0 104 113q0 49 -23.5 91
t-61.5 75t-83.5 65t-91 69t-83.5 78.5t-61.5 102t-23.5 131.5q0 137 83.5 226t227.5 89zM127 1491h174l55 -123h4l58 123h174l-150 -231h-163z" />
    <glyph glyph-name="zcaron.sc" horiz-adv-x="733" 
d="M684 209v-209h-637v141l387 846h-371v209h623v-145l-383 -842h381zM147 1491h175l55 -123h4l57 123h174l-149 -231h-164z" />
    <glyph glyph-name="longs.sc" horiz-adv-x="729" 
d="M356 1212q254 0 328 -268l-170 -61q-17 72 -50 104.5t-85 32.5q-100 0 -100 -109q0 -42 23 -79t60 -67.5t81.5 -61.5t88.5 -68.5t81 -80t60 -104t23 -133.5q0 -161 -86.5 -249t-238.5 -88q-125 0 -217 77t-115 213l184 54q34 -152 146 -152q104 0 104 113q0 49 -23.5 91
t-61.5 75t-83.5 65t-91 69t-83.5 78.5t-61.5 102t-23.5 131.5q0 137 83.5 226t227.5 89z" />
    <glyph glyph-name="circumflex.sc" horiz-adv-x="450" 
d="M174 1260h-180l151 231h164l150 -231h-178l-54 112h-4z" />
    <glyph glyph-name="caron.sc" horiz-adv-x="450" 
d="M-6 1491h174l55 -123h4l58 123h174l-150 -231h-164z" />
    <glyph glyph-name="breve.sc" horiz-adv-x="450" 
d="M-2 1489h156q4 -72 19.5 -95.5t53.5 -23.5q37 0 53 24t19 95h156q-15 -142 -65.5 -192t-164.5 -50q-111 0 -160.5 50t-66.5 192z" />
    <glyph glyph-name="dotaccent.sc" horiz-adv-x="450" 
d="M90 1491h215v-221h-215v221z" />
    <glyph glyph-name="ring.sc" horiz-adv-x="450" 
d="M47 1415q0 75 50 119.5t128 44.5q79 0 128.5 -44.5t49.5 -119.5t-49.5 -119.5t-128.5 -44.5q-78 0 -128 44.5t-50 119.5zM180 1415q0 -53 45 -53t45 53q0 23 -11.5 38t-33.5 15t-33.5 -15t-11.5 -38z" />
    <glyph glyph-name="tilde.sc" horiz-adv-x="450" 
d="M375 1499l121 -16q-14 -117 -51.5 -173.5t-110.5 -56.5q-46 0 -85.5 26.5t-68.5 52.5t-49 26q-22 0 -34.5 -19.5t-18.5 -72.5l-121 14q12 120 51 175.5t113 55.5q35 0 68.5 -16.5t54.5 -35.5t43.5 -35.5t38.5 -16.5q23 0 33 19.5t16 72.5z" />
    <glyph glyph-name="hungarumlaut.sc" horiz-adv-x="450" 
d="M100 1491h199l-121 -231h-129zM350 1491h201l-154 -231h-131z" />
    <glyph glyph-name="gravecomb.sc" 
d="M-623 1487h238l74 -227h-164z" />
    <glyph glyph-name="acutecomb.sc" 
d="M-434 1491h233l-135 -231h-166z" />
    <glyph glyph-name="uni0302.sc" 
d="M-463 1260h-180l151 231h164l150 -231h-178l-54 112h-4z" />
    <glyph glyph-name="tildecomb.sc" 
d="M-258 1499l121 -16q-14 -117 -51.5 -173.5t-110.5 -56.5q-46 0 -85.5 26.5t-68.5 52.5t-49 26q-22 0 -34.5 -19.5t-18.5 -72.5l-121 14q12 120 51 175.5t113 55.5q35 0 68.5 -16.5t54.5 -35.5t43.5 -35.5t38.5 -16.5q23 0 33 19.5t16 72.5z" />
    <glyph glyph-name="uni0304.sc" 
d="M6 1458v-153h-452v153h452z" />
    <glyph glyph-name="uni0306.sc" 
d="M-446 1495h155q4 -71 20 -95t54 -24q37 0 53 24t19 95h155q-15 -142 -65 -192t-164 -50q-111 0 -160.5 50t-66.5 192z" />
    <glyph glyph-name="uni0307.sc" 
d="M-358 1487h215v-221h-215v221z" />
    <glyph glyph-name="uni0308.sc" 
d="M-426 1487h164v-221h-164v221zM-174 1487h164v-221h-164v221z" />
    <glyph glyph-name="uni030A.sc" 
d="M-393 1415q0 75 50 119.5t128 44.5q79 0 128.5 -44.5t49.5 -119.5t-49.5 -119.5t-128.5 -44.5q-78 0 -128 44.5t-50 119.5zM-260 1415q0 -53 45 -53t45 53q0 23 -11.5 38t-33.5 15t-33.5 -15t-11.5 -38z" />
    <glyph glyph-name="uni030B.sc" 
d="M-330 1473h199l-121 -232h-129zM-80 1473h201l-154 -232h-131z" />
    <glyph glyph-name="uni030C.sc" 
d="M-584 1491h174l56 -123h4l57 123h174l-149 -231h-164z" />
    <glyph glyph-name="uni0326.sc" 
d="M-510 -197v148h227v-82q0 -120 -49.5 -168.5t-177.5 -56.5l-8 86q56 6 75 20t19 45z" />
    <glyph glyph-name="uni0327.sc" 
d="M-305 47l123 -10l-15 -86q131 -28 131 -125q0 -67 -62 -115t-169 -57l-43 104q48 11 72 24t24 32t-21.5 31t-80.5 16z" />
    <glyph glyph-name="uni0328.sc" 
d="M-217 20l90 -30q-46 0 -72 -35.5t-26 -79.5q0 -34 17.5 -54t47.5 -20q44 0 86 29l43 -127q-68 -55 -178 -55q-98 0 -147.5 42t-49.5 115q0 71 49.5 128.5t139.5 86.5z" />
    <glyph glyph-name="uni1E9E.sc" horiz-adv-x="866" 
d="M82 1196h709v-156l-162 -305q92 -24 137 -107.5t45 -254.5q0 -204 -71.5 -293.5t-223.5 -89.5q-98 0 -162 33l25 186q48 -23 94 -23q55 0 81 38t26 147q0 78 -13.5 120t-35.5 55t-60 13h-68v164l138 272h-230v-995h-229v1196z" />
    <glyph glyph-name="uni203D.sc" horiz-adv-x="808" 
d="M774 903q0 -123 -74 -224t-217 -173l-8 -146h-156l-14 269v387q-71 -40 -106 -154l-179 47q37 138 137.5 221.5t252.5 83.5q178 0 271 -88t93 -223zM279 0v246h231v-246h-231zM563 893q0 110 -84 135v-336q84 84 84 201z" />
    <glyph glyph-name="uni2E18.sc" horiz-adv-x="808" 
d="M37 293q0 123 73.5 224t215.5 173l10 146h156l14 -267v-387q71 37 106 154l179 -47q-37 -138 -137.5 -221.5t-252.5 -83.5q-178 0 -271 88t-93 221zM532 1196v-244h-231v244h231zM248 303q0 -107 84 -135v332q-84 -78 -84 -197z" />
    <glyph glyph-name="uniFB00.sc" horiz-adv-x="1413" 
d="M82 1196h588v-211h-351v-295h304v-196h-304v-494h-237v1196zM788 1196h588v-211h-350v-295h303v-196h-303v-494h-238v1196z" />
    <glyph glyph-name="fi.sc" horiz-adv-x="1136" 
d="M82 1196h588v-211h-351v-295h304v-196h-304v-494h-237v1196zM805 1196h233v-1196h-233v1196z" />
    <glyph glyph-name="fl.sc" horiz-adv-x="1374" 
d="M82 1196h588v-211h-351v-295h304v-196h-304v-494h-237v1196zM788 1196h230v-983h330v-213h-560v1196z" />
    <glyph glyph-name="uniFB03.sc" horiz-adv-x="1843" 
d="M82 1196h588v-211h-351v-295h304v-196h-304v-494h-237v1196zM788 1196h588v-211h-350v-295h303v-196h-303v-494h-238v1196zM1511 1196h234v-1196h-234v1196z" />
    <glyph glyph-name="uniFB04.sc" horiz-adv-x="2080" 
d="M82 1196h588v-211h-351v-295h304v-196h-304v-494h-237v1196zM788 1196h588v-211h-350v-295h303v-196h-303v-494h-238v1196zM1495 1196h229v-983h330v-213h-559v1196z" />
    <glyph glyph-name="parenleft.case" horiz-adv-x="479" 
d="M94 367v745q0 329 91 473t288 144h45v-175h-45q-43 0 -75 -22t-57.5 -71t-38.5 -137t-13 -212v-745q0 -239 48 -341t136 -102h45v-172h-45q-198 0 -288.5 143t-90.5 472z" />
    <glyph glyph-name="parenright.case" horiz-adv-x="479" 
d="M385 1112v-745q0 -329 -90.5 -472t-286.5 -143h-47v174h47q182 0 182 441v745q0 124 -13 212t-38.5 137t-57 71t-73.5 22h-47v175h47q196 0 286.5 -144t90.5 -473z" />
    <glyph glyph-name="hyphen.case" horiz-adv-x="471" 
d="M45 633v215h381v-215h-381z" />
    <glyph glyph-name="at.case" horiz-adv-x="1298" 
d="M946 1028h-37l-30 -436q0 -6 -1 -27t-1 -26q0 -93 69 -93q37 0 61 20t40 82t16 171v330q0 432 -397 432q-205 0 -317.5 -130t-112.5 -343v-525q0 -243 118 -368t326 -125q136 0 225 39.5t164 124.5l127 -91q-202 -241 -518 -241q-293 0 -452.5 172t-159.5 487v527
q0 136 39.5 253t113.5 204.5t189 137.5t258 50q139 0 247.5 -45.5t177 -127t103.5 -191t35 -240.5v-328q0 -232 -77 -342.5t-212 -110.5q-127 0 -182 84q-83 -92 -209 -92q-107 0 -162 81t-55 230q0 300 108.5 458.5t311.5 158.5h200zM688 520l29 484h-12q-170 0 -170 -424
q0 -79 15 -107.5t48 -28.5q61 0 90 76z" />
    <glyph glyph-name="bracketleft.case" horiz-adv-x="471" 
d="M109 -248v1977h444v-175h-234v-1628h234v-174h-444z" />
    <glyph glyph-name="bracketright.case" horiz-adv-x="475" 
d="M367 1729v-1977h-451v180h236v1616h-236v181h451z" />
    <glyph glyph-name="grave.case" horiz-adv-x="456" 
d="M-37 1784h275l98 -238h-186z" />
    <glyph glyph-name="braceleft.case" horiz-adv-x="497" 
d="M31 662v157q64 8 98.5 40t34.5 85q0 36 -27.5 176.5t-27.5 237.5q0 185 103.5 278t295.5 93h47v-156h-47q-189 0 -189 -250q0 -83 26 -219t26 -174q0 -142 -142 -189v-4q142 -47 142 -188q0 -37 -26 -170.5t-26 -218.5q0 -252 189 -252h47v-156h-47q-193 0 -296 94
t-103 279q0 97 27.5 235.5t27.5 174.5q0 53 -35 86.5t-98 40.5z" />
    <glyph glyph-name="braceright.case" horiz-adv-x="497" 
d="M467 819v-157q-63 -8 -99 -41.5t-36 -85.5q0 -36 27.5 -174.5t27.5 -235.5q0 -185 -102.5 -279t-294.5 -94h-49v160h47q98 0 144 62t46 186q0 85 -25.5 218.5t-25.5 170.5q0 142 139 188v4q-139 46 -139 189q0 39 25.5 174.5t25.5 218.5q0 246 -190 246h-47v160h49
q192 0 294.5 -93t102.5 -278q0 -97 -27.5 -237.5t-27.5 -176.5q0 -54 35 -85.5t100 -39.5z" />
    <glyph glyph-name="exclamdown.case" horiz-adv-x="419" 
d="M326 0h-232v621l23 417h188l21 -411v-627zM332 1485v-271h-246v271h246z" />
    <glyph glyph-name="dieresis.case" horiz-adv-x="456" 
d="M2 1784h168v-228h-168v228zM287 1784h168v-228h-168v228z" />
    <glyph glyph-name="guillemotleft.case" horiz-adv-x="765" 
d="M723 1098l-205 -357l205 -358h-191l-200 358l200 357h191zM432 1098l-205 -357l205 -358h-190l-201 358l201 357h190z" />
    <glyph glyph-name="uni00AD.case" horiz-adv-x="471" 
d="M45 633v215h381v-215h-381z" />
    <glyph glyph-name="macron.case" horiz-adv-x="456" 
d="M463 1747v-152h-471v152h471z" />
    <glyph glyph-name="acute.case" horiz-adv-x="456" 
d="M152 1784h276l-172 -238h-188z" />
    <glyph glyph-name="periodcentered.case" horiz-adv-x="395" 
d="M57 823q0 65 41 111.5t99 46.5t99.5 -46.5t41.5 -111.5q0 -64 -41 -109.5t-100 -45.5q-58 0 -99 45t-41 110z" />
    <glyph glyph-name="guillemotright.case" horiz-adv-x="765" 
d="M332 383l207 358l-207 357h192l199 -357l-199 -358h-192zM41 383l207 358l-207 357h192l199 -357l-199 -358h-192z" />
    <glyph glyph-name="questiondown.case" horiz-adv-x="819" 
d="M788 340q-37 -167 -136.5 -263.5t-254.5 -96.5q-72 0 -130.5 18.5t-99 51.5t-68 78.5t-40 98.5t-12.5 113q0 154 72 293.5t203 230.5l14 178h174l14 -294q-243 -137 -243 -390q0 -163 133 -163q69 0 114.5 46.5t69.5 151.5zM547 1485v-271h-246v271h246z" />
    <glyph glyph-name="circumflex.case" horiz-adv-x="456" 
d="M166 1546h-186l155 238h187l153 -238h-186l-60 109h-4z" />
    <glyph glyph-name="caron.case" horiz-adv-x="456" 
d="M-14 1784h182l57 -111h4l60 111h180l-160 -238h-162z" />
    <glyph glyph-name="breve.case" horiz-adv-x="456" 
d="M-18 1784h165q4 -71 22 -97t58 -26q39 0 57.5 26t22.5 97h164q-18 -140 -73.5 -194t-172.5 -54t-170.5 53.5t-72.5 194.5z" />
    <glyph glyph-name="dotaccent.case" horiz-adv-x="456" 
d="M88 1784h223v-228h-223v228z" />
    <glyph glyph-name="ring.case" horiz-adv-x="456" 
d="M49 1669q0 68 49.5 109t128.5 41t129 -41t50 -109q0 -69 -50.5 -109t-128.5 -40q-80 0 -129 40t-49 109zM184 1669q0 -21 11 -34t32 -13t33 13t12 34t-12 34t-33 13t-32 -13t-11 -34z" />
    <glyph glyph-name="tilde.case" horiz-adv-x="456" 
d="M377 1790l117 -16q-14 -121 -54 -182.5t-121 -61.5q-33 0 -63.5 16t-49.5 35t-40 35t-35 16q-22 0 -35 -20.5t-20 -71.5l-117 14q14 126 53 185t121 59q33 0 64.5 -16t51 -35t40.5 -35t35 -16q23 0 35 21t18 73z" />
    <glyph glyph-name="hungarumlaut.case" horiz-adv-x="456" 
d="M98 1784h217l-135 -238h-137zM375 1784h217l-176 -238h-137z" />
    <glyph glyph-name="gravecomb.case" 
d="M-743 1784h274l98 -238h-186z" />
    <glyph glyph-name="acutecomb.case" 
d="M-508 1784h277l-172 -238h-189z" />
    <glyph glyph-name="uni0302.case" 
d="M-543 1546h-186l156 238h186l154 -238h-187l-59 109h-4z" />
    <glyph glyph-name="tildecomb.case" 
d="M-334 1790l117 -16q-14 -122 -53.5 -183t-120.5 -61q-33 0 -64 16t-50 35t-40 35t-35 16q-22 0 -35 -20.5t-20 -71.5l-117 14q14 126 53 185t121 59q33 0 64.5 -16t51 -35t40.5 -35t35 -16q23 0 35 21t18 73z" />
    <glyph glyph-name="uni0304.case" 
d="M16 1747v-152h-471v152h471z" />
    <glyph glyph-name="uni0306.case" 
d="M-469 1851h166q4 -71 22 -96.5t58 -25.5q39 0 57.5 25.5t22.5 96.5h163q-18 -140 -73 -193.5t-172 -53.5t-171.5 53t-72.5 194z" />
    <glyph glyph-name="uni0307.case" 
d="M-362 1800h223v-227h-223v227z" />
    <glyph glyph-name="uni0308.case" 
d="M-434 1800h168v-227h-168v227zM-150 1800h168v-227h-168v227z" />
    <glyph glyph-name="uni030A.case" 
d="M-406 1669q0 68 50 109t129 41t128.5 -41t49.5 -109q0 -69 -50 -109t-128 -40q-80 0 -129.5 40t-49.5 109zM-270 1669q0 -21 11 -34t32 -13t33 13t12 34t-12 34t-33 13t-32 -13t-11 -34z" />
    <glyph glyph-name="uni030B.case" 
d="M-356 1837h217l-135 -238h-138zM-80 1837h217l-176 -238h-137z" />
    <glyph glyph-name="uni030C.case" 
d="M-649 1784h182l57 -111h4l60 111h180l-160 -238h-161z" />
    <glyph glyph-name="uni0326.case" 
d="M-510 -197v148h227v-82q0 -120 -49.5 -168.5t-177.5 -56.5l-8 86q56 6 75 20t19 45z" />
    <glyph glyph-name="uni0327.case" 
d="M-305 47l123 -10l-15 -86q131 -28 131 -125q0 -67 -62 -115t-169 -57l-43 104q48 11 72 24t24 32t-21.5 31t-80.5 16z" />
    <glyph glyph-name="uni0328.case" 
d="M-213 20l92 -12q-50 -21 -77 -60t-27 -81q0 -60 59 -60q50 0 92 29l41 -127q-64 -55 -178 -55q-98 0 -146.5 40.5t-48.5 112.5q0 139 193 213z" />
    <glyph glyph-name="uni2010.case" horiz-adv-x="471" 
d="M45 633v215h381v-215h-381z" />
    <glyph glyph-name="uni2011.case" horiz-adv-x="471" 
d="M45 633v215h381v-215h-381z" />
    <glyph glyph-name="endash.case" horiz-adv-x="712" 
d="M43 649v185h627v-185h-627z" />
    <glyph glyph-name="emdash.case" horiz-adv-x="1024" 
d="M43 647v187h938v-187h-938z" />
    <glyph glyph-name="bullet.case" horiz-adv-x="475" 
d="M27 801q0 100 61 168.5t150 68.5t150 -68.5t61 -168.5t-61 -169t-150 -69t-150 69t-61 169z" />
    <glyph glyph-name="guilsinglleft.case" horiz-adv-x="475" 
d="M432 1098l-205 -357l205 -358h-190l-201 358l201 357h190z" />
    <glyph glyph-name="guilsinglright.case" horiz-adv-x="475" 
d="M41 383l207 358l-207 357h192l199 -357l-199 -358h-192z" />
    <glyph glyph-name="uni2E18.case" horiz-adv-x="935" 
d="M909 342q-40 -165 -156.5 -267t-287.5 -102q-203 0 -308.5 105.5t-105.5 267.5q0 152 85 279t245 219l10 194h174l13 -391v-459q96 46 137 203zM602 1485v-271h-246v271h246zM279 358q0 -151 110 -182v459q-110 -113 -110 -277z" />
    <glyph glyph-name="ampersand.ss01" horiz-adv-x="942" 
d="M106 1171q0 145 83.5 238.5t232.5 93.5q143 0 222 -73t79 -197q0 -65 -17.5 -124t-56 -117t-69 -95t-86.5 -98l174 -305q45 146 45 317h182q0 -297 -102 -514q74 -76 182 -94l-31 -221q-170 19 -274 131q-128 -131 -303 -131q-164 0 -253 95.5t-89 293.5q0 122 57 228
t156 218l-35 57q-97 159 -97 297zM264 387q0 -97 37 -145.5t102 -48.5q84 0 158 83l-211 353q-86 -121 -86 -242zM522 1202q0 105 -96 105q-107 0 -107 -138q0 -77 72 -190q65 70 98 122t33 101z" />
    <glyph glyph-name="ampersand.sc.ss01" horiz-adv-x="868" 
d="M96 938q0 112 78 192t217 80q127 0 196.5 -59.5t69.5 -159.5q0 -44 -13 -87t-31 -75t-50.5 -71.5t-56 -63t-64.5 -61.5l160 -234q41 115 41 254h176q0 -233 -94 -413q62 -54 154 -66l-25 -188q-142 9 -246 104q-115 -106 -274 -106q-147 0 -230.5 77t-83.5 240
q0 94 50 177.5t135 168.5l-4 6q-47 66 -76 142.5t-29 142.5zM240 313q0 -69 32.5 -106t89.5 -37q77 0 136 59l-187 267q-71 -91 -71 -183zM465 956q0 72 -76 72q-50 0 -71 -22t-21 -74q0 -85 47 -156q61 59 91 100t30 80z" />
    <glyph glyph-name="ampersand.ss02" horiz-adv-x="901" 
d="M588 969l207 43v-148h77v-202h-77v-445q0 -59 49 -59h30v-164h-112q-102 0 -162 100q-97 -114 -250 -114q-146 0 -231.5 103.5t-85.5 315.5q0 291 184 379q-133 94 -133 326q0 180 91.5 290.5t256.5 110.5q137 0 224.5 -83t119.5 -242l-188 -52q-23 94 -56 131t-90 37
q-127 0 -127 -211q0 -126 46 -173.5t133 -47.5h90zM422 195q87 0 147 84v383h-106q-98 0 -143.5 -56t-45.5 -188q0 -122 35.5 -172.5t112.5 -50.5z" />
    <glyph glyph-name="ampersand.sc.ss02" horiz-adv-x="772" 
d="M494 774l194 39v-111h64v-184h-64v-328q0 -47 37 -47h25v-147h-103q-88 0 -139 82q-82 -94 -217 -94q-120 0 -194 85t-74 253q0 227 151 301q-106 77 -106 256q0 146 81 237.5t224 91.5q239 0 299 -272l-174 -47q-18 72 -44.5 101.5t-70.5 29.5q-50 0 -74 -38t-24 -120
q0 -92 35 -126t104 -34h65zM360 180q70 0 117 62v276h-82q-77 0 -112 -39.5t-35 -136.5q0 -89 26.5 -125.5t85.5 -36.5z" />
    <glyph glyph-name="orn001" horiz-adv-x="1095" 
d="M971 1036v-594q0 -217 -111 -339.5t-313 -122.5t-312 122.5t-110 339.5v594q0 218 110 343.5t312 125.5t313 -125.5t111 -343.5zM248 758v-352q0 -163 77.5 -246.5t223.5 -83.5q144 0 222.5 84t78.5 246v352q0 163 -77.5 248.5t-221.5 85.5q-148 0 -225.5 -85t-77.5 -249
zM334 745q0 38 26 67.5t64 29.5q37 0 61.5 -29.5t24.5 -67.5q0 -41 -24.5 -69.5t-61.5 -28.5q-38 0 -64 28.5t-26 69.5zM592 745q0 38 25.5 67.5t62.5 29.5q38 0 63 -29.5t25 -67.5q0 -42 -25 -70t-63 -28t-63 28t-25 70zM498 416v221h106v-221h-106zM375 272v97h356v-97
h-356zM371 774q0 -12 7.5 -20.5t18.5 -8.5q12 0 20.5 8.5t8.5 20.5t-8.5 20.5t-20.5 8.5q-11 0 -18.5 -8.5t-7.5 -20.5zM629 774q0 -12 8 -20.5t20 -8.5q11 0 20 8.5t9 20.5t-9 20.5t-20 8.5q-12 0 -20 -8.5t-8 -20.5z" />
    </font>
</defs>
</svg>
