<?xml version="1.0" standalone="no"?>
<!DOCTYPE svg PUBLIC "-//W3C//DTD SVG 1.1//EN" "http://www.w3.org/Graphics/SVG/1.1/DTD/svg11.dtd" >
<svg xmlns="http://www.w3.org/2000/svg" xmlns:xlink="http://www.w3.org/1999/xlink" version="1.1">
<metadata>
Created by FontForge 20170731 at Tue Sep  1 20:27:48 2020
 By Aleksey,,,
2006 published by FontShop International GmbH
</metadata>
<defs>
<font id="GoodOT-CondNews" horiz-adv-x="2" >
  <font-face 
    font-family="GoodOT-CondNews"
    font-weight="450"
    font-stretch="condensed"
    units-per-em="2048"
    panose-1="2 11 6 6 2 1 1 2 1 2"
    ascent="1673"
    descent="-375"
    x-height="1034"
    cap-height="1485"
    bbox="-940 -412 2058 1849"
    underline-thickness="122"
    underline-position="-306"
    unicode-range="U+000D-FEFF"
  />
<missing-glyph horiz-adv-x="829" 
d="M438 524l11 142q190 125 190 305q0 97 -56 160t-171 63q-95 0 -160.5 -57.5t-91.5 -153.5l92 -27q45 136 154 136q116 0 116 -129q0 -158 -178 -252l6 -187h88zM330 410v-152h139v152h-139zM33 0v1485h733v-1485h-733z" />
    <glyph glyph-name="f_f" unicode="ff" horiz-adv-x="980" 
d="M954 1034v-116h-211v-918h-143v918h-317v-918h-144v918h-110v116h110v109q0 156 82.5 249.5t255.5 100.5l8 -113q-109 -6 -157.5 -67t-48.5 -174v-105h321v109q0 156 82.5 249.5t255.5 100.5l8 -113q-109 -6 -158 -67t-49 -174v-105h215z" />
    <glyph glyph-name="f_f_i" unicode="ffi" horiz-adv-x="1316" 
d="M934 1493l8 -113q-109 -6 -158 -67t-49 -174v-105h463v-1034h-145v918h-314v-918h-143v918h-313v-918h-144v918h-110v116h110v109q0 156 82.5 249.5t255.5 100.5l8 -113q-109 -6 -157.5 -67t-48.5 -174v-105h317v109q0 156 82.5 249.5t255.5 100.5zM1057 1485h135v-215
h-135v215z" />
    <glyph glyph-name="f_f_j" unicode="ffj" horiz-adv-x="1294" 
d="M934 1493l8 -113q-109 -6 -158 -67t-49 -174v-105h463v-993q0 -351 -299 -379l-14 121q87 14 127.5 74t40.5 184v877h-314v-918h-143v918h-313v-918h-144v918h-110v116h110v109q0 156 82.5 249.5t255.5 100.5l8 -113q-109 -6 -157.5 -67t-48.5 -174v-105h317v109
q0 156 82.5 249.5t255.5 100.5zM1057 1485h135v-215h-135v215z" />
    <glyph glyph-name="f_f_l" unicode="ffl" horiz-adv-x="1331" 
d="M594 1034v109q0 163 90 255.5t279 92.5h94v43h145v-1534h-145v1380h-90q-122 -1 -178 -60t-56 -181v-105h203v-116h-197v-918h-145v918h-311v-918h-144v918h-110v116h110v109q0 156 82.5 249.5t255.5 100.5l8 -113q-109 -6 -157.5 -67t-48.5 -174v-105h315z" />
    <glyph glyph-name="f_i" unicode="fi" horiz-adv-x="860" 
d="M477 1493l8 -113q-109 -6 -157.5 -67t-48.5 -174v-105h462v-1034h-145v918h-313v-918h-144v918h-110v116h110v109q0 156 82.5 249.5t255.5 100.5zM600 1485h135v-215h-135v215z" />
    <glyph glyph-name="f_j" unicode="fj" horiz-adv-x="837" 
d="M477 1493l8 -113q-109 -6 -157.5 -67t-48.5 -174v-105h462v-993q0 -351 -299 -379l-14 121q87 14 127.5 74t40.5 184v877h-313v-918h-144v918h-110v116h110v109q0 156 82.5 249.5t255.5 100.5zM600 1485h135v-215h-135v215z" />
    <glyph glyph-name="f_l" unicode="fl" horiz-adv-x="874" 
d="M479 1034v-119h-196v-915h-144v915h-110v119h110v109q0 163 89 255.5t278 92.5h96v43h146v-1534h-146v1380h-92q-122 -1 -176.5 -59.5t-54.5 -181.5v-105h200z" />
    <glyph glyph-name=".notdef" horiz-adv-x="829" 
d="M438 524l11 142q190 125 190 305q0 97 -56 160t-171 63q-95 0 -160.5 -57.5t-91.5 -153.5l92 -27q45 136 154 136q116 0 116 -129q0 -158 -178 -252l6 -187h88zM330 410v-152h139v152h-139zM33 0v1485h733v-1485h-733z" />
    <glyph glyph-name=".null" horiz-adv-x="0" 
 />
    <glyph glyph-name=".null" horiz-adv-x="0" 
 />
    <glyph glyph-name="nonmarkingreturn" horiz-adv-x="682" 
 />
    <glyph glyph-name="CR" unicode="&#xd;" horiz-adv-x="362" 
 />
    <glyph glyph-name="space" unicode=" " horiz-adv-x="362" 
 />
    <glyph glyph-name="exclam" unicode="!" horiz-adv-x="389" 
d="M117 1485h147v-649l-16 -418h-115l-16 413v654zM100 0v199h183v-199h-183z" />
    <glyph glyph-name="quotedbl" unicode="&#x22;" horiz-adv-x="514" 
d="M301 1257v228h131v-228l-35 -217h-65zM78 1257v228h131v-228l-35 -217h-65z" />
    <glyph glyph-name="numbersign" unicode="#" horiz-adv-x="876" 
d="M57 926v108h189l30 451h109l-31 -451h211l31 451h109l-31 -451h145v-108h-149l-25 -363h174v-108h-176l-33 -455h-108l33 455h-211l-33 -455h-109l33 455h-158v108h160l25 363h-185zM350 926l-24 -363h211l26 363h-213z" />
    <glyph glyph-name="dollar" unicode="$" horiz-adv-x="796" 
d="M381 1675h92l2 -178q97 -23 162 -99.5t92 -191.5l-108 -37q-40 164 -156 197l-23 -541q45 -32 71.5 -53.5t66 -56.5t63 -68.5t47 -77t34.5 -95.5t11 -112q0 -164 -81 -265t-218 -115l-20 -177h-92l-5 183q-105 20 -173.5 101.5t-94.5 221.5l115 41q39 -191 166 -227
l24 575l-61.5 45t-57 46t-56 53.5t-45 58.5t-38.5 70.5t-22.5 80t-9.5 95.5q0 152 78.5 247t215.5 107zM604 344q0 95 -43 163t-127 136l-2 -524q172 18 172 225zM199 1161q0 -86 42 -150t121 -128l3 489q-166 -20 -166 -211z" />
    <glyph glyph-name="percent" unicode="%" horiz-adv-x="1003" 
d="M481 1247v-139q0 -122 -52.5 -188t-152.5 -66q-103 0 -154.5 65.5t-51.5 188.5v139q0 125 51.5 191.5t154.5 66.5q100 0 152.5 -67t52.5 -191zM178 1249v-141q0 -82 22.5 -117t75.5 -35q50 0 73.5 35.5t23.5 116.5v141q0 79 -23.5 114.5t-73.5 35.5q-52 0 -75 -35
t-23 -115zM80 0l717 1485h118l-718 -1485h-117zM942 367v-140q0 -122 -53 -187t-154 -65q-102 0 -154.5 65t-52.5 187v140q0 124 52.5 191t154.5 67q101 0 154 -67t53 -191zM637 369v-142q0 -81 23 -116t75 -35q51 0 75 35.5t24 115.5v142q0 78 -24.5 113.5t-74.5 35.5
q-51 0 -74.5 -35t-23.5 -114z" />
    <glyph glyph-name="ampersand" unicode="&#x26;" horiz-adv-x="997" 
d="M741 1243l-104 -57q-34 100 -80 145t-106 45q-67 0 -102.5 -43.5t-35.5 -128.5q0 -46 14.5 -99t37.5 -93l307 -549q41 178 41 405v27h245v-121h-129q-9 -268 -75 -450q102 -160 245 -205l-26 -133q-77 15 -153 65t-134 123q-117 -192 -305 -192q-154 0 -244 103t-90 318
q0 150 59 279t164 217l-4 8q-94 144 -94 293q0 134 71 218.5t203 84.5q109 0 180 -62t115 -198zM397 111q133 0 217 182l-276 487q-66 -67 -102.5 -171.5t-36.5 -202.5q0 -295 198 -295z" />
    <glyph glyph-name="quotesingle" unicode="'" horiz-adv-x="286" 
d="M78 1257v228h131v-228l-35 -217h-65z" />
    <glyph glyph-name="parenleft" unicode="(" horiz-adv-x="442" 
d="M106 348v651q0 239 43 387t121 210.5t197 62.5h45v-109h-45q-54 0 -95 -27t-73 -88.5t-49 -171t-17 -264.5v-651q0 -154 17 -263.5t49 -171t73 -89t95 -27.5h45v-108h-45q-89 0 -154.5 35t-112.5 111.5t-70.5 204.5t-23.5 308z" />
    <glyph glyph-name="parenright" unicode=")" horiz-adv-x="442" 
d="M334 999v-651q0 -239 -42.5 -386.5t-120.5 -210t-198 -62.5h-43v110h43q54 0 95 27t73 88.5t49 170.5t17 263v651q0 155 -17 264t-49 170t-73 88t-95 27h-43v111h43q120 0 198 -62.5t120.5 -210.5t42.5 -387z" />
    <glyph glyph-name="asterisk" unicode="*" horiz-adv-x="577" 
d="M246 1430l-17 198h99l-15 -198l176 77l31 -102l-186 -45l125 -152l-80 -63l-100 172l-97 -170l-82 63l125 150l-186 45l31 100z" />
    <glyph glyph-name="plus" unicode="+" horiz-adv-x="782" 
d="M332 213v365h-244v120h244v365h112v-365h250v-120h-250v-365h-112z" />
    <glyph glyph-name="comma" unicode="," horiz-adv-x="364" 
d="M92 0v190h182v-145q0 -127 -40 -199.5t-134 -83.5l-10 78q49 12 66.5 46.5t17.5 113.5h-82z" />
    <glyph glyph-name="hyphen" unicode="-" horiz-adv-x="452" 
d="M41 535v135h371v-135h-371z" />
    <glyph glyph-name="period" unicode="." horiz-adv-x="362" 
d="M90 0v199h182v-199h-182z" />
    <glyph glyph-name="slash" unicode="/" horiz-adv-x="509" 
d="M-37 -174l432 1702h119l-432 -1702h-119z" />
    <glyph glyph-name="zero" unicode="0" horiz-adv-x="905" 
d="M809 1073v-665q0 -204 -91.5 -316t-264.5 -112t-265 112t-92 316v665q0 205 92 318.5t265 113.5t264.5 -113.5t91.5 -318.5zM246 1073v-665q0 -149 51 -219t156 -70q104 0 155 70t51 219v665q0 291 -206 291q-105 0 -156 -71t-51 -220z" />
    <glyph glyph-name="one" unicode="1" horiz-adv-x="612" 
d="M285 1491h116v-1491h-155v1128h-238v117h111q48 0 74.5 7.5t47.5 34t30 74.5t14 130z" />
    <glyph glyph-name="two" unicode="2" horiz-adv-x="856" 
d="M440 1505q164 0 247 -96t83 -260q0 -96 -26 -183t-69 -155t-94.5 -132t-105.5 -126t-100.5 -123.5t-80 -137t-42.5 -155.5h530v-137h-684l-4 86q2 96 32.5 187t77 164.5t102 143.5t110.5 136.5t100 132t73.5 142t28.5 153.5q0 221 -186 221q-84 0 -140.5 -63t-76.5 -185
l-121 35q28 159 116 255.5t230 96.5z" />
    <glyph glyph-name="three" unicode="3" horiz-adv-x="841" 
d="M301 707v129h78q103 0 156 62t53 208q0 142 -45.5 201t-136.5 59q-164 0 -216 -227l-118 35q32 156 122.5 243.5t221.5 87.5q163 0 244 -100.5t81 -282.5q0 -275 -172 -342v-4q97 -26 146 -107.5t49 -234.5q0 -236 -89.5 -345t-262.5 -109q-134 0 -224.5 73.5
t-124.5 222.5l115 39q28 -101 87.5 -150.5t140.5 -49.5q106 0 153 77.5t47 247.5q0 153 -55 210t-166 57h-84z" />
    <glyph glyph-name="four" unicode="4" horiz-adv-x="847" 
d="M692 0h-139v283h-533v104l523 1098h149v-1071h152l-13 -131h-139v-283zM178 414h375l8 854h-4z" />
    <glyph glyph-name="five" unicode="5" horiz-adv-x="851" 
d="M201 702l-101 48l50 735h593l-12 -144h-461l-32 -481h4q101 70 219 70q164 0 244.5 -109t80.5 -348q0 -493 -366 -493q-127 0 -215.5 75.5t-118.5 223.5l117 38q27 -103 83 -152.5t130 -49.5q114 0 165.5 84t51.5 274q0 177 -52 248.5t-169 71.5q-61 0 -120 -25.5
t-91 -65.5z" />
    <glyph glyph-name="six" unicode="6" horiz-adv-x="866" 
d="M455 1505q121 0 202 -76.5t113 -224.5l-113 -43q-26 109 -74 157t-122 48q-106 0 -160.5 -84t-54.5 -242v-209h4q39 45 99.5 69t129.5 24q165 0 241.5 -108t76.5 -331q0 -505 -353 -505q-165 0 -256.5 111t-91.5 327v610q0 219 95 348t264 129zM451 788q-83 0 -144 -42.5
t-61 -112.5v-227q0 -147 54.5 -217t145.5 -70q103 0 153 86t50 278q0 158 -47.5 231.5t-150.5 73.5z" />
    <glyph glyph-name="seven" unicode="7" horiz-adv-x="776" 
d="M328 0h-166l432 1343h-569v142h727v-121z" />
    <glyph glyph-name="eight" unicode="8" horiz-adv-x="880" 
d="M440 -20q-92 0 -157.5 22.5t-112.5 74.5t-69.5 139.5t-22.5 215.5q0 150 43 235.5t131 118.5v5q-152 70 -152 331q0 189 81 286t259 97t259 -97t81 -286q0 -262 -151 -331v-5q88 -33 131 -118.5t43 -235.5q0 -128 -22.5 -215.5t-70 -139.5t-113 -74.5t-157.5 -22.5z
M653 438q0 156 -54 217.5t-159 61.5t-159 -61.5t-54 -217.5q0 -126 24 -197.5t68.5 -98.5t120.5 -27q75 0 119.5 26.5t69 98t24.5 198.5zM440 1372q-105 0 -150.5 -57t-45.5 -205t46 -207t150 -59t150.5 59t46.5 207t-46 205t-151 57z" />
    <glyph glyph-name="nine" unicode="9" horiz-adv-x="868" 
d="M195 309q32 -102 83.5 -146t135.5 -44q99 0 153 65t54 193v330h-5q-81 -91 -221 -91q-323 0 -323 435q0 454 362 454q160 0 249 -107t89 -296v-719q0 -186 -96 -293.5t-256 -107.5q-267 0 -334 278zM420 748q76 0 138.5 43.5t62.5 111.5v205q0 126 -48.5 192t-142.5 66
q-105 0 -157 -74t-52 -237q0 -170 50 -238.5t149 -68.5z" />
    <glyph glyph-name="colon" unicode=":" horiz-adv-x="362" 
d="M90 793v198h182v-198h-182zM90 0v199h182v-199h-182z" />
    <glyph glyph-name="semicolon" unicode=";" horiz-adv-x="362" 
d="M90 793v198h182v-198h-182zM92 0v190h182v-145q0 -127 -40 -199.5t-134 -83.5l-10 78q49 12 66.5 46.5t17.5 113.5h-82z" />
    <glyph glyph-name="less" unicode="&#x3c;" horiz-adv-x="782" 
d="M651 922l-366 -279l368 -276v-166l-557 432v20l555 432v-163z" />
    <glyph glyph-name="equal" unicode="=" horiz-adv-x="782" 
d="M682 694h-582v121h582v-121zM682 430h-582v123h582v-123z" />
    <glyph glyph-name="greater" unicode="&#x3e;" horiz-adv-x="782" 
d="M129 367l367 276l-365 279v163l555 -432v-20l-557 -432v166z" />
    <glyph glyph-name="question" unicode="?" horiz-adv-x="796" 
d="M37 1180q35 148 128.5 236.5t233.5 88.5q164 0 244 -96t80 -248q0 -155 -75.5 -291t-207.5 -221l-14 -231h-109l-10 305q266 172 266 428q0 99 -42.5 159t-137.5 60q-178 0 -235 -225zM283 0v199h182v-199h-182z" />
    <glyph glyph-name="at" unicode="@" horiz-adv-x="1282" 
d="M934 926h-47l-41 -533q-2 -14 -2 -39q0 -61 22.5 -87.5t69.5 -26.5q46 0 75.5 24.5t47.5 93.5t18 187v352q0 237 -109 365.5t-315 128.5q-214 0 -333 -143.5t-119 -383.5v-518q0 -276 124 -416.5t343 -140.5q136 0 232 42.5t171 131.5l80 -61q-183 -224 -485 -224
q-276 0 -428 171t-152 495v522q0 137 37.5 253.5t108 202.5t178.5 134.5t243 48.5q257 0 397 -166.5t140 -441.5v-350q0 -215 -68 -319.5t-190 -104.5q-136 0 -176 106h-4q-77 -112 -213 -112q-97 0 -148 72t-51 212q0 295 113 463t315 168h168zM719 379l43 532h-23
q-125 0 -195.5 -130t-70.5 -375q0 -94 23.5 -131t70.5 -37q100 0 152 141z" />
    <glyph glyph-name="A" unicode="A" horiz-adv-x="972" 
d="M274 393l-88 -393h-161l368 1485h185l368 -1485h-164l-90 393h-418zM481 1321l-178 -799h361l-179 799h-4z" />
    <glyph glyph-name="B" unicode="B" horiz-adv-x="937" 
d="M811 1112q0 -141 -41.5 -219.5t-134.5 -110.5v-4q229 -54 229 -354q0 -220 -83 -322t-279 -102h-369v1485h328q177 0 263.5 -96t86.5 -277zM289 702v-559h209q110 0 158.5 62t48.5 227q0 147 -49.5 208.5t-155.5 61.5h-211zM289 1339v-503h178q106 0 149 63.5t43 198.5
q0 130 -45 185.5t-149 55.5h-176z" />
    <glyph glyph-name="C" unicode="C" horiz-adv-x="862" 
d="M463 1505q131 0 221 -84.5t117 -222.5l-123 -41q-45 205 -207 205q-213 0 -213 -301v-651q0 -134 54 -212.5t157 -78.5q91 0 139.5 49t71.5 172l123 -37q-29 -171 -113.5 -247t-230.5 -76q-168 0 -265.5 117.5t-97.5 310.5v653q0 208 97 326t270 118z" />
    <glyph glyph-name="D" unicode="D" horiz-adv-x="1003" 
d="M133 1485h377q190 0 293.5 -117t103.5 -328v-602q0 -207 -104 -322.5t-293 -115.5h-377v1485zM748 1034q0 156 -59.5 230.5t-178.5 74.5h-217v-1198h217q238 0 238 301v592z" />
    <glyph glyph-name="E" unicode="E" horiz-adv-x="849" 
d="M133 1485h635v-148h-475v-499h385v-133h-385v-558h504v-147h-664v1485z" />
    <glyph glyph-name="F" unicode="F" horiz-adv-x="829" 
d="M133 1485h639v-148h-479v-512h416v-141h-416v-684h-160v1485z" />
    <glyph glyph-name="G" unicode="G" horiz-adv-x="960" 
d="M489 1505q143 0 240.5 -82.5t128.5 -228.5l-123 -39q-32 107 -89 157t-144 50q-246 0 -246 -330v-606q0 -150 61 -225.5t179 -75.5q78 0 131.5 33.5t91.5 115.5v324h-166v119h309v-717h-133v123q-95 -141 -270 -141q-172 0 -267.5 114.5t-95.5 327.5v608q0 219 99.5 346
t293.5 127z" />
    <glyph glyph-name="H" unicode="H" horiz-adv-x="1013" 
d="M133 1485h160v-645h428v645h160v-1485h-160v692h-428v-692h-160v1485z" />
    <glyph glyph-name="I" unicode="I" horiz-adv-x="483" 
d="M162 1485h160v-1485h-160v1485z" />
    <glyph glyph-name="J" unicode="J" horiz-adv-x="458" 
d="M166 1485h162v-1272q0 -242 -108.5 -363t-315.5 -124l-13 135q141 0 208 83t67 265v1276z" />
    <glyph glyph-name="K" unicode="K" horiz-adv-x="950" 
d="M928 0h-183l-333 705l-121 -199v-506h-158v1485h158v-789l424 789h180l-377 -664z" />
    <glyph glyph-name="L" unicode="L" horiz-adv-x="786" 
d="M133 1485h156v-1335h459v-150h-615v1485z" />
    <glyph glyph-name="M" unicode="M" horiz-adv-x="1288" 
d="M1012 1485h143v-1485h-143v1090h-4l-328 -814h-74l-325 811h-5v-1087h-143v1485h143l365 -963h4z" />
    <glyph glyph-name="N" unicode="N" horiz-adv-x="1013" 
d="M133 1485h123l477 -1067h4v1067h144v-1485h-113l-489 1096h-5v-1096h-141v1485z" />
    <glyph glyph-name="O" unicode="O" horiz-adv-x="968" 
d="M483 1505q190 0 289.5 -114t99.5 -322v-653q0 -208 -99.5 -322t-289.5 -114q-189 0 -288 114t-99 322v653q0 208 99 322t288 114zM711 416v653q0 150 -56 221.5t-172 71.5q-115 0 -171 -71.5t-56 -221.5v-653q0 -152 55.5 -223.5t171.5 -71.5t172 71.5t56 223.5z" />
    <glyph glyph-name="P" unicode="P" horiz-adv-x="907" 
d="M506 1485q167 0 254.5 -113.5t87.5 -331.5q0 -212 -86.5 -327t-249.5 -115h-219v-598h-160v1485h373zM293 1341v-608h209q97 0 141.5 72.5t44.5 234.5q0 161 -44 231t-142 70h-209z" />
    <glyph glyph-name="Q" unicode="Q" horiz-adv-x="968" 
d="M483 1505q190 0 289.5 -114t99.5 -322v-653q0 -173 -69 -281.5t-203 -140.5l178 -252l-141 -53l-176 291q-178 7 -271.5 121t-93.5 315v653q0 208 99 322t288 114zM711 416v653q0 150 -56 221.5t-172 71.5q-115 0 -171 -71.5t-56 -221.5v-653q0 -152 55.5 -223.5
t171.5 -71.5t172 71.5t56 223.5z" />
    <glyph glyph-name="R" unicode="R" horiz-adv-x="927" 
d="M721 0l-266 657h-162v-657h-160v1485h354q338 0 338 -400q0 -338 -221 -395l291 -690h-174zM293 1341v-548h180q105 0 149 66.5t44 215.5q0 146 -43 206t-144 60h-186z" />
    <glyph glyph-name="S" unicode="S" horiz-adv-x="800" 
d="M395 1505q135 0 223 -78.5t125 -216.5l-118 -45q-23 98 -79.5 149.5t-139.5 51.5q-96 0 -142.5 -56t-46.5 -155q0 -69 29.5 -126t76.5 -99t104 -82t114.5 -84t104.5 -95t76.5 -126t29.5 -166q0 -190 -94 -293.5t-257 -103.5q-135 0 -231 85.5t-125 243.5l127 43
q25 -119 84.5 -176t144.5 -57q197 0 197 239q0 73 -29.5 132.5t-77.5 102.5t-105 83t-114.5 83.5t-105.5 94t-77.5 125t-29.5 166.5q0 160 89.5 260t246.5 100z" />
    <glyph glyph-name="T" unicode="T" horiz-adv-x="774" 
d="M23 1485h729v-150h-285v-1335h-160v1335h-284v150z" />
    <glyph glyph-name="U" unicode="U" horiz-adv-x="1009" 
d="M733 1485h160v-1084q0 -203 -100 -312t-287 -109q-188 0 -288.5 108t-100.5 309v1088h159v-1090q0 -266 230 -266q112 0 169.5 63.5t57.5 202.5v1090z" />
    <glyph glyph-name="V" unicode="V" horiz-adv-x="944" 
d="M924 1485l-369 -1485h-168l-367 1485h173l278 -1264h4l275 1264h174z" />
    <glyph glyph-name="W" unicode="W" horiz-adv-x="1466" 
d="M1413 1485l-278 -1485h-179l-221 1176h-4l-223 -1176h-178l-277 1485h160l211 -1258h4l231 1258h150l227 -1262h4l215 1262h158z" />
    <glyph glyph-name="X" unicode="X" horiz-adv-x="927" 
d="M39 0l323 752l-313 733h172l244 -633h4l240 633h172l-314 -740l322 -745h-172l-254 639h-4l-250 -639h-170z" />
    <glyph glyph-name="Y" unicode="Y" horiz-adv-x="899" 
d="M887 1485l-357 -983v-502h-161v508l-357 977h176l261 -811h4l260 811h174z" />
    <glyph glyph-name="Z" unicode="Z" horiz-adv-x="845" 
d="M776 147v-147h-719v102l541 1235h-508v148h686v-99l-538 -1239h538z" />
    <glyph glyph-name="bracketleft" unicode="[" horiz-adv-x="436" 
d="M123 -311v1970h416v-111h-281v-1749h281v-110h-416z" />
    <glyph glyph-name="backslash" unicode="\" horiz-adv-x="520" 
d="M82 1528l430 -1702h-119l-432 1702h121z" />
    <glyph glyph-name="bracketright" unicode="]" horiz-adv-x="440" 
d="M315 1659v-1970h-415v114h278v1741h-278v115h415z" />
    <glyph glyph-name="asciicircum" unicode="^" horiz-adv-x="763" 
d="M88 1073l248 465h98l242 -465h-121l-168 336h-4l-172 -336h-123z" />
    <glyph glyph-name="underscore" unicode="_" horiz-adv-x="653" 
d="M0 -109h653v-110h-653v110z" />
    <glyph glyph-name="grave" unicode="`" horiz-adv-x="438" 
d="M4 1485h166l119 -277h-111z" />
    <glyph glyph-name="a" unicode="a" horiz-adv-x="755" 
d="M190 774l-98 49q91 232 287 232q133 0 197.5 -85.5t64.5 -234.5v-561q0 -80 68 -80h24v-94q-40 -12 -74 -12q-103 0 -143 88q-83 -92 -213 -92q-109 0 -173 74t-64 202q0 155 88 243.5t280 88.5h62v143q0 197 -134 197q-112 0 -172 -158zM334 96q100 0 162 92v293h-62
q-124 0 -176.5 -53t-52.5 -158q0 -174 129 -174z" />
    <glyph glyph-name="b" unicode="b" horiz-adv-x="823" 
d="M475 -14q-147 0 -223 104h-4l-8 -90h-125v1534h145v-580h4q77 99 219 99q124 0 192 -89.5t68 -252.5v-385q0 -163 -69 -251.5t-199 -88.5zM260 827v-616q61 -100 176 -100q162 0 162 213v383q0 217 -160 217q-108 0 -178 -97z" />
    <glyph glyph-name="c" unicode="c" horiz-adv-x="700" 
d="M662 817l-107 -41q-42 152 -166 152q-164 0 -164 -213v-393q0 -107 42.5 -161.5t121.5 -54.5q64 0 104.5 37t63.5 121l109 -37q-30 -116 -102 -179.5t-183 -63.5q-145 0 -223 92.5t-78 238.5v404q0 148 78 241t221 93q105 0 178.5 -62.5t104.5 -173.5z" />
    <glyph glyph-name="d" unicode="d" horiz-adv-x="825" 
d="M348 1053q135 0 211 -92h4v573h146v-1534h-127l-7 88h-4q-79 -104 -229 -104q-126 0 -194 88.5t-68 251.5v387q0 164 69 253t199 89zM563 203v628q-68 93 -176 93q-162 0 -162 -215v-385q0 -105 40.5 -160t119.5 -55q110 0 178 94z" />
    <glyph glyph-name="e" unicode="e" horiz-adv-x="751" 
d="M684 514h-459v-192q0 -106 44.5 -161t129.5 -55q68 0 110 41t69 138l110 -37q-32 -135 -106.5 -199.5t-194.5 -64.5q-147 0 -227 91t-80 242v402q0 151 79.5 242.5t225.5 91.5q142 0 220.5 -94.5t78.5 -245.5v-199zM225 725v-109h328v111q0 100 -42.5 152.5t-121.5 52.5
q-164 0 -164 -207z" />
    <glyph glyph-name="f" unicode="f" horiz-adv-x="520" 
d="M494 1034v-116h-211v-918h-144v918h-110v116h110v109q0 156 82.5 249.5t255.5 100.5l8 -113q-109 -6 -157.5 -67t-48.5 -174v-105h215z" />
    <glyph glyph-name="g" unicode="g" horiz-adv-x="790" 
d="M397 360q-77 0 -133 21q-67 -36 -67 -90q0 -82 112 -82h164q148 0 213.5 -63.5t65.5 -188.5q0 -156 -94 -240t-261 -84q-152 0 -228.5 65t-76.5 185q0 136 86 213q-104 46 -104 164q0 51 28.5 95.5t83.5 74.5q-77 77 -77 275q0 185 68 266.5t218 81.5q110 0 174 -41
q38 24 68.5 60.5t44.5 70.5l76 -31q-10 -54 -40 -103.5t-71 -84.5q41 -84 41 -219q0 -183 -69.5 -264t-221.5 -81zM248 702q0 -136 31.5 -181.5t117.5 -45.5q88 0 120 45.5t32 181.5t-34 184t-118 48q-85 0 -117 -48t-32 -184zM463 76h-174q-70 -50 -70 -174
q0 -154 184 -154q119 0 167 48t48 141q0 78 -33 108.5t-122 30.5z" />
    <glyph glyph-name="h" unicode="h" horiz-adv-x="837" 
d="M260 827v-827h-145v1534h145v-582h4q75 101 217 101q127 0 194.5 -88.5t67.5 -253.5v-711h-145v709q0 215 -160 215q-57 0 -103.5 -28t-74.5 -69z" />
    <glyph glyph-name="i" unicode="i" horiz-adv-x="391" 
d="M123 1034h145v-1034h-145v1034zM125 1485h141v-215h-141v215z" />
    <glyph glyph-name="j" unicode="j" horiz-adv-x="366" 
d="M127 1485h141v-215h-141v215zM-29 -338l-12 121q85 14 125.5 74.5t40.5 183.5v993h145v-993q0 -351 -299 -379z" />
    <glyph glyph-name="k" unicode="k" horiz-adv-x="813" 
d="M115 1534h145v-1036l344 536h158l-291 -444l326 -590h-166l-256 485l-115 -149v-336h-145v1534z" />
    <glyph glyph-name="l" unicode="l" horiz-adv-x="401" 
d="M127 1534h145v-1534h-145v1534z" />
    <glyph glyph-name="m" unicode="m" horiz-adv-x="1224" 
d="M694 711v-711h-145v711q0 115 -36 163t-101 48q-54 0 -95.5 -35.5t-62.5 -95.5v-791h-145v1034h127v-106h4q73 125 209 125q149 0 202 -144h4q34 68 93.5 106t132.5 38q121 0 186.5 -84t65.5 -258v-711h-146v711q0 211 -141 211q-152 0 -152 -211z" />
    <glyph glyph-name="n" unicode="n" horiz-adv-x="829" 
d="M254 827v-827h-145v1034h127l4 -90h4q83 109 229 109q127 0 195.5 -89t68.5 -253v-711h-145v709q0 215 -160 215q-110 0 -178 -97z" />
    <glyph glyph-name="o" unicode="o" horiz-adv-x="790" 
d="M711 719v-406q0 -150 -83 -239.5t-235 -89.5q-151 0 -232 89t-81 240v406q0 151 81.5 242.5t231.5 91.5q153 0 235.5 -91t82.5 -243zM225 715v-398q0 -213 168 -213q172 0 172 213v398q0 215 -172 215q-168 0 -168 -215z" />
    <glyph glyph-name="p" unicode="p" horiz-adv-x="817" 
d="M469 -16q-137 0 -211 92h-4v-426h-145v1384h127l6 -88h4q80 107 229 107q127 0 194.5 -89.5t67.5 -252.5v-385q0 -163 -69.5 -252.5t-198.5 -89.5zM254 827v-626q67 -92 176 -92q162 0 162 215v383q0 217 -160 217q-111 0 -178 -97z" />
    <glyph glyph-name="q" unicode="q" horiz-adv-x="817" 
d="M358 1053q147 0 222 -117h4l6 98h119v-1384h-146v436h-4q-77 -106 -217 -106q-123 0 -192.5 88t-69.5 243v410q0 157 73.5 244.5t204.5 87.5zM563 246v569q-65 109 -172 109q-78 0 -122 -53.5t-44 -157.5v-396q0 -208 164 -208q62 0 106.5 37t67.5 100z" />
    <glyph glyph-name="r" unicode="r" horiz-adv-x="579" 
d="M555 1026l-18 -143q-34 22 -82 22q-86 0 -138.5 -74t-62.5 -213v-618h-145v1034h124l7 -170h4q66 187 213 187q56 0 98 -25z" />
    <glyph glyph-name="s" unicode="s" horiz-adv-x="677" 
d="M352 -16q-219 0 -286 231l112 45q25 -86 70 -125t100 -39q67 0 103 43t36 121q0 50 -23 89t-59.5 66t-80.5 51.5t-88.5 52t-81 61t-59.5 85t-23 117.5q0 118 72 194.5t202 76.5q101 0 170.5 -59.5t97.5 -168.5l-108 -39q-22 80 -61 115t-95 35q-69 0 -104 -38t-35 -105
q0 -46 23 -83t59.5 -62.5t80.5 -49.5t88 -52.5t80.5 -63.5t59.5 -89t23 -123q0 -127 -76.5 -206.5t-196.5 -79.5z" />
    <glyph glyph-name="t" unicode="t" horiz-adv-x="552" 
d="M500 1034v-121h-209v-673q0 -138 110 -138q38 0 82 21l19 -94q-65 -45 -150 -45q-209 0 -209 258v665l-112 25v100l119 8l36 287h105v-293h209z" />
    <glyph glyph-name="u" unicode="u" horiz-adv-x="829" 
d="M578 205v829h143v-1034h-127l-6 88h-4q-79 -104 -230 -104q-125 0 -193.5 89t-68.5 251v710h146v-710q0 -104 40.5 -158.5t118.5 -54.5q113 0 181 94z" />
    <glyph glyph-name="v" unicode="v" horiz-adv-x="800" 
d="M774 1034l-293 -1034h-166l-286 1034h159l209 -884h4l211 884h162z" />
    <glyph glyph-name="w" unicode="w" horiz-adv-x="1187" 
d="M764 0l-168 838h-4l-168 -838h-162l-227 1034h151l160 -866h4l176 866h138l176 -872h4l160 872h151l-231 -1034h-160z" />
    <glyph glyph-name="x" unicode="x" horiz-adv-x="794" 
d="M37 0l260 535l-248 499h164l186 -416h4l183 416h159l-247 -508l260 -526h-162l-201 442h-4l-192 -442h-162z" />
    <glyph glyph-name="y" unicode="y" horiz-adv-x="815" 
d="M782 1034l-311 -1089q-40 -141 -109.5 -207.5t-187.5 -73.5l-12 113q76 11 116.5 50.5t65.5 127.5l16 59l-327 1020h157l238 -833h4l201 833h149z" />
    <glyph glyph-name="z" unicode="z" horiz-adv-x="686" 
d="M621 127v-127h-562v94l398 813h-377v127h545v-90l-400 -817h396z" />
    <glyph glyph-name="braceleft" unicode="{" horiz-adv-x="450" 
d="M37 625v98q149 19 149 139q0 37 -32.5 186.5t-32.5 260.5q0 173 99 261.5t276 88.5h45v-100h-45q-115 0 -178.5 -68.5t-63.5 -198.5q0 -102 31.5 -246.5t31.5 -187.5q0 -143 -133 -182v-4q133 -39 133 -180q0 -45 -31.5 -186.5t-31.5 -242.5q0 -132 63 -203t179 -71h45
v-98h-45q-178 0 -276.5 90.5t-98.5 265.5q0 111 32.5 256.5t32.5 183.5q0 59 -39 94.5t-110 43.5z" />
    <glyph glyph-name="bar" unicode="|" horiz-adv-x="446" 
d="M156 -311v1970h137v-1970h-137z" />
    <glyph glyph-name="braceright" unicode="}" horiz-adv-x="450" 
d="M414 723v-98q-71 -8 -110.5 -43.5t-39.5 -94.5q0 -38 33 -183.5t33 -256.5q0 -175 -98.5 -265.5t-276.5 -90.5h-45v100h45q115 0 177.5 70.5t62.5 201.5q0 101 -31 242.5t-31 186.5q0 140 131 180v4q-70 21 -100.5 66.5t-30.5 115.5q0 43 31 187.5t31 246.5
q0 130 -63 197t-179 67h-43v103h45q176 0 275.5 -88.5t99.5 -261.5q0 -111 -33 -260.5t-33 -186.5q0 -120 150 -139z" />
    <glyph glyph-name="asciitilde" unicode="~" horiz-adv-x="839" 
d="M201 647h-113q20 277 201 277q44 0 79 -18t57 -44t41 -52t41 -44t46 -18q39 0 60 35t28 122h111q-10 -144 -59.5 -210t-139.5 -66q-44 0 -79 18t-57 44t-41.5 52t-41.5 44t-47 18q-39 0 -59.5 -35.5t-26.5 -122.5z" />
    <glyph glyph-name="uni00A0" unicode="&#xa0;" horiz-adv-x="362" 
 />
    <glyph glyph-name="exclamdown" unicode="&#xa1;" horiz-adv-x="389" 
d="M266 -193h-147v650l16 417h115l16 -413v-654zM283 1292v-198h-183v198h183z" />
    <glyph glyph-name="cent" unicode="&#xa2;" horiz-adv-x="700" 
d="M662 817l-107 -41q-42 148 -164 148q-166 0 -166 -219v-373q0 -228 164 -228q64 0 104.5 38t63.5 122l109 -37q-56 -208 -226 -237l-20 -185h-92l-6 183q-118 18 -180 110t-62 230v381q0 140 63.5 231.5t182.5 108.5l24 208h94l5 -213q78 -19 132.5 -77.5t80.5 -149.5z
" />
    <glyph glyph-name="sterling" unicode="&#xa3;" horiz-adv-x="925" 
d="M84 678l-16 115h116q-24 190 -24 278q0 208 86 322t248 114q128 0 212.5 -77.5t110.5 -215.5l-117 -38q-44 190 -200 190q-193 0 -193 -307q0 -65 19 -266h385l-15 -115h-358q22 -252 24 -277q40 -16 76.5 -50.5t63 -71.5t52 -72.5t54.5 -58.5t60 -23q51 0 80.5 55
t44.5 191l116 -27q-21 -194 -79 -279t-154 -85q-49 0 -90 21.5t-72 57.5t-55 72.5t-50.5 78.5t-46.5 64h-4q-8 -159 -58.5 -226.5t-133.5 -67.5q-68 0 -108 46t-40 130q0 104 59.5 173t160.5 81q-32 214 -39 268h-115zM176 94q34 0 51.5 48t18.5 171q-60 -8 -86.5 -49.5
t-26.5 -99.5q0 -70 43 -70z" />
    <glyph glyph-name="currency" unicode="&#xa4;" horiz-adv-x="659" 
d="M123 778q0 61 33 119l-78 84l61 66l78 -82q49 34 113 34q60 0 112 -36l82 90l62 -68l-82 -90q33 -54 33 -117t-33 -121l80 -84l-62 -67l-82 86q-47 -35 -110 -35q-59 0 -113 33l-80 -88l-61 65l80 88q-33 58 -33 123zM217 778q0 -53 33.5 -89t81.5 -36t81 36t33 89
t-33 88t-81 35t-81.5 -35t-33.5 -88z" />
    <glyph glyph-name="yen" unicode="&#xa5;" horiz-adv-x="942" 
d="M774 342h-217v-342h-160v342h-229v117h229v96h-229v115h199l-318 815h176l252 -742h4l250 742h176l-321 -815h188v-115h-217v-96h217v-117z" />
    <glyph glyph-name="brokenbar" unicode="&#xa6;" horiz-adv-x="446" 
d="M156 813v846h137v-846h-137zM156 -311v846h137v-846h-137z" />
    <glyph glyph-name="section" unicode="&#xa7;" horiz-adv-x="724" 
d="M98 -84l115 29q36 -148 158 -148q71 0 103 44t32 114q0 49 -24.5 96t-63 87.5t-85.5 82t-94 87.5t-85.5 96t-63 115t-24.5 136q0 97 43 169t116 110q-127 141 -127 278q0 127 68.5 210t202.5 83q109 0 181 -66t97 -186l-115 -28q-38 147 -157 147q-72 0 -104.5 -44
t-32.5 -114q0 -49 24.5 -96t63.5 -87.5t86 -82t94 -87.5t86 -95.5t63.5 -114.5t24.5 -137q0 -97 -43.5 -168.5t-118.5 -109.5q129 -143 129 -279q0 -127 -68 -210t-202 -83q-111 0 -183.5 66t-95.5 186zM551 502q0 65 -53.5 144t-184.5 202q-118 -50 -118 -178
q0 -81 46.5 -147t188.5 -199q121 49 121 178z" />
    <glyph glyph-name="dieresis" unicode="&#xa8;" horiz-adv-x="438" 
d="M45 1485h115v-215h-115v215zM281 1485h112v-215h-112v215z" />
    <glyph glyph-name="copyright" unicode="&#xa9;" horiz-adv-x="1206" 
d="M606 1276q116 0 190 -70.5t95 -193.5l-105 -31q-17 92 -58.5 136t-111.5 44q-87 0 -131.5 -62t-44.5 -179v-363q0 -109 44.5 -173.5t129.5 -64.5q75 0 114.5 42.5t59.5 152.5l107 -27q-23 -150 -94 -216t-197 -66q-142 0 -222.5 96.5t-80.5 253.5v365q0 166 80 261
t225 95zM1116 907v-336q0 -172 -58 -305.5t-175 -212t-279 -78.5q-163 0 -280 78.5t-174.5 212t-57.5 305.5v336q0 173 57.5 306.5t174.5 212.5t280 79q162 0 279 -78.5t175 -212.5t58 -307zM1016 573v332q0 228 -109 364t-305 136q-195 0 -302 -135.5t-107 -364.5v-332
q0 -227 107.5 -362t303.5 -135q195 0 303.5 135t108.5 362z" />
    <glyph glyph-name="ordfeminine" unicode="&#xaa;" horiz-adv-x="532" 
d="M137 1352l-78 34q24 68 76.5 109t122.5 41q91 0 135.5 -53t44.5 -142v-325q0 -43 37 -43h21v-76h-56q-64 0 -92 49q-61 -55 -147 -55q-76 0 -120 45.5t-44 122.5q0 201 250 201h45v83q0 51 -19.5 77t-66.5 26q-37 0 -67 -25t-42 -69zM225 973q65 0 107 53v152h-45
q-148 0 -148 -113q0 -92 86 -92z" />
    <glyph glyph-name="guillemotleft" unicode="&#xab;" horiz-adv-x="690" 
d="M653 895l-215 -363l215 -364h-131l-211 364l211 363h131zM379 895l-215 -363l215 -364h-131l-211 364l211 363h131z" />
    <glyph glyph-name="logicalnot" unicode="&#xac;" horiz-adv-x="782" 
d="M580 305v273h-492v120h604v-393h-112z" />
    <glyph glyph-name="uni00AD" unicode="&#xad;" horiz-adv-x="452" 
d="M41 535v135h371v-135h-371z" />
    <glyph glyph-name="registered" unicode="&#xae;" horiz-adv-x="483" 
d="M453 1376v-123q0 -95 -55 -156t-156 -61q-102 0 -156.5 61t-54.5 156v123q0 95 54.5 155t156.5 60q101 0 156 -60t55 -155zM80 1376v-123q0 -168 160 -168q166 0 166 168v123q0 170 -166 170q-160 0 -160 -170zM303 1157l-63 133h-37v-133h-64v328h111q108 0 108 -96
q0 -74 -59 -89l72 -143h-68zM203 1434v-99h45q25 0 35 12.5t10 38.5t-10 37t-35 11h-45z" />
    <glyph glyph-name="macron" unicode="&#xaf;" horiz-adv-x="438" 
d="M420 1395v-109h-402v109h402z" />
    <glyph glyph-name="degree" unicode="&#xb0;" horiz-adv-x="462" 
d="M35 1393q0 85 57 144.5t139 59.5t139.5 -59.5t57.5 -144.5t-57.5 -144t-139.5 -59t-139 59t-57 144zM125 1393q0 -51 30.5 -84t75.5 -33t77 33.5t32 83.5t-32 83t-77 33t-75.5 -33t-30.5 -83z" />
    <glyph glyph-name="plusminus" unicode="&#xb1;" horiz-adv-x="782" 
d="M332 289v321h-244v123h244v330h112v-330h250v-123h-250v-321h-112zM694 94h-606v121h606v-121z" />
    <glyph glyph-name="twosuperior" unicode="&#xb2;" horiz-adv-x="464" 
d="M238 1636q85 0 127.5 -46t42.5 -120q0 -56 -23 -105t-57.5 -85t-69.5 -69t-63 -72t-35 -80h252v-84h-355l-2 47q1 49 20.5 95t48 79t61 68.5t60 64.5t46 65t18.5 72q0 86 -80 86q-37 0 -62.5 -26.5t-35.5 -77.5l-78 22q16 75 63 120.5t122 45.5z" />
    <glyph glyph-name="threesuperior" unicode="&#xb3;" horiz-adv-x="464" 
d="M168 1272v78h43q44 0 66 24.5t22 79.5q0 52 -19 75t-57 23q-75 0 -98 -92l-76 25q18 70 65.5 110.5t116.5 40.5q86 0 128 -46.5t42 -125.5q0 -117 -79 -147v-4q90 -21 90 -148q0 -198 -185 -198q-143 0 -182 139l74 27q27 -84 104 -84q44 0 65 29.5t21 92.5
q0 58 -23.5 79.5t-72.5 21.5h-45z" />
    <glyph glyph-name="acute" unicode="&#xb4;" horiz-adv-x="438" 
d="M199 1485h168l-154 -277h-107z" />
    <glyph glyph-name="mu" unicode="&#xb5;" horiz-adv-x="845" 
d="M109 336v698h145v-696q0 -213 164 -213q109 0 174 94v815h145v-1034h-127l-8 92h-4q-68 -90 -178 -90q-121 0 -174 100h-4q11 -271 30 -421l-147 -13q-16 348 -16 668z" />
    <glyph glyph-name="paragraph" unicode="&#xb6;" horiz-adv-x="1005" 
d="M299 1532h715v-137h-187v-1727h-143v1727h-246v-1727h-139v1348q-131 0 -199.5 68.5t-68.5 189.5q0 113 70 185.5t198 72.5z" />
    <glyph glyph-name="periodcentered" unicode="&#xb7;" horiz-adv-x="395" 
d="M92 657q0 47 31 82t74 35t74.5 -35t31.5 -82t-31.5 -80.5t-74.5 -33.5t-74 33.5t-31 80.5z" />
    <glyph glyph-name="cedilla" unicode="&#xb8;" horiz-adv-x="438" 
d="M160 33l86 -4l-17 -97q136 -22 136 -118q0 -64 -54 -106.5t-149 -51.5l-25 78q59 12 84 28t25 43q0 53 -121 60z" />
    <glyph glyph-name="onesuperior" unicode="&#xb9;" horiz-adv-x="464" 
d="M236 1630h81v-655h-104v473h-111v70h45q48 0 65.5 21t23.5 91z" />
    <glyph glyph-name="ordmasculine" unicode="&#xba;" horiz-adv-x="503" 
d="M467 1321v-217q0 -93 -57 -154t-160 -61q-102 0 -157.5 60.5t-55.5 154.5v217q0 92 56 153.5t157 61.5q104 0 160.5 -60.5t56.5 -154.5zM143 1313v-203q0 -68 28.5 -103.5t78.5 -35.5q110 0 110 139v203q0 135 -110 135q-51 0 -79 -34t-28 -101z" />
    <glyph glyph-name="guillemotright" unicode="&#xbb;" horiz-adv-x="690" 
d="M311 168l213 364l-213 363h131l209 -363l-209 -364h-131zM37 168l213 364l-213 363h131l209 -363l-209 -364h-131z" />
    <glyph glyph-name="onequarter" unicode="&#xbc;" horiz-adv-x="972" 
d="M236 1487h81v-656h-104v474h-111v69h45q48 0 65.5 21t23.5 92zM215 0h-104l645 1485h104zM887 0h-90v121h-260v67l251 465h99v-452h67l-6 -80h-61v-121zM637 201h160l8 334h-4z" />
    <glyph glyph-name="onehalf" unicode="&#xbd;" horiz-adv-x="972" 
d="M236 1487h81v-656h-104v474h-111v69h45q48 0 65.5 21t23.5 92zM215 0h-104l645 1485h104zM745 662q85 0 127.5 -46t42.5 -120q0 -56 -23 -105t-57 -85.5t-69 -69.5t-63 -72t-35 -80h252v-84h-355l-2 47q2 58 28.5 111t63.5 92.5t74 77t62.5 80t25.5 84.5q0 86 -80 86
q-76 0 -98 -105l-78 23q16 75 62.5 120.5t121.5 45.5z" />
    <glyph glyph-name="threequarters" unicode="&#xbe;" horiz-adv-x="972" 
d="M168 1128v78h43q44 0 66 24.5t22 80.5q0 52 -19 75t-57 23q-75 0 -98 -92l-76 24q18 70 65.5 111t116.5 41q86 0 128 -46.5t42 -125.5q0 -117 -79 -147v-5q90 -21 90 -147q0 -199 -185 -199q-143 0 -182 140l74 26q27 -84 104 -84q86 0 86 123q0 58 -23 79t-73 21h-45z
M215 0h-104l645 1485h104zM887 0h-90v121h-260v67l251 465h99v-452h67l-6 -80h-61v-121zM637 201h160l8 334h-4z" />
    <glyph glyph-name="questiondown" unicode="&#xbf;" horiz-adv-x="796" 
d="M760 113q-35 -148 -130 -237t-233 -89q-84 0 -147.5 27.5t-101 75.5t-56 109t-18.5 134q0 153 75 288t205 220l17 236h108l10 -308q-266 -169 -266 -428q0 -99 42.5 -159t137.5 -60q179 0 236 225zM514 1292v-198h-182v198h182z" />
    <glyph glyph-name="Agrave" unicode="&#xc0;" horiz-adv-x="972" 
d="M274 393l-88 -393h-161l368 1485h185l368 -1485h-164l-90 393h-418zM481 1321l-178 -799h361l-179 799h-4zM242 1782h184l121 -223h-125z" />
    <glyph glyph-name="Aacute" unicode="&#xc1;" horiz-adv-x="972" 
d="M274 393l-88 -393h-161l368 1485h185l368 -1485h-164l-90 393h-418zM481 1321l-178 -799h361l-179 799h-4zM526 1782h185l-164 -223h-125z" />
    <glyph glyph-name="Acircumflex" unicode="&#xc2;" horiz-adv-x="972" 
d="M274 393l-88 -393h-161l368 1485h185l368 -1485h-164l-90 393h-418zM481 1321l-178 -799h361l-179 799h-4zM403 1559h-129l148 223h121l147 -223h-127l-80 131z" />
    <glyph glyph-name="Atilde" unicode="&#xc3;" horiz-adv-x="972" 
d="M274 393l-88 -393h-161l368 1485h185l368 -1485h-164l-90 393h-418zM481 1321l-178 -799h361l-179 799h-4zM641 1784l80 -12q-14 -118 -45.5 -173t-95.5 -55q-31 0 -60.5 22t-48 49t-39 49t-35.5 22q-24 0 -37 -29t-24 -103l-78 13q12 119 43.5 173t95.5 54q32 0 62 -22
t48.5 -48.5t39 -48.5t35.5 -22q24 0 37 29.5t22 101.5z" />
    <glyph glyph-name="Adieresis" unicode="&#xc4;" horiz-adv-x="972" 
d="M274 393l-88 -393h-161l368 1485h185l368 -1485h-164l-90 393h-418zM481 1321l-178 -799h361l-179 799h-4zM291 1782h119v-199h-119v199zM563 1782h117v-199h-117v199z" />
    <glyph glyph-name="Aring" unicode="&#xc5;" horiz-adv-x="972" 
d="M274 393l-88 -393h-161l368 1485h185l368 -1485h-164l-90 393h-418zM481 1321l-178 -799h361l-179 799h-4zM332 1677q0 63 43 103.5t110 40.5t110.5 -40.5t43.5 -103.5t-43 -102t-111 -39t-110.5 39t-42.5 102zM422 1677q0 -30 16.5 -49.5t46.5 -19.5t48 19.5t18 49.5
q0 31 -18 51.5t-48 20.5t-46.5 -20t-16.5 -52z" />
    <glyph glyph-name="AE" unicode="&#xc6;" horiz-adv-x="1370" 
d="M334 397l-141 -397h-162l542 1485h725v-148h-485l39 -499h389v-133h-379l43 -558h412v-147h-563l-29 397h-391zM657 1315l-278 -789h336l-53 789h-5z" />
    <glyph glyph-name="Ccedilla" unicode="&#xc7;" horiz-adv-x="862" 
d="M463 1505q131 0 221 -84.5t117 -222.5l-123 -41q-45 205 -207 205q-213 0 -213 -301v-651q0 -134 54 -212.5t157 -78.5q91 0 139.5 49t71.5 172l123 -37q-27 -161 -103 -237t-206 -84l-9 -50q136 -22 136 -118q0 -64 -54 -106.5t-149 -51.5l-25 78q59 12 84 28t25 43
q0 53 -121 60l25 119q-146 19 -228 133t-82 291v653q0 208 97 326t270 118z" />
    <glyph glyph-name="Egrave" unicode="&#xc8;" horiz-adv-x="849" 
d="M133 1485h635v-148h-475v-499h385v-133h-385v-558h504v-147h-664v1485zM236 1782h184l121 -223h-125z" />
    <glyph glyph-name="Eacute" unicode="&#xc9;" horiz-adv-x="849" 
d="M133 1485h635v-148h-475v-499h385v-133h-385v-558h504v-147h-664v1485zM469 1782h184l-164 -223h-124z" />
    <glyph glyph-name="Ecircumflex" unicode="&#xca;" horiz-adv-x="849" 
d="M133 1485h635v-148h-475v-499h385v-133h-385v-558h504v-147h-664v1485zM381 1559h-129l147 223h121l148 -223h-127l-80 131z" />
    <glyph glyph-name="Edieresis" unicode="&#xcb;" horiz-adv-x="849" 
d="M133 1485h635v-148h-475v-499h385v-133h-385v-558h504v-147h-664v1485zM262 1782h119v-199h-119v199zM535 1782h116v-199h-116v199z" />
    <glyph glyph-name="Igrave" unicode="&#xcc;" horiz-adv-x="483" 
d="M162 1485h160v-1485h-160v1485zM12 1782h185l120 -223h-124z" />
    <glyph glyph-name="Iacute" unicode="&#xcd;" horiz-adv-x="483" 
d="M162 1485h160v-1485h-160v1485zM270 1782h185l-164 -223h-125z" />
    <glyph glyph-name="Icircumflex" unicode="&#xce;" horiz-adv-x="483" 
d="M162 1485h160v-1485h-160v1485zM164 1559h-129l147 223h121l148 -223h-127l-80 131z" />
    <glyph glyph-name="Idieresis" unicode="&#xcf;" horiz-adv-x="483" 
d="M162 1485h160v-1485h-160v1485zM49 1782h119v-199h-119v199zM322 1782h116v-199h-116v199z" />
    <glyph glyph-name="Eth" unicode="&#xd0;" horiz-adv-x="1019" 
d="M150 1485h376q190 0 294 -117t104 -328v-602q0 -207 -104 -322.5t-294 -115.5h-376v713h-119v102h119v670zM764 1034q0 156 -59.5 230.5t-178.5 74.5h-217v-524h127v-102h-127v-572h217q238 0 238 301v592z" />
    <glyph glyph-name="Ntilde" unicode="&#xd1;" horiz-adv-x="1013" 
d="M133 1485h123l477 -1067h4v1067h144v-1485h-113l-489 1096h-5v-1096h-141v1485zM666 1784l79 -12q-14 -118 -45.5 -173t-95.5 -55q-31 0 -60.5 22t-47.5 49t-38.5 49t-35.5 22q-24 0 -37.5 -29.5t-24.5 -102.5l-77 13q12 119 43.5 173t95.5 54q32 0 61.5 -22t48 -48.5
t39 -48.5t35.5 -22q24 0 37.5 29.5t22.5 101.5z" />
    <glyph glyph-name="Ograve" unicode="&#xd2;" horiz-adv-x="968" 
d="M483 1505q190 0 289.5 -114t99.5 -322v-653q0 -208 -99.5 -322t-289.5 -114q-189 0 -288 114t-99 322v653q0 208 99 322t288 114zM711 416v653q0 150 -56 221.5t-172 71.5q-115 0 -171 -71.5t-56 -221.5v-653q0 -152 55.5 -223.5t171.5 -71.5t172 71.5t56 223.5z
M264 1782h185l120 -223h-125z" />
    <glyph glyph-name="Oacute" unicode="&#xd3;" horiz-adv-x="968" 
d="M483 1505q190 0 289.5 -114t99.5 -322v-653q0 -208 -99.5 -322t-289.5 -114q-189 0 -288 114t-99 322v653q0 208 99 322t288 114zM711 416v653q0 150 -56 221.5t-172 71.5q-115 0 -171 -71.5t-56 -221.5v-653q0 -152 55.5 -223.5t171.5 -71.5t172 71.5t56 223.5z
M504 1782h184l-164 -223h-125z" />
    <glyph glyph-name="Ocircumflex" unicode="&#xd4;" horiz-adv-x="968" 
d="M483 1505q190 0 289.5 -114t99.5 -322v-653q0 -208 -99.5 -322t-289.5 -114q-189 0 -288 114t-99 322v653q0 208 99 322t288 114zM711 416v653q0 150 -56 221.5t-172 71.5q-115 0 -171 -71.5t-56 -221.5v-653q0 -152 55.5 -223.5t171.5 -71.5t172 71.5t56 223.5z
M403 1559h-129l148 223h121l147 -223h-127l-80 131z" />
    <glyph glyph-name="Otilde" unicode="&#xd5;" horiz-adv-x="968" 
d="M483 1505q190 0 289.5 -114t99.5 -322v-653q0 -208 -99.5 -322t-289.5 -114q-189 0 -288 114t-99 322v653q0 208 99 322t288 114zM711 416v653q0 150 -56 221.5t-172 71.5q-115 0 -171 -71.5t-56 -221.5v-653q0 -152 55.5 -223.5t171.5 -71.5t172 71.5t56 223.5z
M635 1784l80 -12q-14 -118 -46 -173t-96 -55q-31 0 -60.5 22t-47.5 49t-38.5 49t-35.5 22q-24 0 -37 -29t-24 -103l-78 13q12 119 43.5 173t95.5 54q32 0 61.5 -22t48 -48.5t39 -48.5t35.5 -22q24 0 37.5 29.5t22.5 101.5z" />
    <glyph glyph-name="Odieresis" unicode="&#xd6;" horiz-adv-x="968" 
d="M483 1505q190 0 289.5 -114t99.5 -322v-653q0 -208 -99.5 -322t-289.5 -114q-189 0 -288 114t-99 322v653q0 208 99 322t288 114zM711 416v653q0 150 -56 221.5t-172 71.5q-115 0 -171 -71.5t-56 -221.5v-653q0 -152 55.5 -223.5t171.5 -71.5t172 71.5t56 223.5z
M289 1782h119v-199h-119v199zM561 1782h117v-199h-117v199z" />
    <glyph glyph-name="multiply" unicode="&#xd7;" horiz-adv-x="782" 
d="M596 330l-207 223l-205 -223l-80 86l205 223l-205 223l80 86l205 -223l207 223l80 -86l-207 -223l207 -223z" />
    <glyph glyph-name="Oslash" unicode="&#xd8;" horiz-adv-x="968" 
d="M483 1505q200 0 303 -131l60 107l63 -45l-78 -140q41 -96 41 -227v-653q0 -208 -99.5 -322t-289.5 -114q-208 0 -305 135l-55 -99l-62 45l74 134q-39 88 -39 221v653q0 208 99 322t288 114zM711 416v667l-441 -800q42 -162 213 -162q116 0 172 71.5t56 223.5zM256 1069
v-663l438 800q-43 156 -211 156q-115 0 -171 -71.5t-56 -221.5z" />
    <glyph glyph-name="Ugrave" unicode="&#xd9;" horiz-adv-x="1009" 
d="M733 1485h160v-1084q0 -203 -100 -312t-287 -109q-188 0 -288.5 108t-100.5 309v1088h159v-1090q0 -266 230 -266q112 0 169.5 63.5t57.5 202.5v1090zM301 1782h184l121 -223h-125z" />
    <glyph glyph-name="Uacute" unicode="&#xda;" horiz-adv-x="1009" 
d="M733 1485h160v-1084q0 -203 -100 -312t-287 -109q-188 0 -288.5 108t-100.5 309v1088h159v-1090q0 -266 230 -266q112 0 169.5 63.5t57.5 202.5v1090zM520 1782h185l-164 -223h-125z" />
    <glyph glyph-name="Ucircumflex" unicode="&#xdb;" horiz-adv-x="1009" 
d="M733 1485h160v-1084q0 -203 -100 -312t-287 -109q-188 0 -288.5 108t-100.5 309v1088h159v-1090q0 -266 230 -266q112 0 169.5 63.5t57.5 202.5v1090zM426 1559h-129l147 223h121l148 -223h-127l-80 131z" />
    <glyph glyph-name="Udieresis" unicode="&#xdc;" horiz-adv-x="1009" 
d="M733 1485h160v-1084q0 -203 -100 -312t-287 -109q-188 0 -288.5 108t-100.5 309v1088h159v-1090q0 -266 230 -266q112 0 169.5 63.5t57.5 202.5v1090zM311 1782h119v-199h-119v199zM584 1782h116v-199h-116v199z" />
    <glyph glyph-name="Yacute" unicode="&#xdd;" horiz-adv-x="899" 
d="M887 1485l-357 -983v-502h-161v508l-357 977h176l261 -811h4l260 811h174zM473 1782h184l-163 -223h-125z" />
    <glyph glyph-name="Thorn" unicode="&#xde;" horiz-adv-x="907" 
d="M506 1210q167 0 254.5 -113t87.5 -331q0 -213 -86 -327.5t-250 -114.5h-219v-324h-160v1485h160v-275h213zM293 1067v-608h209q97 0 141.5 72t44.5 233q0 163 -44 233t-142 70h-209z" />
    <glyph glyph-name="germandbls" unicode="&#xdf;" horiz-adv-x="833" 
d="M395 823q0 169 142 246q6 43 6 88q0 77 -28.5 120.5t-84.5 43.5q-168 0 -168 -326v-995h-147v997q0 218 79.5 332.5t229.5 114.5q118 0 183 -85.5t65 -217.5q0 -86 -23 -156q-62 -22 -86 -60t-24 -94q0 -48 26.5 -93t64.5 -84.5t76 -84.5t64.5 -112.5t26.5 -149.5
q0 -158 -75.5 -242.5t-209.5 -84.5q-131 0 -211 77l35 111q62 -62 156 -62q79 0 119 53t40 152q0 61 -26.5 114t-64 94t-75 82.5t-64 98.5t-26.5 123z" />
    <glyph glyph-name="agrave" unicode="&#xe0;" horiz-adv-x="755" 
d="M190 774l-98 49q91 232 287 232q133 0 197.5 -85.5t64.5 -234.5v-561q0 -80 68 -80h24v-94q-40 -12 -74 -12q-103 0 -143 88q-83 -92 -213 -92q-109 0 -173 74t-64 202q0 155 88 243.5t280 88.5h62v143q0 197 -134 197q-112 0 -172 -158zM334 96q100 0 162 92v293h-62
q-124 0 -176.5 -53t-52.5 -158q0 -174 129 -174zM193 1485h165l119 -277h-110z" />
    <glyph glyph-name="aacute" unicode="&#xe1;" horiz-adv-x="755" 
d="M190 774l-98 49q91 232 287 232q133 0 197.5 -85.5t64.5 -234.5v-561q0 -80 68 -80h24v-94q-40 -12 -74 -12q-103 0 -143 88q-83 -92 -213 -92q-109 0 -173 74t-64 202q0 155 88 243.5t280 88.5h62v143q0 197 -134 197q-112 0 -172 -158zM334 96q100 0 162 92v293h-62
q-124 0 -176.5 -53t-52.5 -158q0 -174 129 -174zM391 1485h168l-153 -277h-107z" />
    <glyph glyph-name="acircumflex" unicode="&#xe2;" horiz-adv-x="755" 
d="M190 774l-98 49q91 232 287 232q133 0 197.5 -85.5t64.5 -234.5v-561q0 -80 68 -80h24v-94q-40 -12 -74 -12q-103 0 -143 88q-83 -92 -213 -92q-109 0 -173 74t-64 202q0 155 88 243.5t280 88.5h62v143q0 197 -134 197q-112 0 -172 -158zM334 96q100 0 162 92v293h-62
q-124 0 -176.5 -53t-52.5 -158q0 -174 129 -174zM303 1208h-123l152 277h102l152 -277h-123l-78 170h-4z" />
    <glyph glyph-name="atilde" unicode="&#xe3;" horiz-adv-x="755" 
d="M190 774l-98 49q91 232 287 232q133 0 197.5 -85.5t64.5 -234.5v-561q0 -80 68 -80h24v-94q-40 -12 -74 -12q-103 0 -143 88q-83 -92 -213 -92q-109 0 -173 74t-64 202q0 155 88 243.5t280 88.5h62v143q0 197 -134 197q-112 0 -172 -158zM334 96q100 0 162 92v293h-62
q-124 0 -176.5 -53t-52.5 -158q0 -174 129 -174zM537 1487l77 -17q-13 -140 -44.5 -205t-96.5 -65q-34 0 -64 29t-47.5 63t-37 63t-35.5 29q-23 0 -36 -38t-22 -132l-79 15q12 141 43.5 205.5t95.5 64.5q35 0 65 -28.5t47.5 -63.5t37.5 -63.5t36 -28.5q23 0 36 38t24 134z
" />
    <glyph glyph-name="adieresis" unicode="&#xe4;" horiz-adv-x="755" 
d="M190 774l-98 49q91 232 287 232q133 0 197.5 -85.5t64.5 -234.5v-561q0 -80 68 -80h24v-94q-40 -12 -74 -12q-103 0 -143 88q-83 -92 -213 -92q-109 0 -173 74t-64 202q0 155 88 243.5t280 88.5h62v143q0 197 -134 197q-112 0 -172 -158zM334 96q100 0 162 92v293h-62
q-124 0 -176.5 -53t-52.5 -158q0 -174 129 -174zM211 1485h115v-215h-115v215zM446 1485h113v-215h-113v215z" />
    <glyph glyph-name="aring" unicode="&#xe5;" horiz-adv-x="755" 
d="M190 774l-98 49q91 232 287 232q133 0 197.5 -85.5t64.5 -234.5v-561q0 -80 68 -80h24v-94q-40 -12 -74 -12q-103 0 -143 88q-83 -92 -213 -92q-109 0 -173 74t-64 202q0 155 88 243.5t280 88.5h62v143q0 197 -134 197q-112 0 -172 -158zM334 96q100 0 162 92v293h-62
q-124 0 -176.5 -53t-52.5 -158q0 -174 129 -174zM229 1354q0 69 43 112t111 43t111 -43t43 -112q0 -68 -43.5 -111t-110.5 -43t-110.5 43t-43.5 111zM317 1354q0 -33 17.5 -54.5t48.5 -21.5t48.5 21.5t17.5 54.5q0 35 -17.5 56.5t-48.5 21.5t-48.5 -21.5t-17.5 -56.5z" />
    <glyph glyph-name="ae" unicode="&#xe6;" horiz-adv-x="1177" 
d="M1106 496h-440v-185q0 -211 161 -211q135 0 183 185l104 -39q-72 -264 -297 -264q-175 0 -237 143l-2 -4q-38 -70 -109 -104.5t-158 -34.5q-112 0 -178.5 75t-66.5 203q0 156 93 247t290 91h71v158q0 172 -143 172q-60 0 -104 -42t-64 -120l-109 43q31 111 107 178.5
t176 67.5q152 0 215 -117q72 117 223 117q133 0 209 -96t76 -240v-223zM340 98q63 0 114.5 35.5t65.5 99.5v252h-71q-242 0 -242 -217q0 -170 133 -170zM666 725v-127h307v131q0 100 -40 151.5t-114 51.5q-81 0 -117 -50.5t-36 -156.5z" />
    <glyph glyph-name="ccedilla" unicode="&#xe7;" horiz-adv-x="700" 
d="M662 817l-107 -41q-42 152 -166 152q-164 0 -164 -213v-393q0 -107 42.5 -161.5t121.5 -54.5q64 0 104.5 37t63.5 121l109 -37q-28 -108 -93.5 -171t-164.5 -70l-9 -54q136 -22 136 -118q0 -64 -54 -106.5t-149 -51.5l-25 78q59 12 84 28t25 43q0 53 -121 60l24 123
q-116 20 -177.5 108.5t-61.5 218.5v404q0 148 78 241t221 93q105 0 178.5 -62.5t104.5 -173.5z" />
    <glyph glyph-name="egrave" unicode="&#xe8;" horiz-adv-x="751" 
d="M684 514h-459v-192q0 -106 44.5 -161t129.5 -55q68 0 110 41t69 138l110 -37q-32 -135 -106.5 -199.5t-194.5 -64.5q-147 0 -227 91t-80 242v402q0 151 79.5 242.5t225.5 91.5q142 0 220.5 -94.5t78.5 -245.5v-199zM225 725v-109h328v111q0 100 -42.5 152.5t-121.5 52.5
q-164 0 -164 -207zM186 1485h166l119 -277h-111z" />
    <glyph glyph-name="eacute" unicode="&#xe9;" horiz-adv-x="751" 
d="M684 514h-459v-192q0 -106 44.5 -161t129.5 -55q68 0 110 41t69 138l110 -37q-32 -135 -106.5 -199.5t-194.5 -64.5q-147 0 -227 91t-80 242v402q0 151 79.5 242.5t225.5 91.5q142 0 220.5 -94.5t78.5 -245.5v-199zM225 725v-109h328v111q0 100 -42.5 152.5t-121.5 52.5
q-164 0 -164 -207zM410 1485h168l-154 -277h-107z" />
    <glyph glyph-name="ecircumflex" unicode="&#xea;" horiz-adv-x="751" 
d="M684 514h-459v-192q0 -106 44.5 -161t129.5 -55q68 0 110 41t69 138l110 -37q-32 -135 -106.5 -199.5t-194.5 -64.5q-147 0 -227 91t-80 242v402q0 151 79.5 242.5t225.5 91.5q142 0 220.5 -94.5t78.5 -245.5v-199zM225 725v-109h328v111q0 100 -42.5 152.5t-121.5 52.5
q-164 0 -164 -207zM307 1208h-123l152 277h102l152 -277h-123l-78 170h-4z" />
    <glyph glyph-name="edieresis" unicode="&#xeb;" horiz-adv-x="751" 
d="M684 514h-459v-192q0 -106 44.5 -161t129.5 -55q68 0 110 41t69 138l110 -37q-32 -135 -106.5 -199.5t-194.5 -64.5q-147 0 -227 91t-80 242v402q0 151 79.5 242.5t225.5 91.5q142 0 220.5 -94.5t78.5 -245.5v-199zM225 725v-109h328v111q0 100 -42.5 152.5t-121.5 52.5
q-164 0 -164 -207zM213 1485h115v-215h-115v215zM449 1485h112v-215h-112v215z" />
    <glyph glyph-name="igrave" unicode="&#xec;" horiz-adv-x="391" 
d="M123 1034h145v-1034h-145v1034zM-33 1485h166l119 -277h-111z" />
    <glyph glyph-name="iacute" unicode="&#xed;" horiz-adv-x="391" 
d="M123 1034h145v-1034h-145v1034zM229 1485h168l-153 -277h-107z" />
    <glyph glyph-name="icircumflex" unicode="&#xee;" horiz-adv-x="391" 
d="M123 1034h145v-1034h-145v1034zM115 1208h-123l151 277h103l151 -277h-123l-77 170h-4z" />
    <glyph glyph-name="idieresis" unicode="&#xef;" horiz-adv-x="391" 
d="M123 1034h145v-1034h-145v1034zM23 1485h114v-215h-114v215zM258 1485h113v-215h-113v215z" />
    <glyph glyph-name="eth" unicode="&#xf0;" horiz-adv-x="792" 
d="M715 324q0 -155 -82 -247.5t-234 -92.5q-151 0 -233 90t-82 239v400q0 150 74.5 240.5t210.5 90.5q137 0 211 -90h4q-5 117 -33 195.5t-90 132.5l-92 -131l-80 59l88 127q-65 32 -150 52l25 104q119 -23 192 -61l80 114l80 -59l-76 -109q187 -144 187 -458v-596zM227 317
q0 -213 172 -213q170 0 170 213v392q0 215 -172 215q-170 0 -170 -215v-392z" />
    <glyph glyph-name="ntilde" unicode="&#xf1;" horiz-adv-x="829" 
d="M254 827v-827h-145v1034h127l4 -90h4q83 109 229 109q127 0 195.5 -89t68.5 -253v-711h-145v709q0 215 -160 215q-110 0 -178 -97zM575 1487l78 -17q-13 -140 -44.5 -205t-96.5 -65q-34 0 -64 29t-47.5 63t-37 63t-35.5 29q-23 0 -36 -38t-22 -132l-80 15
q12 141 44 205.5t96 64.5q35 0 65 -28.5t47.5 -63.5t37.5 -63.5t36 -28.5q23 0 35.5 37.5t23.5 134.5z" />
    <glyph glyph-name="ograve" unicode="&#xf2;" horiz-adv-x="790" 
d="M711 719v-406q0 -150 -83 -239.5t-235 -89.5q-151 0 -232 89t-81 240v406q0 151 81.5 242.5t231.5 91.5q153 0 235.5 -91t82.5 -243zM225 715v-398q0 -213 168 -213q172 0 172 213v398q0 215 -172 215q-168 0 -168 -215zM174 1485h166l119 -277h-111z" />
    <glyph glyph-name="oacute" unicode="&#xf3;" horiz-adv-x="790" 
d="M711 719v-406q0 -150 -83 -239.5t-235 -89.5q-151 0 -232 89t-81 240v406q0 151 81.5 242.5t231.5 91.5q153 0 235.5 -91t82.5 -243zM225 715v-398q0 -213 168 -213q172 0 172 213v398q0 215 -172 215q-168 0 -168 -215zM424 1485h168l-154 -277h-106z" />
    <glyph glyph-name="ocircumflex" unicode="&#xf4;" horiz-adv-x="790" 
d="M711 719v-406q0 -150 -83 -239.5t-235 -89.5q-151 0 -232 89t-81 240v406q0 151 81.5 242.5t231.5 91.5q153 0 235.5 -91t82.5 -243zM225 715v-398q0 -213 168 -213q172 0 172 213v398q0 215 -172 215q-168 0 -168 -215zM313 1208h-123l152 277h102l152 -277h-123
l-78 170h-4z" />
    <glyph glyph-name="otilde" unicode="&#xf5;" horiz-adv-x="790" 
d="M711 719v-406q0 -150 -83 -239.5t-235 -89.5q-151 0 -232 89t-81 240v406q0 151 81.5 242.5t231.5 91.5q153 0 235.5 -91t82.5 -243zM225 715v-398q0 -213 168 -213q172 0 172 213v398q0 215 -172 215q-168 0 -168 -215zM551 1487l78 -17q-13 -139 -45 -204.5t-97 -65.5
q-34 0 -64 29t-47.5 63t-37 63t-35.5 29q-23 0 -35.5 -37.5t-21.5 -132.5l-80 15q12 141 43.5 205.5t95.5 64.5q35 0 65 -28.5t47.5 -63.5t38 -63.5t36.5 -28.5q23 0 35.5 37.5t23.5 134.5z" />
    <glyph glyph-name="odieresis" unicode="&#xf6;" horiz-adv-x="790" 
d="M711 719v-406q0 -150 -83 -239.5t-235 -89.5q-151 0 -232 89t-81 240v406q0 151 81.5 242.5t231.5 91.5q153 0 235.5 -91t82.5 -243zM225 715v-398q0 -213 168 -213q172 0 172 213v398q0 215 -172 215q-168 0 -168 -215zM219 1485h115v-215h-115v215zM455 1485h112v-215
h-112v215z" />
    <glyph glyph-name="divide" unicode="&#xf7;" horiz-adv-x="782" 
d="M694 578h-606v120h606v-120zM293 961q0 43 27 72.5t67 29.5q39 0 66.5 -30t27.5 -72q0 -41 -28 -71t-66 -30q-39 0 -66.5 29.5t-27.5 71.5zM293 324q0 42 27.5 72t66.5 30q38 0 66 -30.5t28 -71.5t-28 -71t-66 -30q-39 0 -66.5 29.5t-27.5 71.5z" />
    <glyph glyph-name="oslash" unicode="&#xf8;" horiz-adv-x="790" 
d="M711 719v-406q0 -150 -83 -239.5t-235 -89.5q-154 0 -237 96l-41 -64l-62 45l58 89q-31 73 -31 163v406q0 151 81.5 242.5t231.5 91.5q153 0 238 -95l45 70l63 -45l-61 -96q33 -67 33 -168zM393 104q172 0 172 213v402l-325 -508q38 -107 153 -107zM225 715v-393l322 507
q-38 101 -154 101q-168 0 -168 -215z" />
    <glyph glyph-name="ugrave" unicode="&#xf9;" horiz-adv-x="829" 
d="M578 205v829h143v-1034h-127l-6 88h-4q-79 -104 -230 -104q-125 0 -193.5 89t-68.5 251v710h146v-710q0 -104 40.5 -158.5t118.5 -54.5q113 0 181 94zM207 1485h166l119 -277h-111z" />
    <glyph glyph-name="uacute" unicode="&#xfa;" horiz-adv-x="829" 
d="M578 205v829h143v-1034h-127l-6 88h-4q-79 -104 -230 -104q-125 0 -193.5 89t-68.5 251v710h146v-710q0 -104 40.5 -158.5t118.5 -54.5q113 0 181 94zM444 1485h168l-153 -277h-107z" />
    <glyph glyph-name="ucircumflex" unicode="&#xfb;" horiz-adv-x="829" 
d="M578 205v829h143v-1034h-127l-6 88h-4q-79 -104 -230 -104q-125 0 -193.5 89t-68.5 251v710h146v-710q0 -104 40.5 -158.5t118.5 -54.5q113 0 181 94zM336 1208h-123l152 277h102l151 -277h-122l-78 170h-4z" />
    <glyph glyph-name="udieresis" unicode="&#xfc;" horiz-adv-x="829" 
d="M578 205v829h143v-1034h-127l-6 88h-4q-79 -104 -230 -104q-125 0 -193.5 89t-68.5 251v710h146v-710q0 -104 40.5 -158.5t118.5 -54.5q113 0 181 94zM242 1485h114v-215h-114v215zM477 1485h113v-215h-113v215z" />
    <glyph glyph-name="yacute" unicode="&#xfd;" horiz-adv-x="815" 
d="M782 1034l-311 -1089q-40 -141 -109.5 -207.5t-187.5 -73.5l-12 113q76 11 116.5 50.5t65.5 127.5l16 59l-327 1020h157l238 -833h4l201 833h149zM455 1485h168l-154 -277h-107z" />
    <glyph glyph-name="thorn" unicode="&#xfe;" horiz-adv-x="817" 
d="M469 -16q-137 0 -211 92h-4v-426h-145v1884h145v-588h4q74 107 217 107q127 0 194.5 -89.5t67.5 -252.5v-385q0 -163 -69.5 -252.5t-198.5 -89.5zM254 827v-626q67 -92 176 -92q162 0 162 215v383q0 217 -160 217q-111 0 -178 -97z" />
    <glyph glyph-name="ydieresis" unicode="&#xff;" horiz-adv-x="815" 
d="M782 1034l-311 -1089q-40 -141 -109.5 -207.5t-187.5 -73.5l-12 113q76 11 116.5 50.5t65.5 127.5l16 59l-327 1020h157l238 -833h4l201 833h149zM256 1485h115v-215h-115v215zM492 1485h112v-215h-112v215z" />
    <glyph glyph-name="dotlessi" unicode="&#x131;" horiz-adv-x="391" 
d="M123 1034h145v-1034h-145v1034z" />
    <glyph glyph-name="IJ" unicode="&#x132;" horiz-adv-x="942" 
d="M162 1485h160v-1485h-160v1485zM649 1485h162v-1272q0 -242 -108.5 -363t-315.5 -124l-12 135q141 0 207.5 82.5t66.5 265.5v1276z" />
    <glyph glyph-name="ij" unicode="&#x133;" horiz-adv-x="823" 
d="M123 1034h145v-1034h-145v1034zM125 1485h141v-215h-141v215zM537 1485h141v-215h-141v215zM381 -338l-12 121q85 14 125.5 74.5t40.5 183.5v993h145v-993q0 -351 -299 -379z" />
    <glyph glyph-name="Lslash" unicode="&#x141;" horiz-adv-x="804" 
d="M154 1485h155v-645l287 174v-144l-287 -174v-546h459v-150h-614v629l-111 -68v141l111 66v717z" />
    <glyph glyph-name="lslash" unicode="&#x142;" horiz-adv-x="520" 
d="M176 1534h146v-606l149 108v-135l-149 -106v-795h-146v707l-129 -91v134l129 90v694z" />
    <glyph glyph-name="OE" unicode="&#x152;" horiz-adv-x="1429" 
d="M711 1485h637v-148h-476v-499h383v-133h-383v-558h504v-147h-665v113h-4q-76 -133 -256 -133q-166 0 -260.5 115.5t-94.5 320.5v653q0 205 94.5 320.5t260.5 115.5q180 0 256 -133h4v113zM711 416v653q0 151 -56 222t-172 71t-171.5 -71t-55.5 -222v-653
q0 -153 55.5 -224t171.5 -71t172 71t56 224z" />
    <glyph glyph-name="oe" unicode="&#x153;" horiz-adv-x="1230" 
d="M1159 500h-450v-189q0 -102 42.5 -156.5t122.5 -54.5q141 0 189 185l104 -39q-73 -266 -301 -266q-167 0 -233 135q-71 -135 -250 -135q-144 0 -223.5 93.5t-79.5 235.5v416q0 142 80 236t223 94q180 0 250 -137q70 137 244 137q131 0 206.5 -96t75.5 -240v-219zM561 717
q0 215 -168 215q-166 0 -166 -215v-400q0 -219 164 -219q170 0 170 219v400zM709 725v-125h317v129q0 100 -41 151.5t-117 51.5q-159 0 -159 -207z" />
    <glyph glyph-name="Scaron" unicode="&#x160;" horiz-adv-x="800" 
d="M395 1505q135 0 223 -78.5t125 -216.5l-118 -45q-23 98 -79.5 149.5t-139.5 51.5q-96 0 -142.5 -56t-46.5 -155q0 -69 29.5 -126t76.5 -99t104 -82t114.5 -84t104.5 -95t76.5 -126t29.5 -166q0 -190 -94 -293.5t-257 -103.5q-135 0 -231 85.5t-125 243.5l127 43
q25 -119 84.5 -176t144.5 -57q197 0 197 239q0 73 -29.5 132.5t-77.5 102.5t-105 83t-114.5 83.5t-105.5 94t-77.5 125t-29.5 166.5q0 160 89.5 260t246.5 100zM195 1782h122l78 -133l80 133h123l-152 -223h-102z" />
    <glyph glyph-name="scaron" unicode="&#x161;" horiz-adv-x="677" 
d="M352 -16q-219 0 -286 231l112 45q25 -86 70 -125t100 -39q67 0 103 43t36 121q0 50 -23 89t-59.5 66t-80.5 51.5t-88.5 52t-81 61t-59.5 85t-23 117.5q0 118 72 194.5t202 76.5q101 0 170.5 -59.5t97.5 -168.5l-108 -39q-22 80 -61 115t-95 35q-69 0 -104 -38t-35 -105
q0 -46 23 -83t59.5 -62.5t80.5 -49.5t88 -52.5t80.5 -63.5t59.5 -89t23 -123q0 -127 -76.5 -206.5t-196.5 -79.5zM147 1485h123l78 -170h4l78 170h121l-150 -277h-102z" />
    <glyph glyph-name="Ydieresis" unicode="&#x178;" horiz-adv-x="899" 
d="M887 1485l-357 -983v-502h-161v508l-357 977h176l261 -811h4l260 811h174zM256 1782h119v-199h-119v199zM528 1782h117v-199h-117v199z" />
    <glyph glyph-name="Zcaron" unicode="&#x17d;" horiz-adv-x="845" 
d="M776 147v-147h-719v102l541 1235h-508v148h686v-99l-538 -1239h538zM236 1782h122l78 -133l80 133h123l-152 -223h-102z" />
    <glyph glyph-name="zcaron" unicode="&#x17e;" horiz-adv-x="686" 
d="M621 127v-127h-562v94l398 813h-377v127h545v-90l-400 -817h396zM156 1485h123l77 -170h4l78 170h121l-149 -277h-103z" />
    <glyph glyph-name="longs" unicode="&#x17f;" horiz-adv-x="471" 
d="M520 1493l8 -113q-108 -6 -155 -66.5t-47 -174.5v-1139h-146v918h-151v116h151v109q0 156 83 249.5t257 100.5z" />
    <glyph glyph-name="florin" unicode="&#x192;" horiz-adv-x="557" 
d="M549 1034l-19 -112h-211l-172 -1063h-143l170 1063h-108l18 112h106l19 109q26 156 125.5 249.5t273.5 100.5l-12 -113q-109 -6 -169 -67t-79 -174l-16 -105h217z" />
    <glyph glyph-name="uni0237" unicode="&#x237;" horiz-adv-x="366" 
d="M-29 -338l-12 121q85 14 125.5 74.5t40.5 183.5v993h145v-993q0 -351 -299 -379z" />
    <glyph glyph-name="uni02BB" unicode="&#x2bb;" horiz-adv-x="321" 
d="M244 1423v-184h-166v143q0 167 90 301l57 -28q-47 -103 -47 -221z" />
    <glyph glyph-name="afii57929" unicode="&#x2bc;" horiz-adv-x="321" 
d="M80 1333v183h166v-142q0 -168 -92 -301l-58 29q49 107 49 219z" />
    <glyph glyph-name="circumflex" unicode="&#x2c6;" horiz-adv-x="438" 
d="M139 1208h-123l152 277h102l152 -277h-123l-78 170h-4z" />
    <glyph glyph-name="caron" unicode="&#x2c7;" horiz-adv-x="438" 
d="M16 1485h123l78 -170h4l78 170h121l-150 -277h-102z" />
    <glyph glyph-name="breve" unicode="&#x2d8;" horiz-adv-x="438" 
d="M16 1485h109q4 -118 26 -160.5t68 -42.5q45 0 66.5 42t27.5 161h109q-15 -169 -59 -230t-144 -61t-144 61t-59 230z" />
    <glyph glyph-name="dotaccent" unicode="&#x2d9;" horiz-adv-x="438" 
d="M90 1485h141v-215h-141v215z" />
    <glyph glyph-name="ring" unicode="&#x2da;" horiz-adv-x="438" 
d="M66 1354q0 69 42.5 112t110.5 43t111 -43t43 -112q0 -68 -43.5 -111t-110.5 -43t-110 43t-43 111zM154 1354q0 -34 17 -55t48 -21t48.5 21.5t17.5 54.5q0 35 -17.5 56.5t-48.5 21.5t-48 -21.5t-17 -56.5z" />
    <glyph glyph-name="ogonek" unicode="&#x2db;" horiz-adv-x="438" 
d="M244 20l67 -12q-61 -23 -95 -66t-34 -83q0 -92 84 -92q56 0 105 36l30 -84q-61 -55 -161 -55q-86 0 -130 38t-44 108q0 72 47 126t131 84z" />
    <glyph glyph-name="tilde" unicode="&#x2dc;" horiz-adv-x="438" 
d="M373 1487l78 -17q-13 -139 -45 -204.5t-97 -65.5q-34 0 -64 29t-47.5 63t-37 63t-35.5 29q-23 0 -35.5 -37.5t-21.5 -132.5l-80 15q12 141 43.5 205.5t95.5 64.5q35 0 65 -28.5t47.5 -63.5t37.5 -63.5t36 -28.5q23 0 36 38t24 134z" />
    <glyph glyph-name="hungarumlaut" unicode="&#x2dd;" horiz-adv-x="438" 
d="M141 1485h150l-133 -277h-90zM377 1485h149l-164 -277h-92z" />
    <glyph glyph-name="gravecomb" unicode="&#x300;" 
d="M-416 1485h166l119 -277h-111z" />
    <glyph glyph-name="acutecomb" unicode="&#x301;" 
d="M-240 1485h168l-153 -277h-107z" />
    <glyph glyph-name="uni0302" unicode="&#x302;" 
d="M-266 1208h-123l151 277h103l151 -277h-122l-78 170h-4z" />
    <glyph glyph-name="tildecomb" unicode="&#x303;" 
d="M-74 1487l78 -17q-13 -140 -44.5 -205t-96.5 -65q-34 0 -64 29t-47.5 63t-37.5 63t-36 29q-23 0 -35.5 -37.5t-21.5 -132.5l-80 15q12 141 44 205.5t96 64.5q35 0 65 -28.5t47.5 -63.5t37.5 -63.5t36 -28.5q23 0 35.5 37.5t23.5 134.5z" />
    <glyph glyph-name="uni0304" unicode="&#x304;" 
d="M-16 1395v-109h-402v109h402z" />
    <glyph glyph-name="uni0306" unicode="&#x306;" 
d="M-424 1485h109q4 -118 26 -160.5t68 -42.5q45 0 66.5 42t27.5 161h109q-15 -169 -59 -230t-144 -61t-144 61t-59 230z" />
    <glyph glyph-name="uni0307" unicode="&#x307;" 
d="M-240 1485h142v-215h-142v215z" />
    <glyph glyph-name="uni0308" unicode="&#x308;" 
d="M-391 1485h115v-215h-115v215zM-156 1485h113v-215h-113v215z" />
    <glyph glyph-name="uni030A" unicode="&#x30a;" 
d="M-379 1354q0 69 43 112t111 43t110.5 -43t42.5 -112q0 -68 -43 -111t-110 -43t-110.5 43t-43.5 111zM-291 1354q0 -33 17.5 -54.5t48.5 -21.5t48 21t17 55q0 35 -17 56.5t-48 21.5t-48.5 -21.5t-17.5 -56.5z" />
    <glyph glyph-name="uni030B" unicode="&#x30b;" 
d="M-297 1485h150l-134 -277h-90zM-61 1485h149l-164 -277h-92z" />
    <glyph glyph-name="uni030C" unicode="&#x30c;" 
d="M-424 1485h123l78 -170h4l78 170h121l-150 -277h-102z" />
    <glyph glyph-name="uni0312" unicode="&#x312;" 
d="M-299 1325v-125h-162v82q0 108 37 155t129 56l8 -63q-46 -6 -63 -27.5t-17 -69.5z" />
    <glyph glyph-name="uni0315" unicode="&#x315;" 
d="M-246 1485h131l-86 -279h-82z" />
    <glyph glyph-name="uni0326" unicode="&#x326;" 
d="M-467 -193v127h162v-81q0 -107 -38 -154.5t-130 -54.5l-6 61q45 7 61.5 27.5t16.5 68.5z" />
    <glyph glyph-name="uni0327" unicode="&#x327;" 
d="M-217 33l86 -4l-16 -97q135 -22 135 -118q0 -64 -54 -106.5t-149 -51.5l-25 78q59 12 84 28t25 43q0 53 -121 60z" />
    <glyph glyph-name="uni0328" unicode="&#x328;" 
d="M-176 20l67 -12q-61 -23 -95 -66t-34 -83q0 -92 84 -92q56 0 105 36l31 -84q-61 -55 -162 -55q-86 0 -130 38t-44 108q0 72 47 126t131 84z" />
    <glyph glyph-name="uni0335" unicode="&#x335;" 
d="M-16 573v-108h-402v108h402z" />
    <glyph glyph-name="uni0336" unicode="&#x336;" 
d="M-940 459v121h903v-121h-903z" />
    <glyph glyph-name="uni0394" unicode="&#x394;" horiz-adv-x="972" 
d="M25 0l391 1485h141l389 -1485h-921zM485 1268l-268 -1127h535l-263 1127h-4z" />
    <glyph glyph-name="uni03A9" unicode="&#x3a9;" horiz-adv-x="968" 
d="M483 1505q191 0 290 -104t99 -303v-373q0 -145 -55 -229t-158 -123v-230h211v-143h-329v467q92 22 131 79.5t39 176.5v373q0 266 -228 266q-111 0 -169 -67.5t-58 -198.5v-373q0 -118 39.5 -176t130.5 -80v-467h-328v143h211v230q-104 39 -158.5 122.5t-54.5 229.5v373
q0 199 98 303t289 104z" />
    <glyph glyph-name="uni03BC" unicode="&#x3bc;" horiz-adv-x="845" 
d="M109 336v698h145v-696q0 -213 164 -213q109 0 174 94v815h145v-1034h-127l-8 92h-4q-68 -90 -178 -90q-121 0 -174 100h-4q11 -271 30 -421l-147 -13q-16 348 -16 668z" />
    <glyph glyph-name="pi" unicode="&#x3c0;" horiz-adv-x="833" 
d="M705 0h-146v911h-287v-737q0 -86 -47.5 -135t-126.5 -49q-31 0 -71 12v94h22q78 0 78 92v719h-92v127h760v-127h-90v-907z" />
    <glyph glyph-name="uni1E9E" unicode="&#x1e9e;" horiz-adv-x="991" 
d="M133 1485h748v-103l-254 -481q68 -6 117.5 -31t88.5 -76t58.5 -138t19.5 -210q0 -241 -84 -350.5t-243 -109.5q-145 0 -226 75l29 123q80 -63 172 -63q43 0 75.5 14t60.5 48.5t42.5 100t14.5 160.5q0 99 -14 165t-42.5 100.5t-63 47.5t-85.5 13h-84v113l242 465h-414
v-1348h-158v1485z" />
    <glyph glyph-name="uni2007" unicode="&#x2007;" horiz-adv-x="905" 
 />
    <glyph glyph-name="uni2008" unicode="&#x2008;" horiz-adv-x="362" 
 />
    <glyph glyph-name="uni200B" unicode="&#x200b;" horiz-adv-x="0" 
 />
    <glyph glyph-name="uni2010" unicode="&#x2010;" horiz-adv-x="452" 
d="M41 535v135h371v-135h-371z" />
    <glyph glyph-name="uni2011" unicode="&#x2011;" horiz-adv-x="452" 
d="M41 535v135h371v-135h-371z" />
    <glyph glyph-name="endash" unicode="&#x2013;" horiz-adv-x="684" 
d="M41 549v119h604v-119h-604z" />
    <glyph glyph-name="emdash" unicode="&#x2014;" horiz-adv-x="983" 
d="M41 547v121h903v-121h-903z" />
    <glyph glyph-name="quoteleft" unicode="&#x2018;" horiz-adv-x="321" 
d="M244 1423v-184h-166v143q0 167 90 301l57 -28q-47 -103 -47 -221z" />
    <glyph glyph-name="quoteright" unicode="&#x2019;" horiz-adv-x="321" 
d="M80 1333v183h166v-142q0 -168 -92 -301l-58 29q49 107 49 219z" />
    <glyph glyph-name="quotesinglbase" unicode="&#x201a;" horiz-adv-x="321" 
d="M80 12v183h166v-142q0 -168 -92 -301l-58 29q49 107 49 219z" />
    <glyph glyph-name="quotedblleft" unicode="&#x201c;" horiz-adv-x="581" 
d="M500 1423v-184h-166v143q0 167 90 301l57 -28q-47 -103 -47 -221zM244 1423v-184h-166v143q0 167 90 301l57 -28q-47 -103 -47 -221z" />
    <glyph glyph-name="quotedblright" unicode="&#x201d;" horiz-adv-x="581" 
d="M336 1333v183h166v-142q0 -168 -92 -301l-58 29q49 107 49 219zM80 1333v183h166v-142q0 -168 -92 -301l-58 29q49 107 49 219z" />
    <glyph glyph-name="quotedblbase" unicode="&#x201e;" horiz-adv-x="577" 
d="M322 12v183h165v-142q0 -168 -92 -301l-57 29q49 107 49 219zM70 12v183h166v-142q0 -167 -93 -301l-57 29q49 107 49 219z" />
    <glyph glyph-name="dagger" unicode="&#x2020;" horiz-adv-x="724" 
d="M35 1135l262 -11l-10 410h145l-8 -410l264 11v-150l-264 8l8 -1298h-145l10 1298l-262 -8v150z" />
    <glyph glyph-name="daggerdbl" unicode="&#x2021;" horiz-adv-x="724" 
d="M297 236v757l-262 -8v150l262 -11l-10 410h145l-8 -410l264 11v-150l-264 8v-757l264 8v-148l-264 8l8 -409h-145l10 409l-262 -8v148z" />
    <glyph glyph-name="bullet" unicode="&#x2022;" horiz-adv-x="442" 
d="M35 637q0 92 54 154.5t134 62.5t134.5 -62.5t54.5 -154.5q0 -89 -55 -151t-134 -62t-133.5 62t-54.5 151z" />
    <glyph glyph-name="ellipsis" unicode="&#x2026;" horiz-adv-x="1085" 
d="M90 0v199h182v-199h-182zM451 0v199h182v-199h-182zM813 0v199h182v-199h-182z" />
    <glyph glyph-name="perthousand" unicode="&#x2030;" horiz-adv-x="1464" 
d="M481 1247v-139q0 -122 -52.5 -188t-152.5 -66q-103 0 -154.5 65.5t-51.5 188.5v139q0 125 51.5 191.5t154.5 66.5q100 0 152.5 -67t52.5 -191zM178 1249v-141q0 -82 22.5 -117t75.5 -35q50 0 73.5 35.5t23.5 116.5v141q0 79 -23.5 114.5t-73.5 35.5q-52 0 -75 -35
t-23 -115zM78 0l719 1485h118l-720 -1485h-117zM942 367v-140q0 -122 -53 -187t-154 -65q-102 0 -154.5 65t-52.5 187v140q0 124 52.5 191t154.5 67q101 0 154 -67t53 -191zM637 369v-142q0 -81 23 -116t75 -35q51 0 75 35.5t24 115.5v142q0 78 -24.5 113.5t-74.5 35.5
q-51 0 -74.5 -35t-23.5 -114zM1419 367v-140q0 -122 -52.5 -187t-154.5 -65t-154 64.5t-52 187.5v140q0 124 52 191t154 67t154.5 -67t52.5 -191zM1114 369v-142q0 -81 23 -116t75 -35t75.5 35t23.5 116v142q0 79 -24 114t-75 35t-74.5 -35t-23.5 -114z" />
    <glyph glyph-name="minute" unicode="&#x2032;" horiz-adv-x="241" 
d="M37 1202l63 383h107l-66 -383h-104z" />
    <glyph glyph-name="second" unicode="&#x2033;" horiz-adv-x="458" 
d="M37 1202l63 383h107l-66 -383h-104zM254 1202l63 383h107l-66 -383h-104z" />
    <glyph glyph-name="guilsinglleft" unicode="&#x2039;" horiz-adv-x="415" 
d="M379 895l-215 -363l215 -364h-131l-211 364l211 363h131z" />
    <glyph glyph-name="guilsinglright" unicode="&#x203a;" horiz-adv-x="415" 
d="M37 168l213 364l-213 363h131l209 -363l-209 -364h-131z" />
    <glyph glyph-name="uni203D" unicode="&#x203d;" horiz-adv-x="854" 
d="M37 1180q35 146 138.5 237.5t252.5 91.5q90 0 159 -27.5t110.5 -76.5t62 -111.5t20.5 -136.5q0 -153 -79.5 -280t-223.5 -213l-8 -246h-109l-12 368v588q-137 -42 -188 -229zM635 1151q0 205 -162 229v-587q162 142 162 358zM322 0v199h182v-199h-182z" />
    <glyph glyph-name="fraction" unicode="&#x2044;" horiz-adv-x="43" 
d="M-250 0h-104l645 1485h104z" />
    <glyph glyph-name="uni2070" unicode="&#x2070;" horiz-adv-x="464" 
d="M418 1430v-256q0 -98 -48.5 -152.5t-138.5 -54.5t-137 54.5t-47 152.5v253q0 98 47.5 153.5t136.5 55.5q90 0 138.5 -55t48.5 -151zM145 1427v-253q0 -123 86 -123q88 0 88 123v253q0 119 -88 119q-86 0 -86 -119z" />
    <glyph glyph-name="uni2074" unicode="&#x2074;" horiz-adv-x="464" 
d="M379 975h-90v121h-260v67l252 465h98v-452h67l-6 -80h-61v-121zM129 1176h160l8 333h-4z" />
    <glyph glyph-name="uni2075" unicode="&#x2075;" horiz-adv-x="464" 
d="M127 1270l-66 33l25 325h309l-6 -88h-225l-14 -178h4q49 27 100 27q162 0 162 -203q0 -219 -191 -219q-66 0 -112.5 35t-63.5 104l76 27q11 -42 37 -63t59 -21q49 0 70.5 31.5t21.5 105.5q0 65 -22 92t-74 27q-55 0 -90 -35z" />
    <glyph glyph-name="uni2076" unicode="&#x2076;" horiz-adv-x="464" 
d="M242 1636q62 0 105.5 -35t60.5 -102l-70 -29q-25 82 -90 82q-98 0 -98 -131v-71h4q39 36 106 36q160 0 160 -194q0 -225 -187 -225q-87 0 -133.5 56t-46.5 161v227q0 101 51 163t138 62zM238 1305q-33 0 -59 -17t-29 -43v-74q0 -59 23 -88.5t63 -29.5q46 0 67 31.5
t21 105.5q0 59 -20.5 87t-65.5 28z" />
    <glyph glyph-name="uni2077" unicode="&#x2077;" horiz-adv-x="464" 
d="M215 975h-111l209 565h-266v88h369v-78z" />
    <glyph glyph-name="uni2078" unicode="&#x2078;" horiz-adv-x="464" 
d="M233 967q-96 0 -143 46.5t-47 153.5q0 123 86 150v4q-72 29 -72 143q0 172 176 172q175 0 175 -172q0 -114 -72 -143v-4q86 -27 86 -150q0 -107 -47.5 -153.5t-141.5 -46.5zM324 1169q0 61 -23 84t-68 23q-47 0 -69.5 -23t-22.5 -84q0 -69 22 -94.5t70 -25.5t69.5 25.5
t21.5 94.5zM233 1556q-47 0 -65 -21t-18 -79q0 -59 19 -81.5t64 -22.5q44 0 63 22.5t19 81.5q0 57 -19 78.5t-63 21.5z" />
    <glyph glyph-name="uni2079" unicode="&#x2079;" horiz-adv-x="464" 
d="M53 1096l68 34q15 -42 39 -60.5t61 -18.5q96 0 96 110v113h-4q-37 -37 -106 -37q-73 0 -116.5 47.5t-43.5 145.5q0 102 48 155t141 53q86 0 132 -53.5t46 -144.5v-277q0 -91 -50.5 -143.5t-136.5 -52.5q-133 0 -174 129zM225 1317q33 0 61 16.5t31 42.5v74q0 104 -81 104
q-49 0 -71 -27t-22 -91q0 -66 20 -92.5t62 -26.5z" />
    <glyph glyph-name="uni207A" unicode="&#x207a;" horiz-adv-x="407" 
d="M168 1096v157h-117v72h117v156h70v-156h118v-72h-118v-157h-70z" />
    <glyph glyph-name="uni207B" unicode="&#x207b;" horiz-adv-x="407" 
d="M356 1253h-305v72h305v-72z" />
    <glyph glyph-name="uni207C" unicode="&#x207c;" horiz-adv-x="407" 
d="M342 1313h-283v71h283v-71zM342 1180h-283v71h283v-71z" />
    <glyph glyph-name="uni207D" unicode="&#x207d;" horiz-adv-x="249" 
d="M59 1147v291q0 153 43.5 220.5t137.5 67.5h22v-65h-22q-101 0 -101 -223v-291q0 -223 101 -223h22v-66h-22q-94 0 -137.5 68t-43.5 221z" />
    <glyph glyph-name="uni207E" unicode="&#x207e;" horiz-adv-x="249" 
d="M190 1438v-291q0 -153 -43.5 -221t-136.5 -68h-22v66h22q101 0 101 223v291q0 223 -101 223h-22v65h22q93 0 136.5 -67.5t43.5 -220.5z" />
    <glyph glyph-name="uni207F" unicode="&#x207f;" horiz-adv-x="475" 
d="M70 975v512h84l4 -47h4q47 57 117 57q68 0 101.5 -44t33.5 -118v-360h-95v356q0 84 -67 84q-59 0 -86 -53v-387h-96z" />
    <glyph glyph-name="uni2080" unicode="&#x2080;" horiz-adv-x="464" 
d="M418 213v-256q0 -98 -48.5 -152.5t-138.5 -54.5t-137 54.5t-47 152.5v254q0 98 47.5 153.5t136.5 55.5q90 0 138.5 -55t48.5 -152zM145 211v-254q0 -123 86 -123q88 0 88 123v254q0 119 -88 119q-86 0 -86 -119z" />
    <glyph glyph-name="uni2081" unicode="&#x2081;" horiz-adv-x="464" 
d="M236 414h81v-656h-104v473h-111v70h45q48 0 65.5 21t23.5 92z" />
    <glyph glyph-name="uni2082" unicode="&#x2082;" horiz-adv-x="464" 
d="M238 420q85 0 127.5 -46t42.5 -120q0 -56 -23 -105t-57.5 -85.5t-69.5 -69.5t-63 -72t-35 -80h252v-84h-355l-2 47q2 58 28.5 111t63.5 92.5t74 77t62.5 80t25.5 84.5q0 86 -80 86q-76 0 -98 -105l-78 23q16 75 63 120.5t122 45.5z" />
    <glyph glyph-name="uni2083" unicode="&#x2083;" horiz-adv-x="464" 
d="M168 55v78h43q44 0 66 24.5t22 80.5q0 52 -19 75t-57 23q-75 0 -98 -92l-76 24q18 70 65.5 111t116.5 41q86 0 128 -46.5t42 -125.5q0 -118 -79 -148v-4q90 -21 90 -147q0 -199 -185 -199q-143 0 -182 139l74 27q27 -84 104 -84q86 0 86 123q0 58 -23 79t-73 21h-45z" />
    <glyph glyph-name="uni2084" unicode="&#x2084;" horiz-adv-x="464" 
d="M379 -242h-90v121h-260v68l252 465h98v-453h67l-6 -80h-61v-121zM129 -41h160l8 334h-4z" />
    <glyph glyph-name="uni2085" unicode="&#x2085;" horiz-adv-x="464" 
d="M127 53l-66 33l25 326h309l-6 -88h-225l-14 -179h4q49 27 100 27q162 0 162 -203q0 -219 -191 -219q-66 0 -112.5 35t-63.5 104l76 27q11 -42 37 -63t59 -21q49 0 70.5 31.5t21.5 105.5q0 65 -22 92t-74 27q-55 0 -90 -35z" />
    <glyph glyph-name="uni2086" unicode="&#x2086;" horiz-adv-x="464" 
d="M242 420q62 0 105.5 -35t60.5 -102l-70 -29q-25 82 -90 82q-98 0 -98 -131v-72h4q40 37 106 37q160 0 160 -195q0 -225 -187 -225q-87 0 -133.5 56t-46.5 161v228q0 101 51 163t138 62zM238 88q-33 0 -59 -16.5t-29 -42.5v-74q0 -59 23 -89t63 -30q46 0 67 31.5t21 105.5
q0 59 -20.5 87t-65.5 28z" />
    <glyph glyph-name="uni2087" unicode="&#x2087;" horiz-adv-x="464" 
d="M215 -242h-111l209 566h-266v88h369v-78z" />
    <glyph glyph-name="uni2088" unicode="&#x2088;" horiz-adv-x="464" 
d="M233 -250q-95 0 -142.5 47t-47.5 154q0 122 86 149v4q-72 29 -72 144q0 172 176 172q175 0 175 -172q0 -115 -72 -144v-4q86 -27 86 -149q0 -107 -47.5 -154t-141.5 -47zM324 -47q0 61 -23 83.5t-68 22.5q-48 0 -70 -22.5t-22 -83.5q0 -69 22 -95t70 -26t69.5 26t21.5 95
zM233 340q-47 0 -65 -21t-18 -79q0 -59 19 -82t64 -23q44 0 63 23t19 82q0 57 -19 78.5t-63 21.5z" />
    <glyph glyph-name="uni2089" unicode="&#x2089;" horiz-adv-x="464" 
d="M53 -121l68 35q28 -80 100 -80q96 0 96 111v112h-4q-37 -37 -106 -37q-73 0 -116.5 47.5t-43.5 145.5q0 103 48.5 156t140.5 53q86 0 132 -54t46 -145v-276q0 -92 -51 -144.5t-136 -52.5q-133 0 -174 129zM225 100q33 0 61 17t31 43v73q0 105 -81 105q-48 0 -70.5 -27
t-22.5 -92q0 -66 20 -92.5t62 -26.5z" />
    <glyph glyph-name="uni208A" unicode="&#x208a;" horiz-adv-x="407" 
d="M168 -121v158h-117v72h117v155h70v-155h118v-72h-118v-158h-70z" />
    <glyph glyph-name="uni208B" unicode="&#x208b;" horiz-adv-x="407" 
d="M356 37h-305v72h305v-72z" />
    <glyph glyph-name="uni208C" unicode="&#x208c;" horiz-adv-x="407" 
d="M342 96h-283v72h283v-72zM342 -37h-283v72h283v-72z" />
    <glyph glyph-name="uni208D" unicode="&#x208d;" horiz-adv-x="249" 
d="M59 -70v291q0 153 43.5 221t137.5 68h22v-66h-22q-101 0 -101 -223v-291q0 -223 101 -223h22v-65h-22q-94 0 -137.5 67.5t-43.5 220.5z" />
    <glyph glyph-name="uni208E" unicode="&#x208e;" horiz-adv-x="249" 
d="M190 221v-291q0 -153 -43.5 -220.5t-136.5 -67.5h-22v65h22q101 0 101 223v291q0 223 -101 223h-22v66h22q93 0 136.5 -68t43.5 -221z" />
    <glyph glyph-name="franc" unicode="&#x20a3;" horiz-adv-x="829" 
d="M10 223v115h123v1147h637v-148h-477v-508h414v-139h-414v-352h178v-115h-178v-223h-160v223h-123z" />
    <glyph glyph-name="lira" unicode="&#x20a4;" horiz-adv-x="925" 
d="M84 739l-12 101h104q-16 141 -16 225q0 213 86 327.5t248 114.5q128 0 212.5 -77.5t110.5 -215.5l-117 -38q-44 190 -200 190q-193 0 -193 -313q0 -81 12 -213h398l-15 -101h-372l8 -69h350l-10 -97h-332q13 -117 16 -182q40 -15 76.5 -48.5t63 -69.5t52 -70t54.5 -56
t60 -22q51 0 80.5 55t44.5 191l116 -27q-21 -194 -79 -279t-154 -85q-60 0 -110.5 35t-79.5 78t-66 100t-62 83q-13 -296 -192 -296q-68 0 -108 45.5t-40 126.5q0 105 59.5 171t160.5 78q-2 19 -11 78t-14 94h-102l-13 97h101l-9 69h-106zM174 88q36 0 53.5 48.5t18.5 172.5
q-61 -10 -88 -51t-27 -98q0 -35 12.5 -53.5t30.5 -18.5z" />
    <glyph glyph-name="peseta" unicode="&#x20a7;" horiz-adv-x="1611" 
d="M342 1485q134 0 206.5 -109.5t72.5 -328.5q0 -212 -71.5 -323.5t-203.5 -111.5h-113v-612h-135v1485h244zM1565 823l-95 -28q-12 76 -39 109.5t-73 33.5t-69 -39.5t-23 -107.5q0 -41 17 -76.5t44 -63t60 -55t65.5 -60t59.5 -70t44 -92.5t17 -120q0 -128 -56.5 -201
t-154.5 -73q-188 0 -221 262l98 24q11 -97 40.5 -136.5t78.5 -39.5q46 0 72 41.5t26 116.5q0 50 -17.5 92t-45 72.5t-60.5 59t-66.5 58.5t-61 64t-45 83.5t-17.5 108.5q0 121 56.5 196t152.5 75q87 0 141.5 -60.5t71.5 -173.5zM1071 1036v-118h-164v-721q0 -101 84 -101
q30 0 68 23l20 -92q-56 -45 -129 -45q-168 0 -168 213v720l-90 23v94l94 8l33 283h88v-287h164zM233 1358v-629h107q72 0 108.5 75t36.5 243q0 170 -36 240.5t-109 70.5h-107z" />
    <glyph glyph-name="Euro" unicode="&#x20ac;" horiz-adv-x="911" 
d="M496 1505q129 0 219.5 -84.5t118.5 -222.5l-123 -41q-45 199 -207 199q-106 0 -160.5 -77t-54.5 -218v-139h395l-18 -99h-377v-98h356l-18 -98h-338v-217q0 -133 55 -211t158 -78q90 0 138 48.5t71 170.5l125 -37q-29 -170 -114 -246.5t-230 -76.5q-168 0 -265.5 117.5
t-97.5 310.5v219h-98v98h98v98h-98v99h98v139q0 208 97 326t270 118z" />
    <glyph glyph-name="uni20B4" unicode="&#x20b4;" horiz-adv-x="854" 
d="M66 825v103h466q91 108 91 229q0 108 -40 164.5t-143 56.5q-90 0 -148 -50t-93 -150l-115 45q98 282 369 282q151 0 229 -92t78 -246q0 -127 -80 -239h106v-103h-202q-27 -26 -81.5 -71.5t-68.5 -57.5h350v-102h-448q-94 -115 -94 -260q0 -110 54 -167.5t150 -57.5
q87 0 148 52t96 171l107 -43q-44 -159 -132.5 -234t-226.5 -75q-168 0 -251 93t-83 251q0 148 91 270h-132v102h220q25 23 75.5 65.5t73.5 63.5h-366z" />
    <glyph glyph-name="uni20B8" unicode="&#x20b8;" horiz-adv-x="774" 
d="M23 1270h729v-117h-285v-1153h-160v1153h-284v117zM752 1366h-729v119h729v-119z" />
    <glyph glyph-name="uni20BA" unicode="&#x20ba;" horiz-adv-x="813" 
d="M33 639v123l100 59v664h154v-590l282 172v-125l-282 -172v-104l282 172v-123l-282 -174v-396h157q94 0 147.5 51.5t76.5 172.5l116 -54q-49 -315 -340 -315h-311v471l-100 -59v123l100 59v104z" />
    <glyph glyph-name="uni20BD" unicode="&#x20bd;" horiz-adv-x="888" 
d="M315 0h-159v406h-117v122h117v93h-117v120h117v744h350q163 0 248.5 -110t85.5 -322q0 -208 -84 -320t-244 -112h-197v-93h299v-122h-299v-406zM315 1354v-613h183q95 0 138.5 73.5t43.5 236.5q0 164 -43 233.5t-139 69.5h-183z" />
    <glyph glyph-name="afii61248" unicode="&#x2105;" horiz-adv-x="1433" 
d="M336 1505q87 0 149.5 -53t83.5 -137l-98 -35q-29 111 -129 111q-129 0 -129 -170v-361q0 -74 33 -119t96 -45q55 0 85.5 28t43.5 95l100 -31q-21 -104 -79.5 -151t-157.5 -47q-116 0 -185 74t-69 196v361q0 133 68 208.5t188 75.5zM1354 621v-351q0 -133 -70 -207.5
t-201 -74.5t-201.5 74.5t-70.5 207.5v351q0 133 70.5 207.5t201.5 74.5t201 -74.5t70 -207.5zM1223 270v351q0 87 -34.5 128.5t-105.5 41.5q-141 0 -141 -170v-351q0 -172 141 -172q140 0 140 172zM428 0h-96l643 1485h98z" />
    <glyph glyph-name="afii61289" unicode="&#x2113;" horiz-adv-x="1165" 
d="M287 530l-23 111q47 14 101 45q25 377 122.5 598t239.5 221q158 0 158 -227q0 -161 -114.5 -339t-285.5 -300q-2 -57 -2 -178q0 -141 10.5 -218.5t30 -105.5t54.5 -28q46 0 89 67.5t72 165.5l99 -33q-33 -143 -112.5 -237.5t-170.5 -94.5q-104 0 -151.5 105.5
t-47.5 363.5v115q-6 -2 -31 -14t-38 -17zM715 1382q-71 0 -133.5 -157.5t-87.5 -446.5l4 2q117 103 194.5 235.5t77.5 248.5q0 118 -55 118z" />
    <glyph glyph-name="afii61352" unicode="&#x2116;" horiz-adv-x="1486" 
d="M133 1485h123l479 -1071h4v1071h142v-1485h-113l-489 1096h-5v-1096h-141v1485zM1401 1296v-241q0 -97 -53 -153t-150 -56q-96 0 -149.5 55.5t-53.5 151.5v243q0 94 53 151.5t148 57.5q99 0 152 -56.5t53 -152.5zM1098 1290v-235q0 -115 98 -115q100 0 100 117v237
q0 117 -100 117q-98 0 -98 -121zM1001 684v94h410v-94h-410z" />
    <glyph glyph-name="uni2117" unicode="&#x2117;" horiz-adv-x="1206" 
d="M1116 907v-336q0 -172 -58 -305.5t-175 -212t-279 -78.5q-163 0 -280 78.5t-174.5 212t-57.5 305.5v336q0 173 57.5 306.5t174.5 212.5t280 79q162 0 279 -78.5t175 -212.5t58 -307zM1016 573v332q0 228 -108.5 364t-303.5 136q-196 0 -303.5 -135.5t-107.5 -364.5v-332
q0 -227 107.5 -362t303.5 -135q195 0 303.5 135t108.5 362zM625 1257q133 0 201.5 -78.5t68.5 -230.5q0 -150 -68 -229.5t-198 -79.5h-131v-406h-123v1024h250zM498 1153v-416h125q79 0 115 49.5t36 161.5q0 108 -36 156.5t-115 48.5h-125z" />
    <glyph glyph-name="uni2120" unicode="&#x2120;" horiz-adv-x="1017" 
d="M870 1485h93v-649h-91v430h-4l-129 -324h-45l-129 324h-4v-430h-88v649h90l152 -398h4zM395 1350l-76 -23q-23 90 -92 90q-38 0 -59 -22t-21 -58q0 -27 13.5 -49.5t35.5 -38.5t48.5 -31.5t53 -34t48.5 -40.5t35.5 -56.5t13.5 -76.5q0 -81 -48.5 -132t-123.5 -51
q-141 0 -180 152l72 29q14 -51 43 -76t61 -25q78 0 78 92q0 34 -18.5 61t-46 43.5t-59.5 37t-59.5 42t-46 59t-18.5 85.5q0 75 47 123.5t129 48.5q64 0 108.5 -39t61.5 -110z" />
    <glyph glyph-name="trademark" unicode="&#x2122;" horiz-adv-x="978" 
d="M831 1485h91v-649h-88v430h-5l-131 -324h-43l-129 324h-4v-430h-90v649h90l154 -398h4zM25 1485h346v-88h-125v-561h-99v561h-122v88z" />
    <glyph glyph-name="Omega" unicode="&#x2126;" horiz-adv-x="968" 
d="M483 1505q191 0 290 -104t99 -303v-373q0 -145 -55 -229t-158 -123v-230h211v-143h-329v467q92 22 131 79.5t39 176.5v373q0 266 -228 266q-111 0 -169 -67.5t-58 -198.5v-373q0 -118 39.5 -176t130.5 -80v-467h-328v143h211v230q-104 39 -158.5 122.5t-54.5 229.5v373
q0 199 98 303t289 104z" />
    <glyph glyph-name="estimated" unicode="&#x212e;" horiz-adv-x="1529" 
d="M1450 700h-1188v-200q0 -81 38 -160.5t105 -143t168 -102.5t218 -39q175 0 302.5 65.5t223.5 188.5l72 -53q-210 -281 -605 -281q-152 0 -284 55t-223.5 148.5t-144 220.5t-52.5 269q0 194 86 352.5t243.5 251t356.5 92.5t349.5 -86t233.5 -234t101 -344zM262 864v-73
h1004v73q0 83 -34 158.5t-96.5 134t-158.5 93t-211 34.5q-112 0 -208.5 -37t-160 -97t-99.5 -134.5t-36 -151.5z" />
    <glyph glyph-name="uni2150" unicode="&#x2150;" horiz-adv-x="972" 
d="M236 1487h81v-656h-104v474h-111v69h45q48 0 65.5 21t23.5 92zM215 0h-104l645 1485h104zM723 0h-111l209 565h-266v88h369v-78z" />
    <glyph glyph-name="uni2151" unicode="&#x2151;" horiz-adv-x="972" 
d="M236 1487h81v-656h-104v474h-111v69h45q48 0 65.5 21t23.5 92zM215 0h-104l645 1485h104zM561 121l68 35q28 -80 100 -80q96 0 96 110v113h-4q-37 -37 -106 -37q-73 0 -116.5 47.5t-43.5 145.5q0 103 48 156t140 53q86 0 132.5 -54t46.5 -145v-277q0 -91 -50.5 -143.5
t-136.5 -52.5q-133 0 -174 129zM733 342q33 0 61 16.5t31 42.5v74q0 105 -82 105q-48 0 -70 -27t-22 -92q0 -66 20 -92.5t62 -26.5z" />
    <glyph glyph-name="uni2152" unicode="&#x2152;" horiz-adv-x="1437" 
d="M236 1487h81v-656h-104v474h-111v69h45q48 0 65.5 21t23.5 92zM215 0h-104l645 1485h104zM743 655h82v-655h-104v473h-111v70h45q48 0 65 20.5t23 91.5zM1391 455v-256q0 -98 -48.5 -152.5t-138.5 -54.5t-137 54.5t-47 152.5v254q0 98 47.5 153.5t136.5 55.5
q90 0 138.5 -55t48.5 -152zM1118 453v-254q0 -123 86 -123q88 0 88 123v254q0 118 -88 118q-86 0 -86 -118z" />
    <glyph glyph-name="onethird" unicode="&#x2153;" horiz-adv-x="972" 
d="M236 1487h81v-656h-104v474h-111v69h45q48 0 65.5 21t23.5 92zM215 0h-104l645 1485h104zM676 297v78h43q44 0 66 24.5t22 79.5q0 99 -76 99q-74 0 -98 -93l-76 25q18 70 65.5 111t116.5 41q86 0 128 -47t42 -126q0 -117 -80 -147v-4q91 -22 91 -148q0 -198 -185 -198
q-143 0 -182 139l74 27q27 -84 104 -84q86 0 86 123q0 58 -23 79t-73 21h-45z" />
    <glyph glyph-name="twothirds" unicode="&#x2154;" horiz-adv-x="972" 
d="M238 1493q85 0 127.5 -46t42.5 -120q0 -56 -23 -105t-57.5 -85.5t-69.5 -69.5t-63 -72t-35 -80h252v-84h-355l-2 48q1 49 20.5 95t48 79t61 68.5t60 64.5t46 65t18.5 72q0 86 -80 86q-37 0 -62.5 -26.5t-35.5 -77.5l-78 22q16 75 63 120.5t122 45.5zM215 0h-104l645 1485
h104zM676 297v78h43q44 0 66 24.5t22 79.5q0 99 -76 99q-74 0 -98 -93l-76 25q18 70 65.5 111t116.5 41q86 0 128 -47t42 -126q0 -117 -80 -147v-4q91 -22 91 -148q0 -198 -185 -198q-143 0 -182 139l74 27q27 -84 104 -84q86 0 86 123q0 58 -23 79t-73 21h-45z" />
    <glyph glyph-name="uni2155" unicode="&#x2155;" horiz-adv-x="972" 
d="M236 1487h81v-656h-104v474h-111v69h45q48 0 65.5 21t23.5 92zM215 0h-104l645 1485h104zM635 295l-66 33l25 325h309l-6 -88h-225l-15 -178h5q49 27 100 27q162 0 162 -203q0 -219 -191 -219q-66 0 -112.5 35t-63.5 104l76 27q11 -42 37 -63t59 -21q49 0 70.5 31.5
t21.5 105.5q0 65 -22 92t-74 27q-55 0 -90 -35z" />
    <glyph glyph-name="uni2156" unicode="&#x2156;" horiz-adv-x="972" 
d="M238 1493q85 0 127.5 -46t42.5 -120q0 -56 -23 -105t-57.5 -85.5t-69.5 -69.5t-63 -72t-35 -80h252v-84h-355l-2 48q1 49 20.5 95t48 79t61 68.5t60 64.5t46 65t18.5 72q0 86 -80 86q-37 0 -62.5 -26.5t-35.5 -77.5l-78 22q16 75 63 120.5t122 45.5zM215 0h-104l645 1485
h104zM635 295l-66 33l25 325h309l-6 -88h-225l-15 -178h5q49 27 100 27q162 0 162 -203q0 -219 -191 -219q-66 0 -112.5 35t-63.5 104l76 27q11 -42 37 -63t59 -21q49 0 70.5 31.5t21.5 105.5q0 65 -22 92t-74 27q-55 0 -90 -35z" />
    <glyph glyph-name="uni2157" unicode="&#x2157;" horiz-adv-x="972" 
d="M168 1128v78h43q44 0 66 24.5t22 80.5q0 52 -19 75t-57 23q-75 0 -98 -92l-76 24q18 70 65.5 111t116.5 41q86 0 128 -46.5t42 -125.5q0 -117 -79 -147v-5q90 -21 90 -147q0 -199 -185 -199q-143 0 -182 140l74 26q27 -84 104 -84q86 0 86 123q0 58 -23 79t-73 21h-45z
M215 0h-104l645 1485h104zM635 295l-66 33l25 325h309l-6 -88h-225l-15 -178h5q49 27 100 27q162 0 162 -203q0 -219 -191 -219q-66 0 -112.5 35t-63.5 104l76 27q11 -42 37 -63t59 -21q49 0 70.5 31.5t21.5 105.5q0 65 -22 92t-74 27q-55 0 -90 -35z" />
    <glyph glyph-name="uni2158" unicode="&#x2158;" horiz-adv-x="972" 
d="M379 831h-90v121h-260v68l252 465h98v-453h67l-6 -80h-61v-121zM129 1032h160l8 334h-4zM215 0h-104l645 1485h104zM635 295l-66 33l25 325h309l-6 -88h-225l-15 -178h5q49 27 100 27q162 0 162 -203q0 -219 -191 -219q-66 0 -112.5 35t-63.5 104l76 27q11 -42 37 -63
t59 -21q49 0 70.5 31.5t21.5 105.5q0 65 -22 92t-74 27q-55 0 -90 -35z" />
    <glyph glyph-name="uni2159" unicode="&#x2159;" horiz-adv-x="972" 
d="M236 1487h81v-656h-104v474h-111v69h45q48 0 65.5 21t23.5 92zM215 0h-104l645 1485h104zM750 662q62 0 105 -35.5t60 -102.5l-69 -28q-25 82 -90 82q-99 0 -99 -132v-71h5q40 37 106 37q160 0 160 -195q0 -225 -187 -225q-87 0 -133.5 56t-46.5 161v227q0 101 51 163.5
t138 62.5zM745 330q-33 0 -59 -17t-29 -43v-73q0 -59 23 -89t63 -30q46 0 67 31.5t21 105.5q0 59 -20.5 87t-65.5 28z" />
    <glyph glyph-name="uni215A" unicode="&#x215a;" horiz-adv-x="972" 
d="M127 1126l-66 33l25 326h309l-6 -88h-225l-14 -178h4q47 26 100 26q162 0 162 -203q0 -219 -191 -219q-66 0 -112.5 35.5t-63.5 104.5l76 26q11 -42 37 -63t59 -21q49 0 70.5 31.5t21.5 105.5q0 65 -22 92t-74 27q-55 0 -90 -35zM215 0h-104l645 1485h104zM750 662
q62 0 105 -35.5t60 -102.5l-69 -28q-25 82 -90 82q-99 0 -99 -132v-71h5q40 37 106 37q160 0 160 -195q0 -225 -187 -225q-87 0 -133.5 56t-46.5 161v227q0 101 51 163.5t138 62.5zM745 330q-33 0 -59 -17t-29 -43v-73q0 -59 23 -89t63 -30q46 0 67 31.5t21 105.5
q0 59 -20.5 87t-65.5 28z" />
    <glyph glyph-name="oneeighth" unicode="&#x215b;" horiz-adv-x="972" 
d="M236 1487h81v-656h-104v474h-111v69h45q48 0 65.5 21t23.5 92zM215 0h-104l645 1485h104zM741 -8q-95 0 -142.5 47t-47.5 154q0 122 86 149v4q-72 29 -72 143q0 173 176 173q174 0 174 -173q0 -114 -71 -143v-4q86 -27 86 -149q0 -107 -47.5 -154t-141.5 -47zM831 195
q0 61 -22.5 83.5t-67.5 22.5q-48 0 -70 -22.5t-22 -83.5q0 -69 22 -95t70 -26t69 26t21 95zM741 582q-47 0 -65.5 -21.5t-18.5 -79.5q0 -59 19.5 -81.5t64.5 -22.5q44 0 63 22.5t19 81.5q0 57 -19 79t-63 22z" />
    <glyph glyph-name="threeeighths" unicode="&#x215c;" horiz-adv-x="972" 
d="M168 1128v78h43q44 0 66 24.5t22 80.5q0 52 -19 75t-57 23q-75 0 -98 -92l-76 24q18 70 65.5 111t116.5 41q86 0 128 -46.5t42 -125.5q0 -117 -79 -147v-5q90 -21 90 -147q0 -199 -185 -199q-143 0 -182 140l74 26q27 -84 104 -84q86 0 86 123q0 58 -23 79t-73 21h-45z
M215 0h-104l645 1485h104zM741 -8q-95 0 -142.5 47t-47.5 154q0 122 86 149v4q-72 29 -72 143q0 173 176 173q174 0 174 -173q0 -114 -71 -143v-4q86 -27 86 -149q0 -107 -47.5 -154t-141.5 -47zM831 195q0 61 -22.5 83.5t-67.5 22.5q-48 0 -70 -22.5t-22 -83.5
q0 -69 22 -95t70 -26t69 26t21 95zM741 582q-47 0 -65.5 -21.5t-18.5 -79.5q0 -59 19.5 -81.5t64.5 -22.5q44 0 63 22.5t19 81.5q0 57 -19 79t-63 22z" />
    <glyph glyph-name="fiveeighths" unicode="&#x215d;" horiz-adv-x="972" 
d="M127 1126l-66 33l25 326h309l-6 -88h-225l-14 -178h4q47 26 100 26q162 0 162 -203q0 -219 -191 -219q-66 0 -112.5 35.5t-63.5 104.5l76 26q11 -42 37 -63t59 -21q49 0 70.5 31.5t21.5 105.5q0 65 -22 92t-74 27q-55 0 -90 -35zM215 0h-104l645 1485h104zM741 -8
q-95 0 -142.5 47t-47.5 154q0 122 86 149v4q-72 29 -72 143q0 173 176 173q174 0 174 -173q0 -114 -71 -143v-4q86 -27 86 -149q0 -107 -47.5 -154t-141.5 -47zM831 195q0 61 -22.5 83.5t-67.5 22.5q-48 0 -70 -22.5t-22 -83.5q0 -69 22 -95t70 -26t69 26t21 95zM741 582
q-47 0 -65.5 -21.5t-18.5 -79.5q0 -59 19.5 -81.5t64.5 -22.5q44 0 63 22.5t19 81.5q0 57 -19 79t-63 22z" />
    <glyph glyph-name="seveneighths" unicode="&#x215e;" horiz-adv-x="972" 
d="M215 831h-111l209 566h-266v88h369v-78zM215 0h-104l645 1485h104zM741 -8q-95 0 -142.5 47t-47.5 154q0 122 86 149v4q-72 29 -72 143q0 173 176 173q174 0 174 -173q0 -114 -71 -143v-4q86 -27 86 -149q0 -107 -47.5 -154t-141.5 -47zM831 195q0 61 -22.5 83.5
t-67.5 22.5q-48 0 -70 -22.5t-22 -83.5q0 -69 22 -95t70 -26t69 26t21 95zM741 582q-47 0 -65.5 -21.5t-18.5 -79.5q0 -59 19.5 -81.5t64.5 -22.5q44 0 63 22.5t19 81.5q0 57 -19 79t-63 22z" />
    <glyph glyph-name="uni215F" unicode="&#x215f;" horiz-adv-x="507" 
d="M236 1487h81v-656h-104v474h-111v69h45q48 0 65.5 21t23.5 92zM215 0h-104l645 1485h104z" />
    <glyph glyph-name="uni2189" unicode="&#x2189;" horiz-adv-x="972" 
d="M418 1286v-256q0 -98 -48.5 -152.5t-138.5 -54.5t-137 54.5t-47 152.5v254q0 98 47.5 153.5t136.5 55.5q90 0 138.5 -55t48.5 -152zM145 1284v-254q0 -123 86 -123q88 0 88 123v254q0 119 -88 119q-86 0 -86 -119zM215 0h-104l645 1485h104zM676 297v78h43q44 0 66 24.5
t22 79.5q0 99 -76 99q-74 0 -98 -93l-76 25q18 70 65.5 111t116.5 41q86 0 128 -47t42 -126q0 -117 -80 -147v-4q91 -22 91 -148q0 -198 -185 -198q-143 0 -182 139l74 27q27 -84 104 -84q86 0 86 123q0 58 -23 79t-73 21h-45z" />
    <glyph glyph-name="partialdiff" unicode="&#x2202;" horiz-adv-x="798" 
d="M440 1053q130 0 189 -84h4q4 62 4 75q0 144 -66 232.5t-217 122.5l41 104q195 -35 280 -152.5t85 -312.5q0 -81 -17 -207l-73 -495q-25 -164 -123 -258t-252 -94q-129 0 -195.5 69t-66.5 193q0 36 6 80l57 385q24 158 114.5 250t229.5 92zM522 326l60 381q6 37 6 69
q0 152 -142 152q-170 0 -206 -221l-58 -381q-6 -38 -6 -70q0 -152 139 -152q172 0 207 222z" />
    <glyph glyph-name="Delta" unicode="&#x2206;" horiz-adv-x="972" 
d="M25 0l391 1485h141l389 -1485h-921zM485 1268l-268 -1127h535l-263 1127h-4z" />
    <glyph glyph-name="product" unicode="&#x220f;" horiz-adv-x="995" 
d="M47 1485h901v-148h-110v-1478h-150v1480h-381v-1480h-147v1478h-113v148z" />
    <glyph glyph-name="summation" unicode="&#x2211;" horiz-adv-x="884" 
d="M57 1485h770v-148h-561l330 -632l-332 -699h580v-147h-787v78l375 768l-375 698v82z" />
    <glyph glyph-name="minus" unicode="&#x2212;" horiz-adv-x="782" 
d="M692 578h-604v120h604v-120z" />
    <glyph glyph-name="uni2219" unicode="&#x2219;" horiz-adv-x="782" 
d="M203 637q0 92 54 154.5t134 62.5t134.5 -62.5t54.5 -154.5q0 -89 -55 -151t-134 -62t-133.5 62t-54.5 151z" />
    <glyph glyph-name="radical" unicode="&#x221a;" horiz-adv-x="937" 
d="M928 1534l-379 -1534h-168l-231 893l-140 25v116h275l178 -819h4l289 1319h172z" />
    <glyph glyph-name="infinity" unicode="&#x221e;" horiz-adv-x="985" 
d="M918 586q0 -143 -52.5 -216t-136.5 -73q-67 0 -118 44t-119 144q-69 -102 -118.5 -145t-117.5 -43q-84 0 -135 73t-51 216q0 144 51 216t135 72q68 0 117.5 -43t118.5 -145q68 100 119 144t118 44q84 0 136.5 -72t52.5 -216zM434 586q-72 111 -101 141.5t-65 30.5
q-92 0 -92 -172t92 -172q35 0 63.5 29.5t102.5 142.5zM551 586q35 -54 50.5 -76.5t38.5 -49t40.5 -35.5t38.5 -9q90 0 90 170q0 172 -90 172q-39 0 -71.5 -36t-96.5 -136z" />
    <glyph glyph-name="integral" unicode="&#x222b;" horiz-adv-x="366" 
d="M424 1702l12 -121q-86 -14 -126 -73t-40 -183v-1284q0 -351 -299 -379l-12 121q85 14 125.5 74.5t40.5 183.5v1282q0 354 299 379z" />
    <glyph glyph-name="approxequal" unicode="&#x2248;" horiz-adv-x="782" 
d="M682 831v-118q-76 -45 -156 -45q-54 0 -146 31.5t-140 31.5q-70 0 -140 -45v121q78 45 156 45q56 0 149.5 -33t141.5 -33q72 0 135 45zM682 567v-121q-78 -45 -154 -45q-56 0 -147.5 33t-140.5 33q-70 0 -140 -45v121q74 43 154 43q57 0 151.5 -33t141.5 -33q69 0 135 47
z" />
    <glyph glyph-name="notequal" unicode="&#x2260;" horiz-adv-x="782" 
d="M604 989l-78 -174h156v-121h-209l-61 -141h270v-123h-326l-94 -215l-80 39l78 176h-160v123h213l64 141h-277v121h330l94 213z" />
    <glyph glyph-name="lessequal" unicode="&#x2264;" horiz-adv-x="782" 
d="M651 920l-356 -250l358 -248v-160l-557 400v18l555 405v-165zM104 84v117h549v-117h-549z" />
    <glyph glyph-name="greaterequal" unicode="&#x2265;" horiz-adv-x="782" 
d="M129 422l358 248l-356 250v165l555 -405v-18l-557 -400v160zM678 201v-117h-549v117h549z" />
    <glyph glyph-name="dotmath" unicode="&#x22c5;" horiz-adv-x="782" 
d="M285 657q0 47 30.5 82t73.5 35t75 -35t32 -82t-32 -80.5t-75 -33.5t-73.5 33.5t-30.5 80.5z" />
    <glyph glyph-name="lozenge" unicode="&#x25ca;" horiz-adv-x="714" 
d="M72 741l286 744l287 -744l-287 -741zM195 741l161 -417l162 417l-162 418z" />
    <glyph glyph-name="uni2E18" unicode="&#x2e18;" horiz-adv-x="854" 
d="M688 147l123 -32q-35 -148 -137.5 -239t-253.5 -91q-176 0 -264 98.5t-88 251.5t79.5 280.5t223.5 215.5l8 243h110l11 -368v-586q137 39 188 227zM213 141q0 -203 162 -227v582q-162 -139 -162 -355zM528 1292v-198h-182v198h182z" />
    <glyph glyph-name="uniFB00" unicode="&#xfb00;" horiz-adv-x="980" 
d="M954 1034v-116h-211v-918h-143v918h-317v-918h-144v918h-110v116h110v109q0 156 82.5 249.5t255.5 100.5l8 -113q-109 -6 -157.5 -67t-48.5 -174v-105h321v109q0 156 82.5 249.5t255.5 100.5l8 -113q-109 -6 -158 -67t-49 -174v-105h215z" />
    <glyph glyph-name="fi" unicode="&#xfb01;" horiz-adv-x="860" 
d="M477 1493l8 -113q-109 -6 -157.5 -67t-48.5 -174v-105h462v-1034h-145v918h-313v-918h-144v918h-110v116h110v109q0 156 82.5 249.5t255.5 100.5zM600 1485h135v-215h-135v215z" />
    <glyph glyph-name="fl" unicode="&#xfb02;" horiz-adv-x="874" 
d="M479 1034v-119h-196v-915h-144v915h-110v119h110v109q0 163 89 255.5t278 92.5h96v43h146v-1534h-146v1380h-92q-122 -1 -176.5 -59.5t-54.5 -181.5v-105h200z" />
    <glyph glyph-name="uniFB03" unicode="&#xfb03;" horiz-adv-x="1316" 
d="M934 1493l8 -113q-109 -6 -158 -67t-49 -174v-105h463v-1034h-145v918h-314v-918h-143v918h-313v-918h-144v918h-110v116h110v109q0 156 82.5 249.5t255.5 100.5l8 -113q-109 -6 -157.5 -67t-48.5 -174v-105h317v109q0 156 82.5 249.5t255.5 100.5zM1057 1485h135v-215
h-135v215z" />
    <glyph glyph-name="uniFB04" unicode="&#xfb04;" horiz-adv-x="1331" 
d="M594 1034v109q0 163 90 255.5t279 92.5h94v43h145v-1534h-145v1380h-90q-122 -1 -178 -60t-56 -181v-105h203v-116h-197v-918h-145v918h-311v-918h-144v918h-110v116h110v109q0 156 82.5 249.5t255.5 100.5l8 -113q-109 -6 -157.5 -67t-48.5 -174v-105h315z" />
    <glyph glyph-name="uniFEFF" unicode="&#xfeff;" horiz-adv-x="0" 
 />
    <glyph glyph-name="caron.alt001" 
d="M-217 1485h131l-86 -279h-82z" />
    <glyph glyph-name="ogonek.alt001" horiz-adv-x="438" 
d="M233 27l70 -27q-52 0 -83.5 -43.5t-31.5 -97.5q0 -92 84 -92q56 0 105 36l31 -84q-61 -55 -164 -55q-85 0 -129.5 40.5t-44.5 113.5q0 70 42.5 127.5t120.5 81.5z" />
    <glyph glyph-name="uni030C.alt001" 
d="M-88 1485h164l-119 -299h-104z" />
    <glyph glyph-name="numbersign.subs" horiz-adv-x="479" 
d="M35 162v63h94l14 193h68l-14 -193h104l16 193h68l-14 -193h75v-63h-77l-11 -148h88v-63h-90l-14 -193h-70l15 193h-105l-14 -193h-70l17 193h-80v63h82l10 148h-92zM197 162l-11 -148h105l10 148h-104z" />
    <glyph glyph-name="dollar.subs" horiz-adv-x="438" 
d="M207 516h59l2 -102q99 -27 131 -135l-65 -23q-19 63 -72 80l-14 -207q29 -15 46.5 -25t41.5 -28.5t37 -37t23 -46t10 -60.5q0 -79 -44 -126.5t-120 -53.5l-11 -94h-57l-2 96q-115 19 -145 148l69 26q18 -75 80 -94l12 219q-35 17 -57.5 31t-47.5 37t-37.5 55t-12.5 72
q0 72 44.5 119t119.5 51zM324 -82q0 35 -20.5 59.5t-59.5 47.5l-2 -197q82 10 82 90zM119 256q0 -33 18.5 -55t55.5 -43l4 182q-78 -9 -78 -84z" />
    <glyph glyph-name="comma.subs" horiz-adv-x="247" 
d="M63 -240v134h119v-105q0 -97 -26 -145.5t-88 -55.5l-7 54q32 8 46 34.5t14 83.5h-58z" />
    <glyph glyph-name="period.subs" horiz-adv-x="247" 
d="M63 -242v136h119v-136h-119z" />
    <glyph glyph-name="n.subs" horiz-adv-x="475" 
d="M70 -242v512h84l4 -47h4q48 58 117 58q68 0 101.5 -44t33.5 -118v-361h-95v357q0 84 -67 84q-58 0 -86 -54v-387h-96z" />
    <glyph glyph-name="cent.subs" horiz-adv-x="428" 
d="M408 274l-70 -22q-13 46 -36.5 66t-59.5 20q-97 0 -97 -129v-250q0 -135 95 -135q75 0 98 98l72 -24q-36 -127 -140 -144l-10 -96h-61l-2 96q-74 10 -112 65t-38 140v254q0 84 39.5 139.5t114.5 65.5l14 98h61l3 -102q93 -24 129 -140z" />
    <glyph glyph-name="sterling.subs" horiz-adv-x="495" 
d="M45 55l-10 68h59q-10 65 -10 102q0 95 47 150t135 55q69 0 117 -38t63 -101l-73 -29q-22 82 -101 82q-94 0 -94 -129q0 -22 8 -92h193l-8 -68h-176q8 -57 12 -106q27 -12 53.5 -40.5t48.5 -49.5t45 -21q25 0 40 22.5t22 78.5l73 -21q-12 -88 -43.5 -128t-85.5 -40
q-27 0 -52.5 14t-39 27.5t-37 43.5t-30.5 38q-11 -123 -109 -123q-38 0 -60 23t-22 65q0 48 30 79.5t85 37.5q-1 5 -8 40.5t-11 59.5h-61zM100 -184q33 0 33 86q-51 -5 -51 -60q0 -26 18 -26z" />
    <glyph glyph-name="currency.subs" horiz-adv-x="348" 
d="M66 102q0 33 16 62l-39 41l35 39l39 -43q26 16 57 16q33 0 57 -18l43 47l35 -39l-41 -45q17 -27 17 -60q0 -32 -17 -63l39 -41l-35 -39l-41 43q-26 -16 -57 -16t-57 16l-41 -45l-35 39l39 43q-14 25 -14 63zM123 100q0 -25 15 -40t38 -15q22 0 36.5 15.5t14.5 39.5
q0 26 -14.5 42t-36.5 16q-23 0 -38 -16t-15 -42z" />
    <glyph glyph-name="yen.subs" horiz-adv-x="522" 
d="M426 -106h-109v-136h-104v136h-115v65h115v39h-115v65h95l-170 355h118l121 -314h4l123 314h119l-172 -355h90v-65h-109v-39h109v-65z" />
    <glyph glyph-name="franc.subs" horiz-adv-x="452" 
d="M4 -147v65h62v500h358v-90h-254v-195h217v-84h-217v-131h88v-65h-88v-95h-104v95h-62z" />
    <glyph glyph-name="lira.subs" horiz-adv-x="495" 
d="M45 90l-8 55h53q-6 43 -6 80q0 95 47 150t135 55q69 0 117 -38t63 -101l-73 -29q-22 82 -101 82q-94 0 -94 -129q0 -24 4 -70h203l-8 -55h-189l5 -29h178l-9 -51h-161q1 -12 3.5 -36.5t2.5 -34.5q27 -11 53.5 -37t48.5 -45t45 -19q25 0 40 22.5t22 78.5l73 -21
q-12 -88 -43.5 -128t-85.5 -40q-28 0 -53.5 13.5t-39 27t-36 41.5t-30.5 37q-11 -119 -109 -119q-37 0 -59.5 22t-22.5 60q0 49 30.5 78.5t86.5 34.5l-12 65h-56l-8 51h53l-6 29h-53zM100 -188q16 0 24 18.5t9 67.5q-53 -5 -53 -60q0 -26 20 -26z" />
    <glyph glyph-name="peseta.subs" horiz-adv-x="833" 
d="M182 418q70 0 108 -50.5t38 -150.5q0 -96 -37 -148.5t-105 -52.5h-55v-258h-86v660h137zM815 123l-55 -19q-11 58 -53 58q-39 0 -39 -56q0 -22 15 -40.5t37 -34t43.5 -34t36.5 -49.5t15 -71q0 -59 -29 -93t-81 -34q-99 0 -119 117l55 18q9 -40 23 -56.5t36 -16.5
q43 0 43 61q0 27 -15.5 48t-37.5 37t-44.5 34t-38 46.5t-15.5 65.5q0 57 29.5 92t80.5 35q44 0 73 -28.5t40 -79.5zM555 221v-67h-76v-293q0 -43 39 -43q16 0 31 6l10 -53q-28 -21 -67 -21q-91 0 -91 113v287l-43 14v57l48 2l18 125h55v-127h76zM131 344v-258h51
q60 0 60 131q0 70 -14.5 98.5t-45.5 28.5h-51z" />
    <glyph glyph-name="Euro.subs" horiz-adv-x="489" 
d="M264 428q70 0 120.5 -39.5t68.5 -101.5l-78 -31q-23 82 -103 82q-104 0 -104 -129v-37h209l-12 -53h-197v-39h188l-12 -53h-176v-66q0 -59 26.5 -93t77.5 -34q42 0 66.5 20.5t36.5 67.5l78 -26q-34 -146 -189 -146q-93 0 -148 57.5t-55 153.5v66h-47v53h47v39h-47v53h47
v37q0 102 54.5 160.5t148.5 58.5z" />
    <glyph glyph-name="numbersign.sups" horiz-adv-x="479" 
d="M35 1378v64h94l14 192h68l-14 -192h104l16 192h68l-14 -192h75v-64h-77l-11 -147h88v-64h-90l-14 -192h-70l15 192h-105l-14 -192h-70l17 192h-80v64h82l10 147h-92zM197 1378l-11 -147h105l10 147h-104z" />
    <glyph glyph-name="dollar.sups" horiz-adv-x="438" 
d="M207 1733h59l2 -103q99 -27 131 -135l-65 -22q-19 62 -72 79l-14 -206q29 -15 46.5 -25t41.5 -28.5t37 -37t23 -46t10 -60.5q0 -79 -44 -126.5t-120 -53.5l-11 -95h-57l-2 97q-115 19 -145 147l69 27q18 -75 80 -94l12 219q-28 14 -46 24t-41 27.5t-36 36t-22.5 46
t-9.5 60.5q0 72 44.5 119t119.5 51zM324 1135q0 35 -20.5 58.5t-59.5 47.5l-2 -197q39 5 60.5 28.5t21.5 62.5zM119 1473q0 -33 19 -55.5t55 -43.5l4 182q-78 -9 -78 -83z" />
    <glyph glyph-name="comma.sups" horiz-adv-x="247" 
d="M63 977v133h119v-104q0 -97 -26 -145.5t-88 -55.5l-7 53q32 8 46 35t14 84h-58z" />
    <glyph glyph-name="period.sups" horiz-adv-x="247" 
d="M63 975v135h119v-135h-119z" />
    <glyph glyph-name="cent.sups" horiz-adv-x="428" 
d="M408 1491l-70 -23q-13 46 -36.5 66t-59.5 20q-97 0 -97 -129v-249q0 -136 95 -136q75 0 98 99l72 -25q-36 -126 -140 -143l-10 -97h-61l-2 97q-74 10 -112 65t-38 140v254q0 84 39.5 139t114.5 65l14 99h61l3 -103q93 -24 129 -139z" />
    <glyph glyph-name="sterling.sups" horiz-adv-x="495" 
d="M45 1272l-10 67h59q-10 65 -10 103q0 95 47 150t135 55q69 0 117 -38.5t63 -101.5l-73 -28q-22 82 -101 82q-94 0 -94 -129q0 -23 8 -93h193l-8 -67h-176q8 -56 12 -107q27 -12 53.5 -40t48.5 -49t45 -21q26 0 40.5 22.5t21.5 77.5l73 -20q-12 -88 -43.5 -128t-85.5 -40
q-27 0 -52.5 14t-39 27.5t-37 43.5t-30.5 38q-11 -123 -109 -123q-38 0 -60 23t-22 65q0 48 30 79t85 37q-1 4 -8 40.5t-11 60.5h-61zM100 1032q33 0 33 86q-51 -5 -51 -59q0 -27 18 -27z" />
    <glyph glyph-name="currency.sups" horiz-adv-x="348" 
d="M66 1319q0 32 16 61l-39 41l35 39l39 -43q27 17 57 17q32 0 57 -19l43 47l35 -39l-41 -45q17 -27 17 -59q0 -33 -17 -64l39 -41l-35 -38l-41 43q-27 -17 -57 -17t-57 17l-41 -45l-35 38l39 43q-14 25 -14 64zM123 1317q0 -25 15 -40t38 -15q22 0 36.5 15.5t14.5 39.5
q0 26 -14.5 41.5t-36.5 15.5q-24 0 -38.5 -15.5t-14.5 -41.5z" />
    <glyph glyph-name="yen.sups" horiz-adv-x="522" 
d="M426 1110h-109v-135h-104v135h-115v66h115v38h-115v66h95l-170 354h118l121 -313h4l123 313h119l-172 -354h90v-66h-109v-38h109v-66z" />
    <glyph glyph-name="franc.sups" horiz-adv-x="452" 
d="M4 1069v66h62v499h358v-90h-254v-194h217v-84h-217v-131h88v-66h-88v-94h-104v94h-62z" />
    <glyph glyph-name="lira.sups" horiz-adv-x="495" 
d="M45 1307l-8 55h53q-6 43 -6 80q0 95 47 150t135 55q69 0 117 -38.5t63 -101.5l-73 -28q-22 82 -101 82q-94 0 -94 -129q0 -24 4 -70h203l-8 -55h-189l5 -29h178l-9 -51h-161q1 -11 3.5 -36.5t2.5 -35.5q27 -11 53.5 -37t48.5 -44.5t45 -18.5q26 0 40.5 22.5t21.5 77.5
l73 -20q-12 -88 -43.5 -128t-85.5 -40q-28 0 -53.5 13.5t-39 26.5t-36 41t-30.5 37q-11 -118 -109 -118q-37 0 -59.5 22t-22.5 60q0 49 30.5 78t86.5 34l-12 66h-56l-8 51h53l-6 29h-53zM100 1028q16 0 24 18.5t9 67.5q-53 -5 -53 -59q0 -27 20 -27z" />
    <glyph glyph-name="peseta.sups" horiz-adv-x="833" 
d="M182 1634q70 0 108 -50t38 -150q0 -96 -37 -148.5t-105 -52.5h-55v-258h-86v659h137zM815 1339l-55 -18q-11 57 -53 57q-39 0 -39 -55q0 -22 15 -40.5t37 -34t43.5 -34t36.5 -49.5t15 -71q0 -59 -29 -93t-81 -34q-99 0 -119 116l55 19q9 -40 23 -57t36 -17q43 0 43 62
q0 27 -15.5 48t-37.5 37t-44.5 34t-38 46.5t-15.5 65.5q0 57 29.5 92t80.5 35q44 0 73 -28.5t40 -80.5zM555 1438v-68h-76v-293q0 -43 39 -43q16 0 31 6l10 -53q-27 -20 -67 -20q-91 0 -91 112v287l-43 14v58l48 2l18 125h55v-127h76zM131 1561v-258h51q60 0 60 131
q0 70 -14.5 98.5t-45.5 28.5h-51z" />
    <glyph glyph-name="Euro.sups" horiz-adv-x="489" 
d="M264 1645q70 0 120.5 -40t68.5 -102l-78 -30q-22 81 -103 81q-104 0 -104 -129v-36h209l-12 -54h-197v-39h188l-12 -53h-176v-65q0 -59 26.5 -93t77.5 -34q42 0 66.5 20.5t36.5 67.5l78 -27q-33 -145 -189 -145q-93 0 -148 57.5t-55 153.5v65h-47v53h47v39h-47v54h47v36
q0 102 54.5 161t148.5 59z" />
    <glyph glyph-name="numbersign.numr" horiz-adv-x="479" 
d="M35 1235v63h94l14 193h68l-14 -193h104l16 193h68l-14 -193h75v-63h-77l-11 -148h88v-63h-90l-14 -193h-70l15 193h-105l-14 -193h-70l17 193h-80v63h82l10 148h-92zM197 1235l-11 -148h105l10 148h-104z" />
    <glyph glyph-name="dollar.numr" horiz-adv-x="438" 
d="M207 1589h59l2 -102q99 -27 131 -135l-65 -23q-19 63 -72 80l-14 -207q37 -19 58 -32t48 -37t39.5 -55.5t12.5 -71.5q0 -79 -44 -127t-120 -54l-11 -94h-57l-2 96q-115 19 -145 148l69 26q18 -75 80 -94l12 219q-35 17 -57.5 31t-47.5 37t-37.5 55t-12.5 72
q0 72 44.5 119t119.5 51zM324 991q0 35 -20.5 59.5t-59.5 47.5l-2 -197q82 10 82 90zM119 1329q0 -33 18.5 -55t55.5 -43l4 182q-78 -9 -78 -84z" />
    <glyph glyph-name="parenleft.numr" horiz-adv-x="249" 
d="M59 1004v290q0 153 43.5 221t137.5 68h22v-65h-22q-101 0 -101 -224v-290q0 -224 101 -224h22v-65h-22q-94 0 -137.5 68t-43.5 221z" />
    <glyph glyph-name="parenright.numr" horiz-adv-x="249" 
d="M190 1294v-290q0 -153 -43.5 -221t-136.5 -68h-22v65h22q101 0 101 224v290q0 224 -101 224h-22v65h22q93 0 136.5 -68t43.5 -221z" />
    <glyph glyph-name="plus.numr" horiz-adv-x="407" 
d="M168 952v158h-117v72h117v155h70v-155h118v-72h-118v-158h-70z" />
    <glyph glyph-name="comma.numr" horiz-adv-x="247" 
d="M63 834v133h119v-105q0 -97 -26 -145t-88 -55l-7 53q32 8 46 35t14 84h-58z" />
    <glyph glyph-name="period.numr" horiz-adv-x="247" 
d="M63 831v136h119v-136h-119z" />
    <glyph glyph-name="zero.numr" horiz-adv-x="464" 
d="M418 1286v-256q0 -98 -48.5 -152.5t-138.5 -54.5t-137 54.5t-47 152.5v254q0 98 47.5 153.5t136.5 55.5q90 0 138.5 -55t48.5 -152zM145 1284v-254q0 -123 86 -123q88 0 88 123v254q0 119 -88 119q-86 0 -86 -119z" />
    <glyph glyph-name="one.numr" horiz-adv-x="464" 
d="M236 1487h81v-656h-104v474h-111v69h45q48 0 65.5 21t23.5 92z" />
    <glyph glyph-name="two.numr" horiz-adv-x="464" 
d="M238 1493q85 0 127.5 -46t42.5 -120q0 -56 -23 -105t-57.5 -85.5t-69.5 -69.5t-63 -72t-35 -80h252v-84h-355l-2 48q1 49 20.5 95t48 79t61 68.5t60 64.5t46 65t18.5 72q0 86 -80 86q-37 0 -62.5 -26.5t-35.5 -77.5l-78 22q16 75 63 120.5t122 45.5z" />
    <glyph glyph-name="three.numr" horiz-adv-x="464" 
d="M168 1128v78h43q44 0 66 24.5t22 80.5q0 52 -19 75t-57 23q-75 0 -98 -92l-76 24q18 70 65.5 111t116.5 41q86 0 128 -46.5t42 -125.5q0 -117 -79 -147v-5q90 -21 90 -147q0 -199 -185 -199q-143 0 -182 140l74 26q27 -84 104 -84q86 0 86 123q0 58 -23 79t-73 21h-45z
" />
    <glyph glyph-name="four.numr" horiz-adv-x="464" 
d="M379 831h-90v121h-260v68l252 465h98v-453h67l-6 -80h-61v-121zM129 1032h160l8 334h-4z" />
    <glyph glyph-name="five.numr" horiz-adv-x="464" 
d="M127 1126l-66 33l25 326h309l-6 -88h-225l-14 -178h4q47 26 100 26q162 0 162 -203q0 -219 -191 -219q-66 0 -112.5 35.5t-63.5 104.5l76 26q11 -42 37 -63t59 -21q49 0 70.5 31.5t21.5 105.5q0 65 -22 92t-74 27q-55 0 -90 -35z" />
    <glyph glyph-name="six.numr" horiz-adv-x="464" 
d="M242 1493q62 0 105.5 -35t60.5 -102l-70 -29q-25 82 -90 82q-98 0 -98 -131v-72h4q40 37 106 37q160 0 160 -194q0 -226 -187 -226q-87 0 -133.5 56t-46.5 161v228q0 101 51 163t138 62zM238 1161q-33 0 -59 -16.5t-29 -42.5v-74q0 -59 23 -89t63 -30q46 0 67 32t21 106
q0 59 -20.5 86.5t-65.5 27.5z" />
    <glyph glyph-name="seven.numr" horiz-adv-x="464" 
d="M215 831h-111l209 566h-266v88h369v-78z" />
    <glyph glyph-name="eight.numr" horiz-adv-x="464" 
d="M233 823q-95 0 -142.5 47t-47.5 154q0 123 86 150v4q-72 29 -72 143q0 172 176 172q175 0 175 -172q0 -114 -72 -143v-4q86 -27 86 -150q0 -107 -47.5 -154t-141.5 -47zM324 1026q0 61 -23 84t-68 23q-47 0 -69.5 -23t-22.5 -84q0 -69 22 -95t70 -26t69.5 26t21.5 95z
M233 1413q-47 0 -65 -21t-18 -79q0 -59 19 -82t64 -23q44 0 63 23t19 82q0 57 -19 78.5t-63 21.5z" />
    <glyph glyph-name="nine.numr" horiz-adv-x="464" 
d="M53 952l68 35q28 -80 100 -80q96 0 96 111v112h-4q-36 -36 -106 -36q-73 0 -116.5 47t-43.5 145q0 103 48.5 156t140.5 53q86 0 132 -54t46 -145v-276q0 -92 -51 -144.5t-136 -52.5q-133 0 -174 129zM225 1174q33 0 61 16.5t31 42.5v74q0 104 -81 104q-48 0 -70.5 -27
t-22.5 -92q0 -66 20 -92t62 -26z" />
    <glyph glyph-name="equal.numr" horiz-adv-x="407" 
d="M342 1169h-283v72h283v-72zM342 1036h-283v72h283v-72z" />
    <glyph glyph-name="n.numr" horiz-adv-x="475" 
d="M70 831v512h84l4 -47h4q48 58 117 58q68 0 101.5 -44t33.5 -118v-361h-95v357q0 84 -67 84q-59 0 -86 -53v-388h-96z" />
    <glyph glyph-name="cent.numr" horiz-adv-x="428" 
d="M408 1348l-70 -23q-13 46 -36.5 66t-59.5 20q-97 0 -97 -129v-250q0 -135 95 -135q75 0 98 98l72 -24q-36 -127 -140 -144l-10 -96h-61l-2 96q-74 10 -112 65t-38 140v254q0 84 39.5 139.5t114.5 65.5l14 98h61l3 -102q93 -24 129 -139z" />
    <glyph glyph-name="sterling.numr" horiz-adv-x="495" 
d="M45 1128l-10 68h59q-10 65 -10 102q0 95 47 150t135 55q69 0 117 -38t63 -101l-73 -29q-22 82 -101 82q-94 0 -94 -129q0 -22 8 -92h193l-8 -68h-176q8 -57 12 -106q27 -12 53.5 -40.5t48.5 -49.5t45 -21q25 0 40 22.5t22 78.5l73 -21q-12 -88 -43.5 -128t-85.5 -40
q-27 0 -52.5 14t-39 27.5t-37 43.5t-30.5 38q-11 -123 -109 -123q-38 0 -60 23t-22 65q0 48 30 79.5t85 37.5q-1 5 -8 40.5t-11 59.5h-61zM100 889q33 0 33 86q-51 -5 -51 -60q0 -26 18 -26z" />
    <glyph glyph-name="currency.numr" horiz-adv-x="348" 
d="M66 1176q0 32 16 61l-39 41l35 39l39 -43q26 16 57 16q33 0 57 -18l43 47l35 -39l-41 -45q17 -27 17 -59q0 -33 -17 -64l39 -41l-35 -39l-41 43q-26 -16 -57 -16t-57 16l-41 -45l-35 39l39 43q-14 25 -14 64zM123 1174q0 -25 15 -40.5t38 -15.5q22 0 36.5 15.5t14.5 40.5
q0 26 -14.5 41.5t-36.5 15.5q-24 0 -38.5 -15.5t-14.5 -41.5z" />
    <glyph glyph-name="yen.numr" horiz-adv-x="522" 
d="M426 967h-109v-136h-104v136h-115v65h115v39h-115v66h95l-170 354h118l121 -313h4l123 313h119l-172 -354h90v-66h-109v-39h109v-65z" />
    <glyph glyph-name="franc.numr" horiz-adv-x="452" 
d="M4 926v65h62v500h358v-90h-254v-195h217v-84h-217v-131h88v-65h-88v-95h-104v95h-62z" />
    <glyph glyph-name="lira.numr" horiz-adv-x="495" 
d="M45 1163l-8 56h53q-6 44 -6 79q0 95 47 150t135 55q69 0 117 -38t63 -101l-73 -29q-22 82 -101 82q-94 0 -94 -129q0 -23 4 -69h203l-8 -56h-189l5 -28h178l-9 -52h-161q1 -12 3.5 -36.5t2.5 -34.5q27 -11 53.5 -37t48.5 -45t45 -19q25 0 40 22.5t22 78.5l73 -21
q-12 -88 -43.5 -128t-85.5 -40q-28 0 -53.5 13.5t-39 27t-36 41.5t-30.5 37q-11 -119 -109 -119q-37 0 -59.5 22t-22.5 60q0 49 30.5 78.5t86.5 34.5l-12 65h-56l-8 52h53l-6 28h-53zM100 885q16 0 24 18.5t9 67.5q-53 -5 -53 -60q0 -26 20 -26z" />
    <glyph glyph-name="peseta.numr" horiz-adv-x="833" 
d="M182 1491q70 0 108 -50.5t38 -150.5q0 -96 -37 -148t-105 -52h-55v-259h-86v660h137zM815 1196l-55 -18q-11 57 -53 57q-39 0 -39 -55q0 -22 15 -41t37 -34.5t43.5 -34t36.5 -49.5t15 -71q0 -59 -29 -93t-81 -34q-99 0 -119 117l55 18q9 -40 23 -56.5t36 -16.5
q43 0 43 61q0 27 -15.5 48.5t-37.5 37.5t-44.5 33.5t-38 46.5t-15.5 66q0 57 29.5 92t80.5 35q44 0 73 -28.5t40 -80.5zM555 1294v-67h-76v-293q0 -43 39 -43q16 0 31 6l10 -53q-28 -21 -67 -21q-91 0 -91 113v287l-43 14v57l48 2l18 125h55v-127h76zM131 1417v-258h51
q60 0 60 131q0 70 -14.5 98.5t-45.5 28.5h-51z" />
    <glyph glyph-name="Euro.numr" horiz-adv-x="489" 
d="M264 1501q70 0 120.5 -39.5t68.5 -101.5l-78 -31q-23 82 -103 82q-104 0 -104 -129v-37h209l-12 -53h-197v-39h188l-12 -53h-176v-66q0 -59 26.5 -93t77.5 -34q42 0 66.5 20.5t36.5 67.5l78 -26q-34 -146 -189 -146q-93 0 -148 57.5t-55 153.5v66h-47v53h47v39h-47v53h47
v37q0 102 54.5 160.5t148.5 58.5z" />
    <glyph glyph-name="minus.numr" horiz-adv-x="407" 
d="M356 1110h-305v72h305v-72z" />
    <glyph glyph-name="numbersign.dnom" horiz-adv-x="479" 
d="M35 403v64h94l14 192h68l-14 -192h104l16 192h68l-14 -192h75v-64h-77l-11 -147h88v-63h-90l-14 -193h-70l15 193h-105l-14 -193h-70l17 193h-80v63h82l10 147h-92zM197 403l-11 -147h105l10 147h-104z" />
    <glyph glyph-name="dollar.dnom" horiz-adv-x="438" 
d="M207 758h59l2 -103q99 -27 131 -135l-65 -22q-19 63 -72 80l-14 -207q29 -15 46.5 -25t41.5 -28.5t37 -37t23 -46t10 -60.5q0 -79 -44 -126.5t-120 -53.5l-11 -94h-57l-2 96q-115 19 -145 147l69 27q18 -75 80 -94l12 219q-28 14 -46 24t-41 27.5t-36 36t-22.5 46
t-9.5 60.5q0 72 44.5 119t119.5 51zM324 160q0 35 -20.5 58.5t-59.5 47.5l-2 -196q82 10 82 90zM119 498q0 -33 19 -55.5t55 -43.5l4 183q-78 -9 -78 -84z" />
    <glyph glyph-name="parenleft.dnom" horiz-adv-x="249" 
d="M59 172v291q0 153 43.5 221t137.5 68h22v-66h-22q-101 0 -101 -223v-291q0 -223 101 -223h22v-66h-22q-94 0 -137.5 68t-43.5 221z" />
    <glyph glyph-name="parenright.dnom" horiz-adv-x="249" 
d="M190 463v-291q0 -153 -43.5 -221t-136.5 -68h-22v66h22q101 0 101 223v291q0 223 -101 223h-22v66h22q93 0 136.5 -68t43.5 -221z" />
    <glyph glyph-name="plus.dnom" horiz-adv-x="407" 
d="M168 121v158h-117v71h117v156h70v-156h118v-71h-118v-158h-70z" />
    <glyph glyph-name="comma.dnom" horiz-adv-x="247" 
d="M63 2v133h119v-104q0 -97 -26 -145.5t-88 -55.5l-7 53q32 8 46 35t14 84h-58z" />
    <glyph glyph-name="period.dnom" horiz-adv-x="247" 
d="M63 0v135h119v-135h-119z" />
    <glyph glyph-name="zero.dnom" horiz-adv-x="464" 
d="M418 455v-256q0 -98 -48.5 -152.5t-138.5 -54.5t-137 54.5t-47 152.5v254q0 98 47.5 153.5t136.5 55.5q90 0 138.5 -55t48.5 -152zM145 453v-254q0 -123 86 -123q88 0 88 123v254q0 118 -88 118q-86 0 -86 -118z" />
    <glyph glyph-name="one.dnom" horiz-adv-x="464" 
d="M211 655h82v-655h-105v473h-110v70h45q48 0 65 20.5t23 91.5z" />
    <glyph glyph-name="two.dnom" horiz-adv-x="464" 
d="M238 662q85 0 127.5 -46t42.5 -120q0 -56 -23 -105t-57.5 -85.5t-69.5 -69.5t-63 -72t-35 -80h252v-84h-355l-2 47q2 58 28.5 111t63.5 92.5t74 77t62.5 80t25.5 84.5q0 86 -80 86q-76 0 -98 -105l-78 23q16 75 63 120.5t122 45.5z" />
    <glyph glyph-name="three.dnom" horiz-adv-x="464" 
d="M168 297v78h43q44 0 66 24.5t22 79.5q0 99 -76 99q-74 0 -98 -93l-76 25q18 70 65.5 111t116.5 41q86 0 128 -47t42 -126q0 -117 -79 -147v-4q90 -21 90 -148q0 -198 -185 -198q-143 0 -182 139l74 27q27 -84 104 -84q86 0 86 123q0 58 -23 79t-73 21h-45z" />
    <glyph glyph-name="four.dnom" horiz-adv-x="464" 
d="M379 0h-90v121h-260v67l252 465h98v-452h67l-6 -80h-61v-121zM129 201h160l8 334h-4z" />
    <glyph glyph-name="five.dnom" horiz-adv-x="464" 
d="M127 295l-66 33l25 325h309l-6 -88h-225l-14 -178h4q49 27 100 27q162 0 162 -203q0 -219 -191 -219q-66 0 -112.5 35t-63.5 104l76 27q11 -42 37 -63t59 -21q49 0 70.5 31.5t21.5 105.5q0 65 -22 92t-74 27q-55 0 -90 -35z" />
    <glyph glyph-name="six.dnom" horiz-adv-x="464" 
d="M242 662q62 0 105.5 -35.5t60.5 -102.5l-70 -28q-25 82 -90 82q-98 0 -98 -132v-71h4q40 37 106 37q160 0 160 -195q0 -225 -187 -225q-87 0 -133.5 56t-46.5 161v227q0 101 51 163.5t138 62.5zM238 330q-33 0 -59 -17t-29 -43v-73q0 -59 23 -89t63 -30q46 0 67 31.5
t21 105.5q0 59 -20.5 87t-65.5 28z" />
    <glyph glyph-name="seven.dnom" horiz-adv-x="464" 
d="M215 0h-111l209 565h-266v88h369v-78z" />
    <glyph glyph-name="eight.dnom" horiz-adv-x="464" 
d="M233 -8q-95 0 -142.5 47t-47.5 154q0 122 86 149v4q-72 29 -72 143q0 173 176 173q175 0 175 -173q0 -114 -72 -143v-4q86 -27 86 -149q0 -107 -47.5 -154t-141.5 -47zM324 195q0 61 -23 83.5t-68 22.5q-48 0 -70 -22.5t-22 -83.5q0 -69 22 -95t70 -26t69.5 26t21.5 95z
M233 582q-46 0 -64.5 -21.5t-18.5 -79.5q0 -59 19 -81.5t64 -22.5q44 0 63 22.5t19 81.5q0 57 -19 79t-63 22z" />
    <glyph glyph-name="nine.dnom" horiz-adv-x="464" 
d="M53 121l68 35q28 -80 100 -80q96 0 96 110v113h-4q-37 -37 -106 -37q-73 0 -116.5 47.5t-43.5 145.5q0 103 48.5 156t140.5 53q86 0 132 -54t46 -145v-277q0 -91 -50.5 -143.5t-136.5 -52.5q-133 0 -174 129zM225 342q33 0 61 16.5t31 42.5v74q0 105 -81 105
q-48 0 -70.5 -27t-22.5 -92q0 -66 20 -92.5t62 -26.5z" />
    <glyph glyph-name="equal.dnom" horiz-adv-x="407" 
d="M342 338h-283v72h283v-72zM342 205h-283v71h283v-71z" />
    <glyph glyph-name="n.dnom" horiz-adv-x="475" 
d="M70 0v512h84l4 -47h4q47 57 117 57q68 0 101.5 -44t33.5 -118v-360h-95v356q0 84 -67 84q-59 0 -86 -53v-387h-96z" />
    <glyph glyph-name="cent.dnom" horiz-adv-x="428" 
d="M408 516l-70 -22q-13 46 -36.5 66t-59.5 20q-97 0 -97 -129v-250q0 -135 95 -135q75 0 98 98l72 -25q-36 -126 -140 -143l-10 -96h-61l-2 96q-74 10 -112 65t-38 140v254q0 84 39.5 139t114.5 65l14 99h61l3 -103q93 -24 129 -139z" />
    <glyph glyph-name="sterling.dnom" horiz-adv-x="495" 
d="M45 297l-10 68h59q-10 65 -10 102q0 95 47 150t135 55q69 0 117 -38.5t63 -101.5l-73 -28q-22 82 -101 82q-94 0 -94 -129q0 -22 8 -92h193l-8 -68h-176q8 -56 12 -107q27 -12 53.5 -40t48.5 -49t45 -21q26 0 40.5 22.5t21.5 77.5l73 -20q-12 -88 -43.5 -128t-85.5 -40
q-27 0 -52.5 14t-39 27.5t-37 43.5t-30.5 38q-11 -123 -109 -123q-38 0 -60 23t-22 65q0 48 30 79.5t85 37.5q-1 5 -8 40.5t-11 59.5h-61zM100 57q33 0 33 86q-51 -5 -51 -59q0 -27 18 -27z" />
    <glyph glyph-name="currency.dnom" horiz-adv-x="348" 
d="M66 344q0 33 16 62l-39 40l35 39l39 -43q27 17 57 17q32 0 57 -19l43 47l35 -38l-41 -46q17 -27 17 -59t-17 -63l39 -41l-35 -39l-41 43q-27 -17 -57 -17t-57 17l-41 -45l-35 39l39 43q-14 25 -14 63zM123 342q0 -25 15 -40t38 -15q22 0 36.5 15.5t14.5 39.5
q0 26 -14.5 41.5t-36.5 15.5q-24 0 -38.5 -15.5t-14.5 -41.5z" />
    <glyph glyph-name="yen.dnom" horiz-adv-x="522" 
d="M426 135h-109v-135h-104v135h-115v66h115v39h-115v65h95l-170 354h118l121 -313h4l123 313h119l-172 -354h90v-65h-109v-39h109v-66z" />
    <glyph glyph-name="franc.dnom" horiz-adv-x="452" 
d="M4 94v66h62v499h358v-90h-254v-194h217v-84h-217v-131h88v-66h-88v-94h-104v94h-62z" />
    <glyph glyph-name="lira.dnom" horiz-adv-x="495" 
d="M45 332l-8 55h53q-6 43 -6 80q0 95 47 150t135 55q69 0 117 -38.5t63 -101.5l-73 -28q-22 82 -101 82q-94 0 -94 -129q0 -24 4 -70h203l-8 -55h-189l5 -29h178l-9 -51h-161q1 -11 3.5 -36.5t2.5 -35.5q27 -11 53.5 -37t48.5 -44.5t45 -18.5q26 0 40.5 22.5t21.5 77.5
l73 -20q-12 -88 -43.5 -128t-85.5 -40q-28 0 -53.5 13.5t-39 27t-36 41.5t-30.5 37q-11 -119 -109 -119q-37 0 -59.5 22t-22.5 60q0 49 30.5 78t86.5 34l-12 66h-56l-8 51h53l-6 29h-53zM100 53q16 0 24 18.5t9 67.5q-53 -5 -53 -59q0 -27 20 -27z" />
    <glyph glyph-name="peseta.dnom" horiz-adv-x="833" 
d="M182 659q70 0 108 -50t38 -150q0 -96 -37 -148.5t-105 -52.5h-55v-258h-86v659h137zM815 365l-55 -19q-11 57 -53 57q-39 0 -39 -55q0 -22 15 -40.5t37 -34t43.5 -34t36.5 -49.5t15 -71q0 -59 -29 -93t-81 -34q-99 0 -119 117l55 18q9 -40 23 -57t36 -17q43 0 43 62
q0 27 -15.5 48t-37.5 37t-44.5 34t-38 46.5t-15.5 65.5q0 57 29.5 92t80.5 35q44 0 73 -28.5t40 -79.5zM555 463v-68h-76v-293q0 -43 39 -43q14 0 31 7l10 -54q-27 -20 -67 -20q-91 0 -91 112v287l-43 15v57l48 2l18 125h55v-127h76zM131 586v-258h51q60 0 60 131
q0 70 -14.5 98.5t-45.5 28.5h-51z" />
    <glyph glyph-name="Euro.dnom" horiz-adv-x="489" 
d="M264 670q70 0 120.5 -40t68.5 -102l-78 -30q-23 82 -103 82q-104 0 -104 -129v-37h209l-12 -54h-197v-38h188l-12 -54h-176v-65q0 -59 26.5 -93t77.5 -34q42 0 66.5 20.5t36.5 67.5l78 -27q-33 -145 -189 -145q-93 0 -148 57.5t-55 153.5v65h-47v54h47v38h-47v54h47v37
q0 102 54.5 160.5t148.5 58.5z" />
    <glyph glyph-name="minus.dnom" horiz-adv-x="407" 
d="M356 279h-305v71h305v-71z" />
    <glyph glyph-name="space.frac" horiz-adv-x="71" 
 />
    <glyph glyph-name="numbersign.osf" horiz-adv-x="765" 
d="M45 768v106h156l26 371h109l-27 -371h174l27 371h108l-26 -371h121v-106h-123l-21 -289h144v-104h-146l-28 -375h-109l29 375h-174l-29 -375h-109l29 375h-131v104h133l19 289h-152zM305 768l-16 -289h172l18 289h-174z" />
    <glyph glyph-name="dollar.osf" horiz-adv-x="765" 
d="M76 952q0 125 66.5 206.5t185.5 96.5l28 240h95l4 -244q85 -21 141 -85t80 -160l-109 -35q-46 162 -184 162q-83 0 -119.5 -42.5t-36.5 -127.5q0 -54 25 -100.5t65 -81.5t88.5 -68.5t97.5 -71.5t89 -81t65 -106t25 -139q0 -133 -65 -219.5t-175 -107.5l-22 -248h-94
l-7 246q-101 12 -162.5 78t-88.5 196l112 35q23 -101 71 -147t124 -46q75 0 120.5 52t45.5 141q0 59 -25.5 108.5t-66.5 85t-90.5 69.5t-99.5 71t-91 79.5t-66.5 105t-25.5 138.5z" />
    <glyph glyph-name="plus.osf" horiz-adv-x="765" 
d="M324 176v359h-238v120h238v359h114v-359h244v-120h-244v-359h-114z" />
    <glyph glyph-name="zero.osf" horiz-adv-x="808" 
d="M733 827v-475q0 -178 -85 -274t-245 -96t-242.5 96.5t-82.5 277.5v465q0 182 83 281.5t242 99.5q160 0 245 -97.5t85 -277.5zM221 821v-471q0 -127 45 -186.5t137 -59.5q94 0 138.5 58.5t44.5 185.5v481q0 130 -44.5 189t-138.5 59q-92 0 -137 -61.5t-45 -194.5z" />
    <glyph glyph-name="one.osf" horiz-adv-x="561" 
d="M225 856h-239v113h110q65 0 97.5 18.5t49 69t21.5 153.5h115v-1210h-154v856z" />
    <glyph glyph-name="two.osf" horiz-adv-x="755" 
d="M395 1206q145 0 217 -76.5t72 -211.5q0 -146 -114.5 -341t-317.5 -444v-4h446v-129h-632l-5 96q215 244 346.5 462t131.5 353q0 84 -37.5 125t-118.5 41q-136 0 -209 -164l-108 45q53 124 132 186t197 62z" />
    <glyph glyph-name="three.osf" horiz-adv-x="757" 
d="M662 907q0 -245 -146 -301v-4q97 -21 138.5 -89t41.5 -196q0 -493 -590 -493l-14 129q248 0 352.5 90t104.5 276q0 127 -52.5 172.5t-183.5 45.5h-43v120h39q113 0 160 53.5t47 186.5q0 93 -34 135.5t-113 42.5q-138 0 -213 -164l-109 45q104 250 334 250
q142 0 211.5 -79.5t69.5 -219.5z" />
    <glyph glyph-name="four.osf" horiz-adv-x="755" 
d="M606 -172h-139v475h-461v109l455 778h145v-766h146l-13 -121h-133v-475zM160 424h307l16 588h-4z" />
    <glyph glyph-name="five.osf" horiz-adv-x="733" 
d="M631 1053h-414l-24 -396q84 43 180 43q152 0 228.5 -81.5t76.5 -268.5q0 -248 -152 -387t-426 -139l-12 127q229 0 336.5 102t107.5 285q0 134 -48 185.5t-154 51.5q-48 0 -96.5 -15t-81.5 -42l-97 45l43 627h543z" />
    <glyph glyph-name="six.osf" horiz-adv-x="776" 
d="M629 1262q-165 0 -267.5 -126.5t-123.5 -383.5h4q73 67 182 67q295 0 295 -391q0 -221 -82 -333.5t-240 -112.5q-155 0 -231 112t-76 314v223q0 360 142.5 559t388.5 199zM406 686q-104 0 -170 -78v-196q0 -158 41.5 -228.5t125.5 -70.5q85 0 128.5 70t43.5 239
q0 145 -40.5 204.5t-128.5 59.5z" />
    <glyph glyph-name="seven.osf" horiz-adv-x="690" 
d="M270 -164h-155l409 1217h-512v137h662v-117z" />
    <glyph glyph-name="eight.osf" horiz-adv-x="774" 
d="M387 -18q-160 0 -239.5 83.5t-79.5 274.5q0 228 157 281v4q-137 62 -137 274q0 307 299 307t299 -305q0 -212 -137 -276v-4q158 -54 158 -281q0 -191 -79.5 -274.5t-240.5 -83.5zM561 350q0 115 -44.5 162t-129.5 47t-128.5 -46.5t-43.5 -162.5q0 -132 40 -188t132 -56
t133 56t41 188zM387 1081q-83 0 -121.5 -46t-38.5 -154q0 -110 38 -159.5t122 -49.5q85 0 122.5 49.5t37.5 159.5q0 109 -37.5 154.5t-122.5 45.5z" />
    <glyph glyph-name="nine.osf" horiz-adv-x="776" 
d="M137 -47q387 0 406 553h-4q-75 -62 -183 -62q-142 0 -220.5 90t-78.5 277q0 194 82.5 293.5t241.5 99.5q152 0 228.5 -112t76.5 -310v-215q0 -363 -142 -553t-394 -190zM375 569q98 0 168 82v129q0 153 -39.5 224t-128.5 71q-85 0 -129.5 -59.5t-44.5 -198.5
q0 -134 43 -191t131 -57z" />
    <glyph glyph-name="less.osf" horiz-adv-x="765" 
d="M664 872l-388 -278l390 -281v-161l-580 432v18l578 434v-164z" />
    <glyph glyph-name="equal.osf" horiz-adv-x="765" 
d="M670 666h-574v122h574v-122zM670 403h-574v121h574v-121z" />
    <glyph glyph-name="greater.osf" horiz-adv-x="765" 
d="M492 594l-392 280v164l582 -434v-18l-580 -439v166z" />
    <glyph glyph-name="cent.osf" horiz-adv-x="765" 
d="M686 1010l-117 -41q-45 168 -182 168q-91 0 -132.5 -63t-41.5 -193v-531q0 -129 43.5 -189.5t132.5 -60.5q70 0 114.5 43t67.5 136l117 -37q-56 -229 -244 -258l-24 -244h-92l-6 244q-254 34 -254 374v519q0 162 66 262.5t198 117.5l26 238h95l4 -242q84 -20 142.5 -82
t86.5 -161z" />
    <glyph glyph-name="sterling.osf" horiz-adv-x="765" 
d="M657 1016l-108 -35q-18 84 -55 119t-93 35q-72 0 -105.5 -59.5t-33.5 -188.5q0 -74 14 -221h293l-10 -99h-272q20 -191 22 -241q34 -17 66.5 -54t52.5 -71t46 -60t52 -26q40 0 62.5 42.5t32.5 151.5l106 -24q-14 -165 -61.5 -235t-126.5 -70q-37 0 -68 15.5t-54 43.5
t-40.5 56t-38.5 64t-37 56q-13 -235 -156 -235q-56 0 -88 38t-32 109q0 85 45 143t123 70l-37 227h-78l-12 99h75q-18 155 -18 225q0 179 69.5 276t200.5 97q104 0 173 -66t91 -182zM152 78q50 0 53 174q-86 -16 -86 -121q0 -53 33 -53z" />
    <glyph glyph-name="currency.osf" horiz-adv-x="630" 
d="M109 780q0 68 30 117l-76 84l60 68l78 -84q49 34 112 34q64 0 113 -34l82 88l61 -66l-80 -88q33 -58 33 -119q0 -65 -33 -123l78 -84l-61 -65l-80 84q-50 -35 -113 -35q-56 0 -110 33l-80 -88l-62 67l80 88q-32 56 -32 123zM201 778q0 -53 33 -88t81 -35t81.5 35t33.5 88
t-33.5 88t-81.5 35t-81 -35t-33 -88z" />
    <glyph glyph-name="yen.osf" horiz-adv-x="765" 
d="M655 289h-198v-289h-146v289h-198v100h198v84h-198v98h170l-279 672h158l223 -610h4l215 610h162l-283 -672h172v-98h-198v-84h198v-100z" />
    <glyph glyph-name="logicalnot.osf" horiz-adv-x="765" 
d="M569 262v273h-483v120h596v-393h-113z" />
    <glyph glyph-name="plusminus.osf" horiz-adv-x="765" 
d="M324 258v315h-238v119h238v322h114v-322h244v-119h-244v-315h-114zM682 63h-596v123h596v-123z" />
    <glyph glyph-name="multiply.osf" horiz-adv-x="765" 
d="M573 289l-206 223l-205 -223l-80 86l205 223l-205 223l80 88l205 -225l206 225l80 -88l-207 -223l207 -223z" />
    <glyph glyph-name="divide.osf" horiz-adv-x="765" 
d="M682 535h-596v120h596v-120zM285 918q0 42 27.5 72t66.5 30q40 0 68 -29.5t28 -72.5q0 -41 -28 -71t-68 -30q-38 0 -66 30t-28 71zM285 283q0 41 28 71.5t66 30.5q40 0 68 -30.5t28 -71.5q0 -43 -28 -72t-68 -29q-39 0 -66.5 29.5t-27.5 71.5z" />
    <glyph glyph-name="franc.osf" horiz-adv-x="765" 
d="M33 184v105h100v954h557v-133h-409v-416h354v-125h-354v-280h153v-105h-153v-184h-148v184h-100z" />
    <glyph glyph-name="lira.osf" horiz-adv-x="765" 
d="M657 1016l-108 -35q-18 84 -55 119t-93 35q-72 0 -105.5 -59.5t-33.5 -188.5q0 -76 8 -152h326l-12 -84h-305l6 -65h288l-12 -80h-266q13 -147 14 -180q34 -17 66.5 -54t52.5 -71t46 -60t52 -26q40 0 62.5 42.5t32.5 151.5l106 -24q-14 -165 -61.5 -235t-126.5 -70
q-37 0 -68 15.5t-54 43.5t-40.5 56t-38.5 64t-37 56q-8 -130 -48.5 -182.5t-107.5 -52.5q-56 0 -88 38t-32 109q0 85 45 143t123 70l-27 166h-78l-12 80h78l-11 65h-80l-12 84h82q-10 98 -10 156q0 179 69.5 276t200.5 97q104 0 173 -66t91 -182zM152 78q50 0 53 174
q-86 -16 -86 -121q0 -53 33 -53z" />
    <glyph glyph-name="peseta.osf" horiz-adv-x="765" 
d="M20 821v97h84v325h293q258 0 273 -325h71v-97h-71q-9 -158 -77 -242.5t-190 -84.5h-155v-494h-144v821h-84zM395 610q64 0 95.5 50.5t35.5 164.5h-278v-215h147zM248 1116v-205h278q-4 111 -35.5 158t-95.5 47h-147z" />
    <glyph glyph-name="Euro.osf" horiz-adv-x="765" 
d="M694 1008l-119 -37q-42 166 -172 166q-85 0 -124 -61t-39 -187v-115h290l-14 -88h-276v-82h262l-17 -86h-245v-172q0 -128 40 -186t123 -58q69 0 111.5 41t63.5 133l118 -34q-28 -125 -103.5 -193.5t-193.5 -68.5q-305 0 -305 374v164h-59v86h59v82h-59v88h59v111
q0 172 76.5 274.5t228.5 102.5q112 0 189 -66.5t106 -187.5z" />
    <glyph glyph-name="uni20B4.osf" horiz-adv-x="772" 
d="M76 684v94h399q72 85 72 185q0 86 -32.5 130t-115.5 44q-75 0 -121 -40t-75 -122l-111 41q81 241 318 241q134 0 203 -77.5t69 -206.5q0 -107 -68 -195h91v-94h-175q-22 -20 -64.5 -54.5t-57.5 -47.5h294v-97h-387q-71 -94 -71 -206q0 -86 44 -132.5t122 -46.5
q142 0 198 183l103 -39q-36 -136 -113 -200t-199 -64q-146 0 -217 78t-71 210q0 118 69 217h-106v97h188q22 20 67 57t54 45h-307z" />
    <glyph glyph-name="uni20B8.osf" horiz-adv-x="765" 
d="M655 963h-198v-963h-146v963h-198v98h542v-98zM655 1145h-542v98h542v-98z" />
    <glyph glyph-name="uni20BA.osf" horiz-adv-x="868" 
d="M78 567v123l102 60v493h152v-424l276 170v-125l-276 -168v-104l276 168v-123l-276 -168v-324h119q93 0 146.5 51.5t76.5 172.5l119 -54q-51 -315 -342 -315h-271v397l-102 -59v123l102 61v105z" />
    <glyph glyph-name="uni20BD.osf" horiz-adv-x="778" 
d="M287 0h-144v328h-94v112h94v76h-94v113h94v614h299q146 0 213.5 -91t67.5 -275q0 -176 -68 -268.5t-206 -92.5h-162v-76h266v-112h-266v-328zM287 1120v-491h145q78 0 110.5 57t32.5 188q0 135 -32 190.5t-111 55.5h-145z" />
    <glyph glyph-name="minus.osf" horiz-adv-x="765" 
d="M682 535h-596v120h596v-120z" />
    <glyph glyph-name="approxequal.osf" horiz-adv-x="765" 
d="M670 799v-121q-78 -45 -152 -45q-54 0 -144 32.5t-138 32.5q-68 0 -140 -45v121q74 43 154 43q56 0 148.5 -32.5t138.5 -32.5q67 0 133 47zM670 532v-118q-78 -45 -154 -45q-54 0 -143 32.5t-137 32.5q-70 0 -140 -45v121q74 43 154 43q56 0 148.5 -33t138.5 -33
q70 0 133 45z" />
    <glyph glyph-name="notequal.osf" horiz-adv-x="765" 
d="M670 403h-314l-96 -217l-80 39l78 178h-162v121h215l64 142h-279v122h332l94 213l80 -40l-76 -173h144v-122h-199l-61 -142h260v-121z" />
    <glyph glyph-name="lessequal.osf" horiz-adv-x="765" 
d="M664 881l-377 -242l379 -240v-157l-580 389v18l578 393v-161zM96 68v112h570v-112h-570z" />
    <glyph glyph-name="greaterequal.osf" horiz-adv-x="765" 
d="M100 399l375 240l-375 242v161l580 -393v-18l-580 -389v157zM670 180v-112h-570v112h570z" />
    <glyph glyph-name="numbersign.tf" horiz-adv-x="870" 
d="M57 926v108h189l30 451h109l-33 -451h213l31 451h109l-31 -451h145v-108h-149l-25 -363h174v-108h-176l-33 -455h-108l33 455h-211l-35 -455h-107l33 455h-158v108h160l25 363h-185zM350 926l-24 -363h211l24 363h-211z" />
    <glyph glyph-name="dollar.tf" horiz-adv-x="870" 
d="M412 1683h98l2 -188q103 -23 174 -99t102 -190l-110 -41q-46 166 -178 195l-25 -533q43 -27 67.5 -42.5t64 -45t62.5 -53t51 -59t43 -71.5t25.5 -83t10.5 -100q0 -169 -90.5 -273t-241.5 -118l-18 -181h-99l-4 187q-113 20 -189.5 103.5t-105.5 221.5l117 45
q46 -193 190 -229l27 569q-51 31 -79 49.5t-71.5 51t-68.5 63.5t-51 73t-37.5 93t-11.5 111q0 156 87.5 255t237.5 109zM664 354q0 52 -14.5 95.5t-44 79.5t-61 63t-77.5 57l-4 -528q96 9 148.5 68.5t52.5 164.5zM205 1153q0 -89 47.5 -151t138.5 -123l4 487
q-97 -9 -143.5 -65t-46.5 -148z" />
    <glyph glyph-name="plus.tf" horiz-adv-x="870" 
d="M377 213v365h-244v120h244v365h112v-365h250v-120h-250v-365h-112z" />
    <glyph glyph-name="zero.tf" horiz-adv-x="870" 
d="M793 1073v-665q0 -204 -92 -316t-265 -112t-264.5 112t-91.5 316v665q0 205 91.5 318.5t264.5 113.5t265 -113.5t92 -318.5zM229 1073v-665q0 -149 51 -219t156 -70t156 70t51 219v665q0 149 -51 220t-156 71t-156 -71t-51 -220z" />
    <glyph glyph-name="one.tf" horiz-adv-x="870" 
d="M166 0v104h209v1024h-273v117h144q48 0 75 7.5t48.5 34t30.5 74t14 130.5h116v-1387h189v-104h-553z" />
    <glyph glyph-name="two.tf" horiz-adv-x="870" 
d="M453 1505q163 0 246 -96t83 -260q0 -96 -26.5 -183t-69.5 -155t-95 -132t-106.5 -126t-101 -123.5t-80.5 -137t-43 -155.5h535v-137h-684l-5 86q2 96 32.5 187t77 164.5t102 143.5t110.5 136.5t100.5 132t74 142t28.5 153.5q0 221 -187 221q-83 0 -139.5 -63t-77.5 -185
l-121 35q28 159 116.5 255.5t230.5 96.5z" />
    <glyph glyph-name="three.tf" horiz-adv-x="870" 
d="M330 707v129h78q103 0 155.5 62t52.5 208q0 142 -44.5 201t-135.5 59q-166 0 -215 -227l-121 35q34 157 124 244t222 87q162 0 243 -100.5t81 -282.5q0 -275 -172 -342v-4q97 -26 146 -107.5t49 -234.5q0 -237 -89.5 -345.5t-263.5 -108.5q-134 0 -222.5 73.5
t-123.5 222.5l115 39q27 -101 86 -150.5t139 -49.5q108 0 155.5 77.5t47.5 247.5q0 79 -15.5 132.5t-46 82.5t-69 40.5t-92.5 11.5h-84z" />
    <glyph glyph-name="four.tf" horiz-adv-x="870" 
d="M707 0h-140v283h-532v104l524 1098h148v-1071h153l-14 -131h-139v-283zM195 414h372l11 854h-5z" />
    <glyph glyph-name="five.tf" horiz-adv-x="870" 
d="M209 702l-103 48l52 735h592l-11 -144h-460l-33 -479h4q103 68 219 68q164 0 245 -109t81 -348q0 -493 -367 -493q-128 0 -216.5 75.5t-119.5 223.5l119 38q25 -103 81 -152.5t130 -49.5q115 0 167 83.5t52 274.5q0 177 -53 248.5t-170 71.5q-61 0 -118.5 -25.5
t-90.5 -65.5z" />
    <glyph glyph-name="six.tf" horiz-adv-x="870" 
d="M451 1505q121 0 202 -76.5t113 -224.5l-113 -43q-26 109 -74 157t-122 48q-106 0 -160.5 -84t-54.5 -242v-209h4q39 45 99.5 69t129.5 24q165 0 241.5 -108t76.5 -331q0 -505 -353 -505q-165 0 -256.5 111t-91.5 327v610q0 219 95 348t264 129zM446 788
q-83 0 -143.5 -42.5t-60.5 -112.5v-227q0 -147 54.5 -217t145.5 -70q103 0 153 86t50 278q0 158 -48 231.5t-151 73.5z" />
    <glyph glyph-name="seven.tf" horiz-adv-x="870" 
d="M360 0h-165l467 1343h-611v142h770v-121z" />
    <glyph glyph-name="eight.tf" horiz-adv-x="870" 
d="M436 -20q-92 0 -157.5 22.5t-112.5 74.5t-69.5 139.5t-22.5 215.5q0 150 43 235.5t131 118.5v5q-152 70 -152 331q0 189 81 286t259 97t259 -97t81 -286q0 -262 -151 -331v-5q88 -33 131 -118.5t43 -235.5q0 -128 -22.5 -215.5t-70 -139.5t-113 -74.5t-157.5 -22.5z
M649 438q0 156 -54 217.5t-159 61.5t-159 -61.5t-54 -217.5q0 -126 24 -197.5t68.5 -98.5t120.5 -27q75 0 119.5 26.5t69 98t24.5 198.5zM436 1372q-105 0 -150.5 -57t-45.5 -205t46 -207t150 -59t150.5 59t46.5 207t-46 205t-151 57z" />
    <glyph glyph-name="nine.tf" horiz-adv-x="870" 
d="M205 309q32 -102 83.5 -146t135.5 -44q99 0 153 65t54 193v330h-4q-81 -91 -221 -91q-324 0 -324 435q0 454 362 454q160 0 249 -107t89 -296v-719q0 -186 -96 -293.5t-256 -107.5q-267 0 -334 278zM430 748q76 0 138.5 43.5t62.5 111.5v205q0 126 -48.5 192t-142.5 66
q-105 0 -157 -74t-52 -237q0 -170 50 -238.5t149 -68.5z" />
    <glyph glyph-name="less.tf" horiz-adv-x="870" 
d="M696 922l-366 -279l368 -276v-166l-557 432v20l555 432v-163z" />
    <glyph glyph-name="equal.tf" horiz-adv-x="870" 
d="M727 694h-582v121h582v-121zM727 430h-582v123h582v-123z" />
    <glyph glyph-name="greater.tf" horiz-adv-x="870" 
d="M174 367l367 276l-365 279v163l555 -432v-20l-557 -432v166z" />
    <glyph glyph-name="cent.tf" horiz-adv-x="870" 
d="M92 1061q0 192 84.5 308.5t235.5 131.5l20 174h94l2 -178q105 -21 175 -101t94 -198l-123 -41q-42 199 -205 199q-106 0 -160.5 -77t-54.5 -218v-651q0 -133 55 -211t158 -78q90 0 138 48.5t71 170.5l125 -37q-27 -157 -99.5 -232.5t-195.5 -86.5l-21 -179h-94l-4 181
q-138 23 -216.5 136.5t-78.5 285.5v653z" />
    <glyph glyph-name="sterling.tf" horiz-adv-x="870" 
d="M90 678l-16 117h100q-20 182 -20 274q0 212 80.5 325t232.5 113q120 0 201 -75.5t104 -214.5l-119 -37q-22 102 -67.5 143t-114.5 41q-91 0 -133.5 -75t-42.5 -232q0 -94 16 -262h361l-15 -117h-333q21 -237 24 -283q44 -17 85 -62t66.5 -87.5t59.5 -76.5t68 -34
q48 0 74.5 51.5t39.5 182.5l109 -25q-18 -198 -71 -281t-144 -83q-46 0 -84 21.5t-65.5 57.5t-49.5 73t-46.5 79t-45.5 65q-13 -296 -178 -296q-65 0 -101 45t-36 129q0 102 52 169t142 80l-35 275h-98zM174 94q33 0 49 45.5t17 167.5q-55 -8 -80 -49.5t-25 -97.5
q0 -66 39 -66z" />
    <glyph glyph-name="currency.tf" horiz-adv-x="870" 
d="M229 778q0 65 31 119l-76 84l62 66l78 -82q46 34 110 34q63 0 115 -36l82 90l59 -68l-80 -88q33 -58 33 -119q0 -63 -33 -121l78 -84l-59 -67l-82 86q-50 -35 -113 -35q-56 0 -110 33l-80 -88l-62 65l80 88q-33 58 -33 123zM324 778q0 -54 32 -89.5t80 -35.5t81.5 36
t33.5 89t-33.5 88t-81.5 35t-80 -34.5t-32 -88.5z" />
    <glyph glyph-name="yen.tf" horiz-adv-x="870" 
d="M729 344h-215v-344h-156v344h-229v115h229v98h-229v115h199l-314 813h170l252 -742h4l250 742h168l-315 -813h186v-115h-215v-98h215v-115z" />
    <glyph glyph-name="logicalnot.tf" horiz-adv-x="870" 
d="M625 305v273h-492v120h604v-393h-112z" />
    <glyph glyph-name="plusminus.tf" horiz-adv-x="870" 
d="M377 289v321h-244v123h244v330h112v-330h250v-123h-250v-321h-112zM739 94h-606v121h606v-121z" />
    <glyph glyph-name="multiply.tf" horiz-adv-x="870" 
d="M641 330l-207 223l-205 -223l-79 86l204 223l-204 223l79 86l205 -223l207 223l80 -86l-207 -223l207 -223z" />
    <glyph glyph-name="divide.tf" horiz-adv-x="870" 
d="M739 578h-606v120h606v-120zM338 961q0 43 27 72.5t67 29.5q39 0 66.5 -30t27.5 -72q0 -41 -28 -71t-66 -30q-39 0 -66.5 29.5t-27.5 71.5zM338 324q0 42 27.5 72t66.5 30q38 0 66 -30.5t28 -71.5t-28 -71t-66 -30q-39 0 -66.5 29.5t-27.5 71.5z" />
    <glyph glyph-name="uni2007.tf" horiz-adv-x="870" 
 />
    <glyph glyph-name="franc.tf" horiz-adv-x="870" 
d="M27 223v117h123v1145h649v-152h-484v-504h418v-141h-418v-348h179v-117h-179v-223h-165v223h-123z" />
    <glyph glyph-name="lira.tf" horiz-adv-x="870" 
d="M82 745l-14 95h102q-16 144 -16 229q0 212 80.5 325t232.5 113q120 0 201 -75.5t104 -214.5l-119 -37q-22 102 -67.5 143t-114.5 41q-91 0 -133.5 -75t-42.5 -232q0 -82 12 -217h387l-14 -95h-363l7 -69h342l-13 -88h-321q2 -25 8.5 -96t7.5 -97q44 -17 85 -62
t66.5 -87.5t59.5 -76.5t68 -34q48 0 74.5 51.5t39.5 182.5l109 -25q-18 -198 -71 -281t-144 -83q-46 0 -84 21.5t-65.5 57.5t-49 72.5t-45 77.5t-43.5 63h-4q-8 -159 -54.5 -225.5t-123.5 -66.5q-65 0 -101 45t-36 129q0 102 52 169t142 80l-22 185h-92l-15 88h94
q-4 42 -8 69h-98zM174 94q33 0 49 45.5t17 167.5q-55 -8 -80 -49.5t-25 -97.5q0 -66 39 -66z" />
    <glyph glyph-name="peseta.tf" horiz-adv-x="870" 
d="M18 989v98h99v398h332q146 0 226 -101t87 -297h94v-98h-94q-9 -189 -87.5 -289t-219.5 -100h-185v-600h-153v989h-99zM270 1343v-258h338q-4 138 -43 198t-119 60h-176zM446 733q78 0 118 61t44 197h-338v-258h176z" />
    <glyph glyph-name="Euro.tf" horiz-adv-x="870" 
d="M496 1505q131 0 221 -84.5t117 -222.5l-123 -41q-45 199 -205 199q-106 0 -160.5 -77t-54.5 -218v-139h385l-19 -99h-366v-98h348l-18 -98h-330v-217q0 -133 55 -211t158 -78q90 0 138 48.5t71 170.5l123 -37q-27 -170 -112 -246.5t-230 -76.5q-168 0 -266.5 117.5
t-98.5 310.5v219h-115v98h115v98h-115v99h115v139q0 207 97.5 325.5t269.5 118.5z" />
    <glyph glyph-name="uni20B4.tf" horiz-adv-x="870" 
d="M80 825v103h469q92 105 92 231q0 108 -40.5 163.5t-143.5 55.5q-174 0 -244 -198l-113 43q95 282 367 282q153 0 231 -91t78 -245q0 -128 -84 -241h111v-103h-205q-27 -26 -82 -72.5t-67 -56.5h354v-102h-455q-94 -123 -94 -260q0 -112 55 -170t154 -58q86 0 147.5 53
t98.5 171l104 -41q-44 -160 -132.5 -234.5t-227.5 -74.5q-167 0 -250.5 93t-83.5 249q0 149 88 272h-129v102h221q21 20 45.5 41.5t55 47.5t46.5 40h-366z" />
    <glyph glyph-name="uni20B8.tf" horiz-adv-x="870" 
d="M88 1270h690v-117h-264v-1153h-160v1153h-266v117zM778 1366h-690v119h690v-119z" />
    <glyph glyph-name="uni20BA.tf" horiz-adv-x="870" 
d="M59 639v123l101 59v664h153v-590l283 172v-125l-283 -172v-104l283 172v-123l-283 -174v-396h158q93 0 146.5 51.5t76.5 172.5l117 -54q-49 -315 -340 -315h-311v471l-101 -59v123l101 59v104z" />
    <glyph glyph-name="uni20BD.tf" horiz-adv-x="870" 
d="M305 0h-160v406h-116v122h116v93h-116v120h116v744h351q163 0 248 -110t85 -322q0 -208 -83.5 -320t-243.5 -112h-197v-93h299v-122h-299v-406zM305 1354v-613h182q95 0 139 74t44 236q0 164 -43 233.5t-140 69.5h-182z" />
    <glyph glyph-name="minus.tf" horiz-adv-x="870" 
d="M737 578h-604v120h604v-120z" />
    <glyph glyph-name="approxequal.tf" horiz-adv-x="870" 
d="M727 831v-118q-76 -45 -156 -45q-54 0 -146 31.5t-140 31.5q-70 0 -140 -45v121q78 45 156 45q56 0 149.5 -33t141.5 -33q72 0 135 45zM727 567v-121q-78 -45 -154 -45q-56 0 -147.5 33t-140.5 33q-70 0 -140 -45v121q74 43 154 43q57 0 151.5 -33t141.5 -33q69 0 135 47
z" />
    <glyph glyph-name="notequal.tf" horiz-adv-x="870" 
d="M649 989l-78 -174h156v-121h-209l-61 -141h270v-123h-326l-94 -215l-80 39l78 176h-160v123h213l64 141h-277v121h330l94 213z" />
    <glyph glyph-name="lessequal.tf" horiz-adv-x="870" 
d="M696 920l-356 -250l358 -248v-160l-557 400v18l555 405v-165zM150 84v117h548v-117h-548z" />
    <glyph glyph-name="greaterequal.tf" horiz-adv-x="870" 
d="M174 422l358 248l-356 250v165l555 -405v-18l-557 -400v160zM723 201v-117h-549v117h549z" />
    <glyph glyph-name="numbersign.tosf" horiz-adv-x="798" 
d="M61 768v106h156l27 371h108l-26 -371h174l26 371h109l-27 -371h121v-106h-123l-20 -289h143v-104h-145l-29 -375h-109l29 375h-174l-29 -375h-108l29 375h-132v104h134l18 289h-152zM322 768l-17 -289h172l19 289h-174z" />
    <glyph glyph-name="dollar.tosf" horiz-adv-x="798" 
d="M92 952q0 125 66.5 206.5t185.5 96.5l29 240h94l4 -244q85 -21 141 -85t80 -160l-108 -35q-46 162 -185 162q-83 0 -119 -42.5t-36 -127.5q0 -54 25 -100.5t65 -81.5t88.5 -68.5t97 -71.5t88.5 -81t65 -106t25 -139q0 -133 -64.5 -220t-174.5 -107l-23 -248h-94l-6 246
q-101 12 -163 78t-89 196l113 35q44 -193 194 -193q81 0 123.5 50.5t42.5 142.5q0 59 -25.5 108.5t-66.5 85t-90.5 69.5t-99.5 71t-91 79.5t-66.5 105t-25.5 138.5z" />
    <glyph glyph-name="plus.tosf" horiz-adv-x="798" 
d="M340 176v359h-238v120h238v359h115v-359h243v-120h-243v-359h-115z" />
    <glyph glyph-name="zero.tosf" horiz-adv-x="798" 
d="M727 827v-475q0 -178 -85 -274t-245 -96t-242.5 96.5t-82.5 277.5v465q0 182 83 281.5t242 99.5q160 0 245 -97.5t85 -277.5zM215 821v-471q0 -127 45 -186.5t137 -59.5q94 0 138.5 58.5t44.5 185.5v481q0 130 -44.5 189t-138.5 59q-92 0 -137 -61.5t-45 -194.5z" />
    <glyph glyph-name="one.tosf" horiz-adv-x="798" 
d="M348 856h-239v113h110q65 0 97.5 18.5t49 69t21.5 153.5h115v-1106h186v-104h-553v104h213v752z" />
    <glyph glyph-name="two.tosf" horiz-adv-x="798" 
d="M412 1206q145 0 216.5 -76.5t71.5 -211.5q0 -146 -114.5 -341t-317.5 -444v-4h447v-129h-633l-4 96q215 244 346 462t131 353q0 84 -37.5 125t-118.5 41q-136 0 -209 -164l-108 45q53 124 132.5 186t197.5 62z" />
    <glyph glyph-name="three.tosf" horiz-adv-x="798" 
d="M682 907q0 -245 -145 -301v-4q97 -21 138.5 -89t41.5 -196q0 -493 -590 -493l-14 129q248 0 352 90t104 276q0 127 -52 172.5t-183 45.5h-43v120h39q113 0 160 53.5t47 186.5q0 93 -34.5 135.5t-113.5 42.5q-138 0 -213 -164l-108 45q51 123 131.5 186.5t201.5 63.5
q142 0 211.5 -79.5t69.5 -219.5z" />
    <glyph glyph-name="four.tosf" horiz-adv-x="798" 
d="M627 -172h-140v475h-460v109l454 778h146v-766h145l-12 -121h-133v-475zM180 424h307l17 588h-4z" />
    <glyph glyph-name="five.tosf" horiz-adv-x="798" 
d="M664 1053h-414l-25 -396q84 43 181 43q152 0 228.5 -81.5t76.5 -268.5q0 -248 -152 -387t-426 -139l-12 127q229 0 336.5 102t107.5 285q0 134 -48.5 185.5t-154.5 51.5q-48 0 -96.5 -15t-81.5 -42l-96 45l43 627h543z" />
    <glyph glyph-name="six.tosf" horiz-adv-x="798" 
d="M633 1262q-165 0 -267.5 -126.5t-123.5 -383.5h4q73 67 182 67q295 0 295 -391q0 -221 -82 -333.5t-240 -112.5q-155 0 -231 112t-76 314v223q0 360 142.5 559t388.5 199zM410 686q-104 0 -170 -78v-196q0 -157 42 -228t126 -71q85 0 128.5 70t43.5 239q0 145 -41 204.5
t-129 59.5z" />
    <glyph glyph-name="seven.tosf" horiz-adv-x="798" 
d="M330 -164h-156l410 1217h-512v137h661v-117z" />
    <glyph glyph-name="eight.tosf" horiz-adv-x="798" 
d="M399 -18q-160 0 -239.5 83.5t-79.5 274.5q0 228 158 281v4q-138 63 -138 274q0 307 299 307t299 -305q0 -212 -137 -276v-4q158 -54 158 -281q0 -191 -79.5 -274.5t-240.5 -83.5zM573 350q0 115 -44.5 162t-129.5 47t-128.5 -46.5t-43.5 -162.5q0 -132 40 -188t132 -56
t133 56t41 188zM399 1081q-83 0 -121 -46t-38 -154q0 -110 38 -159.5t121 -49.5q85 0 122.5 49.5t37.5 159.5q0 109 -37.5 154.5t-122.5 45.5z" />
    <glyph glyph-name="nine.tosf" horiz-adv-x="798" 
d="M154 -47q386 0 405 553h-4q-75 -62 -182 -62q-142 0 -220.5 90t-78.5 277q0 194 82 293.5t241 99.5q152 0 228.5 -112t76.5 -310v-215q0 -363 -142 -553t-394 -190zM391 569q98 0 168 82v129q0 153 -39.5 224t-128.5 71q-85 0 -129.5 -59.5t-44.5 -198.5q0 -134 43 -191
t131 -57z" />
    <glyph glyph-name="less.tosf" horiz-adv-x="798" 
d="M680 872l-387 -278l389 -281v-161l-580 432v18l578 434v-164z" />
    <glyph glyph-name="equal.tosf" horiz-adv-x="798" 
d="M686 666h-573v122h573v-122zM686 403h-573v121h573v-121z" />
    <glyph glyph-name="greater.tosf" horiz-adv-x="798" 
d="M117 1036l581 -432v-18l-579 -434v161l389 281l-391 280v162z" />
    <glyph glyph-name="cent.tosf" horiz-adv-x="798" 
d="M702 1010l-116 -41q-45 168 -183 168q-91 0 -132.5 -63t-41.5 -193v-531q0 -129 44 -189.5t133 -60.5q70 0 114.5 43t67.5 136l117 -37q-56 -229 -244 -258l-25 -244h-92l-6 244q-254 34 -254 374v519q0 162 66 262.5t198 117.5l27 238h94l4 -242q84 -20 142.5 -82
t86.5 -161z" />
    <glyph glyph-name="sterling.tosf" horiz-adv-x="798" 
d="M674 1016l-109 -35q-18 84 -54.5 119t-92.5 35q-72 0 -105.5 -59.5t-33.5 -188.5q0 -74 14 -221h293l-11 -99h-272q22 -205 23 -241q34 -17 66.5 -54t52.5 -71t46 -60t52 -26q40 0 62 42.5t32 151.5l106 -24q-14 -165 -61.5 -235t-126.5 -70q-46 0 -84 26.5t-58.5 58
t-48 79t-42.5 67.5h-5q-8 -126 -48 -178.5t-107 -52.5q-56 0 -88.5 38t-32.5 109q0 85 45 143t123 70l-37 227h-78l-12 99h76q-19 163 -19 225q0 179 70 276t201 97q104 0 173 -66t91 -182zM168 78q50 0 53 174q-86 -16 -86 -121q0 -53 33 -53z" />
    <glyph glyph-name="currency.tosf" horiz-adv-x="798" 
d="M190 776q0 65 31 119l-76 82l62 67l78 -83q56 34 112 34q64 0 113 -34l82 88l61 -66l-82 -90q33 -54 33 -117t-33 -121l80 -86l-61 -65l-80 84q-50 -35 -113 -35q-58 0 -112 33l-80 -88l-62 67l80 88q-33 50 -33 123zM285 774q0 -53 33 -88t81 -35t81.5 35t33.5 88
t-33.5 88t-81.5 35t-81 -35t-33 -88z" />
    <glyph glyph-name="yen.tosf" horiz-adv-x="798" 
d="M672 289h-199v-289h-145v289h-199v100h199v84h-199v98h170l-279 674h158l223 -612h5l215 612h161l-282 -674h172v-98h-199v-84h199v-100z" />
    <glyph glyph-name="logicalnot.tosf" horiz-adv-x="798" 
d="M586 262v273h-484v120h596v-393h-112z" />
    <glyph glyph-name="plusminus.tosf" horiz-adv-x="798" 
d="M340 258v315h-238v119h238v322h115v-322h243v-119h-243v-315h-115zM698 63h-596v123h596v-123z" />
    <glyph glyph-name="multiply.tosf" horiz-adv-x="798" 
d="M590 289l-207 223l-205 -223l-80 86l205 223l-205 223l80 88l205 -225l207 225l80 -88l-207 -223l207 -223z" />
    <glyph glyph-name="divide.tosf" horiz-adv-x="798" 
d="M698 535h-596v120h596v-120zM301 918q0 42 27.5 72t66.5 30q40 0 68.5 -29.5t28.5 -72.5q0 -41 -28.5 -71t-68.5 -30q-38 0 -66 30t-28 71zM301 283q0 41 28 71.5t66 30.5q40 0 68.5 -30.5t28.5 -71.5q0 -42 -28.5 -71.5t-68.5 -29.5q-39 0 -66.5 29.5t-27.5 71.5z" />
    <glyph glyph-name="uni2007.tosf" horiz-adv-x="798" 
 />
    <glyph glyph-name="franc.tosf" horiz-adv-x="798" 
d="M49 184v105h101v954h557v-135h-410v-414h354v-125h-354v-280h154v-105h-154v-184h-147v184h-101z" />
    <glyph glyph-name="lira.tosf" horiz-adv-x="798" 
d="M674 1016l-109 -35q-18 84 -54.5 119t-92.5 35q-72 0 -105.5 -59.5t-33.5 -188.5q0 -76 8 -152h325l-12 -84h-305l6 -65h289l-12 -80h-267q15 -170 15 -180q34 -17 66.5 -54t52.5 -71t46 -60t52 -26q40 0 62 42.5t32 151.5l106 -24q-14 -165 -61.5 -235t-126.5 -70
q-46 0 -84.5 26.5t-59 58.5t-48.5 81t-46 71q-7 -130 -47.5 -183.5t-107.5 -53.5q-56 0 -88.5 38t-32.5 109q0 85 45 143t123 70l-27 166h-78l-12 80h78l-10 65h-80l-12 84h82q-11 108 -11 156q0 179 70 276t201 97q104 0 173 -66t91 -182zM168 78q50 0 53 174
q-86 -16 -86 -121q0 -53 33 -53z" />
    <glyph glyph-name="peseta.tosf" horiz-adv-x="798" 
d="M37 821v97h84v325h293q257 0 272 -325h72v-97h-72q-9 -158 -76.5 -242.5t-189.5 -84.5h-156v-494h-143v821h-84zM412 610q64 0 95.5 50.5t35.5 164.5h-279v-215h148zM264 1116v-205h279q-4 111 -35.5 158t-95.5 47h-148z" />
    <glyph glyph-name="Euro.tosf" horiz-adv-x="798" 
d="M711 1008l-119 -37q-42 166 -172 166q-85 0 -124.5 -61t-39.5 -187v-115h291l-15 -88h-276v-82h262l-16 -86h-246v-172q0 -128 40.5 -186t123.5 -58q69 0 111 41t63 133l119 -34q-28 -125 -103.5 -193.5t-193.5 -68.5q-305 0 -305 374v164h-60v86h60v82h-60v88h60v111
q0 172 76.5 274.5t228.5 102.5q112 0 189 -66.5t106 -187.5z" />
    <glyph glyph-name="uni20B4.tosf" horiz-adv-x="798" 
d="M84 684v94h416q71 84 71 185q0 86 -33.5 131t-119.5 45q-78 0 -128.5 -40.5t-80.5 -123.5l-109 39q85 243 328 243q134 0 204 -78.5t70 -207.5q0 -108 -65 -193h90v-94h-180q-23 -21 -66.5 -55.5t-60.5 -48.5h305v-97h-403q-72 -92 -72 -204q0 -87 46.5 -134t127.5 -47
q150 0 209 183l100 -37q-39 -137 -117 -200.5t-202 -63.5q-148 0 -221.5 78.5t-73.5 209.5q0 119 67 215h-104v97h194q23 21 66.5 56t58.5 48h-317z" />
    <glyph glyph-name="uni20B8.tosf" horiz-adv-x="798" 
d="M713 965h-244v-965h-139v965h-244v98h627v-98zM713 1147h-627v100h627v-100z" />
    <glyph glyph-name="uni20BA.tosf" horiz-adv-x="798" 
d="M51 567v123l103 60v493h149v-424l277 170v-125l-277 -168v-106l277 170v-123l-277 -168v-324h121q92 0 146 51.5t77 172.5l117 -54q-51 -315 -342 -315h-268v397l-103 -59v123l103 61v105z" />
    <glyph glyph-name="uni20BD.tosf" horiz-adv-x="798" 
d="M297 0h-143v328h-95v112h95v76h-95v113h95v614h299q146 0 213 -91t67 -275q0 -176 -68 -268.5t-206 -92.5h-162v-76h266v-112h-266v-328zM297 1120v-491h145q78 0 111 57t33 188q0 135 -32.5 190.5t-111.5 55.5h-145z" />
    <glyph glyph-name="minus.tosf" horiz-adv-x="798" 
d="M698 535h-596v120h596v-120z" />
    <glyph glyph-name="approxequal.tosf" horiz-adv-x="798" 
d="M686 799v-121q-78 -45 -151 -45q-54 0 -144.5 32.5t-138.5 32.5q-67 0 -139 -45v121q74 43 153 43q56 0 148.5 -32.5t138.5 -32.5q67 0 133 47zM686 532v-118q-78 -45 -154 -45q-54 0 -143 32.5t-137 32.5q-69 0 -139 -45v121q74 43 153 43q56 0 148.5 -33t138.5 -33
q70 0 133 45z" />
    <glyph glyph-name="notequal.tosf" horiz-adv-x="798" 
d="M686 403h-313l-97 -217l-79 39l77 178h-161v121h215l63 142h-278v122h331l95 213l79 -40l-75 -173h143v-122h-199l-61 -142h260v-121z" />
    <glyph glyph-name="lessequal.tosf" horiz-adv-x="798" 
d="M680 881l-377 -242l379 -240v-157l-580 389v18l578 393v-161zM113 68v112h569v-112h-569z" />
    <glyph glyph-name="greaterequal.tosf" horiz-adv-x="798" 
d="M117 399l375 240l-375 242v161l579 -393v-18l-579 -389v157zM686 180v-112h-569v112h569z" />
    <glyph glyph-name="exclam.sc" horiz-adv-x="335" 
d="M96 1190h140v-520l-17 -328h-106l-17 328v520zM80 0v186h174v-186h-174z" />
    <glyph glyph-name="ampersand.sc" horiz-adv-x="870" 
d="M653 993l-106 -49q-52 146 -154 146q-108 0 -108 -129q0 -81 41 -148l258 -426q32 144 32 313v23h218v-109h-111q-9 -206 -61 -348q85 -124 206 -155l-22 -123q-142 22 -248 147q-99 -151 -268 -151q-127 0 -205 84t-78 258q0 121 48.5 222t137.5 167q-81 124 -81 243
q0 108 62.5 177t176.5 69q191 0 262 -211zM346 100q110 0 182 140l-231 374q-53 -52 -81 -128.5t-28 -155.5q0 -230 158 -230z" />
    <glyph glyph-name="question.sc" horiz-adv-x="690" 
d="M633 922q0 -126 -64.5 -234t-179.5 -174l-10 -176h-107l-10 244q230 125 230 329q0 75 -35.5 121.5t-114.5 46.5q-148 0 -199 -176l-114 33q32 122 114.5 195t204.5 73q143 0 214 -80t71 -202zM240 0v186h174v-186h-174z" />
    <glyph glyph-name="grave.sc" horiz-adv-x="430" 
d="M37 1491h158l88 -217h-109z" />
    <glyph glyph-name="a.sc" horiz-adv-x="831" 
d="M240 305l-72 -305h-152l316 1190h168l313 -1190h-151l-74 305h-348zM412 1036l-144 -614h293l-145 614h-4z" />
    <glyph glyph-name="b.sc" horiz-adv-x="800" 
d="M696 891q0 -110 -34 -173.5t-111 -90.5v-4q192 -45 192 -283q0 -173 -72.5 -256.5t-236.5 -83.5h-328v1190h289q151 0 226 -78.5t75 -220.5zM252 559v-434h176q89 0 127.5 48.5t38.5 174.5q0 112 -40 161.5t-126 49.5h-176zM252 1061v-389h147q89 0 125.5 48t36.5 154
q0 100 -37.5 143.5t-122.5 43.5h-149z" />
    <glyph glyph-name="c.sc" horiz-adv-x="731" 
d="M393 1206q111 0 189.5 -69t103.5 -181l-111 -38q-39 159 -169 159q-90 0 -135.5 -61t-45.5 -178v-496q0 -107 45.5 -170t132.5 -63q73 0 112.5 38.5t59.5 135.5l113 -37q-27 -138 -99.5 -201t-197.5 -63q-145 0 -229 98t-84 260v498q0 172 83.5 270t231.5 98z" />
    <glyph glyph-name="d.sc" horiz-adv-x="858" 
d="M780 834v-478q0 -168 -88 -262t-248 -94h-338v1190h338q160 0 248 -94t88 -262zM633 358v469q0 234 -189 234h-188v-934h188q95 0 142 55.5t47 175.5z" />
    <glyph glyph-name="e.sc" horiz-adv-x="724" 
d="M106 1190h560v-131h-410v-385h322v-117h-322v-428h426v-129h-576v1190z" />
    <glyph glyph-name="f.sc" horiz-adv-x="710" 
d="M106 1190h558v-133h-408v-395h352v-123h-352v-539h-150v1190z" />
    <glyph glyph-name="g.sc" horiz-adv-x="821" 
d="M424 1206q119 0 202.5 -68.5t108.5 -185.5l-110 -41q-54 158 -197 158q-203 0 -203 -258v-455q0 -239 195 -239q64 0 109 24.5t79 83.5v252h-137v105h268v-582h-121v96q-74 -112 -227 -112q-148 0 -230.5 96t-82.5 276v455q0 181 87 288t259 107z" />
    <glyph glyph-name="h.sc" horiz-adv-x="862" 
d="M106 1190h150v-512h352v512h150v-1190h-150v545h-352v-545h-150v1190z" />
    <glyph glyph-name="i.sc" horiz-adv-x="411" 
d="M131 1190h150v-1190h-150v1190z" />
    <glyph glyph-name="j.sc" horiz-adv-x="393" 
d="M139 1190h148v-1010q0 -199 -93 -299t-270 -102l-12 119q117 0 172 65.5t55 214.5v1012z" />
    <glyph glyph-name="k.sc" horiz-adv-x="815" 
d="M797 0h-166l-277 549l-100 -150v-399h-148v1190h148v-627l350 627h170l-321 -531z" />
    <glyph glyph-name="l.sc" horiz-adv-x="667" 
d="M106 1190h146v-1057h385v-133h-531v1190z" />
    <glyph glyph-name="m.sc" horiz-adv-x="1095" 
d="M854 1190h135v-1190h-135v844h-4l-268 -629h-68l-268 637h-4v-852h-136v1190h138l301 -754h4z" />
    <glyph glyph-name="n.sc" horiz-adv-x="862" 
d="M106 1190h115l402 -838h4v838h131v-1190h-107l-409 860h-4v-860h-132v1190z" />
    <glyph glyph-name="o.sc" horiz-adv-x="825" 
d="M750 840v-492q0 -172 -87 -269t-249 -97q-165 0 -250.5 96.5t-85.5 269.5v492q0 174 85.5 270t250.5 96q163 0 249.5 -96t86.5 -270zM602 348v492q0 120 -46.5 177.5t-141.5 57.5q-96 0 -142.5 -57.5t-46.5 -177.5v-492q0 -120 46.5 -178.5t142.5 -58.5q188 0 188 237z
" />
    <glyph glyph-name="p.sc" horiz-adv-x="774" 
d="M434 1190q142 0 218.5 -93.5t76.5 -267.5q0 -171 -74 -265.5t-213 -94.5h-186v-469h-150v1190h328zM256 1061v-471h174q79 0 114.5 56t35.5 181t-35 179.5t-115 54.5h-174z" />
    <glyph glyph-name="q.sc" horiz-adv-x="825" 
d="M750 840v-492q0 -140 -59 -231.5t-171 -120.5l156 -195l-129 -51l-156 232q-155 7 -234 102.5t-79 263.5v492q0 174 85.5 270t250.5 96q163 0 249.5 -96t86.5 -270zM602 348v492q0 120 -46.5 177.5t-141.5 57.5q-96 0 -142.5 -57.5t-46.5 -177.5v-492q0 -120 46.5 -178.5
t142.5 -58.5q188 0 188 237z" />
    <glyph glyph-name="r.sc" horiz-adv-x="792" 
d="M608 0l-221 518h-131v-518h-150v1190h310q293 0 293 -326q0 -270 -185 -317l246 -547h-162zM256 1061v-424h150q87 0 123 52.5t36 166.5q0 112 -35 158.5t-120 46.5h-154z" />
    <glyph glyph-name="s.sc" horiz-adv-x="696" 
d="M352 -20q-116 0 -198.5 69.5t-106.5 196.5l123 39q42 -183 184 -183q156 0 156 183q0 58 -25 105t-65 81.5t-88 66.5t-96.5 67t-88.5 76t-65 102t-25 135q0 129 77.5 209.5t211.5 80.5q116 0 190.5 -63t106.5 -176l-115 -43q-38 157 -174 157q-147 0 -147 -159
q0 -54 24.5 -99t64 -78.5t87 -65.5t95 -68t87 -77t64 -101.5t24.5 -133.5q0 -154 -80.5 -237.5t-220.5 -83.5z" />
    <glyph glyph-name="t.sc" horiz-adv-x="667" 
d="M18 1190h631v-135h-241v-1055h-148v1055h-242v135z" />
    <glyph glyph-name="u.sc" horiz-adv-x="860" 
d="M618 1190h148v-852q0 -170 -86.5 -263t-247.5 -93t-249.5 92.5t-88.5 259.5v856h150v-856q0 -219 188 -219q93 0 139.5 51.5t46.5 167.5v856z" />
    <glyph glyph-name="v.sc" horiz-adv-x="813" 
d="M799 1190l-316 -1190h-153l-316 1190h162l230 -987h4l229 987h160z" />
    <glyph glyph-name="w.sc" horiz-adv-x="1257" 
d="M1217 1190l-240 -1190h-164l-182 913h-4l-183 -913h-163l-240 1190h152l174 -975h4l188 975h139l193 -981h4l174 981h148z" />
    <glyph glyph-name="x.sc" horiz-adv-x="798" 
d="M31 0l276 600l-268 590h160l198 -496h4l199 496h162l-268 -590l276 -600h-162l-207 504h-4l-209 -504h-157z" />
    <glyph glyph-name="y.sc" horiz-adv-x="778" 
d="M766 1190l-303 -793v-397h-150v397l-303 793h164l213 -637h4l215 637h160z" />
    <glyph glyph-name="z.sc" horiz-adv-x="724" 
d="M668 133v-133h-619v92l455 965h-428v133h594v-90l-455 -967h453z" />
    <glyph glyph-name="exclamdown.sc" horiz-adv-x="335" 
d="M240 0h-138v520l15 328h108l15 -328v-520zM258 1190v-186h-176v186h176z" />
    <glyph glyph-name="dieresis.sc" horiz-adv-x="430" 
d="M43 1499h113v-203h-113v203zM274 1499h113v-203h-113v203z" />
    <glyph glyph-name="macron.sc" horiz-adv-x="430" 
d="M412 1448v-102h-394v102h394z" />
    <glyph glyph-name="acute.sc" horiz-adv-x="430" 
d="M176 1499h156l-121 -225h-107z" />
    <glyph glyph-name="questiondown.sc" horiz-adv-x="690" 
d="M59 270q0 125 63.5 232.5t176.5 173.5l14 178h105l10 -246q-229 -123 -229 -327q0 -75 36 -121.5t115 -46.5q148 0 199 176l113 -33q-32 -123 -115 -195.5t-205 -72.5q-142 0 -212.5 79.5t-70.5 202.5zM453 1192v-186h-174v186h174z" />
    <glyph glyph-name="germandbls.sc" horiz-adv-x="1392" 
d="M352 -20q-116 0 -198.5 69.5t-106.5 196.5l123 39q42 -183 184 -183q156 0 156 183q0 58 -25 105t-65 81.5t-88 66.5t-96.5 67t-88.5 76t-65 102t-25 135q0 129 77.5 209.5t211.5 80.5q116 0 190.5 -63t106.5 -176l-115 -43q-38 157 -174 157q-147 0 -147 -159
q0 -54 24.5 -99t64 -78.5t87 -65.5t95 -68t87 -77t64 -101.5t24.5 -133.5q0 -154 -80.5 -237.5t-220.5 -83.5zM1049 -20q-116 0 -199 69.5t-107 196.5l123 39q42 -183 185 -183q155 0 155 183q0 58 -25 105t-65 81.5t-88 66.5t-96 67t-88 76t-65 102t-25 135q0 129 77 209.5
t211 80.5q116 0 190.5 -63t106.5 -176l-114 -43q-38 157 -174 157q-75 0 -111.5 -41.5t-36.5 -117.5q0 -54 24.5 -99t64 -78.5t87 -65.5t95.5 -68t87.5 -77t64 -101.5t24.5 -133.5q0 -154 -80.5 -237.5t-220.5 -83.5z" />
    <glyph glyph-name="agrave.sc" horiz-adv-x="831" 
d="M240 305l-72 -305h-152l316 1190h168l313 -1190h-151l-74 305h-348zM412 1036l-144 -614h293l-145 614h-4zM252 1491h158l88 -217h-109z" />
    <glyph glyph-name="aacute.sc" horiz-adv-x="831" 
d="M240 305l-72 -305h-152l316 1190h168l313 -1190h-151l-74 305h-348zM412 1036l-144 -614h293l-145 614h-4zM424 1499h156l-121 -225h-107z" />
    <glyph glyph-name="acircumflex.sc" horiz-adv-x="831" 
d="M240 305l-72 -305h-152l316 1190h168l313 -1190h-151l-74 305h-348zM412 1036l-144 -614h293l-145 614h-4zM342 1274h-121l144 225h104l143 -225h-123l-71 135h-4z" />
    <glyph glyph-name="atilde.sc" horiz-adv-x="831" 
d="M240 305l-72 -305h-152l316 1190h168l313 -1190h-151l-74 305h-348zM412 1036l-144 -614h293l-145 614h-4zM563 1497l82 -14q-12 -112 -43 -162.5t-90 -50.5q-28 0 -53 14t-42.5 34t-33 39.5t-30.5 33.5t-29 14q-23 0 -37 -27t-21 -96l-82 12q10 114 41.5 163.5
t91.5 49.5q33 0 63.5 -21t49 -45.5t40 -45.5t38.5 -21q25 0 36 25.5t19 97.5z" />
    <glyph glyph-name="adieresis.sc" horiz-adv-x="831" 
d="M240 305l-72 -305h-152l316 1190h168l313 -1190h-151l-74 305h-348zM412 1036l-144 -614h293l-145 614h-4zM244 1499h112v-203h-112v203zM475 1499h113v-203h-113v203z" />
    <glyph glyph-name="aring.sc" horiz-adv-x="831" 
d="M240 305l-72 -305h-152l316 1190h168l313 -1190h-151l-74 305h-348zM412 1036l-144 -614h293l-145 614h-4zM260 1417q0 69 44 113.5t112 44.5q67 0 110 -44.5t43 -113.5t-42.5 -112t-110.5 -43t-112 43t-44 112zM350 1417q0 -36 17 -58t49 -22q31 0 48 22.5t17 57.5
t-17 57.5t-48 22.5t-48.5 -22.5t-17.5 -57.5z" />
    <glyph glyph-name="ae.sc" horiz-adv-x="1171" 
d="M287 309l-115 -309h-152l463 1190h623v-131h-404l33 -385h289v-117h-281l37 -428h346v-129h-485l-25 309h-329zM557 1032l-225 -606h274l-45 606h-4z" />
    <glyph glyph-name="ccedilla.sc" horiz-adv-x="731" 
d="M393 1206q111 0 189.5 -69t103.5 -181l-111 -38q-39 159 -169 159q-90 0 -135.5 -61t-45.5 -178v-496q0 -107 45.5 -170t132.5 -63q73 0 112.5 38.5t59.5 135.5l113 -37q-26 -129 -90.5 -191.5t-173.5 -70.5l-8 -52q135 -22 135 -118q0 -64 -54 -106.5t-149 -51.5l-24 78
q59 12 83.5 28t24.5 43q0 53 -121 60l25 121q-121 19 -189.5 113.5t-68.5 240.5v498q0 172 83.5 270t231.5 98z" />
    <glyph glyph-name="egrave.sc" horiz-adv-x="724" 
d="M106 1190h560v-131h-410v-385h322v-117h-322v-428h426v-129h-576v1190zM217 1491h158l88 -217h-109z" />
    <glyph glyph-name="eacute.sc" horiz-adv-x="724" 
d="M106 1190h560v-131h-410v-385h322v-117h-322v-428h426v-129h-576v1190zM385 1499h156l-121 -225h-107z" />
    <glyph glyph-name="ecircumflex.sc" horiz-adv-x="724" 
d="M106 1190h560v-131h-410v-385h322v-117h-322v-428h426v-129h-576v1190zM315 1274h-120l143 225h104l144 -225h-123l-72 135h-4z" />
    <glyph glyph-name="edieresis.sc" horiz-adv-x="724" 
d="M106 1190h560v-131h-410v-385h322v-117h-322v-428h426v-129h-576v1190zM215 1499h113v-203h-113v203zM446 1499h113v-203h-113v203z" />
    <glyph glyph-name="igrave.sc" horiz-adv-x="411" 
d="M131 1190h150v-1190h-150v1190zM23 1491h157l88 -217h-108z" />
    <glyph glyph-name="iacute.sc" horiz-adv-x="411" 
d="M131 1190h150v-1190h-150v1190zM213 1499h156l-121 -225h-107z" />
    <glyph glyph-name="icircumflex.sc" horiz-adv-x="411" 
d="M131 1190h150v-1190h-150v1190zM133 1274h-121l144 225h104l143 -225h-122l-72 135h-4z" />
    <glyph glyph-name="idieresis.sc" horiz-adv-x="411" 
d="M131 1190h150v-1190h-150v1190zM33 1499h112v-203h-112v203zM264 1499h113v-203h-113v203z" />
    <glyph glyph-name="eth.sc" horiz-adv-x="872" 
d="M793 834v-478q0 -168 -88 -262t-248 -94h-338v565h-94v90h94v535h338q160 0 248 -94t88 -262zM645 358v469q0 234 -188 234h-189v-406h154v-90h-154v-438h189q95 0 141.5 55.5t46.5 175.5z" />
    <glyph glyph-name="ntilde.sc" horiz-adv-x="862" 
d="M106 1190h115l402 -838h4v838h131v-1190h-107l-409 860h-4v-860h-132v1190zM592 1497l82 -14q-12 -112 -43 -162.5t-90 -50.5q-34 0 -64.5 21t-48.5 46.5t-39 46.5t-37 21q-23 0 -36.5 -27t-20.5 -96l-82 12q10 114 41.5 163.5t91.5 49.5q33 0 63.5 -21t49 -45.5
t40 -45.5t38.5 -21q25 0 36 25.5t19 97.5z" />
    <glyph glyph-name="ograve.sc" horiz-adv-x="825" 
d="M750 840v-492q0 -172 -87 -269t-249 -97q-165 0 -250.5 96.5t-85.5 269.5v492q0 174 85.5 270t250.5 96q163 0 249.5 -96t86.5 -270zM602 348v492q0 120 -46.5 177.5t-141.5 57.5q-96 0 -142.5 -57.5t-46.5 -177.5v-492q0 -120 46.5 -178.5t142.5 -58.5q188 0 188 237z
M238 1491h157l88 -217h-108z" />
    <glyph glyph-name="oacute.sc" horiz-adv-x="825" 
d="M750 840v-492q0 -172 -87 -269t-249 -97q-165 0 -250.5 96.5t-85.5 269.5v492q0 174 85.5 270t250.5 96q163 0 249.5 -96t86.5 -270zM602 348v492q0 120 -46.5 177.5t-141.5 57.5q-96 0 -142.5 -57.5t-46.5 -177.5v-492q0 -120 46.5 -178.5t142.5 -58.5q188 0 188 237z
M428 1499h156l-121 -225h-107z" />
    <glyph glyph-name="ocircumflex.sc" horiz-adv-x="825" 
d="M750 840v-492q0 -172 -87 -269t-249 -97q-165 0 -250.5 96.5t-85.5 269.5v492q0 174 85.5 270t250.5 96q163 0 249.5 -96t86.5 -270zM602 348v492q0 120 -46.5 177.5t-141.5 57.5q-96 0 -142.5 -57.5t-46.5 -177.5v-492q0 -120 46.5 -178.5t142.5 -58.5q188 0 188 237z
M342 1274h-121l144 225h104l143 -225h-123l-71 135h-4z" />
    <glyph glyph-name="otilde.sc" horiz-adv-x="825" 
d="M750 840v-492q0 -172 -87 -269t-249 -97q-165 0 -250.5 96.5t-85.5 269.5v492q0 174 85.5 270t250.5 96q163 0 249.5 -96t86.5 -270zM602 348v492q0 120 -46.5 177.5t-141.5 57.5q-96 0 -142.5 -57.5t-46.5 -177.5v-492q0 -120 46.5 -178.5t142.5 -58.5q188 0 188 237z
M569 1497l82 -14q-12 -112 -43 -162.5t-90 -50.5q-28 0 -53 14t-42.5 34t-33 39.5t-30.5 33.5t-29 14q-23 0 -37 -27t-21 -96l-82 12q10 113 42 163t92 50q33 0 63.5 -21t48.5 -45.5t39.5 -45.5t38.5 -21q25 0 36 25.5t19 97.5z" />
    <glyph glyph-name="odieresis.sc" horiz-adv-x="825" 
d="M750 840v-492q0 -172 -87 -269t-249 -97q-165 0 -250.5 96.5t-85.5 269.5v492q0 174 85.5 270t250.5 96q163 0 249.5 -96t86.5 -270zM602 348v492q0 120 -46.5 177.5t-141.5 57.5q-96 0 -142.5 -57.5t-46.5 -177.5v-492q0 -120 46.5 -178.5t142.5 -58.5q188 0 188 237z
M242 1499h112v-203h-112v203zM473 1499h113v-203h-113v203z" />
    <glyph glyph-name="oslash.sc" horiz-adv-x="825" 
d="M750 840v-492q0 -172 -87 -269t-249 -97q-174 0 -262 108l-48 -80l-53 39l62 107q-35 81 -35 192v492q0 174 85.5 270t250.5 96q169 0 256 -104l53 88l55 -41l-67 -113q39 -83 39 -196zM602 348v508l-364 -620q37 -125 176 -125q188 0 188 237zM225 336l361 622
q-38 117 -172 117q-96 0 -142.5 -57.5t-46.5 -177.5v-504z" />
    <glyph glyph-name="ugrave.sc" horiz-adv-x="860" 
d="M618 1190h148v-852q0 -170 -86.5 -263t-247.5 -93t-249.5 92.5t-88.5 259.5v856h150v-856q0 -219 188 -219q93 0 139.5 51.5t46.5 167.5v856zM262 1491h158l88 -217h-109z" />
    <glyph glyph-name="uacute.sc" horiz-adv-x="860" 
d="M618 1190h148v-852q0 -170 -86.5 -263t-247.5 -93t-249.5 92.5t-88.5 259.5v856h150v-856q0 -219 188 -219q93 0 139.5 51.5t46.5 167.5v856zM442 1499h156l-121 -225h-106z" />
    <glyph glyph-name="ucircumflex.sc" horiz-adv-x="860" 
d="M618 1190h148v-852q0 -170 -86.5 -263t-247.5 -93t-249.5 92.5t-88.5 259.5v856h150v-856q0 -219 188 -219q93 0 139.5 51.5t46.5 167.5v856zM360 1274h-120l143 225h104l144 -225h-123l-72 135h-4z" />
    <glyph glyph-name="udieresis.sc" horiz-adv-x="860" 
d="M618 1190h148v-852q0 -170 -86.5 -263t-247.5 -93t-249.5 92.5t-88.5 259.5v856h150v-856q0 -219 188 -219q93 0 139.5 51.5t46.5 167.5v856zM262 1499h113v-203h-113v203zM494 1499h112v-203h-112v203z" />
    <glyph glyph-name="yacute.sc" horiz-adv-x="778" 
d="M766 1190l-303 -793v-397h-150v397l-303 793h164l213 -637h4l215 637h160zM385 1499h156l-121 -225h-107z" />
    <glyph glyph-name="thorn.sc" horiz-adv-x="774" 
d="M434 975q142 0 218.5 -93.5t76.5 -267.5q0 -173 -74 -266.5t-213 -93.5h-186v-254h-150v1190h150v-215h178zM256 846v-471h174q79 0 114.5 56t35.5 181t-35 179.5t-115 54.5h-174z" />
    <glyph glyph-name="ydieresis.sc" horiz-adv-x="778" 
d="M766 1190l-303 -793v-397h-150v397l-303 793h164l213 -637h4l215 637h160zM217 1499h113v-203h-113v203zM449 1499h112v-203h-112v203z" />
    <glyph glyph-name="dotlessi.sc" horiz-adv-x="411" 
d="M131 1190h150v-1190h-150v1190z" />
    <glyph glyph-name="ij.sc" horiz-adv-x="804" 
d="M131 1190h150v-1190h-150v1190zM551 1190h147v-1010q0 -199 -92.5 -299t-269.5 -102l-12 119q117 0 172 65.5t55 214.5v1012z" />
    <glyph glyph-name="lslash.sc" horiz-adv-x="673" 
d="M109 1190h145v-512l244 141v-127l-244 -139v-420h385v-133h-530v487l-86 -49v127l86 47v578z" />
    <glyph glyph-name="oe.sc" horiz-adv-x="1218" 
d="M604 1190h549v-131h-401v-385h319v-117h-319v-428h422v-129h-570v88h-4q-65 -106 -219 -106q-142 0 -222.5 97.5t-80.5 268.5v492q0 172 80.5 269t222.5 97q154 0 219 -106h4v90zM604 352v484q0 122 -46.5 179.5t-143.5 57.5q-96 0 -142.5 -57.5t-46.5 -179.5v-484
q0 -122 46.5 -180.5t142.5 -58.5q97 0 143.5 58t46.5 181z" />
    <glyph glyph-name="scaron.sc" horiz-adv-x="696" 
d="M352 -20q-116 0 -198.5 69.5t-106.5 196.5l123 39q42 -183 184 -183q156 0 156 183q0 58 -25 105t-65 81.5t-88 66.5t-96.5 67t-88.5 76t-65 102t-25 135q0 129 77.5 209.5t211.5 80.5q116 0 190.5 -63t106.5 -176l-115 -43q-38 157 -174 157q-147 0 -147 -159
q0 -54 24.5 -99t64 -78.5t87 -65.5t95 -68t87 -77t64 -101.5t24.5 -133.5q0 -154 -80.5 -237.5t-220.5 -83.5zM166 1499h119l73 -141h4l76 141h117l-141 -225h-105z" />
    <glyph glyph-name="zcaron.sc" horiz-adv-x="724" 
d="M668 133v-133h-619v92l455 965h-428v133h594v-90l-455 -967h453zM182 1499h119l74 -141h4l76 141h116l-141 -225h-104z" />
    <glyph glyph-name="longs.sc" horiz-adv-x="696" 
d="M352 -20q-116 0 -198.5 69.5t-106.5 196.5l123 39q42 -183 184 -183q156 0 156 183q0 58 -25 105t-65 81.5t-88 66.5t-96.5 67t-88.5 76t-65 102t-25 135q0 129 77.5 209.5t211.5 80.5q116 0 190.5 -63t106.5 -176l-115 -43q-38 157 -174 157q-147 0 -147 -159
q0 -54 24.5 -99t64 -78.5t87 -65.5t95 -68t87 -77t64 -101.5t24.5 -133.5q0 -154 -80.5 -237.5t-220.5 -83.5z" />
    <glyph glyph-name="circumflex.sc" horiz-adv-x="430" 
d="M141 1274h-121l144 225h104l144 -225h-123l-72 135h-4z" />
    <glyph glyph-name="caron.sc" horiz-adv-x="430" 
d="M20 1499h119l74 -141h4l76 141h117l-142 -225h-104z" />
    <glyph glyph-name="breve.sc" horiz-adv-x="430" 
d="M23 1493h104q4 -86 23.5 -114.5t64.5 -28.5q43 0 63 29.5t23 113.5h107q-13 -134 -54.5 -180.5t-138.5 -46.5q-96 0 -137.5 46.5t-54.5 180.5z" />
    <glyph glyph-name="dotaccent.sc" horiz-adv-x="430" 
d="M84 1499h141v-203h-141v203z" />
    <glyph glyph-name="ring.sc" horiz-adv-x="430" 
d="M59 1417q0 69 44 113.5t112 44.5q67 0 110.5 -44.5t43.5 -113.5t-43 -112t-111 -43t-112 43t-44 112zM150 1417q0 -36 16.5 -58t48.5 -22q31 0 48.5 22.5t17.5 57.5t-17.5 57.5t-48.5 22.5t-48 -22.5t-17 -57.5z" />
    <glyph glyph-name="tilde.sc" horiz-adv-x="430" 
d="M365 1497l81 -14q-12 -112 -43 -162.5t-90 -50.5q-28 0 -53 14t-42.5 34t-33 39.5t-30.5 33.5t-29 14q-23 0 -36.5 -27t-20.5 -96l-82 12q10 114 41.5 163.5t91.5 49.5q33 0 63.5 -21t48.5 -45.5t39.5 -45.5t38.5 -21q25 0 37 25.5t19 97.5z" />
    <glyph glyph-name="hungarumlaut.sc" horiz-adv-x="430" 
d="M125 1499h137l-104 -225h-90zM344 1499h137l-129 -225h-92z" />
    <glyph glyph-name="gravecomb.sc" 
d="M-586 1491h158l88 -217h-109z" />
    <glyph glyph-name="acutecomb.sc" 
d="M-395 1499h155l-120 -225h-107z" />
    <glyph glyph-name="uni0302.sc" 
d="M-481 1274h-121l143 225h105l143 -225h-123l-72 135h-4z" />
    <glyph glyph-name="tildecomb.sc" 
d="M-254 1497l82 -14q-12 -112 -43 -162.5t-90 -50.5q-34 0 -64.5 21t-48.5 46.5t-39 46.5t-37 21q-23 0 -36.5 -27t-20.5 -96l-82 12q10 114 41.5 163.5t91.5 49.5q33 0 63.5 -21t49 -45.5t40 -45.5t38.5 -21q25 0 36 25.5t19 97.5z" />
    <glyph glyph-name="uni0304.sc" 
d="M-20 1440v-103h-394v103h394z" />
    <glyph glyph-name="uni0306.sc" 
d="M-408 1503h105q4 -86 23.5 -114.5t64.5 -28.5q43 0 63 29.5t23 113.5h106q-13 -134 -54 -180.5t-138 -46.5q-96 0 -138 47t-55 180z" />
    <glyph glyph-name="uni0307.sc" 
d="M-344 1491h141v-203h-141v203z" />
    <glyph glyph-name="uni0308.sc" 
d="M-385 1491h113v-203h-113v203zM-154 1491h113v-203h-113v203z" />
    <glyph glyph-name="uni030A.sc" 
d="M-360 1417q0 69 43.5 113.5t111.5 44.5q67 0 110.5 -44.5t43.5 -113.5t-43 -112t-111 -43t-111.5 43t-43.5 112zM-270 1417q0 -36 16.5 -58t48.5 -22q31 0 48.5 22.5t17.5 57.5t-17.5 57.5t-48.5 22.5t-48 -22.5t-17 -57.5z" />
    <glyph glyph-name="uni030B.sc" 
d="M-303 1497h137l-104 -225h-90zM-84 1497h137l-129 -225h-92z" />
    <glyph glyph-name="uni030C.sc" 
d="M-541 1499h119l74 -141h4l76 141h116l-141 -225h-104z" />
    <glyph glyph-name="uni0326.sc" 
d="M-465 -193v127h162v-81q0 -107 -38 -154.5t-130 -54.5l-6 61q45 7 61.5 27.5t16.5 68.5z" />
    <glyph glyph-name="uni0327.sc" 
d="M-276 33l86 -4l-17 -97q135 -22 135 -118q0 -64 -54 -106.5t-148 -51.5l-25 78q59 12 84 28t25 43q0 53 -121 60z" />
    <glyph glyph-name="uni0328.sc" 
d="M-207 27l70 -27q-52 0 -83.5 -43.5t-31.5 -97.5q0 -92 84 -92q56 0 105 36l30 -84q-61 -55 -164 -55q-85 0 -129.5 40.5t-44.5 113.5q0 69 42.5 127t121.5 82z" />
    <glyph glyph-name="uni1E9E.sc" horiz-adv-x="856" 
d="M106 1190h646v-96l-207 -369q55 -6 95.5 -27t71.5 -62t46.5 -110t15.5 -166q0 -195 -70.5 -283.5t-207.5 -88.5q-117 0 -187 57l25 117q64 -47 139 -47q74 0 114 53t40 192q0 75 -11 124.5t-33.5 75.5t-50.5 36t-69 10h-72v105l197 352h-336v-1063h-146v1190z" />
    <glyph glyph-name="uni203D.sc" horiz-adv-x="743" 
d="M686 918q0 -125 -69 -226.5t-197 -169.5l-8 -184h-101l-10 272v471q-112 -33 -158 -178l-114 33q35 122 124.5 196t221.5 74q155 0 233 -81.5t78 -206.5zM551 911q0 71 -32.5 118.5t-102.5 57.5v-444h4q131 106 131 268zM272 0v186h174v-186h-174z" />
    <glyph glyph-name="uni2E18.sc" horiz-adv-x="743" 
d="M53 274q0 124 69 226t197 170l9 184h100l10 -272v-473q113 33 158 180l115 -33q-34 -122 -123.5 -196t-222.5 -74q-155 0 -233.5 81.5t-78.5 206.5zM188 281q0 -157 136 -179v445q-136 -103 -136 -266zM467 1192v-186h-174v186h174z" />
    <glyph glyph-name="uniFB00.sc" horiz-adv-x="1421" 
d="M106 1190h558v-133h-408v-395h352v-123h-352v-539h-150v1190zM817 1190h557v-133h-407v-395h352v-123h-352v-539h-150v1190z" />
    <glyph glyph-name="fi.sc" horiz-adv-x="1122" 
d="M106 1190h558v-133h-408v-395h352v-123h-352v-539h-150v1190zM842 1190h149v-1190h-149v1190z" />
    <glyph glyph-name="fl.sc" horiz-adv-x="1378" 
d="M106 1190h558v-133h-408v-395h352v-123h-352v-539h-150v1190zM817 1190h146v-1057h385v-133h-531v1190z" />
    <glyph glyph-name="uniFB03.sc" horiz-adv-x="1832" 
d="M106 1190h558v-133h-408v-395h352v-123h-352v-539h-150v1190zM817 1190h557v-133h-407v-395h352v-123h-352v-539h-150v1190zM1552 1190h150v-1190h-150v1190z" />
    <glyph glyph-name="uniFB04.sc" horiz-adv-x="2088" 
d="M106 1190h558v-133h-408v-395h352v-123h-352v-539h-150v1190zM817 1190h557v-133h-407v-395h352v-123h-352v-539h-150v1190zM1528 1190h145v-1057h385v-133h-530v1190z" />
    <glyph glyph-name="parenleft.case" horiz-adv-x="442" 
d="M106 416v651q0 180 23.5 308t70.5 204.5t112.5 111.5t154.5 35h45v-108h-45q-54 0 -95 -27t-73 -88.5t-49 -171t-17 -264.5v-651q0 -154 17 -263.5t49 -171t73 -89t95 -27.5h45v-109h-45q-119 0 -197 62.5t-121 210.5t-43 387z" />
    <glyph glyph-name="parenright.case" horiz-adv-x="442" 
d="M334 1067v-651q0 -239 -42.5 -387t-120.5 -210.5t-198 -62.5h-43v111h43q54 0 95 27t73 88.5t49 170.5t17 263v651q0 155 -17 264t-49 170t-73 88t-95 27h-43v110h43q120 0 198 -62.5t120.5 -210t42.5 -386.5z" />
    <glyph glyph-name="hyphen.case" horiz-adv-x="452" 
d="M41 674v135h371v-135h-371z" />
    <glyph glyph-name="at.case" horiz-adv-x="1282" 
d="M934 1069h-47l-41 -532q-2 -14 -2 -39q0 -62 22.5 -88.5t69.5 -26.5q46 0 75.5 24.5t47.5 93.5t18 187v352q0 237 -109 365.5t-315 128.5q-214 0 -333 -143.5t-119 -382.5v-519q0 -276 124 -416.5t343 -140.5q136 0 232 42.5t171 131.5l80 -61q-182 -223 -485 -223
q-277 0 -428.5 170.5t-151.5 494.5v523q0 137 37.5 253.5t108 202.5t178.5 134.5t243 48.5q257 0 397 -167t140 -442v-350q0 -215 -68 -319.5t-190 -104.5q-138 0 -178 111q-77 -117 -215 -117q-97 0 -148 72.5t-51 212.5q0 295 113 463t315 168h168zM719 522l43 533h-23
q-125 0 -195.5 -130.5t-70.5 -375.5q0 -94 23.5 -131t70.5 -37q100 0 152 141z" />
    <glyph glyph-name="bracketleft.case" horiz-adv-x="436" 
d="M123 -244v1970h416v-110h-281v-1749h281v-111h-416z" />
    <glyph glyph-name="bracketright.case" horiz-adv-x="440" 
d="M315 1726v-1970h-415v115h278v1741h-278v114h415z" />
    <glyph glyph-name="grave.case" horiz-adv-x="438" 
d="M-10 1782h184l121 -223h-125z" />
    <glyph glyph-name="braceleft.case" horiz-adv-x="450" 
d="M37 690v98q149 19 149 140q0 37 -32.5 186t-32.5 260q0 173 99 261.5t276 88.5h45v-100h-45q-116 0 -179 -68t-63 -198q0 -102 31.5 -246.5t31.5 -187.5q0 -144 -133 -183v-4q133 -39 133 -180q0 -45 -31.5 -186t-31.5 -242q0 -132 63 -203t179 -71h45v-99h-45
q-178 0 -276.5 90.5t-98.5 266.5q0 111 32.5 256.5t32.5 183.5q0 59 -39 94t-110 43z" />
    <glyph glyph-name="braceright.case" horiz-adv-x="450" 
d="M414 788v-98q-71 -8 -110.5 -43t-39.5 -94q0 -38 33 -183.5t33 -256.5q0 -176 -98.5 -266.5t-276.5 -90.5h-45v101h45q115 0 177.5 70.5t62.5 201.5q0 101 -31 242t-31 186q0 140 131 180v4q-131 40 -131 183q0 43 31 187.5t31 246.5q0 130 -63 197t-179 67h-43v102h45
q176 0 275.5 -88.5t99.5 -261.5q0 -111 -33 -260t-33 -186q0 -121 150 -140z" />
    <glyph glyph-name="exclamdown.case" horiz-adv-x="389" 
d="M266 0h-147v649l16 418h115l16 -414v-653zM283 1485v-199h-183v199h183z" />
    <glyph glyph-name="dieresis.case" horiz-adv-x="438" 
d="M25 1782h118v-199h-118v199zM297 1782h117v-199h-117v199z" />
    <glyph glyph-name="guillemotleft.case" horiz-adv-x="690" 
d="M653 1104l-215 -363l215 -364h-131l-211 364l211 363h131zM379 1104l-215 -363l215 -364h-131l-211 364l211 363h131z" />
    <glyph glyph-name="uni00AD.case" horiz-adv-x="452" 
d="M41 674v135h371v-135h-371z" />
    <glyph glyph-name="macron.case" horiz-adv-x="438" 
d="M436 1733v-103h-434v103h434z" />
    <glyph glyph-name="acute.case" horiz-adv-x="438" 
d="M203 1782h184l-164 -223h-125z" />
    <glyph glyph-name="periodcentered.case" horiz-adv-x="395" 
d="M92 821q0 47 31 82t74 35t74.5 -35t31.5 -82t-31.5 -80.5t-74.5 -33.5t-74 33.5t-31 80.5z" />
    <glyph glyph-name="guillemotright.case" horiz-adv-x="690" 
d="M311 377l213 364l-213 363h131l209 -363l-209 -364h-131zM37 377l213 364l-213 363h131l209 -363l-209 -364h-131z" />
    <glyph glyph-name="questiondown.case" horiz-adv-x="796" 
d="M760 305q-35 -147 -130 -236t-233 -89q-84 0 -147.5 27t-101 75t-56 108.5t-18.5 133.5q0 154 75 289.5t205 220.5l17 233h108l10 -305q-266 -172 -266 -428q0 -99 42.5 -159t137.5 -60q179 0 236 225zM514 1485v-199h-182v199h182z" />
    <glyph glyph-name="circumflex.case" horiz-adv-x="438" 
d="M139 1559h-129l148 223h121l147 -223h-127l-80 131z" />
    <glyph glyph-name="caron.case" horiz-adv-x="438" 
d="M18 1782h123l78 -133l80 133h123l-152 -223h-102z" />
    <glyph glyph-name="breve.case" horiz-adv-x="438" 
d="M12 1782h111q4 -86 27 -117t69 -31q45 0 67.5 31t28.5 117h109q-15 -133 -60.5 -183.5t-144.5 -50.5q-100 0 -146 50.5t-61 183.5z" />
    <glyph glyph-name="dotaccent.case" horiz-adv-x="438" 
d="M86 1782h152v-199h-152v199z" />
    <glyph glyph-name="ring.case" horiz-adv-x="438" 
d="M66 1677q0 63 43 103.5t110 40.5t110.5 -40.5t43.5 -103.5t-43 -102t-111 -39t-110.5 39t-42.5 102zM156 1677q0 -30 16.5 -49.5t46.5 -19.5t48 19.5t18 49.5q0 31 -18 51.5t-48 20.5t-46.5 -20t-16.5 -52z" />
    <glyph glyph-name="tilde.case" horiz-adv-x="438" 
d="M371 1784l80 -12q-14 -118 -46 -173t-96 -55q-31 0 -60.5 22t-47.5 49t-38.5 49t-35.5 22q-24 0 -37 -29t-24 -103l-78 13q12 119 43.5 173t95.5 54q32 0 61.5 -22t48 -48.5t39 -48.5t35.5 -22q24 0 37.5 29.5t22.5 101.5z" />
    <glyph glyph-name="hungarumlaut.case" horiz-adv-x="438" 
d="M133 1782h152l-123 -223h-94zM369 1782h151l-153 -223h-97z" />
    <glyph glyph-name="gravecomb.case" 
d="M-702 1782h184l121 -223h-125z" />
    <glyph glyph-name="acutecomb.case" 
d="M-463 1782h184l-163 -223h-125z" />
    <glyph glyph-name="uni0302.case" 
d="M-563 1559h-129l147 223h121l148 -223h-127l-80 131z" />
    <glyph glyph-name="tildecomb.case" 
d="M-332 1784l80 -12q-14 -118 -45.5 -173t-95.5 -55q-31 0 -60.5 22t-47.5 49t-38.5 49t-35.5 22q-24 0 -37.5 -29.5t-24.5 -102.5l-78 13q12 119 44 173t96 54q32 0 61.5 -22t48 -48.5t39 -48.5t35.5 -22q24 0 37 29.5t22 101.5z" />
    <glyph glyph-name="uni0304.case" 
d="M16 1724v-102h-434v102h434z" />
    <glyph glyph-name="uni0306.case" 
d="M-420 1849h111q4 -86 27 -116.5t69 -30.5q45 0 67.5 30.5t28.5 116.5h109q-15 -133 -60.5 -183t-144.5 -50q-100 0 -146 50t-61 183z" />
    <glyph glyph-name="uni0307.case" 
d="M-346 1790h151v-199h-151v199z" />
    <glyph glyph-name="uni0308.case" 
d="M-391 1790h119v-199h-119v199zM-119 1790h117v-199h-117v199z" />
    <glyph glyph-name="uni030A.case" 
d="M-371 1677q0 63 43.5 103.5t110.5 40.5t110.5 -40.5t43.5 -103.5t-43 -102t-111 -39t-111 39t-43 102zM-281 1677q0 -30 17 -49.5t47 -19.5t47.5 19.5t17.5 49.5q0 32 -17.5 52t-47.5 20t-47 -20t-17 -52z" />
    <glyph glyph-name="uni030B.case" 
d="M-303 1835h151l-122 -223h-95zM-68 1835h152l-154 -223h-96z" />
    <glyph glyph-name="uni030C.case" 
d="M-608 1782h123l77 -133l80 133h123l-151 -223h-103z" />
    <glyph glyph-name="uni0326.case" 
d="M-465 -193v127h162v-81q0 -107 -38 -154.5t-130 -54.5l-6 61q45 7 61.5 27.5t16.5 68.5z" />
    <glyph glyph-name="uni0327.case" 
d="M-276 33l86 -4l-17 -97q135 -22 135 -118q0 -64 -54 -106.5t-148 -51.5l-25 78q59 12 84 28t25 43q0 53 -121 60z" />
    <glyph glyph-name="uni0328.case" 
d="M-193 12l68 -12q-61 -23 -95 -66.5t-34 -83.5q0 -92 84 -92q53 0 104 37l31 -84q-61 -55 -162 -55q-87 0 -130.5 37.5t-43.5 107.5q0 72 47 126.5t131 84.5z" />
    <glyph glyph-name="uni2010.case" horiz-adv-x="452" 
d="M41 674v135h371v-135h-371z" />
    <glyph glyph-name="uni2011.case" horiz-adv-x="452" 
d="M41 674v135h371v-135h-371z" />
    <glyph glyph-name="endash.case" horiz-adv-x="684" 
d="M41 682v119h604v-119h-604z" />
    <glyph glyph-name="emdash.case" horiz-adv-x="983" 
d="M41 680v121h903v-121h-903z" />
    <glyph glyph-name="bullet.case" horiz-adv-x="442" 
d="M35 801q0 92 54 154.5t134 62.5t134.5 -62.5t54.5 -154.5q0 -89 -55 -151t-134 -62t-133.5 62t-54.5 151z" />
    <glyph glyph-name="guilsinglleft.case" horiz-adv-x="415" 
d="M379 1104l-215 -363l215 -364h-131l-211 364l211 363h131z" />
    <glyph glyph-name="guilsinglright.case" horiz-adv-x="415" 
d="M37 377l213 364l-213 363h131l209 -363l-209 -364h-131z" />
    <glyph glyph-name="uni2E18.case" horiz-adv-x="854" 
d="M811 305q-35 -146 -138.5 -238t-252.5 -92q-176 0 -264 98.5t-88 254.5q0 153 79.5 280t223.5 213l8 246h108l13 -369v-587q137 42 188 229zM213 334q0 -206 162 -230v588q-162 -142 -162 -358zM526 1485v-199h-182v199h182z" />
    <glyph glyph-name="ampersand.ss01" horiz-adv-x="942" 
d="M125 1184q0 142 75.5 230.5t213.5 88.5q126 0 198 -69.5t72 -182.5q0 -66 -19 -125.5t-60.5 -119t-74.5 -97t-94 -100.5l246 -420q66 179 66 397h116q0 -307 -104 -520q48 -61 98 -95.5t115 -53.5l-25 -135q-155 34 -264 161q-129 -161 -315 -161q-156 0 -241 92t-85 280
q0 132 61 241.5t170 227.5l-53 88q-96 162 -96 273zM195 362q0 -124 50.5 -185.5t141.5 -61.5q129 0 225 139l-270 453q-70 -83 -108.5 -165.5t-38.5 -179.5zM553 1237q0 66 -34 103.5t-103 37.5q-152 0 -152 -196q0 -81 62 -181l45 -77q90 95 136 166.5t46 146.5z" />
    <glyph glyph-name="ampersand.sc.ss01" horiz-adv-x="851" 
d="M115 952q0 107 69.5 180.5t200.5 73.5q111 0 173.5 -56t62.5 -146q0 -42 -15 -85.5t-32 -74t-56 -75t-59.5 -65t-69.5 -67.5l223 -320q60 132 60 316h114q0 -242 -96 -420q85 -88 180 -107l-16 -118q-122 11 -236 125q-117 -127 -284 -127q-139 0 -217 74.5t-78 228.5
q0 101 51.5 187t140.5 173l-16 25q-45 64 -72.5 138.5t-27.5 139.5zM182 295q0 -95 44 -143t124 -48q112 0 197 101l-246 346q-119 -129 -119 -256zM496 987q0 47 -29 73.5t-84 26.5q-73 0 -105 -34.5t-32 -104.5q0 -46 17 -100t46 -96l13 -19q86 79 130 136.5t44 117.5z
" />
    <glyph glyph-name="ampersand.ss02" horiz-adv-x="894" 
d="M629 985l131 31v-180h88v-127h-88v-537q0 -72 61 -72h31v-108h-72q-54 0 -92.5 28t-58.5 76q-99 -116 -256 -116q-154 0 -238 100t-84 311q0 311 209 387q-158 84 -158 340q0 183 81.5 285t236.5 102q248 0 321 -276l-116 -35q-29 94 -77 137t-124 43q-88 0 -131 -63.5
t-43 -202.5q0 -152 60.5 -212t172.5 -60h140zM410 115q125 0 206 112v482h-157q-127 0 -191.5 -74.5t-64.5 -235.5q0 -147 50.5 -215.5t156.5 -68.5z" />
    <glyph glyph-name="ampersand.sc.ss02" horiz-adv-x="774" 
d="M539 786l125 27v-139h73v-117h-73v-405q0 -60 49 -60h24v-100h-67q-44 0 -77.5 23.5t-51.5 62.5q-88 -94 -224 -94q-131 0 -204.5 81.5t-73.5 247.5q0 245 174 308q-129 67 -129 266q0 149 74 233t211 84q208 0 278 -229l-110 -35q-25 74 -63.5 107.5t-98.5 33.5
q-76 0 -113 -48t-37 -154q0 -115 50.5 -160t142.5 -45h114zM352 109q107 0 176 92v356h-133q-105 0 -158 -56t-53 -175q0 -112 41 -164.5t127 -52.5z" />
    <glyph glyph-name="orn001" horiz-adv-x="1024" 
d="M883 1077v-678q0 -198 -97 -308.5t-274 -110.5q-179 0 -275 110.5t-96 308.5v678q0 202 96.5 315t274.5 113q177 0 274 -113.5t97 -314.5zM225 815v-434q0 -162 74.5 -246t212.5 -84t212.5 84t74.5 246v434q0 166 -73 253t-214 87t-214 -87t-73 -253zM326 754q0 29 19 50
t48 21q30 0 49 -21t19 -50q0 -32 -19 -54t-49 -22q-29 0 -48 22.5t-19 53.5zM567 754q0 29 19 50t49 21t50 -21t20 -50q0 -31 -20 -53.5t-50 -22.5q-29 0 -48.5 22.5t-19.5 53.5zM477 420v244h74v-244h-74zM365 287v71h311v-71h-311zM352 774q0 -10 7 -17t16 -7q11 0 17.5 7
t6.5 17q0 11 -7 18t-17 7q-9 0 -16 -7.5t-7 -17.5zM598 774q0 -10 7 -17t16 -7t16.5 7t7.5 17t-7.5 17.5t-16.5 7.5t-16 -7.5t-7 -17.5z" />
    </font>
</defs>
</svg>
